<?xml version="1.0" encoding="utf-8" standalone="no"?>
<!DOCTYPE svg PUBLIC "-//W3C//DTD SVG 1.1//EN"
  "http://www.w3.org/Graphics/SVG/1.1/DTD/svg11.dtd">
<svg xmlns:xlink="http://www.w3.org/1999/xlink" width="576pt" height="432pt" viewBox="0 0 576 432" xmlns="http://www.w3.org/2000/svg" version="1.1">
 <metadata>
  <rdf:RDF xmlns:dc="http://purl.org/dc/elements/1.1/" xmlns:cc="http://creativecommons.org/ns#" xmlns:rdf="http://www.w3.org/1999/02/22-rdf-syntax-ns#">
   <cc:Work>
    <dc:type rdf:resource="http://purl.org/dc/dcmitype/StillImage"/>
    <dc:date>2025-01-16T19:51:54.821442</dc:date>
    <dc:format>image/svg+xml</dc:format>
    <dc:creator>
     <cc:Agent>
      <dc:title>Matplotlib v3.7.5, https://matplotlib.org/</dc:title>
     </cc:Agent>
    </dc:creator>
   </cc:Work>
  </rdf:RDF>
 </metadata>
 <defs>
  <style type="text/css">*{stroke-linejoin: round; stroke-linecap: butt}</style>
 </defs>
 <g id="figure_1">
  <g id="patch_1">
   <path d="M 0 432 
L 576 432 
L 576 0 
L 0 0 
z
" style="fill: #ffffff"/>
  </g>
  <g id="axes_1">
   <g id="patch_2">
    <path d="M 64.73 379.96 
L 511.18 379.96 
L 511.18 55.968 
L 64.73 55.968 
z
" style="fill: #ffffff"/>
   </g>
   <g id="matplotlib.axis_1">
    <g id="xtick_1">
     <g id="line2d_1">
      <path d="M 85.023182 379.96 
L 85.023182 55.968 
" clip-path="url(#pb95654b0d6)" style="fill: none; stroke-dasharray: 1.85,0.8; stroke-dashoffset: 0; stroke: #b0b0b0; stroke-opacity: 0.7; stroke-width: 0.5"/>
     </g>
     <g id="line2d_2">
      <defs>
       <path id="m673987a1d4" d="M 0 0 
L 0 3.5 
" style="stroke: #000000; stroke-width: 0.8"/>
      </defs>
      <g>
       <use xlink:href="#m673987a1d4" x="85.023182" y="379.96" style="stroke: #000000; stroke-width: 0.8"/>
      </g>
     </g>
     <g id="text_1">
      <!-- 0 -->
      <g transform="translate(81.841932 394.558437) scale(0.1 -0.1)">
       <defs>
        <path id="DejaVuSans-30" d="M 2034 4250 
Q 1547 4250 1301 3770 
Q 1056 3291 1056 2328 
Q 1056 1369 1301 889 
Q 1547 409 2034 409 
Q 2525 409 2770 889 
Q 3016 1369 3016 2328 
Q 3016 3291 2770 3770 
Q 2525 4250 2034 4250 
z
M 2034 4750 
Q 2819 4750 3233 4129 
Q 3647 3509 3647 2328 
Q 3647 1150 3233 529 
Q 2819 -91 2034 -91 
Q 1250 -91 836 529 
Q 422 1150 422 2328 
Q 422 3509 836 4129 
Q 1250 4750 2034 4750 
z
" transform="scale(0.015625)"/>
       </defs>
       <use xlink:href="#DejaVuSans-30"/>
      </g>
     </g>
    </g>
    <g id="xtick_2">
     <g id="line2d_3">
      <path d="M 151.340769 379.96 
L 151.340769 55.968 
" clip-path="url(#pb95654b0d6)" style="fill: none; stroke-dasharray: 1.85,0.8; stroke-dashoffset: 0; stroke: #b0b0b0; stroke-opacity: 0.7; stroke-width: 0.5"/>
     </g>
     <g id="line2d_4">
      <g>
       <use xlink:href="#m673987a1d4" x="151.340769" y="379.96" style="stroke: #000000; stroke-width: 0.8"/>
      </g>
     </g>
     <g id="text_2">
      <!-- 50 -->
      <g transform="translate(144.978269 394.558437) scale(0.1 -0.1)">
       <defs>
        <path id="DejaVuSans-35" d="M 691 4666 
L 3169 4666 
L 3169 4134 
L 1269 4134 
L 1269 2991 
Q 1406 3038 1543 3061 
Q 1681 3084 1819 3084 
Q 2600 3084 3056 2656 
Q 3513 2228 3513 1497 
Q 3513 744 3044 326 
Q 2575 -91 1722 -91 
Q 1428 -91 1123 -41 
Q 819 9 494 109 
L 494 744 
Q 775 591 1075 516 
Q 1375 441 1709 441 
Q 2250 441 2565 725 
Q 2881 1009 2881 1497 
Q 2881 1984 2565 2268 
Q 2250 2553 1709 2553 
Q 1456 2553 1204 2497 
Q 953 2441 691 2322 
L 691 4666 
z
" transform="scale(0.015625)"/>
       </defs>
       <use xlink:href="#DejaVuSans-35"/>
       <use xlink:href="#DejaVuSans-30" x="63.623047"/>
      </g>
     </g>
    </g>
    <g id="xtick_3">
     <g id="line2d_5">
      <path d="M 217.658357 379.96 
L 217.658357 55.968 
" clip-path="url(#pb95654b0d6)" style="fill: none; stroke-dasharray: 1.85,0.8; stroke-dashoffset: 0; stroke: #b0b0b0; stroke-opacity: 0.7; stroke-width: 0.5"/>
     </g>
     <g id="line2d_6">
      <g>
       <use xlink:href="#m673987a1d4" x="217.658357" y="379.96" style="stroke: #000000; stroke-width: 0.8"/>
      </g>
     </g>
     <g id="text_3">
      <!-- 100 -->
      <g transform="translate(208.114607 394.558437) scale(0.1 -0.1)">
       <defs>
        <path id="DejaVuSans-31" d="M 794 531 
L 1825 531 
L 1825 4091 
L 703 3866 
L 703 4441 
L 1819 4666 
L 2450 4666 
L 2450 531 
L 3481 531 
L 3481 0 
L 794 0 
L 794 531 
z
" transform="scale(0.015625)"/>
       </defs>
       <use xlink:href="#DejaVuSans-31"/>
       <use xlink:href="#DejaVuSans-30" x="63.623047"/>
       <use xlink:href="#DejaVuSans-30" x="127.246094"/>
      </g>
     </g>
    </g>
    <g id="xtick_4">
     <g id="line2d_7">
      <path d="M 283.975945 379.96 
L 283.975945 55.968 
" clip-path="url(#pb95654b0d6)" style="fill: none; stroke-dasharray: 1.85,0.8; stroke-dashoffset: 0; stroke: #b0b0b0; stroke-opacity: 0.7; stroke-width: 0.5"/>
     </g>
     <g id="line2d_8">
      <g>
       <use xlink:href="#m673987a1d4" x="283.975945" y="379.96" style="stroke: #000000; stroke-width: 0.8"/>
      </g>
     </g>
     <g id="text_4">
      <!-- 150 -->
      <g transform="translate(274.432195 394.558437) scale(0.1 -0.1)">
       <use xlink:href="#DejaVuSans-31"/>
       <use xlink:href="#DejaVuSans-35" x="63.623047"/>
       <use xlink:href="#DejaVuSans-30" x="127.246094"/>
      </g>
     </g>
    </g>
    <g id="xtick_5">
     <g id="line2d_9">
      <path d="M 350.293532 379.96 
L 350.293532 55.968 
" clip-path="url(#pb95654b0d6)" style="fill: none; stroke-dasharray: 1.85,0.8; stroke-dashoffset: 0; stroke: #b0b0b0; stroke-opacity: 0.7; stroke-width: 0.5"/>
     </g>
     <g id="line2d_10">
      <g>
       <use xlink:href="#m673987a1d4" x="350.293532" y="379.96" style="stroke: #000000; stroke-width: 0.8"/>
      </g>
     </g>
     <g id="text_5">
      <!-- 200 -->
      <g transform="translate(340.749782 394.558437) scale(0.1 -0.1)">
       <defs>
        <path id="DejaVuSans-32" d="M 1228 531 
L 3431 531 
L 3431 0 
L 469 0 
L 469 531 
Q 828 903 1448 1529 
Q 2069 2156 2228 2338 
Q 2531 2678 2651 2914 
Q 2772 3150 2772 3378 
Q 2772 3750 2511 3984 
Q 2250 4219 1831 4219 
Q 1534 4219 1204 4116 
Q 875 4013 500 3803 
L 500 4441 
Q 881 4594 1212 4672 
Q 1544 4750 1819 4750 
Q 2544 4750 2975 4387 
Q 3406 4025 3406 3419 
Q 3406 3131 3298 2873 
Q 3191 2616 2906 2266 
Q 2828 2175 2409 1742 
Q 1991 1309 1228 531 
z
" transform="scale(0.015625)"/>
       </defs>
       <use xlink:href="#DejaVuSans-32"/>
       <use xlink:href="#DejaVuSans-30" x="63.623047"/>
       <use xlink:href="#DejaVuSans-30" x="127.246094"/>
      </g>
     </g>
    </g>
    <g id="xtick_6">
     <g id="line2d_11">
      <path d="M 416.61112 379.96 
L 416.61112 55.968 
" clip-path="url(#pb95654b0d6)" style="fill: none; stroke-dasharray: 1.85,0.8; stroke-dashoffset: 0; stroke: #b0b0b0; stroke-opacity: 0.7; stroke-width: 0.5"/>
     </g>
     <g id="line2d_12">
      <g>
       <use xlink:href="#m673987a1d4" x="416.61112" y="379.96" style="stroke: #000000; stroke-width: 0.8"/>
      </g>
     </g>
     <g id="text_6">
      <!-- 250 -->
      <g transform="translate(407.06737 394.558437) scale(0.1 -0.1)">
       <use xlink:href="#DejaVuSans-32"/>
       <use xlink:href="#DejaVuSans-35" x="63.623047"/>
       <use xlink:href="#DejaVuSans-30" x="127.246094"/>
      </g>
     </g>
    </g>
    <g id="xtick_7">
     <g id="line2d_13">
      <path d="M 482.928708 379.96 
L 482.928708 55.968 
" clip-path="url(#pb95654b0d6)" style="fill: none; stroke-dasharray: 1.85,0.8; stroke-dashoffset: 0; stroke: #b0b0b0; stroke-opacity: 0.7; stroke-width: 0.5"/>
     </g>
     <g id="line2d_14">
      <g>
       <use xlink:href="#m673987a1d4" x="482.928708" y="379.96" style="stroke: #000000; stroke-width: 0.8"/>
      </g>
     </g>
     <g id="text_7">
      <!-- 300 -->
      <g transform="translate(473.384958 394.558437) scale(0.1 -0.1)">
       <defs>
        <path id="DejaVuSans-33" d="M 2597 2516 
Q 3050 2419 3304 2112 
Q 3559 1806 3559 1356 
Q 3559 666 3084 287 
Q 2609 -91 1734 -91 
Q 1441 -91 1130 -33 
Q 819 25 488 141 
L 488 750 
Q 750 597 1062 519 
Q 1375 441 1716 441 
Q 2309 441 2620 675 
Q 2931 909 2931 1356 
Q 2931 1769 2642 2001 
Q 2353 2234 1838 2234 
L 1294 2234 
L 1294 2753 
L 1863 2753 
Q 2328 2753 2575 2939 
Q 2822 3125 2822 3475 
Q 2822 3834 2567 4026 
Q 2313 4219 1838 4219 
Q 1578 4219 1281 4162 
Q 984 4106 628 3988 
L 628 4550 
Q 988 4650 1302 4700 
Q 1616 4750 1894 4750 
Q 2613 4750 3031 4423 
Q 3450 4097 3450 3541 
Q 3450 3153 3228 2886 
Q 3006 2619 2597 2516 
z
" transform="scale(0.015625)"/>
       </defs>
       <use xlink:href="#DejaVuSans-33"/>
       <use xlink:href="#DejaVuSans-30" x="63.623047"/>
       <use xlink:href="#DejaVuSans-30" x="127.246094"/>
      </g>
     </g>
    </g>
    <g id="text_8">
     <!-- Number of Accelerated Layers -->
     <g transform="translate(136.109688 415.835) scale(0.2 -0.2)">
      <defs>
       <path id="DejaVuSans-4e" d="M 628 4666 
L 1478 4666 
L 3547 763 
L 3547 4666 
L 4159 4666 
L 4159 0 
L 3309 0 
L 1241 3903 
L 1241 0 
L 628 0 
L 628 4666 
z
" transform="scale(0.015625)"/>
       <path id="DejaVuSans-75" d="M 544 1381 
L 544 3500 
L 1119 3500 
L 1119 1403 
Q 1119 906 1312 657 
Q 1506 409 1894 409 
Q 2359 409 2629 706 
Q 2900 1003 2900 1516 
L 2900 3500 
L 3475 3500 
L 3475 0 
L 2900 0 
L 2900 538 
Q 2691 219 2414 64 
Q 2138 -91 1772 -91 
Q 1169 -91 856 284 
Q 544 659 544 1381 
z
M 1991 3584 
L 1991 3584 
z
" transform="scale(0.015625)"/>
       <path id="DejaVuSans-6d" d="M 3328 2828 
Q 3544 3216 3844 3400 
Q 4144 3584 4550 3584 
Q 5097 3584 5394 3201 
Q 5691 2819 5691 2113 
L 5691 0 
L 5113 0 
L 5113 2094 
Q 5113 2597 4934 2840 
Q 4756 3084 4391 3084 
Q 3944 3084 3684 2787 
Q 3425 2491 3425 1978 
L 3425 0 
L 2847 0 
L 2847 2094 
Q 2847 2600 2669 2842 
Q 2491 3084 2119 3084 
Q 1678 3084 1418 2786 
Q 1159 2488 1159 1978 
L 1159 0 
L 581 0 
L 581 3500 
L 1159 3500 
L 1159 2956 
Q 1356 3278 1631 3431 
Q 1906 3584 2284 3584 
Q 2666 3584 2933 3390 
Q 3200 3197 3328 2828 
z
" transform="scale(0.015625)"/>
       <path id="DejaVuSans-62" d="M 3116 1747 
Q 3116 2381 2855 2742 
Q 2594 3103 2138 3103 
Q 1681 3103 1420 2742 
Q 1159 2381 1159 1747 
Q 1159 1113 1420 752 
Q 1681 391 2138 391 
Q 2594 391 2855 752 
Q 3116 1113 3116 1747 
z
M 1159 2969 
Q 1341 3281 1617 3432 
Q 1894 3584 2278 3584 
Q 2916 3584 3314 3078 
Q 3713 2572 3713 1747 
Q 3713 922 3314 415 
Q 2916 -91 2278 -91 
Q 1894 -91 1617 61 
Q 1341 213 1159 525 
L 1159 0 
L 581 0 
L 581 4863 
L 1159 4863 
L 1159 2969 
z
" transform="scale(0.015625)"/>
       <path id="DejaVuSans-65" d="M 3597 1894 
L 3597 1613 
L 953 1613 
Q 991 1019 1311 708 
Q 1631 397 2203 397 
Q 2534 397 2845 478 
Q 3156 559 3463 722 
L 3463 178 
Q 3153 47 2828 -22 
Q 2503 -91 2169 -91 
Q 1331 -91 842 396 
Q 353 884 353 1716 
Q 353 2575 817 3079 
Q 1281 3584 2069 3584 
Q 2775 3584 3186 3129 
Q 3597 2675 3597 1894 
z
M 3022 2063 
Q 3016 2534 2758 2815 
Q 2500 3097 2075 3097 
Q 1594 3097 1305 2825 
Q 1016 2553 972 2059 
L 3022 2063 
z
" transform="scale(0.015625)"/>
       <path id="DejaVuSans-72" d="M 2631 2963 
Q 2534 3019 2420 3045 
Q 2306 3072 2169 3072 
Q 1681 3072 1420 2755 
Q 1159 2438 1159 1844 
L 1159 0 
L 581 0 
L 581 3500 
L 1159 3500 
L 1159 2956 
Q 1341 3275 1631 3429 
Q 1922 3584 2338 3584 
Q 2397 3584 2469 3576 
Q 2541 3569 2628 3553 
L 2631 2963 
z
" transform="scale(0.015625)"/>
       <path id="DejaVuSans-20" transform="scale(0.015625)"/>
       <path id="DejaVuSans-6f" d="M 1959 3097 
Q 1497 3097 1228 2736 
Q 959 2375 959 1747 
Q 959 1119 1226 758 
Q 1494 397 1959 397 
Q 2419 397 2687 759 
Q 2956 1122 2956 1747 
Q 2956 2369 2687 2733 
Q 2419 3097 1959 3097 
z
M 1959 3584 
Q 2709 3584 3137 3096 
Q 3566 2609 3566 1747 
Q 3566 888 3137 398 
Q 2709 -91 1959 -91 
Q 1206 -91 779 398 
Q 353 888 353 1747 
Q 353 2609 779 3096 
Q 1206 3584 1959 3584 
z
" transform="scale(0.015625)"/>
       <path id="DejaVuSans-66" d="M 2375 4863 
L 2375 4384 
L 1825 4384 
Q 1516 4384 1395 4259 
Q 1275 4134 1275 3809 
L 1275 3500 
L 2222 3500 
L 2222 3053 
L 1275 3053 
L 1275 0 
L 697 0 
L 697 3053 
L 147 3053 
L 147 3500 
L 697 3500 
L 697 3744 
Q 697 4328 969 4595 
Q 1241 4863 1831 4863 
L 2375 4863 
z
" transform="scale(0.015625)"/>
       <path id="DejaVuSans-41" d="M 2188 4044 
L 1331 1722 
L 3047 1722 
L 2188 4044 
z
M 1831 4666 
L 2547 4666 
L 4325 0 
L 3669 0 
L 3244 1197 
L 1141 1197 
L 716 0 
L 50 0 
L 1831 4666 
z
" transform="scale(0.015625)"/>
       <path id="DejaVuSans-63" d="M 3122 3366 
L 3122 2828 
Q 2878 2963 2633 3030 
Q 2388 3097 2138 3097 
Q 1578 3097 1268 2742 
Q 959 2388 959 1747 
Q 959 1106 1268 751 
Q 1578 397 2138 397 
Q 2388 397 2633 464 
Q 2878 531 3122 666 
L 3122 134 
Q 2881 22 2623 -34 
Q 2366 -91 2075 -91 
Q 1284 -91 818 406 
Q 353 903 353 1747 
Q 353 2603 823 3093 
Q 1294 3584 2113 3584 
Q 2378 3584 2631 3529 
Q 2884 3475 3122 3366 
z
" transform="scale(0.015625)"/>
       <path id="DejaVuSans-6c" d="M 603 4863 
L 1178 4863 
L 1178 0 
L 603 0 
L 603 4863 
z
" transform="scale(0.015625)"/>
       <path id="DejaVuSans-61" d="M 2194 1759 
Q 1497 1759 1228 1600 
Q 959 1441 959 1056 
Q 959 750 1161 570 
Q 1363 391 1709 391 
Q 2188 391 2477 730 
Q 2766 1069 2766 1631 
L 2766 1759 
L 2194 1759 
z
M 3341 1997 
L 3341 0 
L 2766 0 
L 2766 531 
Q 2569 213 2275 61 
Q 1981 -91 1556 -91 
Q 1019 -91 701 211 
Q 384 513 384 1019 
Q 384 1609 779 1909 
Q 1175 2209 1959 2209 
L 2766 2209 
L 2766 2266 
Q 2766 2663 2505 2880 
Q 2244 3097 1772 3097 
Q 1472 3097 1187 3025 
Q 903 2953 641 2809 
L 641 3341 
Q 956 3463 1253 3523 
Q 1550 3584 1831 3584 
Q 2591 3584 2966 3190 
Q 3341 2797 3341 1997 
z
" transform="scale(0.015625)"/>
       <path id="DejaVuSans-74" d="M 1172 4494 
L 1172 3500 
L 2356 3500 
L 2356 3053 
L 1172 3053 
L 1172 1153 
Q 1172 725 1289 603 
Q 1406 481 1766 481 
L 2356 481 
L 2356 0 
L 1766 0 
Q 1100 0 847 248 
Q 594 497 594 1153 
L 594 3053 
L 172 3053 
L 172 3500 
L 594 3500 
L 594 4494 
L 1172 4494 
z
" transform="scale(0.015625)"/>
       <path id="DejaVuSans-64" d="M 2906 2969 
L 2906 4863 
L 3481 4863 
L 3481 0 
L 2906 0 
L 2906 525 
Q 2725 213 2448 61 
Q 2172 -91 1784 -91 
Q 1150 -91 751 415 
Q 353 922 353 1747 
Q 353 2572 751 3078 
Q 1150 3584 1784 3584 
Q 2172 3584 2448 3432 
Q 2725 3281 2906 2969 
z
M 947 1747 
Q 947 1113 1208 752 
Q 1469 391 1925 391 
Q 2381 391 2643 752 
Q 2906 1113 2906 1747 
Q 2906 2381 2643 2742 
Q 2381 3103 1925 3103 
Q 1469 3103 1208 2742 
Q 947 2381 947 1747 
z
" transform="scale(0.015625)"/>
       <path id="DejaVuSans-4c" d="M 628 4666 
L 1259 4666 
L 1259 531 
L 3531 531 
L 3531 0 
L 628 0 
L 628 4666 
z
" transform="scale(0.015625)"/>
       <path id="DejaVuSans-79" d="M 2059 -325 
Q 1816 -950 1584 -1140 
Q 1353 -1331 966 -1331 
L 506 -1331 
L 506 -850 
L 844 -850 
Q 1081 -850 1212 -737 
Q 1344 -625 1503 -206 
L 1606 56 
L 191 3500 
L 800 3500 
L 1894 763 
L 2988 3500 
L 3597 3500 
L 2059 -325 
z
" transform="scale(0.015625)"/>
       <path id="DejaVuSans-73" d="M 2834 3397 
L 2834 2853 
Q 2591 2978 2328 3040 
Q 2066 3103 1784 3103 
Q 1356 3103 1142 2972 
Q 928 2841 928 2578 
Q 928 2378 1081 2264 
Q 1234 2150 1697 2047 
L 1894 2003 
Q 2506 1872 2764 1633 
Q 3022 1394 3022 966 
Q 3022 478 2636 193 
Q 2250 -91 1575 -91 
Q 1294 -91 989 -36 
Q 684 19 347 128 
L 347 722 
Q 666 556 975 473 
Q 1284 391 1588 391 
Q 1994 391 2212 530 
Q 2431 669 2431 922 
Q 2431 1156 2273 1281 
Q 2116 1406 1581 1522 
L 1381 1569 
Q 847 1681 609 1914 
Q 372 2147 372 2553 
Q 372 3047 722 3315 
Q 1072 3584 1716 3584 
Q 2034 3584 2315 3537 
Q 2597 3491 2834 3397 
z
" transform="scale(0.015625)"/>
      </defs>
      <use xlink:href="#DejaVuSans-4e"/>
      <use xlink:href="#DejaVuSans-75" x="74.804688"/>
      <use xlink:href="#DejaVuSans-6d" x="138.183594"/>
      <use xlink:href="#DejaVuSans-62" x="235.595703"/>
      <use xlink:href="#DejaVuSans-65" x="299.072266"/>
      <use xlink:href="#DejaVuSans-72" x="360.595703"/>
      <use xlink:href="#DejaVuSans-20" x="401.708984"/>
      <use xlink:href="#DejaVuSans-6f" x="433.496094"/>
      <use xlink:href="#DejaVuSans-66" x="494.677734"/>
      <use xlink:href="#DejaVuSans-20" x="529.882812"/>
      <use xlink:href="#DejaVuSans-41" x="561.669922"/>
      <use xlink:href="#DejaVuSans-63" x="628.328125"/>
      <use xlink:href="#DejaVuSans-63" x="683.308594"/>
      <use xlink:href="#DejaVuSans-65" x="738.289062"/>
      <use xlink:href="#DejaVuSans-6c" x="799.8125"/>
      <use xlink:href="#DejaVuSans-65" x="827.595703"/>
      <use xlink:href="#DejaVuSans-72" x="889.119141"/>
      <use xlink:href="#DejaVuSans-61" x="930.232422"/>
      <use xlink:href="#DejaVuSans-74" x="991.511719"/>
      <use xlink:href="#DejaVuSans-65" x="1030.720703"/>
      <use xlink:href="#DejaVuSans-64" x="1092.244141"/>
      <use xlink:href="#DejaVuSans-20" x="1155.720703"/>
      <use xlink:href="#DejaVuSans-4c" x="1187.507812"/>
      <use xlink:href="#DejaVuSans-61" x="1243.220703"/>
      <use xlink:href="#DejaVuSans-79" x="1304.5"/>
      <use xlink:href="#DejaVuSans-65" x="1363.679688"/>
      <use xlink:href="#DejaVuSans-72" x="1425.203125"/>
      <use xlink:href="#DejaVuSans-73" x="1466.316406"/>
     </g>
    </g>
   </g>
   <g id="matplotlib.axis_2">
    <g id="ytick_1">
     <g id="line2d_15">
      <path d="M 64.73 365.233091 
L 511.18 365.233091 
" clip-path="url(#pb95654b0d6)" style="fill: none; stroke-dasharray: 1.85,0.8; stroke-dashoffset: 0; stroke: #b0b0b0; stroke-opacity: 0.7; stroke-width: 0.5"/>
     </g>
     <g id="line2d_16">
      <defs>
       <path id="me4e116a4e1" d="M 0 0 
L -3.5 0 
" style="stroke: #000000; stroke-width: 0.8"/>
      </defs>
      <g>
       <use xlink:href="#me4e116a4e1" x="64.73" y="365.233091" style="stroke: #000000; stroke-width: 0.8"/>
      </g>
     </g>
     <g id="text_9">
      <!-- 0 -->
      <g style="fill: #ff7f0e" transform="translate(50.095 369.792153) scale(0.12 -0.12)">
       <use xlink:href="#DejaVuSans-30"/>
      </g>
     </g>
    </g>
    <g id="ytick_2">
     <g id="line2d_17">
      <path d="M 64.73 325.994782 
L 511.18 325.994782 
" clip-path="url(#pb95654b0d6)" style="fill: none; stroke-dasharray: 1.85,0.8; stroke-dashoffset: 0; stroke: #b0b0b0; stroke-opacity: 0.7; stroke-width: 0.5"/>
     </g>
     <g id="line2d_18">
      <g>
       <use xlink:href="#me4e116a4e1" x="64.73" y="325.994782" style="stroke: #000000; stroke-width: 0.8"/>
      </g>
     </g>
     <g id="text_10">
      <!-- 100 -->
      <g style="fill: #ff7f0e" transform="translate(34.825 330.553845) scale(0.12 -0.12)">
       <use xlink:href="#DejaVuSans-31"/>
       <use xlink:href="#DejaVuSans-30" x="63.623047"/>
       <use xlink:href="#DejaVuSans-30" x="127.246094"/>
      </g>
     </g>
    </g>
    <g id="ytick_3">
     <g id="line2d_19">
      <path d="M 64.73 286.756474 
L 511.18 286.756474 
" clip-path="url(#pb95654b0d6)" style="fill: none; stroke-dasharray: 1.85,0.8; stroke-dashoffset: 0; stroke: #b0b0b0; stroke-opacity: 0.7; stroke-width: 0.5"/>
     </g>
     <g id="line2d_20">
      <g>
       <use xlink:href="#me4e116a4e1" x="64.73" y="286.756474" style="stroke: #000000; stroke-width: 0.8"/>
      </g>
     </g>
     <g id="text_11">
      <!-- 200 -->
      <g style="fill: #ff7f0e" transform="translate(34.825 291.315536) scale(0.12 -0.12)">
       <use xlink:href="#DejaVuSans-32"/>
       <use xlink:href="#DejaVuSans-30" x="63.623047"/>
       <use xlink:href="#DejaVuSans-30" x="127.246094"/>
      </g>
     </g>
    </g>
    <g id="ytick_4">
     <g id="line2d_21">
      <path d="M 64.73 247.518165 
L 511.18 247.518165 
" clip-path="url(#pb95654b0d6)" style="fill: none; stroke-dasharray: 1.85,0.8; stroke-dashoffset: 0; stroke: #b0b0b0; stroke-opacity: 0.7; stroke-width: 0.5"/>
     </g>
     <g id="line2d_22">
      <g>
       <use xlink:href="#me4e116a4e1" x="64.73" y="247.518165" style="stroke: #000000; stroke-width: 0.8"/>
      </g>
     </g>
     <g id="text_12">
      <!-- 300 -->
      <g style="fill: #ff7f0e" transform="translate(34.825 252.077227) scale(0.12 -0.12)">
       <use xlink:href="#DejaVuSans-33"/>
       <use xlink:href="#DejaVuSans-30" x="63.623047"/>
       <use xlink:href="#DejaVuSans-30" x="127.246094"/>
      </g>
     </g>
    </g>
    <g id="ytick_5">
     <g id="line2d_23">
      <path d="M 64.73 208.279856 
L 511.18 208.279856 
" clip-path="url(#pb95654b0d6)" style="fill: none; stroke-dasharray: 1.85,0.8; stroke-dashoffset: 0; stroke: #b0b0b0; stroke-opacity: 0.7; stroke-width: 0.5"/>
     </g>
     <g id="line2d_24">
      <g>
       <use xlink:href="#me4e116a4e1" x="64.73" y="208.279856" style="stroke: #000000; stroke-width: 0.8"/>
      </g>
     </g>
     <g id="text_13">
      <!-- 400 -->
      <g style="fill: #ff7f0e" transform="translate(34.825 212.838919) scale(0.12 -0.12)">
       <defs>
        <path id="DejaVuSans-34" d="M 2419 4116 
L 825 1625 
L 2419 1625 
L 2419 4116 
z
M 2253 4666 
L 3047 4666 
L 3047 1625 
L 3713 1625 
L 3713 1100 
L 3047 1100 
L 3047 0 
L 2419 0 
L 2419 1100 
L 313 1100 
L 313 1709 
L 2253 4666 
z
" transform="scale(0.015625)"/>
       </defs>
       <use xlink:href="#DejaVuSans-34"/>
       <use xlink:href="#DejaVuSans-30" x="63.623047"/>
       <use xlink:href="#DejaVuSans-30" x="127.246094"/>
      </g>
     </g>
    </g>
    <g id="ytick_6">
     <g id="line2d_25">
      <path d="M 64.73 169.041548 
L 511.18 169.041548 
" clip-path="url(#pb95654b0d6)" style="fill: none; stroke-dasharray: 1.85,0.8; stroke-dashoffset: 0; stroke: #b0b0b0; stroke-opacity: 0.7; stroke-width: 0.5"/>
     </g>
     <g id="line2d_26">
      <g>
       <use xlink:href="#me4e116a4e1" x="64.73" y="169.041548" style="stroke: #000000; stroke-width: 0.8"/>
      </g>
     </g>
     <g id="text_14">
      <!-- 500 -->
      <g style="fill: #ff7f0e" transform="translate(34.825 173.60061) scale(0.12 -0.12)">
       <use xlink:href="#DejaVuSans-35"/>
       <use xlink:href="#DejaVuSans-30" x="63.623047"/>
       <use xlink:href="#DejaVuSans-30" x="127.246094"/>
      </g>
     </g>
    </g>
    <g id="ytick_7">
     <g id="line2d_27">
      <path d="M 64.73 129.803239 
L 511.18 129.803239 
" clip-path="url(#pb95654b0d6)" style="fill: none; stroke-dasharray: 1.85,0.8; stroke-dashoffset: 0; stroke: #b0b0b0; stroke-opacity: 0.7; stroke-width: 0.5"/>
     </g>
     <g id="line2d_28">
      <g>
       <use xlink:href="#me4e116a4e1" x="64.73" y="129.803239" style="stroke: #000000; stroke-width: 0.8"/>
      </g>
     </g>
     <g id="text_15">
      <!-- 600 -->
      <g style="fill: #ff7f0e" transform="translate(34.825 134.362302) scale(0.12 -0.12)">
       <defs>
        <path id="DejaVuSans-36" d="M 2113 2584 
Q 1688 2584 1439 2293 
Q 1191 2003 1191 1497 
Q 1191 994 1439 701 
Q 1688 409 2113 409 
Q 2538 409 2786 701 
Q 3034 994 3034 1497 
Q 3034 2003 2786 2293 
Q 2538 2584 2113 2584 
z
M 3366 4563 
L 3366 3988 
Q 3128 4100 2886 4159 
Q 2644 4219 2406 4219 
Q 1781 4219 1451 3797 
Q 1122 3375 1075 2522 
Q 1259 2794 1537 2939 
Q 1816 3084 2150 3084 
Q 2853 3084 3261 2657 
Q 3669 2231 3669 1497 
Q 3669 778 3244 343 
Q 2819 -91 2113 -91 
Q 1303 -91 875 529 
Q 447 1150 447 2328 
Q 447 3434 972 4092 
Q 1497 4750 2381 4750 
Q 2619 4750 2861 4703 
Q 3103 4656 3366 4563 
z
" transform="scale(0.015625)"/>
       </defs>
       <use xlink:href="#DejaVuSans-36"/>
       <use xlink:href="#DejaVuSans-30" x="63.623047"/>
       <use xlink:href="#DejaVuSans-30" x="127.246094"/>
      </g>
     </g>
    </g>
    <g id="ytick_8">
     <g id="line2d_29">
      <path d="M 64.73 90.56493 
L 511.18 90.56493 
" clip-path="url(#pb95654b0d6)" style="fill: none; stroke-dasharray: 1.85,0.8; stroke-dashoffset: 0; stroke: #b0b0b0; stroke-opacity: 0.7; stroke-width: 0.5"/>
     </g>
     <g id="line2d_30">
      <g>
       <use xlink:href="#me4e116a4e1" x="64.73" y="90.56493" style="stroke: #000000; stroke-width: 0.8"/>
      </g>
     </g>
     <g id="text_16">
      <!-- 700 -->
      <g style="fill: #ff7f0e" transform="translate(34.825 95.123993) scale(0.12 -0.12)">
       <defs>
        <path id="DejaVuSans-37" d="M 525 4666 
L 3525 4666 
L 3525 4397 
L 1831 0 
L 1172 0 
L 2766 4134 
L 525 4134 
L 525 4666 
z
" transform="scale(0.015625)"/>
       </defs>
       <use xlink:href="#DejaVuSans-37"/>
       <use xlink:href="#DejaVuSans-30" x="63.623047"/>
       <use xlink:href="#DejaVuSans-30" x="127.246094"/>
      </g>
     </g>
    </g>
    <g id="text_17">
     <!-- Acceleration Gain -->
     <g style="fill: #ff7f0e" transform="translate(26.665625 306.274937) rotate(-90) scale(0.2 -0.2)">
      <defs>
       <path id="DejaVuSans-69" d="M 603 3500 
L 1178 3500 
L 1178 0 
L 603 0 
L 603 3500 
z
M 603 4863 
L 1178 4863 
L 1178 4134 
L 603 4134 
L 603 4863 
z
" transform="scale(0.015625)"/>
       <path id="DejaVuSans-6e" d="M 3513 2113 
L 3513 0 
L 2938 0 
L 2938 2094 
Q 2938 2591 2744 2837 
Q 2550 3084 2163 3084 
Q 1697 3084 1428 2787 
Q 1159 2491 1159 1978 
L 1159 0 
L 581 0 
L 581 3500 
L 1159 3500 
L 1159 2956 
Q 1366 3272 1645 3428 
Q 1925 3584 2291 3584 
Q 2894 3584 3203 3211 
Q 3513 2838 3513 2113 
z
" transform="scale(0.015625)"/>
       <path id="DejaVuSans-47" d="M 3809 666 
L 3809 1919 
L 2778 1919 
L 2778 2438 
L 4434 2438 
L 4434 434 
Q 4069 175 3628 42 
Q 3188 -91 2688 -91 
Q 1594 -91 976 548 
Q 359 1188 359 2328 
Q 359 3472 976 4111 
Q 1594 4750 2688 4750 
Q 3144 4750 3555 4637 
Q 3966 4525 4313 4306 
L 4313 3634 
Q 3963 3931 3569 4081 
Q 3175 4231 2741 4231 
Q 1884 4231 1454 3753 
Q 1025 3275 1025 2328 
Q 1025 1384 1454 906 
Q 1884 428 2741 428 
Q 3075 428 3337 486 
Q 3600 544 3809 666 
z
" transform="scale(0.015625)"/>
      </defs>
      <use xlink:href="#DejaVuSans-41"/>
      <use xlink:href="#DejaVuSans-63" x="66.658203"/>
      <use xlink:href="#DejaVuSans-63" x="121.638672"/>
      <use xlink:href="#DejaVuSans-65" x="176.619141"/>
      <use xlink:href="#DejaVuSans-6c" x="238.142578"/>
      <use xlink:href="#DejaVuSans-65" x="265.925781"/>
      <use xlink:href="#DejaVuSans-72" x="327.449219"/>
      <use xlink:href="#DejaVuSans-61" x="368.5625"/>
      <use xlink:href="#DejaVuSans-74" x="429.841797"/>
      <use xlink:href="#DejaVuSans-69" x="469.050781"/>
      <use xlink:href="#DejaVuSans-6f" x="496.833984"/>
      <use xlink:href="#DejaVuSans-6e" x="558.015625"/>
      <use xlink:href="#DejaVuSans-20" x="621.394531"/>
      <use xlink:href="#DejaVuSans-47" x="653.181641"/>
      <use xlink:href="#DejaVuSans-61" x="730.671875"/>
      <use xlink:href="#DejaVuSans-69" x="791.951172"/>
      <use xlink:href="#DejaVuSans-6e" x="819.734375"/>
     </g>
    </g>
   </g>
   <g id="line2d_31">
    <path d="M 85.023182 365.233091 
L 86.349534 353.727748 
L 87.675885 350.181224 
L 89.002237 348.431196 
L 90.328589 336.484679 
L 91.654941 336.580658 
L 92.981292 333.84358 
L 94.307644 322.142561 
L 95.633996 322.064653 
L 96.960348 319.009486 
L 98.286699 307.571932 
L 99.613051 307.360664 
L 100.939403 304.068364 
L 102.265755 291.964068 
L 103.592106 291.747586 
L 104.918458 287.832171 
L 106.24481 275.75147 
L 107.571162 275.969088 
L 108.897513 270.896762 
L 110.223865 259.393484 
L 111.550217 259.082004 
L 112.876569 253.516515 
L 114.20292 252.947301 
L 115.529272 252.608096 
L 116.855624 249.49686 
L 118.181976 249.794968 
L 119.508327 248.73068 
L 120.834679 245.991588 
L 122.161031 245.931337 
L 123.487383 244.905823 
L 124.813734 242.088874 
L 126.140086 242.007403 
L 127.466438 241.214582 
L 128.79279 238.170774 
L 130.119141 238.481066 
L 131.445493 236.816742 
L 132.771845 233.835147 
L 134.098197 233.924982 
L 135.424548 232.18657 
L 136.7509 229.444226 
L 138.077252 229.374939 
L 139.403604 228.013731 
L 140.729955 224.868161 
L 142.056307 224.948703 
L 143.382659 223.184683 
L 144.709011 219.951498 
L 146.035362 220.011439 
L 147.361714 218.035946 
L 148.688066 215.168916 
L 150.014418 215.202372 
L 151.340769 213.053455 
L 152.667121 210.128445 
L 153.993473 210.207903 
L 156.646176 204.790177 
L 157.972528 204.69048 
L 159.29888 202.236279 
L 160.625232 199.132322 
L 161.951583 199.077905 
L 163.277935 194.305029 
L 167.25699 192.903654 
L 169.909694 192.712212 
L 171.236046 191.759496 
L 172.562398 191.825581 
L 175.215101 190.933736 
L 176.541453 190.877821 
L 177.867805 190.376913 
L 179.194156 189.748533 
L 180.520508 189.788494 
L 181.84686 189.454658 
L 183.173212 188.783735 
L 184.499563 188.701179 
L 185.825915 188.286492 
L 187.152267 187.732974 
L 189.80497 187.154312 
L 191.131322 186.402641 
L 192.457674 186.427784 
L 195.110377 185.005292 
L 196.436729 185.141852 
L 197.763081 184.736768 
L 199.089433 183.736398 
L 200.415784 183.750647 
L 203.068488 182.525483 
L 204.39484 182.437145 
L 207.047543 181.12643 
L 208.373895 181.103765 
L 209.700247 180.309344 
L 211.026598 179.655717 
L 212.35295 179.667282 
L 213.679302 178.831661 
L 215.005654 178.332921 
L 216.332005 178.326312 
L 217.658357 177.274881 
L 218.984709 176.742737 
L 220.311061 176.729726 
L 221.637412 175.734261 
L 222.963764 175.051153 
L 224.290116 175.002673 
L 226.942819 173.371495 
L 228.269171 173.442279 
L 229.595523 172.476139 
L 230.921875 171.908681 
L 232.248226 171.877548 
L 233.574578 170.758379 
L 234.90093 170.140633 
L 236.227282 170.105371 
L 237.553633 169.098133 
L 238.879985 168.469081 
L 240.206337 168.370676 
L 242.85904 166.614349 
L 244.185392 166.691328 
L 245.511744 165.568389 
L 246.838096 164.950593 
L 248.164447 164.952038 
L 249.490799 163.581382 
L 250.817151 162.995957 
L 252.143503 162.982637 
L 253.469854 161.797846 
L 254.796206 161.176332 
L 256.122558 161.124961 
L 257.44891 159.785024 
L 258.775261 159.161135 
L 260.101613 159.175953 
L 261.427965 157.893067 
L 262.754317 157.318329 
L 264.080668 157.275115 
L 265.40702 155.826602 
L 266.733372 155.191457 
L 268.059724 155.085153 
L 269.386075 153.802266 
L 270.712427 153.119158 
L 272.038779 153.204037 
L 273.365131 151.568626 
L 274.691482 150.95816 
L 276.017834 151.056824 
L 277.344186 149.57661 
L 278.670538 148.720131 
L 279.996889 148.844661 
L 281.323241 147.206771 
L 282.649593 146.589181 
L 283.975945 146.550149 
L 285.302296 145.001733 
L 286.628648 144.393178 
L 287.955 144.321568 
L 289.281352 142.736754 
L 290.607704 142.138421 
L 291.934055 142.021687 
L 293.260407 140.464442 
L 294.586759 139.765123 
L 295.913111 139.723097 
L 297.239462 138.008589 
L 298.565814 137.446603 
L 299.892166 137.328734 
L 301.218518 135.568018 
L 302.544869 135.009543 
L 303.871221 134.871899 
L 305.197573 133.105401 
L 306.523925 132.40288 
L 307.850276 132.347069 
L 309.176628 130.577989 
L 310.50298 129.914294 
L 311.829332 129.919715 
L 313.155683 128.094875 
L 314.482035 127.393284 
L 315.808387 127.366334 
L 317.134739 125.417532 
L 318.46109 124.733237 
L 319.787442 124.635864 
L 321.113794 122.736213 
L 322.440146 122.104425 
L 323.766497 122.052692 
L 325.092849 120.063981 
L 326.419201 119.451089 
L 327.745553 119.416549 
L 329.071904 117.337074 
L 330.398256 116.695011 
L 331.724608 116.682568 
L 333.05096 114.498234 
L 334.377311 113.84316 
L 335.703663 113.793544 
L 337.030015 111.722794 
L 338.356367 111.005508 
L 339.682718 110.963791 
L 341.00907 108.871925 
L 342.335422 108.202705 
L 343.661774 108.162383 
L 344.988125 106.026321 
L 346.314477 105.32948 
L 347.640829 105.173663 
L 348.967181 102.959693 
L 350.293532 102.224749 
L 351.619884 102.127273 
L 352.946236 99.307639 
L 354.272588 98.801774 
L 355.598939 98.718444 
L 356.925291 90.062628 
L 359.577995 89.813414 
L 367.536105 89.227524 
L 368.862457 88.969532 
L 370.188809 89.025963 
L 372.841512 88.644422 
L 374.167864 88.694812 
L 375.494216 88.418492 
L 376.820567 88.266185 
L 378.146919 88.316266 
L 379.473271 88.032407 
L 380.799623 87.937564 
L 382.125974 87.967871 
L 384.778678 87.527163 
L 386.10503 87.641728 
L 387.431381 87.26566 
L 388.757733 87.261013 
L 391.410437 86.857633 
L 392.736788 86.691593 
L 394.06314 86.800118 
L 395.389492 86.431226 
L 396.715844 86.26529 
L 398.042195 86.234467 
L 400.694899 85.888653 
L 402.021251 85.882923 
L 403.347602 85.586983 
L 404.673954 85.470765 
L 406.000306 85.490281 
L 408.65301 85.001455 
L 409.979361 85.069347 
L 412.632065 84.590898 
L 413.958417 84.659255 
L 415.284768 84.315765 
L 416.61112 84.19201 
L 417.937472 84.231816 
L 419.263824 83.904073 
L 423.242879 83.539776 
L 424.569231 83.189987 
L 425.895582 83.207489 
L 427.221934 82.934525 
L 429.874638 82.749279 
L 432.527341 82.182802 
L 433.853693 82.222298 
L 435.180045 81.764501 
L 436.506396 81.612917 
L 437.832748 81.770438 
L 439.1591 81.35539 
L 441.811803 81.174997 
L 443.138155 80.759225 
L 444.464507 80.654779 
L 445.790859 80.693295 
L 447.11721 80.146127 
L 448.443562 80.181493 
L 449.769914 80.089903 
L 451.096266 79.672531 
L 453.748969 79.587033 
L 455.075321 79.101304 
L 457.728024 79.061188 
L 459.054376 78.522384 
L 460.380728 78.426715 
L 461.70708 78.467192 
L 463.033431 78.043108 
L 464.359783 77.787233 
L 465.686135 77.848517 
L 468.338838 77.225764 
L 469.66519 77.258084 
L 470.991542 76.822591 
L 472.317894 76.673691 
L 473.644245 76.646947 
L 474.970597 76.152493 
L 476.296949 75.964201 
L 477.623301 76.08238 
L 478.949652 75.506145 
L 481.602356 75.427152 
L 482.928708 74.835893 
L 485.581411 74.692105 
L 486.907763 70.694909 
L 488.234115 70.707352 
L 489.560466 70.952953 
L 490.886818 70.997664 
L 490.886818 70.997664 
" clip-path="url(#pb95654b0d6)" style="fill: none; stroke: #ff7f0e; stroke-width: 1.5; stroke-linecap: square"/>
   </g>
   <g id="line2d_32">
    <path d="M 344.988125 379.96 
L 344.988125 55.968 
" clip-path="url(#pb95654b0d6)" style="fill: none; stroke-dasharray: 11.1,4.8; stroke-dashoffset: 0; stroke: #ffd700; stroke-width: 3"/>
   </g>
   <g id="patch_3">
    <path d="M 64.73 379.96 
L 64.73 55.968 
" style="fill: none; stroke: #000000; stroke-width: 0.8; stroke-linejoin: miter; stroke-linecap: square"/>
   </g>
   <g id="patch_4">
    <path d="M 511.18 379.96 
L 511.18 55.968 
" style="fill: none; stroke: #000000; stroke-width: 0.8; stroke-linejoin: miter; stroke-linecap: square"/>
   </g>
   <g id="patch_5">
    <path d="M 64.73 379.96 
L 511.18 379.96 
" style="fill: none; stroke: #000000; stroke-width: 0.8; stroke-linejoin: miter; stroke-linecap: square"/>
   </g>
   <g id="patch_6">
    <path d="M 64.73 55.968 
L 511.18 55.968 
" style="fill: none; stroke: #000000; stroke-width: 0.8; stroke-linejoin: miter; stroke-linecap: square"/>
   </g>
   <g id="text_18">
    <!-- Max Throughput -->
    <g transform="translate(342.076563 275.316969) rotate(-90) scale(0.14 -0.14)">
     <defs>
      <path id="DejaVuSans-4d" d="M 628 4666 
L 1569 4666 
L 2759 1491 
L 3956 4666 
L 4897 4666 
L 4897 0 
L 4281 0 
L 4281 4097 
L 3078 897 
L 2444 897 
L 1241 4097 
L 1241 0 
L 628 0 
L 628 4666 
z
" transform="scale(0.015625)"/>
      <path id="DejaVuSans-78" d="M 3513 3500 
L 2247 1797 
L 3578 0 
L 2900 0 
L 1881 1375 
L 863 0 
L 184 0 
L 1544 1831 
L 300 3500 
L 978 3500 
L 1906 2253 
L 2834 3500 
L 3513 3500 
z
" transform="scale(0.015625)"/>
      <path id="DejaVuSans-54" d="M -19 4666 
L 3928 4666 
L 3928 4134 
L 2272 4134 
L 2272 0 
L 1638 0 
L 1638 4134 
L -19 4134 
L -19 4666 
z
" transform="scale(0.015625)"/>
      <path id="DejaVuSans-68" d="M 3513 2113 
L 3513 0 
L 2938 0 
L 2938 2094 
Q 2938 2591 2744 2837 
Q 2550 3084 2163 3084 
Q 1697 3084 1428 2787 
Q 1159 2491 1159 1978 
L 1159 0 
L 581 0 
L 581 4863 
L 1159 4863 
L 1159 2956 
Q 1366 3272 1645 3428 
Q 1925 3584 2291 3584 
Q 2894 3584 3203 3211 
Q 3513 2838 3513 2113 
z
" transform="scale(0.015625)"/>
      <path id="DejaVuSans-67" d="M 2906 1791 
Q 2906 2416 2648 2759 
Q 2391 3103 1925 3103 
Q 1463 3103 1205 2759 
Q 947 2416 947 1791 
Q 947 1169 1205 825 
Q 1463 481 1925 481 
Q 2391 481 2648 825 
Q 2906 1169 2906 1791 
z
M 3481 434 
Q 3481 -459 3084 -895 
Q 2688 -1331 1869 -1331 
Q 1566 -1331 1297 -1286 
Q 1028 -1241 775 -1147 
L 775 -588 
Q 1028 -725 1275 -790 
Q 1522 -856 1778 -856 
Q 2344 -856 2625 -561 
Q 2906 -266 2906 331 
L 2906 616 
Q 2728 306 2450 153 
Q 2172 0 1784 0 
Q 1141 0 747 490 
Q 353 981 353 1791 
Q 353 2603 747 3093 
Q 1141 3584 1784 3584 
Q 2172 3584 2450 3431 
Q 2728 3278 2906 2969 
L 2906 3500 
L 3481 3500 
L 3481 434 
z
" transform="scale(0.015625)"/>
      <path id="DejaVuSans-70" d="M 1159 525 
L 1159 -1331 
L 581 -1331 
L 581 3500 
L 1159 3500 
L 1159 2969 
Q 1341 3281 1617 3432 
Q 1894 3584 2278 3584 
Q 2916 3584 3314 3078 
Q 3713 2572 3713 1747 
Q 3713 922 3314 415 
Q 2916 -91 2278 -91 
Q 1894 -91 1617 61 
Q 1341 213 1159 525 
z
M 3116 1747 
Q 3116 2381 2855 2742 
Q 2594 3103 2138 3103 
Q 1681 3103 1420 2742 
Q 1159 2381 1159 1747 
Q 1159 1113 1420 752 
Q 1681 391 2138 391 
Q 2594 391 2855 752 
Q 3116 1113 3116 1747 
z
" transform="scale(0.015625)"/>
     </defs>
     <use xlink:href="#DejaVuSans-4d"/>
     <use xlink:href="#DejaVuSans-61" x="86.279297"/>
     <use xlink:href="#DejaVuSans-78" x="147.558594"/>
     <use xlink:href="#DejaVuSans-20" x="206.738281"/>
     <use xlink:href="#DejaVuSans-54" x="238.525391"/>
     <use xlink:href="#DejaVuSans-68" x="299.609375"/>
     <use xlink:href="#DejaVuSans-72" x="362.988281"/>
     <use xlink:href="#DejaVuSans-6f" x="401.851562"/>
     <use xlink:href="#DejaVuSans-75" x="463.033203"/>
     <use xlink:href="#DejaVuSans-67" x="526.412109"/>
     <use xlink:href="#DejaVuSans-68" x="589.888672"/>
     <use xlink:href="#DejaVuSans-70" x="653.267578"/>
     <use xlink:href="#DejaVuSans-75" x="716.744141"/>
     <use xlink:href="#DejaVuSans-74" x="780.123047"/>
    </g>
   </g>
   <g id="legend_1">
    <g id="patch_7">
     <path d="M 71.73 78.646125 
L 161.809687 78.646125 
Q 163.809687 78.646125 163.809687 76.646125 
L 163.809687 62.968 
Q 163.809687 60.968 161.809687 60.968 
L 71.73 60.968 
Q 69.73 60.968 69.73 62.968 
L 69.73 76.646125 
Q 69.73 78.646125 71.73 78.646125 
z
" style="fill: #ffffff; opacity: 0.8; stroke: #cccccc; stroke-linejoin: miter"/>
    </g>
    <g id="line2d_33">
     <path d="M 73.73 69.066438 
L 83.73 69.066438 
L 93.73 69.066438 
" style="fill: none; stroke: #ff7f0e; stroke-width: 1.5; stroke-linecap: square"/>
    </g>
    <g id="text_19">
     <!-- Throughput -->
     <g transform="translate(101.73 72.566438) scale(0.1 -0.1)">
      <use xlink:href="#DejaVuSans-54"/>
      <use xlink:href="#DejaVuSans-68" x="61.083984"/>
      <use xlink:href="#DejaVuSans-72" x="124.462891"/>
      <use xlink:href="#DejaVuSans-6f" x="163.326172"/>
      <use xlink:href="#DejaVuSans-75" x="224.507812"/>
      <use xlink:href="#DejaVuSans-67" x="287.886719"/>
      <use xlink:href="#DejaVuSans-68" x="351.363281"/>
      <use xlink:href="#DejaVuSans-70" x="414.742188"/>
      <use xlink:href="#DejaVuSans-75" x="478.21875"/>
      <use xlink:href="#DejaVuSans-74" x="541.597656"/>
     </g>
    </g>
   </g>
  </g>
  <g id="axes_2">
   <g id="matplotlib.axis_3">
    <g id="ytick_9">
     <g id="line2d_34">
      <defs>
       <path id="m7e91e22233" d="M 0 0 
L 3.5 0 
" style="stroke: #000000; stroke-width: 0.8"/>
      </defs>
      <g>
       <use xlink:href="#m7e91e22233" x="511.18" y="365.233091" style="stroke: #000000; stroke-width: 0.8"/>
      </g>
     </g>
     <g id="text_20">
      <!-- 0 -->
      <g style="fill: #2ca02c" transform="translate(518.18 369.792153) scale(0.12 -0.12)">
       <use xlink:href="#DejaVuSans-30"/>
      </g>
     </g>
    </g>
    <g id="ytick_10">
     <g id="line2d_35">
      <g>
       <use xlink:href="#m7e91e22233" x="511.18" y="320.534046" style="stroke: #000000; stroke-width: 0.8"/>
      </g>
     </g>
     <g id="text_21">
      <!-- 20 -->
      <g style="fill: #2ca02c" transform="translate(518.18 325.093108) scale(0.12 -0.12)">
       <use xlink:href="#DejaVuSans-32"/>
       <use xlink:href="#DejaVuSans-30" x="63.623047"/>
      </g>
     </g>
    </g>
    <g id="ytick_11">
     <g id="line2d_36">
      <g>
       <use xlink:href="#m7e91e22233" x="511.18" y="275.835001" style="stroke: #000000; stroke-width: 0.8"/>
      </g>
     </g>
     <g id="text_22">
      <!-- 40 -->
      <g style="fill: #2ca02c" transform="translate(518.18 280.394063) scale(0.12 -0.12)">
       <use xlink:href="#DejaVuSans-34"/>
       <use xlink:href="#DejaVuSans-30" x="63.623047"/>
      </g>
     </g>
    </g>
    <g id="ytick_12">
     <g id="line2d_37">
      <g>
       <use xlink:href="#m7e91e22233" x="511.18" y="231.135956" style="stroke: #000000; stroke-width: 0.8"/>
      </g>
     </g>
     <g id="text_23">
      <!-- 60 -->
      <g style="fill: #2ca02c" transform="translate(518.18 235.695018) scale(0.12 -0.12)">
       <use xlink:href="#DejaVuSans-36"/>
       <use xlink:href="#DejaVuSans-30" x="63.623047"/>
      </g>
     </g>
    </g>
    <g id="ytick_13">
     <g id="line2d_38">
      <g>
       <use xlink:href="#m7e91e22233" x="511.18" y="186.436911" style="stroke: #000000; stroke-width: 0.8"/>
      </g>
     </g>
     <g id="text_24">
      <!-- 80 -->
      <g style="fill: #2ca02c" transform="translate(518.18 190.995973) scale(0.12 -0.12)">
       <defs>
        <path id="DejaVuSans-38" d="M 2034 2216 
Q 1584 2216 1326 1975 
Q 1069 1734 1069 1313 
Q 1069 891 1326 650 
Q 1584 409 2034 409 
Q 2484 409 2743 651 
Q 3003 894 3003 1313 
Q 3003 1734 2745 1975 
Q 2488 2216 2034 2216 
z
M 1403 2484 
Q 997 2584 770 2862 
Q 544 3141 544 3541 
Q 544 4100 942 4425 
Q 1341 4750 2034 4750 
Q 2731 4750 3128 4425 
Q 3525 4100 3525 3541 
Q 3525 3141 3298 2862 
Q 3072 2584 2669 2484 
Q 3125 2378 3379 2068 
Q 3634 1759 3634 1313 
Q 3634 634 3220 271 
Q 2806 -91 2034 -91 
Q 1263 -91 848 271 
Q 434 634 434 1313 
Q 434 1759 690 2068 
Q 947 2378 1403 2484 
z
M 1172 3481 
Q 1172 3119 1398 2916 
Q 1625 2713 2034 2713 
Q 2441 2713 2670 2916 
Q 2900 3119 2900 3481 
Q 2900 3844 2670 4047 
Q 2441 4250 2034 4250 
Q 1625 4250 1398 4047 
Q 1172 3844 1172 3481 
z
" transform="scale(0.015625)"/>
       </defs>
       <use xlink:href="#DejaVuSans-38"/>
       <use xlink:href="#DejaVuSans-30" x="63.623047"/>
      </g>
     </g>
    </g>
    <g id="ytick_14">
     <g id="line2d_39">
      <g>
       <use xlink:href="#m7e91e22233" x="511.18" y="141.737866" style="stroke: #000000; stroke-width: 0.8"/>
      </g>
     </g>
     <g id="text_25">
      <!-- 100 -->
      <g style="fill: #2ca02c" transform="translate(518.18 146.296928) scale(0.12 -0.12)">
       <use xlink:href="#DejaVuSans-31"/>
       <use xlink:href="#DejaVuSans-30" x="63.623047"/>
       <use xlink:href="#DejaVuSans-30" x="127.246094"/>
      </g>
     </g>
    </g>
    <g id="ytick_15">
     <g id="line2d_40">
      <g>
       <use xlink:href="#m7e91e22233" x="511.18" y="97.038821" style="stroke: #000000; stroke-width: 0.8"/>
      </g>
     </g>
     <g id="text_26">
      <!-- 120 -->
      <g style="fill: #2ca02c" transform="translate(518.18 101.597883) scale(0.12 -0.12)">
       <use xlink:href="#DejaVuSans-31"/>
       <use xlink:href="#DejaVuSans-32" x="63.623047"/>
       <use xlink:href="#DejaVuSans-30" x="127.246094"/>
      </g>
     </g>
    </g>
    <g id="text_27">
     <!-- Block Loss -->
     <g style="fill: #2ca02c" transform="translate(560.281875 270.123375) rotate(-90) scale(0.2 -0.2)">
      <defs>
       <path id="DejaVuSans-42" d="M 1259 2228 
L 1259 519 
L 2272 519 
Q 2781 519 3026 730 
Q 3272 941 3272 1375 
Q 3272 1813 3026 2020 
Q 2781 2228 2272 2228 
L 1259 2228 
z
M 1259 4147 
L 1259 2741 
L 2194 2741 
Q 2656 2741 2882 2914 
Q 3109 3088 3109 3444 
Q 3109 3797 2882 3972 
Q 2656 4147 2194 4147 
L 1259 4147 
z
M 628 4666 
L 2241 4666 
Q 2963 4666 3353 4366 
Q 3744 4066 3744 3513 
Q 3744 3084 3544 2831 
Q 3344 2578 2956 2516 
Q 3422 2416 3680 2098 
Q 3938 1781 3938 1306 
Q 3938 681 3513 340 
Q 3088 0 2303 0 
L 628 0 
L 628 4666 
z
" transform="scale(0.015625)"/>
       <path id="DejaVuSans-6b" d="M 581 4863 
L 1159 4863 
L 1159 1991 
L 2875 3500 
L 3609 3500 
L 1753 1863 
L 3688 0 
L 2938 0 
L 1159 1709 
L 1159 0 
L 581 0 
L 581 4863 
z
" transform="scale(0.015625)"/>
      </defs>
      <use xlink:href="#DejaVuSans-42"/>
      <use xlink:href="#DejaVuSans-6c" x="68.603516"/>
      <use xlink:href="#DejaVuSans-6f" x="96.386719"/>
      <use xlink:href="#DejaVuSans-63" x="157.568359"/>
      <use xlink:href="#DejaVuSans-6b" x="212.548828"/>
      <use xlink:href="#DejaVuSans-20" x="270.458984"/>
      <use xlink:href="#DejaVuSans-4c" x="302.246094"/>
      <use xlink:href="#DejaVuSans-6f" x="356.208984"/>
      <use xlink:href="#DejaVuSans-73" x="417.390625"/>
      <use xlink:href="#DejaVuSans-73" x="469.490234"/>
     </g>
    </g>
   </g>
   <g id="line2d_41">
    <path d="M 85.023182 365.233091 
L 86.349534 363.945347 
L 87.675885 364.821389 
L 89.002237 364.913434 
L 90.328589 363.793605 
L 91.654941 364.319113 
L 92.981292 364.394102 
L 94.307644 363.268686 
L 95.633996 364.617303 
L 96.960348 363.89212 
L 99.613051 364.219717 
L 100.939403 365.029004 
L 102.265755 363.32103 
L 103.592106 363.418957 
L 104.918458 363.993575 
L 106.24481 364.012101 
L 107.571162 362.755235 
L 108.897513 364.052683 
L 110.223865 363.855655 
L 111.550217 364.25177 
L 112.876569 364.084737 
L 114.20292 363.778902 
L 115.529272 364.901377 
L 116.855624 363.284565 
L 118.181976 363.147528 
L 119.508327 363.929173 
L 120.834679 362.906094 
L 122.161031 364.267356 
L 124.813734 363.62863 
L 126.140086 363.703619 
L 127.466438 364.262651 
L 128.79279 364.259416 
L 130.119141 364.559665 
L 131.445493 365.015183 
L 132.771845 363.81125 
L 134.098197 364.572016 
L 135.424548 363.437483 
L 136.7509 364.12679 
L 138.077252 364.44527 
L 139.403604 363.348379 
L 140.729955 364.262063 
L 142.056307 363.684798 
L 143.382659 363.434837 
L 144.709011 364.424979 
L 147.361714 364.966955 
L 148.688066 364.287647 
L 150.014418 364.773455 
L 151.340769 364.184722 
L 152.667121 364.298822 
L 153.993473 363.712147 
L 155.319825 363.850655 
L 156.646176 363.760669 
L 157.972528 364.621126 
L 159.29888 364.372634 
L 160.625232 364.742872 
L 161.951583 364.881086 
L 164.604287 364.734638 
L 165.930639 364.872852 
L 168.583342 364.716111 
L 169.909694 365.080173 
L 171.236046 364.89079 
L 172.562398 365.024299 
L 175.215101 364.995774 
L 176.541453 365.196626 
L 177.867805 365.081938 
L 179.194156 364.519965 
L 180.520508 364.945194 
L 181.84686 364.461738 
L 183.173212 364.71023 
L 184.499563 364.751106 
L 185.825915 364.58966 
L 187.152267 364.639064 
L 188.478619 365.001362 
L 189.80497 364.56437 
L 191.131322 365.055177 
L 192.457674 364.761692 
L 193.784026 364.706701 
L 195.110377 365.18898 
L 196.436729 365.115462 
L 197.763081 363.572168 
L 199.089433 365.086937 
L 200.415784 364.686116 
L 201.742136 364.499086 
L 203.068488 364.938136 
L 208.373895 364.610245 
L 209.700247 364.883144 
L 212.35295 364.711112 
L 213.679302 364.150315 
L 215.005654 363.061364 
L 216.332005 364.400277 
L 217.658357 364.428802 
L 218.984709 364.64818 
L 220.311061 365.124872 
L 221.637412 364.535845 
L 222.963764 364.609951 
L 225.616468 365.093995 
L 226.942819 364.672 
L 228.269171 364.799922 
L 229.595523 364.597894 
L 230.921875 365.103993 
L 232.248226 365.125754 
L 233.574578 364.527905 
L 234.90093 364.695526 
L 236.227282 364.662884 
L 237.553633 365.069292 
L 238.879985 365.054883 
L 240.206337 364.591424 
L 244.185392 364.925197 
L 245.511744 364.432625 
L 246.838096 364.859619 
L 248.164447 364.52467 
L 253.469854 365.073409 
L 254.796206 365.173688 
L 257.44891 364.340874 
L 258.775261 365.11458 
L 260.101613 364.57378 
L 261.427965 364.993422 
L 264.080668 364.704936 
L 265.40702 364.737873 
L 266.733372 364.414393 
L 268.059724 364.908729 
L 269.386075 364.810508 
L 270.712427 364.953134 
L 272.038779 364.602599 
L 273.365131 364.597306 
L 274.691482 364.860795 
L 276.017834 364.468502 
L 277.344186 364.880792 
L 278.670538 364.439095 
L 279.996889 365.016065 
L 281.323241 364.832564 
L 283.975945 364.707583 
L 285.302296 364.808744 
L 286.628648 364.773455 
L 287.955 364.877851 
L 290.607704 364.718464 
L 291.934055 364.895201 
L 297.239462 364.761398 
L 298.565814 364.084737 
L 301.218518 364.769338 
L 302.544869 364.356754 
L 303.871221 364.984894 
L 305.197573 364.276178 
L 306.523925 364.73552 
L 307.850276 364.620538 
L 309.176628 364.81639 
L 310.50298 364.871382 
L 311.829332 365.047237 
L 313.155683 364.494674 
L 314.482035 364.522023 
L 315.808387 364.69582 
L 317.134739 364.506143 
L 319.787442 364.657003 
L 321.113794 364.517318 
L 322.440146 364.66259 
L 325.092849 364.593777 
L 326.419201 364.864912 
L 327.745553 364.748753 
L 330.398256 364.747871 
L 333.05096 364.88932 
L 334.377311 364.567604 
L 335.703663 364.757869 
L 338.356367 364.7911 
L 339.682718 364.597306 
L 342.335422 364.767868 
L 343.661774 364.939312 
L 344.988125 358.010666 
L 346.314477 352.926444 
L 347.640829 351.225234 
L 348.967181 336.574239 
L 350.293532 331.216235 
L 351.619884 329.719994 
L 352.946236 311.704514 
L 354.272588 308.78996 
L 355.598939 307.341946 
L 356.925291 253.375495 
L 359.577995 250.274793 
L 360.904346 248.613576 
L 362.230698 248.662981 
L 363.55705 246.148953 
L 364.883402 244.546257 
L 366.209753 244.327761 
L 367.536105 242.380412 
L 368.862457 241.153247 
L 370.188809 240.231035 
L 371.51516 238.720972 
L 372.841512 237.419112 
L 374.167864 236.394563 
L 375.494216 234.816275 
L 376.820567 232.599261 
L 378.146919 232.872161 
L 379.473271 230.671321 
L 380.799623 228.785139 
L 382.125974 228.426076 
L 384.778678 225.02689 
L 386.10503 224.820157 
L 387.431381 222.310835 
L 388.757733 220.881642 
L 390.084085 218.939586 
L 391.410437 218.202346 
L 392.736788 215.858293 
L 394.06314 216.422618 
L 396.715844 211.954772 
L 398.042195 210.647913 
L 399.368547 209.964488 
L 400.694899 207.665722 
L 402.021251 207.463988 
L 403.347602 204.760284 
L 404.673954 203.231401 
L 406.000306 203.095833 
L 407.326658 200.455649 
L 408.65301 199.387871 
L 409.979361 198.795903 
L 411.305713 196.080436 
L 412.632065 194.314823 
L 413.958417 194.642126 
L 416.61112 189.762284 
L 417.937472 190.134286 
L 419.263824 187.085929 
L 420.590175 184.501913 
L 421.916527 185.063297 
L 423.242879 182.258432 
L 424.569231 179.898499 
L 425.895582 179.597957 
L 427.221934 177.218909 
L 428.548286 175.367722 
L 429.874638 175.282146 
L 431.200989 171.446851 
L 432.527341 170.564927 
L 433.853693 170.285558 
L 435.180045 168.135887 
L 436.506396 166.302049 
L 437.832748 164.889618 
L 439.1591 165.407186 
L 440.485452 160.879938 
L 441.811803 161.282229 
L 443.138155 157.931271 
L 444.464507 156.244764 
L 445.790859 155.444887 
L 447.11721 153.432547 
L 448.443562 150.751193 
L 449.769914 151.396682 
L 451.096266 147.653725 
L 452.422617 145.392895 
L 453.748969 146.196595 
L 455.075321 142.797704 
L 456.401673 140.054006 
L 457.728024 140.647738 
L 459.054376 137.607027 
L 460.380728 135.416774 
L 461.70708 135.003602 
L 463.033431 131.884667 
L 464.359783 130.666324 
L 465.686135 129.862623 
L 467.012487 125.953809 
L 468.338838 125.249799 
L 469.66519 125.023364 
L 470.991542 120.055006 
L 472.317894 118.545237 
L 473.644245 119.831511 
L 474.970597 114.938142 
L 476.296949 114.39646 
L 477.623301 112.857577 
L 478.949652 110.471178 
L 480.276004 107.573974 
L 481.602356 107.508396 
L 482.928708 105.152874 
L 484.255059 102.133041 
L 485.581411 102.756475 
L 486.907763 76.037915 
L 488.234115 75.278914 
L 489.560466 70.694909 
L 490.886818 70.828124 
L 490.886818 70.828124 
" clip-path="url(#pb95654b0d6)" style="fill: none; stroke: #2ca02c; stroke-width: 1.5; stroke-linecap: square"/>
   </g>
   <g id="patch_8">
    <path d="M 64.73 379.96 
L 64.73 55.968 
" style="fill: none; stroke: #000000; stroke-width: 0.8; stroke-linejoin: miter; stroke-linecap: square"/>
   </g>
   <g id="patch_9">
    <path d="M 511.18 379.96 
L 511.18 55.968 
" style="fill: none; stroke: #000000; stroke-width: 0.8; stroke-linejoin: miter; stroke-linecap: square"/>
   </g>
   <g id="patch_10">
    <path d="M 64.73 379.96 
L 511.18 379.96 
" style="fill: none; stroke: #000000; stroke-width: 0.8; stroke-linejoin: miter; stroke-linecap: square"/>
   </g>
   <g id="patch_11">
    <path d="M 64.73 55.968 
L 511.18 55.968 
" style="fill: none; stroke: #000000; stroke-width: 0.8; stroke-linejoin: miter; stroke-linecap: square"/>
   </g>
   <g id="text_28">
    <!-- [nano] -->
    <g transform="translate(255.23 27.572375) scale(0.2 -0.2)">
     <defs>
      <path id="DejaVuSans-5b" d="M 550 4863 
L 1875 4863 
L 1875 4416 
L 1125 4416 
L 1125 -397 
L 1875 -397 
L 1875 -844 
L 550 -844 
L 550 4863 
z
" transform="scale(0.015625)"/>
      <path id="DejaVuSans-5d" d="M 1947 4863 
L 1947 -844 
L 622 -844 
L 622 -397 
L 1369 -397 
L 1369 4416 
L 622 4416 
L 622 4863 
L 1947 4863 
z
" transform="scale(0.015625)"/>
     </defs>
     <use xlink:href="#DejaVuSans-5b"/>
     <use xlink:href="#DejaVuSans-6e" x="39.013672"/>
     <use xlink:href="#DejaVuSans-61" x="102.392578"/>
     <use xlink:href="#DejaVuSans-6e" x="163.671875"/>
     <use xlink:href="#DejaVuSans-6f" x="227.050781"/>
     <use xlink:href="#DejaVuSans-5d" x="288.232422"/>
    </g>
    <!-- GPU-accel [0,M] with densenet201 -->
    <g transform="translate(114.77375 49.968) scale(0.2 -0.2)">
     <defs>
      <path id="DejaVuSans-50" d="M 1259 4147 
L 1259 2394 
L 2053 2394 
Q 2494 2394 2734 2622 
Q 2975 2850 2975 3272 
Q 2975 3691 2734 3919 
Q 2494 4147 2053 4147 
L 1259 4147 
z
M 628 4666 
L 2053 4666 
Q 2838 4666 3239 4311 
Q 3641 3956 3641 3272 
Q 3641 2581 3239 2228 
Q 2838 1875 2053 1875 
L 1259 1875 
L 1259 0 
L 628 0 
L 628 4666 
z
" transform="scale(0.015625)"/>
      <path id="DejaVuSans-55" d="M 556 4666 
L 1191 4666 
L 1191 1831 
Q 1191 1081 1462 751 
Q 1734 422 2344 422 
Q 2950 422 3222 751 
Q 3494 1081 3494 1831 
L 3494 4666 
L 4128 4666 
L 4128 1753 
Q 4128 841 3676 375 
Q 3225 -91 2344 -91 
Q 1459 -91 1007 375 
Q 556 841 556 1753 
L 556 4666 
z
" transform="scale(0.015625)"/>
      <path id="DejaVuSans-2d" d="M 313 2009 
L 1997 2009 
L 1997 1497 
L 313 1497 
L 313 2009 
z
" transform="scale(0.015625)"/>
      <path id="DejaVuSans-2c" d="M 750 794 
L 1409 794 
L 1409 256 
L 897 -744 
L 494 -744 
L 750 256 
L 750 794 
z
" transform="scale(0.015625)"/>
      <path id="DejaVuSans-77" d="M 269 3500 
L 844 3500 
L 1563 769 
L 2278 3500 
L 2956 3500 
L 3675 769 
L 4391 3500 
L 4966 3500 
L 4050 0 
L 3372 0 
L 2619 2869 
L 1863 0 
L 1184 0 
L 269 3500 
z
" transform="scale(0.015625)"/>
     </defs>
     <use xlink:href="#DejaVuSans-47"/>
     <use xlink:href="#DejaVuSans-50" x="77.490234"/>
     <use xlink:href="#DejaVuSans-55" x="137.792969"/>
     <use xlink:href="#DejaVuSans-2d" x="210.986328"/>
     <use xlink:href="#DejaVuSans-61" x="247.070312"/>
     <use xlink:href="#DejaVuSans-63" x="308.349609"/>
     <use xlink:href="#DejaVuSans-63" x="363.330078"/>
     <use xlink:href="#DejaVuSans-65" x="418.310547"/>
     <use xlink:href="#DejaVuSans-6c" x="479.833984"/>
     <use xlink:href="#DejaVuSans-20" x="507.617188"/>
     <use xlink:href="#DejaVuSans-5b" x="539.404297"/>
     <use xlink:href="#DejaVuSans-30" x="578.417969"/>
     <use xlink:href="#DejaVuSans-2c" x="642.041016"/>
     <use xlink:href="#DejaVuSans-4d" x="673.828125"/>
     <use xlink:href="#DejaVuSans-5d" x="760.107422"/>
     <use xlink:href="#DejaVuSans-20" x="799.121094"/>
     <use xlink:href="#DejaVuSans-77" x="830.908203"/>
     <use xlink:href="#DejaVuSans-69" x="912.695312"/>
     <use xlink:href="#DejaVuSans-74" x="940.478516"/>
     <use xlink:href="#DejaVuSans-68" x="979.6875"/>
     <use xlink:href="#DejaVuSans-20" x="1043.066406"/>
     <use xlink:href="#DejaVuSans-64" x="1074.853516"/>
     <use xlink:href="#DejaVuSans-65" x="1138.330078"/>
     <use xlink:href="#DejaVuSans-6e" x="1199.853516"/>
     <use xlink:href="#DejaVuSans-73" x="1263.232422"/>
     <use xlink:href="#DejaVuSans-65" x="1315.332031"/>
     <use xlink:href="#DejaVuSans-6e" x="1376.855469"/>
     <use xlink:href="#DejaVuSans-65" x="1440.234375"/>
     <use xlink:href="#DejaVuSans-74" x="1501.757812"/>
     <use xlink:href="#DejaVuSans-32" x="1540.966797"/>
     <use xlink:href="#DejaVuSans-30" x="1604.589844"/>
     <use xlink:href="#DejaVuSans-31" x="1668.212891"/>
    </g>
   </g>
   <g id="legend_2">
    <g id="patch_12">
     <path d="M 443.501875 78.646125 
L 504.18 78.646125 
Q 506.18 78.646125 506.18 76.646125 
L 506.18 62.968 
Q 506.18 60.968 504.18 60.968 
L 443.501875 60.968 
Q 441.501875 60.968 441.501875 62.968 
L 441.501875 76.646125 
Q 441.501875 78.646125 443.501875 78.646125 
z
" style="fill: #ffffff; opacity: 0.8; stroke: #cccccc; stroke-linejoin: miter"/>
    </g>
    <g id="line2d_42">
     <path d="M 445.501875 69.066438 
L 455.501875 69.066438 
L 465.501875 69.066438 
" style="fill: none; stroke: #2ca02c; stroke-width: 1.5; stroke-linecap: square"/>
    </g>
    <g id="text_29">
     <!-- Delay -->
     <g transform="translate(473.501875 72.566438) scale(0.1 -0.1)">
      <defs>
       <path id="DejaVuSans-44" d="M 1259 4147 
L 1259 519 
L 2022 519 
Q 2988 519 3436 956 
Q 3884 1394 3884 2338 
Q 3884 3275 3436 3711 
Q 2988 4147 2022 4147 
L 1259 4147 
z
M 628 4666 
L 1925 4666 
Q 3281 4666 3915 4102 
Q 4550 3538 4550 2338 
Q 4550 1131 3912 565 
Q 3275 0 1925 0 
L 628 0 
L 628 4666 
z
" transform="scale(0.015625)"/>
      </defs>
      <use xlink:href="#DejaVuSans-44"/>
      <use xlink:href="#DejaVuSans-65" x="77.001953"/>
      <use xlink:href="#DejaVuSans-6c" x="138.525391"/>
      <use xlink:href="#DejaVuSans-61" x="166.308594"/>
      <use xlink:href="#DejaVuSans-79" x="227.587891"/>
     </g>
    </g>
   </g>
  </g>
 </g>
 <defs>
  <clipPath id="pb95654b0d6">
   <rect x="64.73" y="55.968" width="446.45" height="323.992"/>
  </clipPath>
 </defs>
</svg>
