<?xml version="1.0" encoding="utf-8" standalone="no"?>
<!DOCTYPE svg PUBLIC "-//W3C//DTD SVG 1.1//EN"
  "http://www.w3.org/Graphics/SVG/1.1/DTD/svg11.dtd">
<svg xmlns:xlink="http://www.w3.org/1999/xlink" width="2160pt" height="288pt" viewBox="0 0 2160 288" xmlns="http://www.w3.org/2000/svg" version="1.1">
 <metadata>
  <rdf:RDF xmlns:dc="http://purl.org/dc/elements/1.1/" xmlns:cc="http://creativecommons.org/ns#" xmlns:rdf="http://www.w3.org/1999/02/22-rdf-syntax-ns#">
   <cc:Work>
    <dc:type rdf:resource="http://purl.org/dc/dcmitype/StillImage"/>
    <dc:date>2025-01-07T17:39:01.296399</dc:date>
    <dc:format>image/svg+xml</dc:format>
    <dc:creator>
     <cc:Agent>
      <dc:title>Matplotlib v3.7.5, https://matplotlib.org/</dc:title>
     </cc:Agent>
    </dc:creator>
   </cc:Work>
  </rdf:RDF>
 </metadata>
 <defs>
  <style type="text/css">*{stroke-linejoin: round; stroke-linecap: butt}</style>
 </defs>
 <g id="figure_1">
  <g id="patch_1">
   <path d="M 0 288 
L 2160 288 
L 2160 0 
L 0 0 
z
" style="fill: #ffffff"/>
  </g>
  <g id="axes_1">
   <g id="patch_2">
    <path d="M 74.72 218.68 
L 2149.2 218.68 
L 2149.2 12.191188 
L 74.72 12.191188 
z
" style="fill: #ffffff"/>
   </g>
   <g id="matplotlib.axis_1">
    <g id="xtick_1">
     <g id="line2d_1">
      <defs>
       <path id="m2d694926af" d="M 0 0 
L 0 3.5 
" style="stroke: #000000; stroke-width: 0.8"/>
      </defs>
      <g>
       <use xlink:href="#m2d694926af" x="81.455325" y="218.68" style="stroke: #000000; stroke-width: 0.8"/>
      </g>
     </g>
     <g id="text_1">
      <!-- 0 -->
      <g transform="translate(75.092825 240.876875) scale(0.2 -0.2)">
       <defs>
        <path id="DejaVuSans-30" d="M 2034 4250 
Q 1547 4250 1301 3770 
Q 1056 3291 1056 2328 
Q 1056 1369 1301 889 
Q 1547 409 2034 409 
Q 2525 409 2770 889 
Q 3016 1369 3016 2328 
Q 3016 3291 2770 3770 
Q 2525 4250 2034 4250 
z
M 2034 4750 
Q 2819 4750 3233 4129 
Q 3647 3509 3647 2328 
Q 3647 1150 3233 529 
Q 2819 -91 2034 -91 
Q 1250 -91 836 529 
Q 422 1150 422 2328 
Q 422 3509 836 4129 
Q 1250 4750 2034 4750 
z
" transform="scale(0.015625)"/>
       </defs>
       <use xlink:href="#DejaVuSans-30"/>
      </g>
     </g>
    </g>
    <g id="xtick_2">
     <g id="line2d_2">
      <g>
       <use xlink:href="#m2d694926af" x="418.221558" y="218.68" style="stroke: #000000; stroke-width: 0.8"/>
      </g>
     </g>
     <g id="text_2">
      <!-- 50 -->
      <g transform="translate(405.496558 240.876875) scale(0.2 -0.2)">
       <defs>
        <path id="DejaVuSans-35" d="M 691 4666 
L 3169 4666 
L 3169 4134 
L 1269 4134 
L 1269 2991 
Q 1406 3038 1543 3061 
Q 1681 3084 1819 3084 
Q 2600 3084 3056 2656 
Q 3513 2228 3513 1497 
Q 3513 744 3044 326 
Q 2575 -91 1722 -91 
Q 1428 -91 1123 -41 
Q 819 9 494 109 
L 494 744 
Q 775 591 1075 516 
Q 1375 441 1709 441 
Q 2250 441 2565 725 
Q 2881 1009 2881 1497 
Q 2881 1984 2565 2268 
Q 2250 2553 1709 2553 
Q 1456 2553 1204 2497 
Q 953 2441 691 2322 
L 691 4666 
z
" transform="scale(0.015625)"/>
       </defs>
       <use xlink:href="#DejaVuSans-35"/>
       <use xlink:href="#DejaVuSans-30" x="63.623047"/>
      </g>
     </g>
    </g>
    <g id="xtick_3">
     <g id="line2d_3">
      <g>
       <use xlink:href="#m2d694926af" x="754.987792" y="218.68" style="stroke: #000000; stroke-width: 0.8"/>
      </g>
     </g>
     <g id="text_3">
      <!-- 100 -->
      <g transform="translate(735.900292 240.876875) scale(0.2 -0.2)">
       <defs>
        <path id="DejaVuSans-31" d="M 794 531 
L 1825 531 
L 1825 4091 
L 703 3866 
L 703 4441 
L 1819 4666 
L 2450 4666 
L 2450 531 
L 3481 531 
L 3481 0 
L 794 0 
L 794 531 
z
" transform="scale(0.015625)"/>
       </defs>
       <use xlink:href="#DejaVuSans-31"/>
       <use xlink:href="#DejaVuSans-30" x="63.623047"/>
       <use xlink:href="#DejaVuSans-30" x="127.246094"/>
      </g>
     </g>
    </g>
    <g id="xtick_4">
     <g id="line2d_4">
      <g>
       <use xlink:href="#m2d694926af" x="1091.754026" y="218.68" style="stroke: #000000; stroke-width: 0.8"/>
      </g>
     </g>
     <g id="text_4">
      <!-- 150 -->
      <g transform="translate(1072.666526 240.876875) scale(0.2 -0.2)">
       <use xlink:href="#DejaVuSans-31"/>
       <use xlink:href="#DejaVuSans-35" x="63.623047"/>
       <use xlink:href="#DejaVuSans-30" x="127.246094"/>
      </g>
     </g>
    </g>
    <g id="xtick_5">
     <g id="line2d_5">
      <g>
       <use xlink:href="#m2d694926af" x="1428.52026" y="218.68" style="stroke: #000000; stroke-width: 0.8"/>
      </g>
     </g>
     <g id="text_5">
      <!-- 200 -->
      <g transform="translate(1409.43276 240.876875) scale(0.2 -0.2)">
       <defs>
        <path id="DejaVuSans-32" d="M 1228 531 
L 3431 531 
L 3431 0 
L 469 0 
L 469 531 
Q 828 903 1448 1529 
Q 2069 2156 2228 2338 
Q 2531 2678 2651 2914 
Q 2772 3150 2772 3378 
Q 2772 3750 2511 3984 
Q 2250 4219 1831 4219 
Q 1534 4219 1204 4116 
Q 875 4013 500 3803 
L 500 4441 
Q 881 4594 1212 4672 
Q 1544 4750 1819 4750 
Q 2544 4750 2975 4387 
Q 3406 4025 3406 3419 
Q 3406 3131 3298 2873 
Q 3191 2616 2906 2266 
Q 2828 2175 2409 1742 
Q 1991 1309 1228 531 
z
" transform="scale(0.015625)"/>
       </defs>
       <use xlink:href="#DejaVuSans-32"/>
       <use xlink:href="#DejaVuSans-30" x="63.623047"/>
       <use xlink:href="#DejaVuSans-30" x="127.246094"/>
      </g>
     </g>
    </g>
    <g id="xtick_6">
     <g id="line2d_6">
      <g>
       <use xlink:href="#m2d694926af" x="1765.286494" y="218.68" style="stroke: #000000; stroke-width: 0.8"/>
      </g>
     </g>
     <g id="text_6">
      <!-- 250 -->
      <g transform="translate(1746.198994 240.876875) scale(0.2 -0.2)">
       <use xlink:href="#DejaVuSans-32"/>
       <use xlink:href="#DejaVuSans-35" x="63.623047"/>
       <use xlink:href="#DejaVuSans-30" x="127.246094"/>
      </g>
     </g>
    </g>
    <g id="xtick_7">
     <g id="line2d_7">
      <g>
       <use xlink:href="#m2d694926af" x="2102.052727" y="218.68" style="stroke: #000000; stroke-width: 0.8"/>
      </g>
     </g>
     <g id="text_7">
      <!-- 300 -->
      <g transform="translate(2082.965227 240.876875) scale(0.2 -0.2)">
       <defs>
        <path id="DejaVuSans-33" d="M 2597 2516 
Q 3050 2419 3304 2112 
Q 3559 1806 3559 1356 
Q 3559 666 3084 287 
Q 2609 -91 1734 -91 
Q 1441 -91 1130 -33 
Q 819 25 488 141 
L 488 750 
Q 750 597 1062 519 
Q 1375 441 1716 441 
Q 2309 441 2620 675 
Q 2931 909 2931 1356 
Q 2931 1769 2642 2001 
Q 2353 2234 1838 2234 
L 1294 2234 
L 1294 2753 
L 1863 2753 
Q 2328 2753 2575 2939 
Q 2822 3125 2822 3475 
Q 2822 3834 2567 4026 
Q 2313 4219 1838 4219 
Q 1578 4219 1281 4162 
Q 984 4106 628 3988 
L 628 4550 
Q 988 4650 1302 4700 
Q 1616 4750 1894 4750 
Q 2613 4750 3031 4423 
Q 3450 4097 3450 3541 
Q 3450 3153 3228 2886 
Q 3006 2619 2597 2516 
z
" transform="scale(0.015625)"/>
       </defs>
       <use xlink:href="#DejaVuSans-33"/>
       <use xlink:href="#DejaVuSans-30" x="63.623047"/>
       <use xlink:href="#DejaVuSans-30" x="127.246094"/>
      </g>
     </g>
    </g>
    <g id="text_8">
     <!-- Layer Index -->
     <g transform="translate(1029.92875 270.311875) scale(0.28 -0.28)">
      <defs>
       <path id="DejaVuSans-4c" d="M 628 4666 
L 1259 4666 
L 1259 531 
L 3531 531 
L 3531 0 
L 628 0 
L 628 4666 
z
" transform="scale(0.015625)"/>
       <path id="DejaVuSans-61" d="M 2194 1759 
Q 1497 1759 1228 1600 
Q 959 1441 959 1056 
Q 959 750 1161 570 
Q 1363 391 1709 391 
Q 2188 391 2477 730 
Q 2766 1069 2766 1631 
L 2766 1759 
L 2194 1759 
z
M 3341 1997 
L 3341 0 
L 2766 0 
L 2766 531 
Q 2569 213 2275 61 
Q 1981 -91 1556 -91 
Q 1019 -91 701 211 
Q 384 513 384 1019 
Q 384 1609 779 1909 
Q 1175 2209 1959 2209 
L 2766 2209 
L 2766 2266 
Q 2766 2663 2505 2880 
Q 2244 3097 1772 3097 
Q 1472 3097 1187 3025 
Q 903 2953 641 2809 
L 641 3341 
Q 956 3463 1253 3523 
Q 1550 3584 1831 3584 
Q 2591 3584 2966 3190 
Q 3341 2797 3341 1997 
z
" transform="scale(0.015625)"/>
       <path id="DejaVuSans-79" d="M 2059 -325 
Q 1816 -950 1584 -1140 
Q 1353 -1331 966 -1331 
L 506 -1331 
L 506 -850 
L 844 -850 
Q 1081 -850 1212 -737 
Q 1344 -625 1503 -206 
L 1606 56 
L 191 3500 
L 800 3500 
L 1894 763 
L 2988 3500 
L 3597 3500 
L 2059 -325 
z
" transform="scale(0.015625)"/>
       <path id="DejaVuSans-65" d="M 3597 1894 
L 3597 1613 
L 953 1613 
Q 991 1019 1311 708 
Q 1631 397 2203 397 
Q 2534 397 2845 478 
Q 3156 559 3463 722 
L 3463 178 
Q 3153 47 2828 -22 
Q 2503 -91 2169 -91 
Q 1331 -91 842 396 
Q 353 884 353 1716 
Q 353 2575 817 3079 
Q 1281 3584 2069 3584 
Q 2775 3584 3186 3129 
Q 3597 2675 3597 1894 
z
M 3022 2063 
Q 3016 2534 2758 2815 
Q 2500 3097 2075 3097 
Q 1594 3097 1305 2825 
Q 1016 2553 972 2059 
L 3022 2063 
z
" transform="scale(0.015625)"/>
       <path id="DejaVuSans-72" d="M 2631 2963 
Q 2534 3019 2420 3045 
Q 2306 3072 2169 3072 
Q 1681 3072 1420 2755 
Q 1159 2438 1159 1844 
L 1159 0 
L 581 0 
L 581 3500 
L 1159 3500 
L 1159 2956 
Q 1341 3275 1631 3429 
Q 1922 3584 2338 3584 
Q 2397 3584 2469 3576 
Q 2541 3569 2628 3553 
L 2631 2963 
z
" transform="scale(0.015625)"/>
       <path id="DejaVuSans-20" transform="scale(0.015625)"/>
       <path id="DejaVuSans-49" d="M 628 4666 
L 1259 4666 
L 1259 0 
L 628 0 
L 628 4666 
z
" transform="scale(0.015625)"/>
       <path id="DejaVuSans-6e" d="M 3513 2113 
L 3513 0 
L 2938 0 
L 2938 2094 
Q 2938 2591 2744 2837 
Q 2550 3084 2163 3084 
Q 1697 3084 1428 2787 
Q 1159 2491 1159 1978 
L 1159 0 
L 581 0 
L 581 3500 
L 1159 3500 
L 1159 2956 
Q 1366 3272 1645 3428 
Q 1925 3584 2291 3584 
Q 2894 3584 3203 3211 
Q 3513 2838 3513 2113 
z
" transform="scale(0.015625)"/>
       <path id="DejaVuSans-64" d="M 2906 2969 
L 2906 4863 
L 3481 4863 
L 3481 0 
L 2906 0 
L 2906 525 
Q 2725 213 2448 61 
Q 2172 -91 1784 -91 
Q 1150 -91 751 415 
Q 353 922 353 1747 
Q 353 2572 751 3078 
Q 1150 3584 1784 3584 
Q 2172 3584 2448 3432 
Q 2725 3281 2906 2969 
z
M 947 1747 
Q 947 1113 1208 752 
Q 1469 391 1925 391 
Q 2381 391 2643 752 
Q 2906 1113 2906 1747 
Q 2906 2381 2643 2742 
Q 2381 3103 1925 3103 
Q 1469 3103 1208 2742 
Q 947 2381 947 1747 
z
" transform="scale(0.015625)"/>
       <path id="DejaVuSans-78" d="M 3513 3500 
L 2247 1797 
L 3578 0 
L 2900 0 
L 1881 1375 
L 863 0 
L 184 0 
L 1544 1831 
L 300 3500 
L 978 3500 
L 1906 2253 
L 2834 3500 
L 3513 3500 
z
" transform="scale(0.015625)"/>
      </defs>
      <use xlink:href="#DejaVuSans-4c"/>
      <use xlink:href="#DejaVuSans-61" x="55.712891"/>
      <use xlink:href="#DejaVuSans-79" x="116.992188"/>
      <use xlink:href="#DejaVuSans-65" x="176.171875"/>
      <use xlink:href="#DejaVuSans-72" x="237.695312"/>
      <use xlink:href="#DejaVuSans-20" x="278.808594"/>
      <use xlink:href="#DejaVuSans-49" x="310.595703"/>
      <use xlink:href="#DejaVuSans-6e" x="340.087891"/>
      <use xlink:href="#DejaVuSans-64" x="403.466797"/>
      <use xlink:href="#DejaVuSans-65" x="466.943359"/>
      <use xlink:href="#DejaVuSans-78" x="526.716797"/>
     </g>
    </g>
   </g>
   <g id="matplotlib.axis_2">
    <g id="ytick_1">
     <g id="line2d_8">
      <path d="M 74.72 209.300513 
L 2149.2 209.300513 
" clip-path="url(#paa85f0291d)" style="fill: none; stroke: #b0b0b0; stroke-opacity: 0.5; stroke-width: 0.8; stroke-linecap: square"/>
     </g>
     <g id="line2d_9">
      <defs>
       <path id="mae5808c3a1" d="M 0 0 
L -3.5 0 
" style="stroke: #000000; stroke-width: 0.8"/>
      </defs>
      <g>
       <use xlink:href="#mae5808c3a1" x="74.72" y="209.300513" style="stroke: #000000; stroke-width: 0.8"/>
      </g>
     </g>
     <g id="text_9">
      <!-- 0 -->
      <g transform="translate(54.995 216.89895) scale(0.2 -0.2)">
       <use xlink:href="#DejaVuSans-30"/>
      </g>
     </g>
    </g>
    <g id="ytick_2">
     <g id="line2d_10">
      <path d="M 74.72 177.462161 
L 2149.2 177.462161 
" clip-path="url(#paa85f0291d)" style="fill: none; stroke: #b0b0b0; stroke-opacity: 0.5; stroke-width: 0.8; stroke-linecap: square"/>
     </g>
     <g id="line2d_11">
      <g>
       <use xlink:href="#mae5808c3a1" x="74.72" y="177.462161" style="stroke: #000000; stroke-width: 0.8"/>
      </g>
     </g>
     <g id="text_10">
      <!-- 5 -->
      <g transform="translate(54.995 185.060598) scale(0.2 -0.2)">
       <use xlink:href="#DejaVuSans-35"/>
      </g>
     </g>
    </g>
    <g id="ytick_3">
     <g id="line2d_12">
      <path d="M 74.72 145.623809 
L 2149.2 145.623809 
" clip-path="url(#paa85f0291d)" style="fill: none; stroke: #b0b0b0; stroke-opacity: 0.5; stroke-width: 0.8; stroke-linecap: square"/>
     </g>
     <g id="line2d_13">
      <g>
       <use xlink:href="#mae5808c3a1" x="74.72" y="145.623809" style="stroke: #000000; stroke-width: 0.8"/>
      </g>
     </g>
     <g id="text_11">
      <!-- 10 -->
      <g transform="translate(42.27 153.222247) scale(0.2 -0.2)">
       <use xlink:href="#DejaVuSans-31"/>
       <use xlink:href="#DejaVuSans-30" x="63.623047"/>
      </g>
     </g>
    </g>
    <g id="ytick_4">
     <g id="line2d_14">
      <path d="M 74.72 113.785458 
L 2149.2 113.785458 
" clip-path="url(#paa85f0291d)" style="fill: none; stroke: #b0b0b0; stroke-opacity: 0.5; stroke-width: 0.8; stroke-linecap: square"/>
     </g>
     <g id="line2d_15">
      <g>
       <use xlink:href="#mae5808c3a1" x="74.72" y="113.785458" style="stroke: #000000; stroke-width: 0.8"/>
      </g>
     </g>
     <g id="text_12">
      <!-- 15 -->
      <g transform="translate(42.27 121.383895) scale(0.2 -0.2)">
       <use xlink:href="#DejaVuSans-31"/>
       <use xlink:href="#DejaVuSans-35" x="63.623047"/>
      </g>
     </g>
    </g>
    <g id="ytick_5">
     <g id="line2d_16">
      <path d="M 74.72 81.947106 
L 2149.2 81.947106 
" clip-path="url(#paa85f0291d)" style="fill: none; stroke: #b0b0b0; stroke-opacity: 0.5; stroke-width: 0.8; stroke-linecap: square"/>
     </g>
     <g id="line2d_17">
      <g>
       <use xlink:href="#mae5808c3a1" x="74.72" y="81.947106" style="stroke: #000000; stroke-width: 0.8"/>
      </g>
     </g>
     <g id="text_13">
      <!-- 20 -->
      <g transform="translate(42.27 89.545543) scale(0.2 -0.2)">
       <use xlink:href="#DejaVuSans-32"/>
       <use xlink:href="#DejaVuSans-30" x="63.623047"/>
      </g>
     </g>
    </g>
    <g id="ytick_6">
     <g id="line2d_18">
      <path d="M 74.72 50.108754 
L 2149.2 50.108754 
" clip-path="url(#paa85f0291d)" style="fill: none; stroke: #b0b0b0; stroke-opacity: 0.5; stroke-width: 0.8; stroke-linecap: square"/>
     </g>
     <g id="line2d_19">
      <g>
       <use xlink:href="#mae5808c3a1" x="74.72" y="50.108754" style="stroke: #000000; stroke-width: 0.8"/>
      </g>
     </g>
     <g id="text_14">
      <!-- 25 -->
      <g transform="translate(42.27 57.707192) scale(0.2 -0.2)">
       <use xlink:href="#DejaVuSans-32"/>
       <use xlink:href="#DejaVuSans-35" x="63.623047"/>
      </g>
     </g>
    </g>
    <g id="ytick_7">
     <g id="line2d_20">
      <path d="M 74.72 18.270403 
L 2149.2 18.270403 
" clip-path="url(#paa85f0291d)" style="fill: none; stroke: #b0b0b0; stroke-opacity: 0.5; stroke-width: 0.8; stroke-linecap: square"/>
     </g>
     <g id="line2d_21">
      <g>
       <use xlink:href="#mae5808c3a1" x="74.72" y="18.270403" style="stroke: #000000; stroke-width: 0.8"/>
      </g>
     </g>
     <g id="text_15">
      <!-- 30 -->
      <g transform="translate(42.27 25.86884) scale(0.2 -0.2)">
       <use xlink:href="#DejaVuSans-33"/>
       <use xlink:href="#DejaVuSans-30" x="63.623047"/>
      </g>
     </g>
    </g>
    <g id="text_16">
     <!-- Execution Time (ms)    -->
     <g transform="translate(32.446875 272.487156) rotate(-90) scale(0.28 -0.28)">
      <defs>
       <path id="DejaVuSans-45" d="M 628 4666 
L 3578 4666 
L 3578 4134 
L 1259 4134 
L 1259 2753 
L 3481 2753 
L 3481 2222 
L 1259 2222 
L 1259 531 
L 3634 531 
L 3634 0 
L 628 0 
L 628 4666 
z
" transform="scale(0.015625)"/>
       <path id="DejaVuSans-63" d="M 3122 3366 
L 3122 2828 
Q 2878 2963 2633 3030 
Q 2388 3097 2138 3097 
Q 1578 3097 1268 2742 
Q 959 2388 959 1747 
Q 959 1106 1268 751 
Q 1578 397 2138 397 
Q 2388 397 2633 464 
Q 2878 531 3122 666 
L 3122 134 
Q 2881 22 2623 -34 
Q 2366 -91 2075 -91 
Q 1284 -91 818 406 
Q 353 903 353 1747 
Q 353 2603 823 3093 
Q 1294 3584 2113 3584 
Q 2378 3584 2631 3529 
Q 2884 3475 3122 3366 
z
" transform="scale(0.015625)"/>
       <path id="DejaVuSans-75" d="M 544 1381 
L 544 3500 
L 1119 3500 
L 1119 1403 
Q 1119 906 1312 657 
Q 1506 409 1894 409 
Q 2359 409 2629 706 
Q 2900 1003 2900 1516 
L 2900 3500 
L 3475 3500 
L 3475 0 
L 2900 0 
L 2900 538 
Q 2691 219 2414 64 
Q 2138 -91 1772 -91 
Q 1169 -91 856 284 
Q 544 659 544 1381 
z
M 1991 3584 
L 1991 3584 
z
" transform="scale(0.015625)"/>
       <path id="DejaVuSans-74" d="M 1172 4494 
L 1172 3500 
L 2356 3500 
L 2356 3053 
L 1172 3053 
L 1172 1153 
Q 1172 725 1289 603 
Q 1406 481 1766 481 
L 2356 481 
L 2356 0 
L 1766 0 
Q 1100 0 847 248 
Q 594 497 594 1153 
L 594 3053 
L 172 3053 
L 172 3500 
L 594 3500 
L 594 4494 
L 1172 4494 
z
" transform="scale(0.015625)"/>
       <path id="DejaVuSans-69" d="M 603 3500 
L 1178 3500 
L 1178 0 
L 603 0 
L 603 3500 
z
M 603 4863 
L 1178 4863 
L 1178 4134 
L 603 4134 
L 603 4863 
z
" transform="scale(0.015625)"/>
       <path id="DejaVuSans-6f" d="M 1959 3097 
Q 1497 3097 1228 2736 
Q 959 2375 959 1747 
Q 959 1119 1226 758 
Q 1494 397 1959 397 
Q 2419 397 2687 759 
Q 2956 1122 2956 1747 
Q 2956 2369 2687 2733 
Q 2419 3097 1959 3097 
z
M 1959 3584 
Q 2709 3584 3137 3096 
Q 3566 2609 3566 1747 
Q 3566 888 3137 398 
Q 2709 -91 1959 -91 
Q 1206 -91 779 398 
Q 353 888 353 1747 
Q 353 2609 779 3096 
Q 1206 3584 1959 3584 
z
" transform="scale(0.015625)"/>
       <path id="DejaVuSans-54" d="M -19 4666 
L 3928 4666 
L 3928 4134 
L 2272 4134 
L 2272 0 
L 1638 0 
L 1638 4134 
L -19 4134 
L -19 4666 
z
" transform="scale(0.015625)"/>
       <path id="DejaVuSans-6d" d="M 3328 2828 
Q 3544 3216 3844 3400 
Q 4144 3584 4550 3584 
Q 5097 3584 5394 3201 
Q 5691 2819 5691 2113 
L 5691 0 
L 5113 0 
L 5113 2094 
Q 5113 2597 4934 2840 
Q 4756 3084 4391 3084 
Q 3944 3084 3684 2787 
Q 3425 2491 3425 1978 
L 3425 0 
L 2847 0 
L 2847 2094 
Q 2847 2600 2669 2842 
Q 2491 3084 2119 3084 
Q 1678 3084 1418 2786 
Q 1159 2488 1159 1978 
L 1159 0 
L 581 0 
L 581 3500 
L 1159 3500 
L 1159 2956 
Q 1356 3278 1631 3431 
Q 1906 3584 2284 3584 
Q 2666 3584 2933 3390 
Q 3200 3197 3328 2828 
z
" transform="scale(0.015625)"/>
       <path id="DejaVuSans-28" d="M 1984 4856 
Q 1566 4138 1362 3434 
Q 1159 2731 1159 2009 
Q 1159 1288 1364 580 
Q 1569 -128 1984 -844 
L 1484 -844 
Q 1016 -109 783 600 
Q 550 1309 550 2009 
Q 550 2706 781 3412 
Q 1013 4119 1484 4856 
L 1984 4856 
z
" transform="scale(0.015625)"/>
       <path id="DejaVuSans-73" d="M 2834 3397 
L 2834 2853 
Q 2591 2978 2328 3040 
Q 2066 3103 1784 3103 
Q 1356 3103 1142 2972 
Q 928 2841 928 2578 
Q 928 2378 1081 2264 
Q 1234 2150 1697 2047 
L 1894 2003 
Q 2506 1872 2764 1633 
Q 3022 1394 3022 966 
Q 3022 478 2636 193 
Q 2250 -91 1575 -91 
Q 1294 -91 989 -36 
Q 684 19 347 128 
L 347 722 
Q 666 556 975 473 
Q 1284 391 1588 391 
Q 1994 391 2212 530 
Q 2431 669 2431 922 
Q 2431 1156 2273 1281 
Q 2116 1406 1581 1522 
L 1381 1569 
Q 847 1681 609 1914 
Q 372 2147 372 2553 
Q 372 3047 722 3315 
Q 1072 3584 1716 3584 
Q 2034 3584 2315 3537 
Q 2597 3491 2834 3397 
z
" transform="scale(0.015625)"/>
       <path id="DejaVuSans-29" d="M 513 4856 
L 1013 4856 
Q 1481 4119 1714 3412 
Q 1947 2706 1947 2009 
Q 1947 1309 1714 600 
Q 1481 -109 1013 -844 
L 513 -844 
Q 928 -128 1133 580 
Q 1338 1288 1338 2009 
Q 1338 2731 1133 3434 
Q 928 4138 513 4856 
z
" transform="scale(0.015625)"/>
      </defs>
      <use xlink:href="#DejaVuSans-45"/>
      <use xlink:href="#DejaVuSans-78" x="63.183594"/>
      <use xlink:href="#DejaVuSans-65" x="119.238281"/>
      <use xlink:href="#DejaVuSans-63" x="180.761719"/>
      <use xlink:href="#DejaVuSans-75" x="235.742188"/>
      <use xlink:href="#DejaVuSans-74" x="299.121094"/>
      <use xlink:href="#DejaVuSans-69" x="338.330078"/>
      <use xlink:href="#DejaVuSans-6f" x="366.113281"/>
      <use xlink:href="#DejaVuSans-6e" x="427.294922"/>
      <use xlink:href="#DejaVuSans-20" x="490.673828"/>
      <use xlink:href="#DejaVuSans-54" x="522.460938"/>
      <use xlink:href="#DejaVuSans-69" x="580.419922"/>
      <use xlink:href="#DejaVuSans-6d" x="608.203125"/>
      <use xlink:href="#DejaVuSans-65" x="705.615234"/>
      <use xlink:href="#DejaVuSans-20" x="767.138672"/>
      <use xlink:href="#DejaVuSans-28" x="798.925781"/>
      <use xlink:href="#DejaVuSans-6d" x="837.939453"/>
      <use xlink:href="#DejaVuSans-73" x="935.351562"/>
      <use xlink:href="#DejaVuSans-29" x="987.451172"/>
      <use xlink:href="#DejaVuSans-20" x="1026.464844"/>
      <use xlink:href="#DejaVuSans-20" x="1058.251953"/>
      <use xlink:href="#DejaVuSans-20" x="1090.039062"/>
     </g>
    </g>
   </g>
   <g id="line2d_22">
    <path d="M 88.190649 59.051874 
L 94.925974 190.241166 
L 101.661299 181.166417 
L 108.396623 22.030057 
L 115.131948 207.961482 
L 121.867273 171.181819 
L 128.602597 21.600239 
L 135.337922 207.458709 
L 142.073247 160.89603 
L 148.808571 21.664735 
L 155.543896 206.97231 
L 162.279221 150.601417 
L 169.014545 21.577043 
L 175.74987 206.487185 
L 182.485195 139.672039 
L 189.220519 21.644722 
L 195.955844 205.999876 
L 202.691169 129.429732 
L 209.426494 21.946732 
L 216.161818 205.507382 
L 222.897143 117.941818 
L 229.632468 199.739092 
L 236.367792 197.428719 
L 243.103117 165.20767 
L 249.838442 208.692855 
L 256.573766 195.060946 
L 263.309091 166.221312 
L 270.044416 208.587243 
L 276.77974 192.461936 
L 283.515065 166.220676 
L 290.25039 208.442605 
L 296.985714 189.908045 
L 303.721039 166.104602 
L 310.456364 208.302608 
L 323.927013 166.050204 
L 330.662338 208.141415 
L 337.397662 184.571938 
L 344.132987 165.976612 
L 350.868312 207.995595 
L 357.603636 181.856399 
L 364.338961 165.963604 
L 371.074286 207.866877 
L 377.80961 179.210086 
L 384.544935 165.788493 
L 391.28026 207.68367 
L 398.015584 176.604072 
L 404.750909 165.767843 
L 411.486234 207.55659 
L 418.221558 173.965309 
L 424.956883 165.640035 
L 431.692208 207.475265 
L 438.427532 171.403595 
L 445.162857 165.632667 
L 451.898182 207.321532 
L 458.633506 168.831875 
L 465.368831 165.594188 
L 472.104156 207.149695 
L 478.839481 126.896491 
L 485.574805 204.338096 
L 492.31013 203.599537 
L 499.045455 198.727087 
L 505.780779 209.088651 
L 512.516104 203.036999 
L 519.251429 198.931944 
L 525.986753 209.076007 
L 532.722078 202.379037 
L 539.457403 198.973789 
L 546.192727 209.054993 
L 552.928052 201.750821 
L 559.663377 198.98807 
L 566.398701 209.017788 
L 573.134026 201.157081 
L 579.869351 198.985069 
L 586.604675 209.001596 
L 593.34 200.453271 
L 600.075325 198.976791 
L 606.810649 208.984403 
L 613.545974 199.819506 
L 620.281299 198.976609 
L 627.016623 208.953202 
L 633.751948 199.183922 
L 640.487273 198.97297 
L 647.222597 208.929186 
L 653.957922 198.479567 
L 660.693247 198.947681 
L 667.428571 208.89662 
L 674.163896 197.861266 
L 680.899221 198.948136 
L 687.634545 208.862781 
L 694.36987 197.25661 
L 701.105195 198.953685 
L 707.840519 208.839493 
L 714.575844 196.605925 
L 721.311169 198.956596 
L 728.046494 208.807564 
L 734.781818 195.980529 
L 741.517143 198.937948 
L 748.252468 208.786824 
L 754.987792 195.083324 
L 761.723117 198.920846 
L 768.458442 208.765446 
L 775.193766 194.441008 
L 781.929091 198.934491 
L 788.664416 208.738793 
L 795.39974 193.752936 
L 802.135065 198.924849 
L 808.87039 208.713595 
L 815.605714 193.070867 
L 822.341039 198.932945 
L 829.076364 208.691217 
L 835.811688 192.415543 
L 842.547013 198.917389 
L 849.282338 208.661653 
L 856.017662 191.78005 
L 862.752987 198.929033 
L 869.488312 208.642823 
L 876.223636 191.105167 
L 882.958961 198.936401 
L 889.694286 208.611531 
L 896.42961 190.444567 
L 903.164935 198.925485 
L 909.90026 208.576327 
L 916.635584 189.714104 
L 923.370909 198.918663 
L 930.106234 208.542305 
L 936.841558 189.140286 
L 950.312208 208.536301 
L 957.047532 188.486781 
L 963.782857 198.903471 
L 970.518182 208.497185 
L 977.253506 187.787702 
L 983.988831 198.905291 
L 990.724156 208.46844 
L 997.459481 187.167764 
L 1004.194805 198.907019 
L 1010.93013 208.435237 
L 1017.665455 186.424111 
L 1024.400779 198.895375 
L 1031.136104 208.394211 
L 1037.871429 185.858207 
L 1044.606753 198.891919 
L 1051.342078 208.384569 
L 1058.077403 185.150941 
L 1064.812727 198.885824 
L 1071.548052 208.34891 
L 1078.283377 184.464142 
L 1085.018701 198.88637 
L 1091.754026 208.305701 
L 1098.489351 183.828831 
L 1105.224675 198.889644 
L 1111.96 208.293966 
L 1118.695325 183.169504 
L 1125.430649 198.885278 
L 1132.165974 208.258398 
L 1138.901299 182.526733 
L 1145.636623 198.87327 
L 1152.371948 208.236566 
L 1159.107273 181.64472 
L 1165.842597 198.863355 
L 1172.577922 208.209094 
L 1179.313247 180.93991 
L 1186.048571 198.862354 
L 1192.783896 208.177437 
L 1199.519221 180.240739 
L 1206.254545 198.876181 
L 1212.98987 208.148783 
L 1219.725195 179.606337 
L 1226.460519 198.873089 
L 1233.195844 208.129134 
L 1239.931169 178.823751 
L 1246.666494 198.878001 
L 1253.401818 208.103936 
L 1260.137143 178.266762 
L 1266.872468 198.891646 
L 1273.607792 208.074099 
L 1280.343117 177.583692 
L 1287.078442 198.863992 
L 1293.813766 208.043716 
L 1300.549091 176.912267 
L 1307.284416 198.869723 
L 1314.01974 208.014152 
L 1320.755065 176.221375 
L 1327.49039 198.864629 
L 1334.225714 207.985589 
L 1340.961039 175.607077 
L 1347.696364 198.851529 
L 1354.431688 207.946655 
L 1361.167013 174.918186 
L 1367.902338 198.853167 
L 1374.637662 207.92455 
L 1381.372987 174.260496 
L 1388.108312 198.845708 
L 1394.843636 207.888618 
L 1401.578961 173.62855 
L 1408.314286 198.853531 
L 1415.04961 207.844408 
L 1421.784935 172.977593 
L 1428.52026 198.838066 
L 1435.255584 207.82667 
L 1441.990909 172.229755 
L 1448.726234 198.811595 
L 1455.461558 207.795559 
L 1462.196883 71.594093 
L 1468.932208 206.78974 
L 1475.667532 206.120862 
L 1482.402857 206.495281 
L 1489.138182 209.203997 
L 1495.873506 206.102123 
L 1502.608831 206.523753 
L 1509.344156 209.205088 
L 1516.079481 205.933925 
L 1522.814805 206.531486 
L 1529.55013 209.198266 
L 1536.285455 205.753356 
L 1543.020779 206.531395 
L 1549.756104 209.195446 
L 1556.491429 205.613904 
L 1563.226753 206.531304 
L 1569.962078 209.187623 
L 1576.697403 205.347281 
L 1583.432727 206.517386 
L 1590.168052 209.185622 
L 1596.903377 205.153522 
L 1603.638701 206.529484 
L 1610.374026 209.176252 
L 1617.109351 204.95667 
L 1623.844675 206.541947 
L 1630.58 209.172522 
L 1637.315325 204.785743 
L 1644.050649 206.544039 
L 1650.785974 209.167064 
L 1657.521299 204.630827 
L 1664.256623 206.542493 
L 1670.991948 209.163062 
L 1677.727273 204.455261 
L 1684.462597 206.550407 
L 1691.197922 209.160151 
L 1697.933247 204.278422 
L 1704.668571 206.551771 
L 1711.403896 209.153783 
L 1718.139221 204.118139 
L 1724.874545 206.556683 
L 1731.60987 209.147416 
L 1738.345195 203.93011 
L 1751.815844 209.145323 
L 1758.551169 203.760912 
L 1765.286494 206.557411 
L 1772.021818 209.136409 
L 1778.757143 203.58571 
L 1785.492468 206.555319 
L 1792.227792 209.134134 
L 1798.963117 203.391769 
L 1805.698442 206.557229 
L 1812.433766 209.12713 
L 1819.169091 203.233578 
L 1825.904416 206.550407 
L 1832.63974 209.122218 
L 1839.375065 203.079117 
L 1846.11039 206.546677 
L 1852.845714 209.121217 
L 1859.581039 202.890816 
L 1866.316364 206.551134 
L 1873.051688 209.114668 
L 1879.787013 202.695601 
L 1886.522338 206.551316 
L 1893.257662 209.109573 
L 1899.992987 202.540048 
L 1906.728312 206.554136 
L 1913.463636 209.103843 
L 1920.198961 202.37558 
L 1926.934286 206.552044 
L 1933.66961 209.099658 
L 1940.404935 202.21093 
L 1947.14026 206.544221 
L 1953.875584 209.096292 
L 1960.610909 202.031089 
L 1967.346234 206.542402 
L 1974.081558 209.088287 
L 1980.816883 201.780385 
L 1987.552208 206.544039 
L 1994.287532 209.079372 
L 2001.022857 201.5607 
L 2007.758182 206.535943 
L 2014.493506 209.076553 
L 2021.228831 201.374037 
L 2027.964156 206.530667 
L 2034.699481 209.071549 
L 2041.434805 201.194104 
L 2048.17013 206.55168 
L 2054.905455 209.068911 
L 2061.640779 201.017265 
L 2068.376104 206.553409 
L 2075.111429 209.064909 
L 2081.846753 200.832876 
L 2088.582078 206.549679 
L 2095.317403 209.059087 
L 2102.052727 200.63948 
L 2108.788052 206.545222 
L 2115.523377 209.050081 
L 2122.258701 145.210456 
L 2128.994026 208.836582 
L 2135.729351 209.220007 
L 2142.464675 209.294145 
L 2142.464675 209.294145 
" clip-path="url(#paa85f0291d)" style="fill: none; stroke: #6495ed; stroke-width: 3; stroke-linecap: square"/>
   </g>
   <g id="line2d_23">
    <path d="M 88.190649 198.74617 
L 94.925974 208.135512 
L 101.661299 206.48579 
L 108.396623 202.593233 
L 115.131948 208.517289 
L 121.867273 206.374214 
L 128.602597 202.815323 
L 135.337922 208.380667 
L 142.073247 206.091207 
L 148.808571 202.80464 
L 155.543896 208.236263 
L 162.279221 205.859494 
L 169.014545 202.842563 
L 175.74987 208.089735 
L 182.485195 204.904344 
L 189.220519 202.832445 
L 195.955844 207.939812 
L 202.691169 204.631029 
L 209.426494 202.797565 
L 216.161818 207.788828 
L 222.897143 204.845337 
L 229.632468 208.564551 
L 236.367792 207.747296 
L 243.103117 207.149089 
L 249.838442 208.792868 
L 256.573766 207.713265 
L 263.309091 207.153405 
L 270.044416 208.757067 
L 276.77974 207.647112 
L 283.515065 207.177531 
L 290.25039 208.725724 
L 296.985714 207.451836 
L 303.721039 207.160268 
L 310.456364 208.685891 
L 317.191688 207.38816 
L 323.927013 207.158004 
L 330.662338 208.651576 
L 337.397662 207.350944 
L 344.132987 207.042466 
L 350.868312 208.440594 
L 357.603636 207.175338 
L 364.338961 207.162886 
L 371.074286 208.581673 
L 377.80961 207.169607 
L 384.544935 207.035461 
L 391.28026 208.481772 
L 398.015584 207.125104 
L 404.750909 207.169112 
L 411.486234 208.413213 
L 418.221558 207.209794 
L 424.956883 207.164301 
L 431.692208 208.472786 
L 438.427532 207.154254 
L 445.162857 207.140387 
L 451.898182 208.420996 
L 458.633506 207.037301 
L 465.368831 207.167555 
L 472.104156 208.395525 
L 478.839481 205.4347 
L 485.574805 208.815862 
L 492.31013 208.262582 
L 499.045455 208.242701 
L 505.780779 208.885906 
L 512.516104 208.237253 
L 519.251429 208.247795 
L 525.986753 208.889444 
L 532.722078 208.219211 
L 539.457403 208.264139 
L 546.192727 208.837158 
L 552.928052 208.196925 
L 559.663377 208.260814 
L 566.398701 208.873808 
L 573.134026 208.177043 
L 579.869351 208.250837 
L 586.604675 208.799023 
L 593.34 208.048982 
L 600.075325 208.24638 
L 606.810649 208.853078 
L 613.545974 208.053227 
L 620.281299 208.253385 
L 627.016623 208.846639 
L 633.751948 208.014314 
L 640.487273 208.252253 
L 647.222597 208.843031 
L 653.957922 208.048699 
L 660.693247 208.253102 
L 667.428571 208.828244 
L 674.163896 208.040492 
L 680.899221 208.26145 
L 687.634545 208.808858 
L 694.36987 208.033841 
L 701.105195 208.255719 
L 707.840519 208.811546 
L 714.575844 208.021672 
L 721.311169 208.255719 
L 728.046494 208.800084 
L 734.781818 207.996838 
L 741.517143 208.266686 
L 748.252468 208.798033 
L 754.987792 207.938468 
L 761.723117 208.264634 
L 768.458442 208.789542 
L 775.193766 207.948798 
L 781.929091 208.260955 
L 788.664416 208.774472 
L 795.39974 207.926299 
L 802.135065 208.265412 
L 808.87039 208.767114 
L 815.605714 207.907974 
L 822.341039 208.21058 
L 829.076364 208.756431 
L 835.811688 207.896158 
L 842.547013 208.260743 
L 849.282338 208.753813 
L 856.017662 207.877338 
L 869.488312 208.736691 
L 876.223636 207.856183 
L 889.694286 208.72247 
L 896.42961 207.82385 
L 903.164935 208.214966 
L 909.90026 208.71964 
L 916.635584 207.804393 
L 930.106234 208.70931 
L 936.841558 207.785502 
L 950.312208 208.700466 
L 957.047532 207.762579 
L 970.518182 208.69431 
L 977.253506 207.738594 
L 983.988831 208.260601 
L 990.724156 208.670891 
L 997.459481 207.57077 
L 1004.194805 208.262724 
L 1010.93013 208.676764 
L 1017.665455 207.595816 
L 1024.400779 208.261663 
L 1031.136104 208.659642 
L 1037.871429 207.540488 
L 1044.606753 208.255224 
L 1051.342078 208.65667 
L 1058.077403 207.558742 
L 1064.812727 208.262016 
L 1071.548052 208.650869 
L 1078.283377 207.48891 
L 1085.018701 208.258479 
L 1091.754026 208.518916 
L 1098.489351 207.377971 
L 1105.224675 208.145912 
L 1111.96 208.621507 
L 1118.695325 207.311606 
L 1125.430649 208.197137 
L 1132.165974 208.617191 
L 1138.901299 207.343657 
L 1145.636623 208.255295 
L 1152.371948 208.502219 
L 1159.107273 207.296465 
L 1165.842597 208.257771 
L 1172.577922 208.602191 
L 1179.313247 207.408678 
L 1186.048571 208.256498 
L 1192.783896 208.579197 
L 1199.519221 207.336652 
L 1206.254545 208.167563 
L 1212.98987 208.590659 
L 1219.725195 207.367076 
L 1226.460519 208.269445 
L 1233.195844 208.57474 
L 1239.931169 207.305875 
L 1246.666494 208.264422 
L 1253.401818 208.574457 
L 1260.137143 207.310474 
L 1266.872468 208.262724 
L 1273.607792 208.563702 
L 1280.343117 207.24234 
L 1287.078442 208.259328 
L 1293.813766 208.533987 
L 1300.549091 207.272976 
L 1307.284416 208.268172 
L 1314.01974 208.541416 
L 1320.755065 207.204063 
L 1327.49039 208.262653 
L 1334.225714 208.522596 
L 1340.961039 207.229534 
L 1347.696364 208.255083 
L 1354.431688 208.509082 
L 1361.167013 207.137203 
L 1367.902338 208.242701 
L 1374.637662 208.464791 
L 1381.372987 207.187224 
L 1388.108312 208.209448 
L 1394.843636 208.499884 
L 1401.578961 207.100695 
L 1408.314286 208.258125 
L 1415.04961 208.479649 
L 1421.784935 207.115553 
L 1428.52026 208.254304 
L 1435.255584 208.486724 
L 1441.990909 207.036735 
L 1448.726234 208.258125 
L 1455.461558 208.457504 
L 1462.196883 204.131096 
L 1468.932208 208.908689 
L 1475.667532 208.321872 
L 1482.402857 208.291166 
L 1489.138182 208.907061 
L 1495.873506 208.333759 
L 1502.608831 208.310694 
L 1509.344156 208.95213 
L 1516.079481 208.321943 
L 1522.814805 208.317203 
L 1529.55013 208.945904 
L 1536.285455 208.284728 
L 1543.020779 208.319962 
L 1549.756104 208.940598 
L 1556.491429 208.337296 
L 1563.226753 208.32357 
L 1569.962078 208.93798 
L 1576.697403 208.299444 
L 1583.432727 208.32074 
L 1590.168052 208.936353 
L 1596.903377 208.285081 
L 1603.638701 208.309491 
L 1610.374026 208.933523 
L 1617.109351 208.300222 
L 1623.844675 208.319255 
L 1630.58 208.93989 
L 1637.315325 208.297958 
L 1644.050649 208.320174 
L 1650.785974 208.937414 
L 1657.521299 208.288407 
L 1664.256623 208.31975 
L 1670.991948 208.921282 
L 1677.727273 208.262724 
L 1684.462597 208.320245 
L 1691.197922 208.919443 
L 1697.933247 208.267889 
L 1704.668571 208.303618 
L 1711.403896 208.887958 
L 1718.139221 208.262795 
L 1724.874545 208.322297 
L 1731.60987 208.927933 
L 1738.345195 208.25671 
L 1745.080519 208.327108 
L 1751.815844 208.92765 
L 1758.551169 208.258974 
L 1765.286494 208.321448 
L 1772.021818 208.91732 
L 1778.757143 208.222183 
L 1785.492468 208.209377 
L 1792.227792 208.852512 
L 1798.963117 208.2219 
L 1805.698442 208.199542 
L 1812.433766 208.90416 
L 1819.169091 208.226145 
L 1825.904416 208.318759 
L 1832.63974 208.904939 
L 1839.375065 208.174779 
L 1846.11039 208.310623 
L 1852.845714 208.902675 
L 1859.581039 208.235414 
L 1866.316364 208.323853 
L 1873.051688 208.906849 
L 1879.787013 208.235767 
L 1886.522338 208.325339 
L 1893.257662 208.901543 
L 1899.992987 208.234069 
L 1906.728312 208.199613 
L 1913.463636 208.826546 
L 1920.198961 208.241286 
L 1926.934286 208.318759 
L 1933.66961 208.89001 
L 1940.404935 208.21624 
L 1947.14026 208.312533 
L 1953.875584 208.888383 
L 1960.610909 208.124262 
L 1967.346234 208.328452 
L 1974.081558 208.889515 
L 1980.816883 208.218858 
L 1987.552208 208.228763 
L 1994.287532 208.796971 
L 2001.022857 208.227631 
L 2007.758182 208.32725 
L 2014.493506 208.887251 
L 2021.228831 208.178812 
L 2027.964156 208.324632 
L 2034.699481 208.88527 
L 2041.434805 208.176973 
L 2048.17013 208.325339 
L 2054.905455 208.881591 
L 2061.640779 208.17577 
L 2068.376104 208.318406 
L 2075.111429 208.879751 
L 2081.846753 208.179095 
L 2088.582078 208.328735 
L 2095.317403 208.880671 
L 2102.052727 208.163954 
L 2108.788052 208.326047 
L 2115.523377 208.881025 
L 2122.258701 206.072811 
L 2128.994026 208.624195 
L 2135.729351 205.132306 
L 2142.464675 209.280985 
L 2142.464675 209.280985 
" clip-path="url(#paa85f0291d)" style="fill: none; stroke: #00ff00; stroke-width: 3; stroke-linecap: square"/>
   </g>
   <g id="patch_3">
    <path d="M 74.72 218.68 
L 74.72 12.191188 
" style="fill: none; stroke: #000000; stroke-width: 0.8; stroke-linejoin: miter; stroke-linecap: square"/>
   </g>
   <g id="patch_4">
    <path d="M 2149.2 218.68 
L 2149.2 12.191188 
" style="fill: none; stroke: #000000; stroke-width: 0.8; stroke-linejoin: miter; stroke-linecap: square"/>
   </g>
   <g id="patch_5">
    <path d="M 74.72 218.68 
L 2149.2 218.68 
" style="fill: none; stroke: #000000; stroke-width: 0.8; stroke-linejoin: miter; stroke-linecap: square"/>
   </g>
   <g id="patch_6">
    <path d="M 74.72 12.191188 
L 2149.2 12.191188 
" style="fill: none; stroke: #000000; stroke-width: 0.8; stroke-linejoin: miter; stroke-linecap: square"/>
   </g>
   <g id="legend_1">
    <g id="patch_7">
     <path d="M 1980.92875 116.788688 
L 2129.6 116.788688 
Q 2135.2 116.788688 2135.2 111.188688 
L 2135.2 31.791188 
Q 2135.2 26.191188 2129.6 26.191188 
L 1980.92875 26.191188 
Q 1975.32875 26.191188 1975.32875 31.791188 
L 1975.32875 111.188688 
Q 1975.32875 116.788688 1980.92875 116.788688 
z
" style="fill: #ffffff; opacity: 0.8; stroke: #cccccc; stroke-linejoin: miter"/>
    </g>
    <g id="line2d_24">
     <path d="M 1986.52875 48.866813 
L 2014.52875 48.866813 
L 2042.52875 48.866813 
" style="fill: none; stroke: #6495ed; stroke-width: 3; stroke-linecap: square"/>
    </g>
    <g id="text_17">
     <!-- CPU -->
     <g transform="translate(2064.92875 58.666813) scale(0.28 -0.28)">
      <defs>
       <path id="DejaVuSans-43" d="M 4122 4306 
L 4122 3641 
Q 3803 3938 3442 4084 
Q 3081 4231 2675 4231 
Q 1875 4231 1450 3742 
Q 1025 3253 1025 2328 
Q 1025 1406 1450 917 
Q 1875 428 2675 428 
Q 3081 428 3442 575 
Q 3803 722 4122 1019 
L 4122 359 
Q 3791 134 3420 21 
Q 3050 -91 2638 -91 
Q 1578 -91 968 557 
Q 359 1206 359 2328 
Q 359 3453 968 4101 
Q 1578 4750 2638 4750 
Q 3056 4750 3426 4639 
Q 3797 4528 4122 4306 
z
" transform="scale(0.015625)"/>
       <path id="DejaVuSans-50" d="M 1259 4147 
L 1259 2394 
L 2053 2394 
Q 2494 2394 2734 2622 
Q 2975 2850 2975 3272 
Q 2975 3691 2734 3919 
Q 2494 4147 2053 4147 
L 1259 4147 
z
M 628 4666 
L 2053 4666 
Q 2838 4666 3239 4311 
Q 3641 3956 3641 3272 
Q 3641 2581 3239 2228 
Q 2838 1875 2053 1875 
L 1259 1875 
L 1259 0 
L 628 0 
L 628 4666 
z
" transform="scale(0.015625)"/>
       <path id="DejaVuSans-55" d="M 556 4666 
L 1191 4666 
L 1191 1831 
Q 1191 1081 1462 751 
Q 1734 422 2344 422 
Q 2950 422 3222 751 
Q 3494 1081 3494 1831 
L 3494 4666 
L 4128 4666 
L 4128 1753 
Q 4128 841 3676 375 
Q 3225 -91 2344 -91 
Q 1459 -91 1007 375 
Q 556 841 556 1753 
L 556 4666 
z
" transform="scale(0.015625)"/>
      </defs>
      <use xlink:href="#DejaVuSans-43"/>
      <use xlink:href="#DejaVuSans-50" x="69.824219"/>
      <use xlink:href="#DejaVuSans-55" x="130.126953"/>
     </g>
    </g>
    <g id="line2d_25">
     <path d="M 1986.52875 89.965563 
L 2014.52875 89.965563 
L 2042.52875 89.965563 
" style="fill: none; stroke: #00ff00; stroke-width: 3; stroke-linecap: square"/>
    </g>
    <g id="text_18">
     <!-- GPU -->
     <g transform="translate(2064.92875 99.765563) scale(0.28 -0.28)">
      <defs>
       <path id="DejaVuSans-47" d="M 3809 666 
L 3809 1919 
L 2778 1919 
L 2778 2438 
L 4434 2438 
L 4434 434 
Q 4069 175 3628 42 
Q 3188 -91 2688 -91 
Q 1594 -91 976 548 
Q 359 1188 359 2328 
Q 359 3472 976 4111 
Q 1594 4750 2688 4750 
Q 3144 4750 3555 4637 
Q 3966 4525 4313 4306 
L 4313 3634 
Q 3963 3931 3569 4081 
Q 3175 4231 2741 4231 
Q 1884 4231 1454 3753 
Q 1025 3275 1025 2328 
Q 1025 1384 1454 906 
Q 1884 428 2741 428 
Q 3075 428 3337 486 
Q 3600 544 3809 666 
z
" transform="scale(0.015625)"/>
      </defs>
      <use xlink:href="#DejaVuSans-47"/>
      <use xlink:href="#DejaVuSans-50" x="77.490234"/>
      <use xlink:href="#DejaVuSans-55" x="137.792969"/>
     </g>
    </g>
   </g>
  </g>
 </g>
 <defs>
  <clipPath id="paa85f0291d">
   <rect x="74.72" y="12.191188" width="2074.48" height="206.488812"/>
  </clipPath>
 </defs>
</svg>
