<?xml version="1.0" encoding="utf-8" standalone="no"?>
<!DOCTYPE svg PUBLIC "-//W3C//DTD SVG 1.1//EN"
  "http://www.w3.org/Graphics/SVG/1.1/DTD/svg11.dtd">
<svg xmlns:xlink="http://www.w3.org/1999/xlink" width="864pt" height="432pt" viewBox="0 0 864 432" xmlns="http://www.w3.org/2000/svg" version="1.1">
 <metadata>
  <rdf:RDF xmlns:dc="http://purl.org/dc/elements/1.1/" xmlns:cc="http://creativecommons.org/ns#" xmlns:rdf="http://www.w3.org/1999/02/22-rdf-syntax-ns#">
   <cc:Work>
    <dc:type rdf:resource="http://purl.org/dc/dcmitype/StillImage"/>
    <dc:date>2025-01-17T15:42:42.216442</dc:date>
    <dc:format>image/svg+xml</dc:format>
    <dc:creator>
     <cc:Agent>
      <dc:title>Matplotlib v3.7.5, https://matplotlib.org/</dc:title>
     </cc:Agent>
    </dc:creator>
   </cc:Work>
  </rdf:RDF>
 </metadata>
 <defs>
  <style type="text/css">*{stroke-linejoin: round; stroke-linecap: butt}</style>
 </defs>
 <g id="figure_1">
  <g id="patch_1">
   <path d="M 0 432 
L 864 432 
L 864 0 
L 0 0 
z
" style="fill: #ffffff"/>
  </g>
  <g id="axes_1">
   <g id="patch_2">
    <path d="M 61.04 375.64 
L 853.2 375.64 
L 853.2 64.608 
L 61.04 64.608 
z
" style="fill: #ffffff"/>
   </g>
   <g id="matplotlib.axis_1">
    <g id="xtick_1">
     <g id="line2d_1">
      <defs>
       <path id="md54ffcd271" d="M 0 0 
L 0 3.5 
" style="stroke: #000000; stroke-width: 0.8"/>
      </defs>
      <g>
       <use xlink:href="#md54ffcd271" x="97.047273" y="375.64" style="stroke: #000000; stroke-width: 0.8"/>
      </g>
     </g>
     <g id="text_1">
      <!-- 0 -->
      <g transform="translate(92.275398 394.037656) scale(0.15 -0.15)">
       <defs>
        <path id="DejaVuSans-30" d="M 2034 4250 
Q 1547 4250 1301 3770 
Q 1056 3291 1056 2328 
Q 1056 1369 1301 889 
Q 1547 409 2034 409 
Q 2525 409 2770 889 
Q 3016 1369 3016 2328 
Q 3016 3291 2770 3770 
Q 2525 4250 2034 4250 
z
M 2034 4750 
Q 2819 4750 3233 4129 
Q 3647 3509 3647 2328 
Q 3647 1150 3233 529 
Q 2819 -91 2034 -91 
Q 1250 -91 836 529 
Q 422 1150 422 2328 
Q 422 3509 836 4129 
Q 1250 4750 2034 4750 
z
" transform="scale(0.015625)"/>
       </defs>
       <use xlink:href="#DejaVuSans-30"/>
      </g>
     </g>
    </g>
    <g id="xtick_2">
     <g id="line2d_2">
      <g>
       <use xlink:href="#md54ffcd271" x="215.103905" y="375.64" style="stroke: #000000; stroke-width: 0.8"/>
      </g>
     </g>
     <g id="text_2">
      <!-- 50 -->
      <g transform="translate(205.560155 394.037656) scale(0.15 -0.15)">
       <defs>
        <path id="DejaVuSans-35" d="M 691 4666 
L 3169 4666 
L 3169 4134 
L 1269 4134 
L 1269 2991 
Q 1406 3038 1543 3061 
Q 1681 3084 1819 3084 
Q 2600 3084 3056 2656 
Q 3513 2228 3513 1497 
Q 3513 744 3044 326 
Q 2575 -91 1722 -91 
Q 1428 -91 1123 -41 
Q 819 9 494 109 
L 494 744 
Q 775 591 1075 516 
Q 1375 441 1709 441 
Q 2250 441 2565 725 
Q 2881 1009 2881 1497 
Q 2881 1984 2565 2268 
Q 2250 2553 1709 2553 
Q 1456 2553 1204 2497 
Q 953 2441 691 2322 
L 691 4666 
z
" transform="scale(0.015625)"/>
       </defs>
       <use xlink:href="#DejaVuSans-35"/>
       <use xlink:href="#DejaVuSans-30" x="63.623047"/>
      </g>
     </g>
    </g>
    <g id="xtick_3">
     <g id="line2d_3">
      <g>
       <use xlink:href="#md54ffcd271" x="333.160537" y="375.64" style="stroke: #000000; stroke-width: 0.8"/>
      </g>
     </g>
     <g id="text_3">
      <!-- 100 -->
      <g transform="translate(318.844912 394.037656) scale(0.15 -0.15)">
       <defs>
        <path id="DejaVuSans-31" d="M 794 531 
L 1825 531 
L 1825 4091 
L 703 3866 
L 703 4441 
L 1819 4666 
L 2450 4666 
L 2450 531 
L 3481 531 
L 3481 0 
L 794 0 
L 794 531 
z
" transform="scale(0.015625)"/>
       </defs>
       <use xlink:href="#DejaVuSans-31"/>
       <use xlink:href="#DejaVuSans-30" x="63.623047"/>
       <use xlink:href="#DejaVuSans-30" x="127.246094"/>
      </g>
     </g>
    </g>
    <g id="xtick_4">
     <g id="line2d_4">
      <g>
       <use xlink:href="#md54ffcd271" x="451.217168" y="375.64" style="stroke: #000000; stroke-width: 0.8"/>
      </g>
     </g>
     <g id="text_4">
      <!-- 150 -->
      <g transform="translate(436.901543 394.037656) scale(0.15 -0.15)">
       <use xlink:href="#DejaVuSans-31"/>
       <use xlink:href="#DejaVuSans-35" x="63.623047"/>
       <use xlink:href="#DejaVuSans-30" x="127.246094"/>
      </g>
     </g>
    </g>
    <g id="xtick_5">
     <g id="line2d_5">
      <g>
       <use xlink:href="#md54ffcd271" x="569.2738" y="375.64" style="stroke: #000000; stroke-width: 0.8"/>
      </g>
     </g>
     <g id="text_5">
      <!-- 200 -->
      <g transform="translate(554.958175 394.037656) scale(0.15 -0.15)">
       <defs>
        <path id="DejaVuSans-32" d="M 1228 531 
L 3431 531 
L 3431 0 
L 469 0 
L 469 531 
Q 828 903 1448 1529 
Q 2069 2156 2228 2338 
Q 2531 2678 2651 2914 
Q 2772 3150 2772 3378 
Q 2772 3750 2511 3984 
Q 2250 4219 1831 4219 
Q 1534 4219 1204 4116 
Q 875 4013 500 3803 
L 500 4441 
Q 881 4594 1212 4672 
Q 1544 4750 1819 4750 
Q 2544 4750 2975 4387 
Q 3406 4025 3406 3419 
Q 3406 3131 3298 2873 
Q 3191 2616 2906 2266 
Q 2828 2175 2409 1742 
Q 1991 1309 1228 531 
z
" transform="scale(0.015625)"/>
       </defs>
       <use xlink:href="#DejaVuSans-32"/>
       <use xlink:href="#DejaVuSans-30" x="63.623047"/>
       <use xlink:href="#DejaVuSans-30" x="127.246094"/>
      </g>
     </g>
    </g>
    <g id="xtick_6">
     <g id="line2d_6">
      <g>
       <use xlink:href="#md54ffcd271" x="687.330432" y="375.64" style="stroke: #000000; stroke-width: 0.8"/>
      </g>
     </g>
     <g id="text_6">
      <!-- 250 -->
      <g transform="translate(673.014807 394.037656) scale(0.15 -0.15)">
       <use xlink:href="#DejaVuSans-32"/>
       <use xlink:href="#DejaVuSans-35" x="63.623047"/>
       <use xlink:href="#DejaVuSans-30" x="127.246094"/>
      </g>
     </g>
    </g>
    <g id="xtick_7">
     <g id="line2d_7">
      <g>
       <use xlink:href="#md54ffcd271" x="805.387064" y="375.64" style="stroke: #000000; stroke-width: 0.8"/>
      </g>
     </g>
     <g id="text_7">
      <!-- 300 -->
      <g transform="translate(791.071439 394.037656) scale(0.15 -0.15)">
       <defs>
        <path id="DejaVuSans-33" d="M 2597 2516 
Q 3050 2419 3304 2112 
Q 3559 1806 3559 1356 
Q 3559 666 3084 287 
Q 2609 -91 1734 -91 
Q 1441 -91 1130 -33 
Q 819 25 488 141 
L 488 750 
Q 750 597 1062 519 
Q 1375 441 1716 441 
Q 2309 441 2620 675 
Q 2931 909 2931 1356 
Q 2931 1769 2642 2001 
Q 2353 2234 1838 2234 
L 1294 2234 
L 1294 2753 
L 1863 2753 
Q 2328 2753 2575 2939 
Q 2822 3125 2822 3475 
Q 2822 3834 2567 4026 
Q 2313 4219 1838 4219 
Q 1578 4219 1281 4162 
Q 984 4106 628 3988 
L 628 4550 
Q 988 4650 1302 4700 
Q 1616 4750 1894 4750 
Q 2613 4750 3031 4423 
Q 3450 4097 3450 3541 
Q 3450 3153 3228 2886 
Q 3006 2619 2597 2516 
z
" transform="scale(0.015625)"/>
       </defs>
       <use xlink:href="#DejaVuSans-33"/>
       <use xlink:href="#DejaVuSans-30" x="63.623047"/>
       <use xlink:href="#DejaVuSans-30" x="127.246094"/>
      </g>
     </g>
    </g>
    <g id="text_8">
     <!-- Layer Index -->
     <g transform="translate(398.52625 416.354062) scale(0.2 -0.2)">
      <defs>
       <path id="DejaVuSans-4c" d="M 628 4666 
L 1259 4666 
L 1259 531 
L 3531 531 
L 3531 0 
L 628 0 
L 628 4666 
z
" transform="scale(0.015625)"/>
       <path id="DejaVuSans-61" d="M 2194 1759 
Q 1497 1759 1228 1600 
Q 959 1441 959 1056 
Q 959 750 1161 570 
Q 1363 391 1709 391 
Q 2188 391 2477 730 
Q 2766 1069 2766 1631 
L 2766 1759 
L 2194 1759 
z
M 3341 1997 
L 3341 0 
L 2766 0 
L 2766 531 
Q 2569 213 2275 61 
Q 1981 -91 1556 -91 
Q 1019 -91 701 211 
Q 384 513 384 1019 
Q 384 1609 779 1909 
Q 1175 2209 1959 2209 
L 2766 2209 
L 2766 2266 
Q 2766 2663 2505 2880 
Q 2244 3097 1772 3097 
Q 1472 3097 1187 3025 
Q 903 2953 641 2809 
L 641 3341 
Q 956 3463 1253 3523 
Q 1550 3584 1831 3584 
Q 2591 3584 2966 3190 
Q 3341 2797 3341 1997 
z
" transform="scale(0.015625)"/>
       <path id="DejaVuSans-79" d="M 2059 -325 
Q 1816 -950 1584 -1140 
Q 1353 -1331 966 -1331 
L 506 -1331 
L 506 -850 
L 844 -850 
Q 1081 -850 1212 -737 
Q 1344 -625 1503 -206 
L 1606 56 
L 191 3500 
L 800 3500 
L 1894 763 
L 2988 3500 
L 3597 3500 
L 2059 -325 
z
" transform="scale(0.015625)"/>
       <path id="DejaVuSans-65" d="M 3597 1894 
L 3597 1613 
L 953 1613 
Q 991 1019 1311 708 
Q 1631 397 2203 397 
Q 2534 397 2845 478 
Q 3156 559 3463 722 
L 3463 178 
Q 3153 47 2828 -22 
Q 2503 -91 2169 -91 
Q 1331 -91 842 396 
Q 353 884 353 1716 
Q 353 2575 817 3079 
Q 1281 3584 2069 3584 
Q 2775 3584 3186 3129 
Q 3597 2675 3597 1894 
z
M 3022 2063 
Q 3016 2534 2758 2815 
Q 2500 3097 2075 3097 
Q 1594 3097 1305 2825 
Q 1016 2553 972 2059 
L 3022 2063 
z
" transform="scale(0.015625)"/>
       <path id="DejaVuSans-72" d="M 2631 2963 
Q 2534 3019 2420 3045 
Q 2306 3072 2169 3072 
Q 1681 3072 1420 2755 
Q 1159 2438 1159 1844 
L 1159 0 
L 581 0 
L 581 3500 
L 1159 3500 
L 1159 2956 
Q 1341 3275 1631 3429 
Q 1922 3584 2338 3584 
Q 2397 3584 2469 3576 
Q 2541 3569 2628 3553 
L 2631 2963 
z
" transform="scale(0.015625)"/>
       <path id="DejaVuSans-20" transform="scale(0.015625)"/>
       <path id="DejaVuSans-49" d="M 628 4666 
L 1259 4666 
L 1259 0 
L 628 0 
L 628 4666 
z
" transform="scale(0.015625)"/>
       <path id="DejaVuSans-6e" d="M 3513 2113 
L 3513 0 
L 2938 0 
L 2938 2094 
Q 2938 2591 2744 2837 
Q 2550 3084 2163 3084 
Q 1697 3084 1428 2787 
Q 1159 2491 1159 1978 
L 1159 0 
L 581 0 
L 581 3500 
L 1159 3500 
L 1159 2956 
Q 1366 3272 1645 3428 
Q 1925 3584 2291 3584 
Q 2894 3584 3203 3211 
Q 3513 2838 3513 2113 
z
" transform="scale(0.015625)"/>
       <path id="DejaVuSans-64" d="M 2906 2969 
L 2906 4863 
L 3481 4863 
L 3481 0 
L 2906 0 
L 2906 525 
Q 2725 213 2448 61 
Q 2172 -91 1784 -91 
Q 1150 -91 751 415 
Q 353 922 353 1747 
Q 353 2572 751 3078 
Q 1150 3584 1784 3584 
Q 2172 3584 2448 3432 
Q 2725 3281 2906 2969 
z
M 947 1747 
Q 947 1113 1208 752 
Q 1469 391 1925 391 
Q 2381 391 2643 752 
Q 2906 1113 2906 1747 
Q 2906 2381 2643 2742 
Q 2381 3103 1925 3103 
Q 1469 3103 1208 2742 
Q 947 2381 947 1747 
z
" transform="scale(0.015625)"/>
       <path id="DejaVuSans-78" d="M 3513 3500 
L 2247 1797 
L 3578 0 
L 2900 0 
L 1881 1375 
L 863 0 
L 184 0 
L 1544 1831 
L 300 3500 
L 978 3500 
L 1906 2253 
L 2834 3500 
L 3513 3500 
z
" transform="scale(0.015625)"/>
      </defs>
      <use xlink:href="#DejaVuSans-4c"/>
      <use xlink:href="#DejaVuSans-61" x="55.712891"/>
      <use xlink:href="#DejaVuSans-79" x="116.992188"/>
      <use xlink:href="#DejaVuSans-65" x="176.171875"/>
      <use xlink:href="#DejaVuSans-72" x="237.695312"/>
      <use xlink:href="#DejaVuSans-20" x="278.808594"/>
      <use xlink:href="#DejaVuSans-49" x="310.595703"/>
      <use xlink:href="#DejaVuSans-6e" x="340.087891"/>
      <use xlink:href="#DejaVuSans-64" x="403.466797"/>
      <use xlink:href="#DejaVuSans-65" x="466.943359"/>
      <use xlink:href="#DejaVuSans-78" x="526.716797"/>
     </g>
    </g>
   </g>
   <g id="matplotlib.axis_2">
    <g id="ytick_1">
     <g id="line2d_8">
      <path d="M 61.04 361.512687 
L 853.2 361.512687 
" clip-path="url(#p65bef2ac5e)" style="fill: none; stroke: #b0b0b0; stroke-opacity: 0.5; stroke-width: 0.8; stroke-linecap: square"/>
     </g>
     <g id="line2d_9">
      <defs>
       <path id="mfa01679cc2" d="M 0 0 
L -3.5 0 
" style="stroke: #000000; stroke-width: 0.8"/>
      </defs>
      <g>
       <use xlink:href="#mfa01679cc2" x="61.04" y="361.512687" style="stroke: #000000; stroke-width: 0.8"/>
      </g>
     </g>
     <g id="text_9">
      <!-- 0 -->
      <g transform="translate(44.49625 367.211515) scale(0.15 -0.15)">
       <use xlink:href="#DejaVuSans-30"/>
      </g>
     </g>
    </g>
    <g id="ytick_2">
     <g id="line2d_10">
      <path d="M 61.04 308.989019 
L 853.2 308.989019 
" clip-path="url(#p65bef2ac5e)" style="fill: none; stroke: #b0b0b0; stroke-opacity: 0.5; stroke-width: 0.8; stroke-linecap: square"/>
     </g>
     <g id="line2d_11">
      <g>
       <use xlink:href="#mfa01679cc2" x="61.04" y="308.989019" style="stroke: #000000; stroke-width: 0.8"/>
      </g>
     </g>
     <g id="text_10">
      <!-- 5 -->
      <g transform="translate(44.49625 314.687847) scale(0.15 -0.15)">
       <use xlink:href="#DejaVuSans-35"/>
      </g>
     </g>
    </g>
    <g id="ytick_3">
     <g id="line2d_12">
      <path d="M 61.04 256.465351 
L 853.2 256.465351 
" clip-path="url(#p65bef2ac5e)" style="fill: none; stroke: #b0b0b0; stroke-opacity: 0.5; stroke-width: 0.8; stroke-linecap: square"/>
     </g>
     <g id="line2d_13">
      <g>
       <use xlink:href="#mfa01679cc2" x="61.04" y="256.465351" style="stroke: #000000; stroke-width: 0.8"/>
      </g>
     </g>
     <g id="text_11">
      <!-- 10 -->
      <g transform="translate(34.9525 262.164179) scale(0.15 -0.15)">
       <use xlink:href="#DejaVuSans-31"/>
       <use xlink:href="#DejaVuSans-30" x="63.623047"/>
      </g>
     </g>
    </g>
    <g id="ytick_4">
     <g id="line2d_14">
      <path d="M 61.04 203.941683 
L 853.2 203.941683 
" clip-path="url(#p65bef2ac5e)" style="fill: none; stroke: #b0b0b0; stroke-opacity: 0.5; stroke-width: 0.8; stroke-linecap: square"/>
     </g>
     <g id="line2d_15">
      <g>
       <use xlink:href="#mfa01679cc2" x="61.04" y="203.941683" style="stroke: #000000; stroke-width: 0.8"/>
      </g>
     </g>
     <g id="text_12">
      <!-- 15 -->
      <g transform="translate(34.9525 209.640511) scale(0.15 -0.15)">
       <use xlink:href="#DejaVuSans-31"/>
       <use xlink:href="#DejaVuSans-35" x="63.623047"/>
      </g>
     </g>
    </g>
    <g id="ytick_5">
     <g id="line2d_16">
      <path d="M 61.04 151.418015 
L 853.2 151.418015 
" clip-path="url(#p65bef2ac5e)" style="fill: none; stroke: #b0b0b0; stroke-opacity: 0.5; stroke-width: 0.8; stroke-linecap: square"/>
     </g>
     <g id="line2d_17">
      <g>
       <use xlink:href="#mfa01679cc2" x="61.04" y="151.418015" style="stroke: #000000; stroke-width: 0.8"/>
      </g>
     </g>
     <g id="text_13">
      <!-- 20 -->
      <g transform="translate(34.9525 157.116843) scale(0.15 -0.15)">
       <use xlink:href="#DejaVuSans-32"/>
       <use xlink:href="#DejaVuSans-30" x="63.623047"/>
      </g>
     </g>
    </g>
    <g id="ytick_6">
     <g id="line2d_18">
      <path d="M 61.04 98.894347 
L 853.2 98.894347 
" clip-path="url(#p65bef2ac5e)" style="fill: none; stroke: #b0b0b0; stroke-opacity: 0.5; stroke-width: 0.8; stroke-linecap: square"/>
     </g>
     <g id="line2d_19">
      <g>
       <use xlink:href="#mfa01679cc2" x="61.04" y="98.894347" style="stroke: #000000; stroke-width: 0.8"/>
      </g>
     </g>
     <g id="text_14">
      <!-- 25 -->
      <g transform="translate(34.9525 104.593175) scale(0.15 -0.15)">
       <use xlink:href="#DejaVuSans-32"/>
       <use xlink:href="#DejaVuSans-35" x="63.623047"/>
      </g>
     </g>
    </g>
    <g id="text_15">
     <!-- Execution Time (ms)    -->
     <g transform="translate(26.793125 332.303687) rotate(-90) scale(0.2 -0.2)">
      <defs>
       <path id="DejaVuSans-45" d="M 628 4666 
L 3578 4666 
L 3578 4134 
L 1259 4134 
L 1259 2753 
L 3481 2753 
L 3481 2222 
L 1259 2222 
L 1259 531 
L 3634 531 
L 3634 0 
L 628 0 
L 628 4666 
z
" transform="scale(0.015625)"/>
       <path id="DejaVuSans-63" d="M 3122 3366 
L 3122 2828 
Q 2878 2963 2633 3030 
Q 2388 3097 2138 3097 
Q 1578 3097 1268 2742 
Q 959 2388 959 1747 
Q 959 1106 1268 751 
Q 1578 397 2138 397 
Q 2388 397 2633 464 
Q 2878 531 3122 666 
L 3122 134 
Q 2881 22 2623 -34 
Q 2366 -91 2075 -91 
Q 1284 -91 818 406 
Q 353 903 353 1747 
Q 353 2603 823 3093 
Q 1294 3584 2113 3584 
Q 2378 3584 2631 3529 
Q 2884 3475 3122 3366 
z
" transform="scale(0.015625)"/>
       <path id="DejaVuSans-75" d="M 544 1381 
L 544 3500 
L 1119 3500 
L 1119 1403 
Q 1119 906 1312 657 
Q 1506 409 1894 409 
Q 2359 409 2629 706 
Q 2900 1003 2900 1516 
L 2900 3500 
L 3475 3500 
L 3475 0 
L 2900 0 
L 2900 538 
Q 2691 219 2414 64 
Q 2138 -91 1772 -91 
Q 1169 -91 856 284 
Q 544 659 544 1381 
z
M 1991 3584 
L 1991 3584 
z
" transform="scale(0.015625)"/>
       <path id="DejaVuSans-74" d="M 1172 4494 
L 1172 3500 
L 2356 3500 
L 2356 3053 
L 1172 3053 
L 1172 1153 
Q 1172 725 1289 603 
Q 1406 481 1766 481 
L 2356 481 
L 2356 0 
L 1766 0 
Q 1100 0 847 248 
Q 594 497 594 1153 
L 594 3053 
L 172 3053 
L 172 3500 
L 594 3500 
L 594 4494 
L 1172 4494 
z
" transform="scale(0.015625)"/>
       <path id="DejaVuSans-69" d="M 603 3500 
L 1178 3500 
L 1178 0 
L 603 0 
L 603 3500 
z
M 603 4863 
L 1178 4863 
L 1178 4134 
L 603 4134 
L 603 4863 
z
" transform="scale(0.015625)"/>
       <path id="DejaVuSans-6f" d="M 1959 3097 
Q 1497 3097 1228 2736 
Q 959 2375 959 1747 
Q 959 1119 1226 758 
Q 1494 397 1959 397 
Q 2419 397 2687 759 
Q 2956 1122 2956 1747 
Q 2956 2369 2687 2733 
Q 2419 3097 1959 3097 
z
M 1959 3584 
Q 2709 3584 3137 3096 
Q 3566 2609 3566 1747 
Q 3566 888 3137 398 
Q 2709 -91 1959 -91 
Q 1206 -91 779 398 
Q 353 888 353 1747 
Q 353 2609 779 3096 
Q 1206 3584 1959 3584 
z
" transform="scale(0.015625)"/>
       <path id="DejaVuSans-54" d="M -19 4666 
L 3928 4666 
L 3928 4134 
L 2272 4134 
L 2272 0 
L 1638 0 
L 1638 4134 
L -19 4134 
L -19 4666 
z
" transform="scale(0.015625)"/>
       <path id="DejaVuSans-6d" d="M 3328 2828 
Q 3544 3216 3844 3400 
Q 4144 3584 4550 3584 
Q 5097 3584 5394 3201 
Q 5691 2819 5691 2113 
L 5691 0 
L 5113 0 
L 5113 2094 
Q 5113 2597 4934 2840 
Q 4756 3084 4391 3084 
Q 3944 3084 3684 2787 
Q 3425 2491 3425 1978 
L 3425 0 
L 2847 0 
L 2847 2094 
Q 2847 2600 2669 2842 
Q 2491 3084 2119 3084 
Q 1678 3084 1418 2786 
Q 1159 2488 1159 1978 
L 1159 0 
L 581 0 
L 581 3500 
L 1159 3500 
L 1159 2956 
Q 1356 3278 1631 3431 
Q 1906 3584 2284 3584 
Q 2666 3584 2933 3390 
Q 3200 3197 3328 2828 
z
" transform="scale(0.015625)"/>
       <path id="DejaVuSans-28" d="M 1984 4856 
Q 1566 4138 1362 3434 
Q 1159 2731 1159 2009 
Q 1159 1288 1364 580 
Q 1569 -128 1984 -844 
L 1484 -844 
Q 1016 -109 783 600 
Q 550 1309 550 2009 
Q 550 2706 781 3412 
Q 1013 4119 1484 4856 
L 1984 4856 
z
" transform="scale(0.015625)"/>
       <path id="DejaVuSans-73" d="M 2834 3397 
L 2834 2853 
Q 2591 2978 2328 3040 
Q 2066 3103 1784 3103 
Q 1356 3103 1142 2972 
Q 928 2841 928 2578 
Q 928 2378 1081 2264 
Q 1234 2150 1697 2047 
L 1894 2003 
Q 2506 1872 2764 1633 
Q 3022 1394 3022 966 
Q 3022 478 2636 193 
Q 2250 -91 1575 -91 
Q 1294 -91 989 -36 
Q 684 19 347 128 
L 347 722 
Q 666 556 975 473 
Q 1284 391 1588 391 
Q 1994 391 2212 530 
Q 2431 669 2431 922 
Q 2431 1156 2273 1281 
Q 2116 1406 1581 1522 
L 1381 1569 
Q 847 1681 609 1914 
Q 372 2147 372 2553 
Q 372 3047 722 3315 
Q 1072 3584 1716 3584 
Q 2034 3584 2315 3537 
Q 2597 3491 2834 3397 
z
" transform="scale(0.015625)"/>
       <path id="DejaVuSans-29" d="M 513 4856 
L 1013 4856 
Q 1481 4119 1714 3412 
Q 1947 2706 1947 2009 
Q 1947 1309 1714 600 
Q 1481 -109 1013 -844 
L 513 -844 
Q 928 -128 1133 580 
Q 1338 1288 1338 2009 
Q 1338 2731 1133 3434 
Q 928 4138 513 4856 
z
" transform="scale(0.015625)"/>
      </defs>
      <use xlink:href="#DejaVuSans-45"/>
      <use xlink:href="#DejaVuSans-78" x="63.183594"/>
      <use xlink:href="#DejaVuSans-65" x="119.238281"/>
      <use xlink:href="#DejaVuSans-63" x="180.761719"/>
      <use xlink:href="#DejaVuSans-75" x="235.742188"/>
      <use xlink:href="#DejaVuSans-74" x="299.121094"/>
      <use xlink:href="#DejaVuSans-69" x="338.330078"/>
      <use xlink:href="#DejaVuSans-6f" x="366.113281"/>
      <use xlink:href="#DejaVuSans-6e" x="427.294922"/>
      <use xlink:href="#DejaVuSans-20" x="490.673828"/>
      <use xlink:href="#DejaVuSans-54" x="522.460938"/>
      <use xlink:href="#DejaVuSans-69" x="580.419922"/>
      <use xlink:href="#DejaVuSans-6d" x="608.203125"/>
      <use xlink:href="#DejaVuSans-65" x="705.615234"/>
      <use xlink:href="#DejaVuSans-20" x="767.138672"/>
      <use xlink:href="#DejaVuSans-28" x="798.925781"/>
      <use xlink:href="#DejaVuSans-6d" x="837.939453"/>
      <use xlink:href="#DejaVuSans-73" x="935.351562"/>
      <use xlink:href="#DejaVuSans-29" x="987.451172"/>
      <use xlink:href="#DejaVuSans-20" x="1026.464844"/>
      <use xlink:href="#DejaVuSans-20" x="1058.251953"/>
      <use xlink:href="#DejaVuSans-20" x="1090.039062"/>
     </g>
    </g>
   </g>
   <g id="line2d_20">
    <path d="M 97.047273 123.871602 
L 99.408405 330.516969 
L 101.769538 315.966263 
L 104.130671 78.768929 
L 106.491803 359.736336 
L 108.852936 299.463777 
L 111.214069 78.8162 
L 113.575201 359.10215 
L 115.936334 282.758999 
L 118.297466 78.791289 
L 120.658599 358.496928 
L 123.019732 265.816965 
L 125.380864 78.745818 
L 127.741997 357.899208 
L 130.10313 248.316379 
L 132.464262 78.859269 
L 134.825395 357.298187 
L 137.186528 230.85316 
L 139.54766 78.920797 
L 141.908793 356.700618 
L 144.269925 212.894417 
L 146.631058 345.971383 
L 148.992191 342.012149 
L 151.353323 292.81398 
L 153.714456 360.646196 
L 156.075589 337.989137 
L 158.436721 294.303551 
L 160.797854 360.483523 
L 163.158987 333.629672 
L 165.520119 294.174493 
L 167.881252 360.304342 
L 170.242385 329.370753 
L 172.603517 293.955544 
L 174.96465 360.095298 
L 177.325782 324.94751 
L 179.686915 293.940388 
L 182.048048 359.929473 
L 184.40918 320.679286 
L 186.770313 293.848996 
L 189.131446 359.714876 
L 191.492578 316.389904 
L 193.853711 293.663513 
L 196.214844 359.506433 
L 198.575976 311.984068 
L 200.937109 293.593281 
L 203.298241 359.36882 
L 205.659374 307.77107 
L 208.020507 293.351822 
L 210.381639 359.27998 
L 212.742772 303.602491 
L 215.103905 293.354374 
L 217.465037 359.088944 
L 219.82617 299.339971 
L 222.187303 293.304251 
L 224.548435 358.941728 
L 226.909568 295.158186 
L 229.2707 293.167839 
L 231.631833 358.750392 
L 233.992966 226.051446 
L 236.354098 353.429144 
L 238.715231 352.136912 
L 241.076364 344.430789 
L 243.437496 361.195744 
L 245.798629 351.22315 
L 248.159762 344.708865 
L 250.520894 361.18749 
L 252.882027 350.173127 
L 255.243159 344.733175 
L 257.604292 361.133166 
L 259.965425 349.111999 
L 262.326557 344.464254 
L 264.68769 361.091897 
L 267.048823 348.081034 
L 269.409955 344.772193 
L 271.771088 361.064885 
L 274.132221 347.040765 
L 276.493353 344.777445 
L 278.854486 361.053029 
L 281.215618 345.889597 
L 283.576751 344.771143 
L 285.937884 360.982498 
L 288.299016 344.825617 
L 290.660149 344.771593 
L 293.021282 360.947982 
L 295.382414 343.780096 
L 297.743547 344.722671 
L 300.10468 360.897559 
L 302.465812 342.607768 
L 304.826945 344.712016 
L 307.188077 360.871598 
L 309.54921 341.61447 
L 311.910343 344.712916 
L 314.271475 360.83258 
L 316.632608 340.553192 
L 318.993741 344.691157 
L 321.354873 360.783958 
L 323.716006 339.491313 
L 326.077139 344.709615 
L 328.438271 360.758447 
L 330.799404 338.133652 
L 333.160537 344.72057 
L 335.521669 360.710725 
L 337.882802 337.079877 
L 340.243934 344.722521 
L 342.605067 360.687915 
L 344.9662 335.995188 
L 347.327332 344.738278 
L 349.688465 360.635541 
L 352.049598 334.825861 
L 354.41073 344.737678 
L 356.771863 360.593973 
L 359.132996 333.840367 
L 361.494128 344.729724 
L 363.855261 360.576865 
L 366.216393 332.683046 
L 368.577526 344.72177 
L 370.938659 360.538598 
L 373.299791 331.562491 
L 375.660924 344.72087 
L 378.022057 360.494328 
L 380.383189 330.54053 
L 382.744322 344.688455 
L 385.105455 360.469717 
L 387.466587 329.544531 
L 392.188852 360.420945 
L 394.549985 328.38766 
L 399.27225 360.382077 
L 401.633383 327.271907 
L 403.994516 344.679151 
L 406.355648 360.329103 
L 408.716781 326.112335 
L 411.077914 344.644185 
L 413.439046 360.304942 
L 415.800179 325.172311 
L 418.161311 344.663094 
L 420.522444 360.266375 
L 422.883577 324.185466 
L 425.244709 344.668496 
L 427.605842 360.202896 
L 429.966975 323.088922 
L 432.328107 344.65544 
L 434.68924 360.192992 
L 437.050373 321.960114 
L 439.411505 344.615823 
L 441.772638 360.164929 
L 444.13377 320.898385 
L 446.494903 344.650488 
L 448.856036 360.085694 
L 451.217168 319.819699 
L 453.578301 344.643585 
L 455.939434 360.053879 
L 458.300566 318.60145 
L 460.661699 344.599915 
L 463.022832 360.040823 
L 465.383964 317.552628 
L 467.745097 344.63113 
L 470.10623 360.006608 
L 472.467362 316.116931 
L 474.828495 344.607569 
L 477.189627 360.01036 
L 479.55076 314.98452 
L 481.911893 344.63143 
L 484.273025 359.957386 
L 486.634158 313.780228 
L 488.995291 344.639683 
L 491.356423 359.929173 
L 493.717556 312.930395 
L 496.078689 344.660093 
L 498.439821 359.899159 
L 500.800954 311.835651 
L 503.162086 344.643885 
L 505.523219 359.848887 
L 507.884352 310.758766 
L 510.245484 344.655891 
L 512.606617 359.808819 
L 514.96775 309.764118 
L 517.328882 344.638633 
L 519.690015 359.748792 
L 522.051148 308.512704 
L 524.41228 344.641184 
L 526.773413 359.718328 
L 529.134545 307.446324 
L 531.495678 344.623176 
L 533.856811 359.67946 
L 536.217943 306.254937 
L 538.579076 344.645386 
L 540.940209 359.674508 
L 543.301341 305.139034 
L 545.662474 344.60967 
L 548.023607 359.577264 
L 550.384739 303.960253 
L 552.745872 344.592412 
L 555.107004 359.561958 
L 557.468137 303.22162 
L 559.82927 344.58851 
L 562.190402 359.512135 
L 564.551535 302.056945 
L 566.912668 344.597965 
L 569.2738 359.491576 
L 571.634933 301.056744 
L 573.996066 344.561948 
L 576.357198 359.414891 
L 578.718331 134.824438 
L 581.079463 357.48187 
L 583.440596 356.409187 
L 585.801729 357.001804 
L 588.162861 361.372974 
L 590.523994 356.310292 
L 592.885127 357.08134 
L 595.246259 361.375975 
L 597.607392 356.032067 
L 599.968525 357.090944 
L 602.329657 361.361568 
L 604.69079 355.737934 
L 607.051923 357.096046 
L 609.413055 361.355116 
L 611.774188 355.486871 
L 614.13532 357.091694 
L 616.496453 361.345661 
L 618.857586 355.069233 
L 621.218718 357.088393 
L 623.579851 361.336807 
L 625.940984 354.770148 
L 628.302116 357.079239 
L 630.663249 361.334106 
L 633.024382 354.460109 
L 635.385514 357.088993 
L 637.746647 361.323301 
L 640.107779 354.184885 
L 642.468912 357.115705 
L 644.830045 361.312046 
L 647.191177 353.883249 
L 649.55231 357.112254 
L 651.913443 361.310846 
L 654.274575 353.629184 
L 656.635708 357.123959 
L 658.996841 361.302142 
L 661.357973 353.355611 
L 663.719106 357.123809 
L 666.080238 361.291937 
L 668.441371 353.074534 
L 673.163636 361.284584 
L 675.524769 352.778001 
L 680.247034 361.281282 
L 682.608167 352.493022 
L 684.9693 357.112404 
L 687.330432 361.270327 
L 689.691565 352.204442 
L 692.052697 357.110303 
L 694.41383 361.262674 
L 696.774963 351.898004 
L 699.136095 357.114054 
L 701.497228 361.256221 
L 703.858361 351.655345 
L 706.219493 357.119757 
L 708.580626 361.249468 
L 710.941759 351.375619 
L 713.302891 357.115705 
L 715.664024 361.239113 
L 718.025156 351.08944 
L 720.386289 357.113754 
L 722.747422 361.23206 
L 725.108554 350.782701 
L 727.469687 357.123809 
L 729.83082 361.227558 
L 732.191952 350.498173 
L 734.553085 357.129211 
L 736.914218 361.220205 
L 739.27535 350.208993 
L 741.636483 357.12651 
L 743.997615 361.210901 
L 746.358748 349.919813 
L 748.719881 357.116456 
L 751.081013 361.204748 
L 753.442146 349.579459 
L 755.803279 357.110153 
L 758.164411 361.196944 
L 760.525544 349.237755 
L 762.886677 357.101449 
L 765.247809 361.18719 
L 767.608942 348.933568 
L 769.970075 357.101749 
L 772.331207 361.181037 
L 774.69234 348.606571 
L 777.053472 357.114655 
L 779.414605 361.171733 
L 781.775738 348.3384 
L 784.13687 357.10475 
L 786.498003 361.162429 
L 788.859136 348.028811 
L 791.220268 357.110903 
L 793.581401 361.157176 
L 795.942534 347.755537 
L 798.303666 357.123209 
L 800.664799 361.147422 
L 803.025931 347.459454 
L 805.387064 357.122158 
L 807.748197 361.14247 
L 810.109329 257.899097 
L 812.470462 360.72183 
L 814.831595 361.395034 
L 817.192727 361.502182 
L 817.192727 361.502182 
" clip-path="url(#p65bef2ac5e)" style="fill: none; stroke: #6495ed; stroke-width: 3; stroke-linecap: square"/>
   </g>
   <g id="line2d_21">
    <path d="M 97.047273 350.198271 
L 99.408405 360.253169 
L 101.769538 358.439702 
L 104.130671 354.365032 
L 106.491803 360.702538 
L 108.852936 358.391147 
L 111.214069 354.57501 
L 113.575201 360.47085 
L 115.936334 358.109853 
L 118.297466 354.56649 
L 120.658599 360.311879 
L 123.019732 357.832061 
L 125.380864 354.577111 
L 127.741997 360.140301 
L 130.10313 356.749373 
L 132.464262 354.570458 
L 134.825395 359.997204 
L 137.186528 356.606392 
L 139.54766 354.562171 
L 141.908793 359.838232 
L 144.269925 356.794077 
L 146.631058 360.803967 
L 148.992191 359.870913 
L 151.353323 359.158109 
L 153.714456 361.010093 
L 156.075589 359.823059 
L 158.436721 359.150405 
L 160.797854 360.953485 
L 163.158987 359.753727 
L 165.520119 359.1748 
L 167.881252 360.926873 
L 170.242385 359.542115 
L 172.603517 359.167213 
L 174.96465 360.873765 
L 177.325782 359.475002 
L 179.686915 359.164412 
L 182.048048 360.848671 
L 184.40918 359.438585 
L 186.770313 359.178418 
L 189.131446 360.813538 
L 191.492578 359.332721 
L 193.853711 359.176901 
L 196.214844 360.7658 
L 198.575976 359.259888 
L 200.937109 359.164062 
L 203.298241 360.723781 
L 205.659374 359.220437 
L 208.020507 359.173516 
L 210.381639 360.681062 
L 212.742772 359.321633 
L 215.103905 359.163828 
L 217.465037 360.646513 
L 219.82617 359.255453 
L 222.187303 359.164645 
L 224.548435 360.565393 
L 226.909568 359.218569 
L 229.2707 359.150989 
L 231.631833 360.502248 
L 233.992966 357.4365 
L 236.354098 361.002623 
L 238.715231 360.47727 
L 241.076364 360.530611 
L 243.437496 361.116658 
L 245.798629 360.530027 
L 248.159762 360.517421 
L 250.520894 361.115374 
L 252.882027 360.504115 
L 255.243159 360.528393 
L 257.604292 361.103235 
L 259.965425 360.489409 
L 262.326557 360.530377 
L 264.68769 361.090046 
L 267.048823 360.461863 
L 269.409955 360.526175 
L 271.771088 361.09028 
L 274.132221 360.353197 
L 276.493353 360.490109 
L 278.854486 361.085027 
L 281.215618 360.348879 
L 283.576751 360.507033 
L 285.937884 361.070787 
L 288.299016 360.213951 
L 290.660149 360.464898 
L 293.021282 361.067169 
L 295.382414 360.353431 
L 297.743547 360.509951 
L 300.10468 361.041024 
L 302.465812 360.297989 
L 304.826945 360.498279 
L 307.188077 361.02515 
L 309.54921 360.315614 
L 311.910343 360.515437 
L 314.271475 361.025851 
L 316.632608 360.214652 
L 318.993741 360.492093 
L 321.354873 361.013712 
L 323.716006 360.189207 
L 326.077139 360.479488 
L 328.438271 361.013595 
L 330.799404 360.163062 
L 333.160537 360.475286 
L 335.521669 361.009977 
L 337.882802 360.145554 
L 340.243934 360.468866 
L 342.605067 360.986866 
L 344.9662 360.121977 
L 347.327332 360.473885 
L 349.688465 360.971693 
L 352.049598 360.092447 
L 354.41073 360.471901 
L 356.771863 360.967141 
L 359.132996 360.089295 
L 363.855261 360.948466 
L 366.216393 360.063383 
L 370.938659 360.943563 
L 373.299791 360.041324 
L 378.022057 360.936794 
L 380.383189 360.016812 
L 385.105455 360.934693 
L 387.466587 359.992068 
L 392.188852 360.908664 
L 394.549985 359.972342 
L 399.27225 360.911933 
L 401.633383 359.953317 
L 406.355648 360.891623 
L 408.716781 359.920869 
L 411.077914 360.471201 
L 413.439046 360.882169 
L 415.800179 359.913749 
L 418.161311 360.470734 
L 420.522444 360.877033 
L 422.883577 359.788159 
L 425.244709 360.459062 
L 427.605842 360.862794 
L 429.966975 359.714159 
L 432.328107 360.47085 
L 434.68924 360.84727 
L 437.050373 359.741005 
L 439.411505 360.465365 
L 441.772638 360.849721 
L 444.13377 359.674942 
L 446.494903 360.459295 
L 448.856036 360.828128 
L 451.217168 359.696418 
L 453.578301 360.474352 
L 455.939434 360.823576 
L 458.300566 359.620551 
L 460.661699 360.465715 
L 463.022832 360.814122 
L 465.383964 359.616349 
L 467.745097 360.466065 
L 470.10623 360.80922 
L 472.467362 359.573163 
L 474.828495 360.4691 
L 477.189627 360.794163 
L 479.55076 359.599775 
L 481.911893 360.467232 
L 484.273025 360.769885 
L 486.634158 359.512002 
L 488.995291 360.464197 
L 491.356423 360.768251 
L 493.717556 359.550286 
L 496.078689 360.471201 
L 498.439821 360.750626 
L 500.800954 359.477103 
L 503.162086 360.481122 
L 505.523219 360.75763 
L 507.884352 359.491342 
L 510.245484 360.478087 
L 512.606617 360.756229 
L 514.96775 359.423412 
L 517.328882 360.474352 
L 519.690015 360.748409 
L 522.051148 359.46368 
L 524.41228 360.47762 
L 526.773413 360.739188 
L 529.134545 359.383961 
L 531.495678 360.47692 
L 533.856811 360.709541 
L 536.217943 359.397617 
L 538.579076 360.467115 
L 540.940209 360.6918 
L 543.301341 359.334822 
L 545.662474 360.473185 
L 548.023607 360.69927 
L 550.384739 359.360033 
L 552.745872 360.471084 
L 555.107004 360.685847 
L 557.468137 359.268409 
L 559.82927 360.465131 
L 562.190402 360.676043 
L 564.551535 359.314279 
L 566.912668 360.467349 
L 569.2738 360.676276 
L 571.634933 359.224872 
L 573.996066 360.467699 
L 576.357198 360.598191 
L 578.718331 356.167528 
L 581.079463 361.131832 
L 583.440596 360.62492 
L 585.801729 360.588503 
L 588.162861 361.173384 
L 590.523994 360.676393 
L 592.885127 360.626554 
L 595.246259 361.178986 
L 597.607392 360.677444 
L 599.968525 360.606011 
L 602.329657 361.176885 
L 604.69079 360.678844 
L 607.051923 360.630639 
L 609.413055 361.173033 
L 611.774188 360.668106 
L 614.13532 360.624103 
L 616.496453 361.165563 
L 618.857586 360.651182 
L 621.218718 360.641961 
L 623.579851 361.168715 
L 625.940984 360.653166 
L 628.302116 360.61745 
L 630.663249 361.166847 
L 633.024382 360.645929 
L 635.385514 360.630055 
L 637.746647 361.162645 
L 640.107779 360.643011 
L 642.468912 360.609163 
L 644.830045 361.171283 
L 647.191177 360.652115 
L 649.55231 360.637059 
L 651.913443 361.169882 
L 654.274575 360.607412 
L 656.635708 360.619201 
L 658.996841 361.174201 
L 661.357973 360.602043 
L 663.719106 360.642311 
L 666.080238 361.163346 
L 668.441371 360.592705 
L 670.802504 360.632857 
L 673.163636 361.17245 
L 675.524769 360.592939 
L 677.885902 360.627371 
L 680.247034 361.170466 
L 682.608167 360.59644 
L 684.9693 360.637059 
L 687.330432 361.168948 
L 689.691565 360.571696 
L 692.052697 360.640093 
L 694.41383 361.159144 
L 696.774963 360.582434 
L 699.136095 360.650598 
L 701.497228 361.151907 
L 703.858361 360.576131 
L 706.219493 360.635191 
L 708.580626 361.131481 
L 710.941759 360.554888 
L 713.302891 360.651065 
L 715.664024 361.147939 
L 718.025156 360.567844 
L 720.386289 360.632973 
L 722.747422 361.132765 
L 725.108554 360.568428 
L 727.469687 360.627488 
L 729.83082 361.127046 
L 732.191952 360.57298 
L 734.553085 360.625387 
L 736.914218 361.115608 
L 739.27535 360.572746 
L 741.636483 360.635308 
L 743.997615 361.122377 
L 746.358748 360.562942 
L 748.719881 360.619317 
L 751.081013 361.116191 
L 753.442146 360.55944 
L 755.803279 360.634841 
L 758.164411 361.115257 
L 760.525544 360.555939 
L 762.886677 360.622819 
L 765.247809 361.10662 
L 767.608942 360.562475 
L 769.970075 360.643361 
L 772.331207 361.116425 
L 774.69234 360.504466 
L 777.053472 360.626787 
L 779.414605 361.102652 
L 781.775738 360.50003 
L 784.13687 360.636825 
L 786.498003 361.095182 
L 788.859136 360.495828 
L 791.220268 360.614415 
L 793.581401 361.107554 
L 795.942534 360.504816 
L 798.303666 360.631339 
L 800.664799 361.101485 
L 803.025931 360.496062 
L 805.387064 360.621885 
L 807.748197 361.100668 
L 810.109329 358.089894 
L 812.470462 360.841668 
L 814.831595 358.129229 
L 817.192727 361.470901 
L 817.192727 361.470901 
" clip-path="url(#p65bef2ac5e)" style="fill: none; stroke: #00ff00; stroke-width: 3; stroke-linecap: square"/>
   </g>
   <g id="patch_3">
    <path d="M 61.04 375.64 
L 61.04 64.608 
" style="fill: none; stroke: #000000; stroke-width: 0.8; stroke-linejoin: miter; stroke-linecap: square"/>
   </g>
   <g id="patch_4">
    <path d="M 853.2 375.64 
L 853.2 64.608 
" style="fill: none; stroke: #000000; stroke-width: 0.8; stroke-linejoin: miter; stroke-linecap: square"/>
   </g>
   <g id="patch_5">
    <path d="M 61.04 375.64 
L 853.2 375.64 
" style="fill: none; stroke: #000000; stroke-width: 0.8; stroke-linejoin: miter; stroke-linecap: square"/>
   </g>
   <g id="patch_6">
    <path d="M 61.04 64.608 
L 853.2 64.608 
" style="fill: none; stroke: #000000; stroke-width: 0.8; stroke-linejoin: miter; stroke-linecap: square"/>
   </g>
   <g id="text_16">
    <!-- [super] -->
    <g transform="translate(412.166875 30.613469) scale(0.25 -0.25)">
     <defs>
      <path id="DejaVuSans-5b" d="M 550 4863 
L 1875 4863 
L 1875 4416 
L 1125 4416 
L 1125 -397 
L 1875 -397 
L 1875 -844 
L 550 -844 
L 550 4863 
z
" transform="scale(0.015625)"/>
      <path id="DejaVuSans-70" d="M 1159 525 
L 1159 -1331 
L 581 -1331 
L 581 3500 
L 1159 3500 
L 1159 2969 
Q 1341 3281 1617 3432 
Q 1894 3584 2278 3584 
Q 2916 3584 3314 3078 
Q 3713 2572 3713 1747 
Q 3713 922 3314 415 
Q 2916 -91 2278 -91 
Q 1894 -91 1617 61 
Q 1341 213 1159 525 
z
M 3116 1747 
Q 3116 2381 2855 2742 
Q 2594 3103 2138 3103 
Q 1681 3103 1420 2742 
Q 1159 2381 1159 1747 
Q 1159 1113 1420 752 
Q 1681 391 2138 391 
Q 2594 391 2855 752 
Q 3116 1113 3116 1747 
z
" transform="scale(0.015625)"/>
      <path id="DejaVuSans-5d" d="M 1947 4863 
L 1947 -844 
L 622 -844 
L 622 -397 
L 1369 -397 
L 1369 4416 
L 622 4416 
L 622 4863 
L 1947 4863 
z
" transform="scale(0.015625)"/>
     </defs>
     <use xlink:href="#DejaVuSans-5b"/>
     <use xlink:href="#DejaVuSans-73" x="39.013672"/>
     <use xlink:href="#DejaVuSans-75" x="91.113281"/>
     <use xlink:href="#DejaVuSans-70" x="154.492188"/>
     <use xlink:href="#DejaVuSans-65" x="217.96875"/>
     <use xlink:href="#DejaVuSans-72" x="279.492188"/>
     <use xlink:href="#DejaVuSans-5d" x="320.605469"/>
    </g>
    <!-- CPU vs GPU Inference Times with densenet201 -->
    <g transform="translate(163.114141 58.608) scale(0.25 -0.25)">
     <defs>
      <path id="DejaVuSans-43" d="M 4122 4306 
L 4122 3641 
Q 3803 3938 3442 4084 
Q 3081 4231 2675 4231 
Q 1875 4231 1450 3742 
Q 1025 3253 1025 2328 
Q 1025 1406 1450 917 
Q 1875 428 2675 428 
Q 3081 428 3442 575 
Q 3803 722 4122 1019 
L 4122 359 
Q 3791 134 3420 21 
Q 3050 -91 2638 -91 
Q 1578 -91 968 557 
Q 359 1206 359 2328 
Q 359 3453 968 4101 
Q 1578 4750 2638 4750 
Q 3056 4750 3426 4639 
Q 3797 4528 4122 4306 
z
" transform="scale(0.015625)"/>
      <path id="DejaVuSans-50" d="M 1259 4147 
L 1259 2394 
L 2053 2394 
Q 2494 2394 2734 2622 
Q 2975 2850 2975 3272 
Q 2975 3691 2734 3919 
Q 2494 4147 2053 4147 
L 1259 4147 
z
M 628 4666 
L 2053 4666 
Q 2838 4666 3239 4311 
Q 3641 3956 3641 3272 
Q 3641 2581 3239 2228 
Q 2838 1875 2053 1875 
L 1259 1875 
L 1259 0 
L 628 0 
L 628 4666 
z
" transform="scale(0.015625)"/>
      <path id="DejaVuSans-55" d="M 556 4666 
L 1191 4666 
L 1191 1831 
Q 1191 1081 1462 751 
Q 1734 422 2344 422 
Q 2950 422 3222 751 
Q 3494 1081 3494 1831 
L 3494 4666 
L 4128 4666 
L 4128 1753 
Q 4128 841 3676 375 
Q 3225 -91 2344 -91 
Q 1459 -91 1007 375 
Q 556 841 556 1753 
L 556 4666 
z
" transform="scale(0.015625)"/>
      <path id="DejaVuSans-76" d="M 191 3500 
L 800 3500 
L 1894 563 
L 2988 3500 
L 3597 3500 
L 2284 0 
L 1503 0 
L 191 3500 
z
" transform="scale(0.015625)"/>
      <path id="DejaVuSans-47" d="M 3809 666 
L 3809 1919 
L 2778 1919 
L 2778 2438 
L 4434 2438 
L 4434 434 
Q 4069 175 3628 42 
Q 3188 -91 2688 -91 
Q 1594 -91 976 548 
Q 359 1188 359 2328 
Q 359 3472 976 4111 
Q 1594 4750 2688 4750 
Q 3144 4750 3555 4637 
Q 3966 4525 4313 4306 
L 4313 3634 
Q 3963 3931 3569 4081 
Q 3175 4231 2741 4231 
Q 1884 4231 1454 3753 
Q 1025 3275 1025 2328 
Q 1025 1384 1454 906 
Q 1884 428 2741 428 
Q 3075 428 3337 486 
Q 3600 544 3809 666 
z
" transform="scale(0.015625)"/>
      <path id="DejaVuSans-66" d="M 2375 4863 
L 2375 4384 
L 1825 4384 
Q 1516 4384 1395 4259 
Q 1275 4134 1275 3809 
L 1275 3500 
L 2222 3500 
L 2222 3053 
L 1275 3053 
L 1275 0 
L 697 0 
L 697 3053 
L 147 3053 
L 147 3500 
L 697 3500 
L 697 3744 
Q 697 4328 969 4595 
Q 1241 4863 1831 4863 
L 2375 4863 
z
" transform="scale(0.015625)"/>
      <path id="DejaVuSans-77" d="M 269 3500 
L 844 3500 
L 1563 769 
L 2278 3500 
L 2956 3500 
L 3675 769 
L 4391 3500 
L 4966 3500 
L 4050 0 
L 3372 0 
L 2619 2869 
L 1863 0 
L 1184 0 
L 269 3500 
z
" transform="scale(0.015625)"/>
      <path id="DejaVuSans-68" d="M 3513 2113 
L 3513 0 
L 2938 0 
L 2938 2094 
Q 2938 2591 2744 2837 
Q 2550 3084 2163 3084 
Q 1697 3084 1428 2787 
Q 1159 2491 1159 1978 
L 1159 0 
L 581 0 
L 581 4863 
L 1159 4863 
L 1159 2956 
Q 1366 3272 1645 3428 
Q 1925 3584 2291 3584 
Q 2894 3584 3203 3211 
Q 3513 2838 3513 2113 
z
" transform="scale(0.015625)"/>
     </defs>
     <use xlink:href="#DejaVuSans-43"/>
     <use xlink:href="#DejaVuSans-50" x="69.824219"/>
     <use xlink:href="#DejaVuSans-55" x="130.126953"/>
     <use xlink:href="#DejaVuSans-20" x="203.320312"/>
     <use xlink:href="#DejaVuSans-76" x="235.107422"/>
     <use xlink:href="#DejaVuSans-73" x="294.287109"/>
     <use xlink:href="#DejaVuSans-20" x="346.386719"/>
     <use xlink:href="#DejaVuSans-47" x="378.173828"/>
     <use xlink:href="#DejaVuSans-50" x="455.664062"/>
     <use xlink:href="#DejaVuSans-55" x="515.966797"/>
     <use xlink:href="#DejaVuSans-20" x="589.160156"/>
     <use xlink:href="#DejaVuSans-49" x="620.947266"/>
     <use xlink:href="#DejaVuSans-6e" x="650.439453"/>
     <use xlink:href="#DejaVuSans-66" x="713.818359"/>
     <use xlink:href="#DejaVuSans-65" x="749.023438"/>
     <use xlink:href="#DejaVuSans-72" x="810.546875"/>
     <use xlink:href="#DejaVuSans-65" x="849.410156"/>
     <use xlink:href="#DejaVuSans-6e" x="910.933594"/>
     <use xlink:href="#DejaVuSans-63" x="974.3125"/>
     <use xlink:href="#DejaVuSans-65" x="1029.292969"/>
     <use xlink:href="#DejaVuSans-20" x="1090.816406"/>
     <use xlink:href="#DejaVuSans-54" x="1122.603516"/>
     <use xlink:href="#DejaVuSans-69" x="1180.5625"/>
     <use xlink:href="#DejaVuSans-6d" x="1208.345703"/>
     <use xlink:href="#DejaVuSans-65" x="1305.757812"/>
     <use xlink:href="#DejaVuSans-73" x="1367.28125"/>
     <use xlink:href="#DejaVuSans-20" x="1419.380859"/>
     <use xlink:href="#DejaVuSans-77" x="1451.167969"/>
     <use xlink:href="#DejaVuSans-69" x="1532.955078"/>
     <use xlink:href="#DejaVuSans-74" x="1560.738281"/>
     <use xlink:href="#DejaVuSans-68" x="1599.947266"/>
     <use xlink:href="#DejaVuSans-20" x="1663.326172"/>
     <use xlink:href="#DejaVuSans-64" x="1695.113281"/>
     <use xlink:href="#DejaVuSans-65" x="1758.589844"/>
     <use xlink:href="#DejaVuSans-6e" x="1820.113281"/>
     <use xlink:href="#DejaVuSans-73" x="1883.492188"/>
     <use xlink:href="#DejaVuSans-65" x="1935.591797"/>
     <use xlink:href="#DejaVuSans-6e" x="1997.115234"/>
     <use xlink:href="#DejaVuSans-65" x="2060.494141"/>
     <use xlink:href="#DejaVuSans-74" x="2122.017578"/>
     <use xlink:href="#DejaVuSans-32" x="2161.226562"/>
     <use xlink:href="#DejaVuSans-30" x="2224.849609"/>
     <use xlink:href="#DejaVuSans-31" x="2288.472656"/>
    </g>
   </g>
   <g id="legend_1">
    <g id="patch_7">
     <path d="M 632.671875 139.3205 
L 839.2 139.3205 
Q 843.2 139.3205 843.2 135.3205 
L 843.2 78.608 
Q 843.2 74.608 839.2 74.608 
L 632.671875 74.608 
Q 628.671875 74.608 628.671875 78.608 
L 628.671875 135.3205 
Q 628.671875 139.3205 632.671875 139.3205 
z
" style="fill: #ffffff; opacity: 0.8; stroke: #cccccc; stroke-linejoin: miter"/>
    </g>
    <g id="line2d_22">
     <path d="M 636.671875 90.804875 
L 656.671875 90.804875 
L 676.671875 90.804875 
" style="fill: none; stroke: #6495ed; stroke-width: 3; stroke-linecap: square"/>
    </g>
    <g id="text_17">
     <!-- CPU Inference -->
     <g transform="translate(692.671875 97.804875) scale(0.2 -0.2)">
      <use xlink:href="#DejaVuSans-43"/>
      <use xlink:href="#DejaVuSans-50" x="69.824219"/>
      <use xlink:href="#DejaVuSans-55" x="130.126953"/>
      <use xlink:href="#DejaVuSans-20" x="203.320312"/>
      <use xlink:href="#DejaVuSans-49" x="235.107422"/>
      <use xlink:href="#DejaVuSans-6e" x="264.599609"/>
      <use xlink:href="#DejaVuSans-66" x="327.978516"/>
      <use xlink:href="#DejaVuSans-65" x="363.183594"/>
      <use xlink:href="#DejaVuSans-72" x="424.707031"/>
      <use xlink:href="#DejaVuSans-65" x="463.570312"/>
      <use xlink:href="#DejaVuSans-6e" x="525.09375"/>
      <use xlink:href="#DejaVuSans-63" x="588.472656"/>
      <use xlink:href="#DejaVuSans-65" x="643.453125"/>
     </g>
    </g>
    <g id="line2d_23">
     <path d="M 636.671875 120.161125 
L 656.671875 120.161125 
L 676.671875 120.161125 
" style="fill: none; stroke: #00ff00; stroke-width: 3; stroke-linecap: square"/>
    </g>
    <g id="text_18">
     <!-- GPU Inference -->
     <g transform="translate(692.671875 127.161125) scale(0.2 -0.2)">
      <use xlink:href="#DejaVuSans-47"/>
      <use xlink:href="#DejaVuSans-50" x="77.490234"/>
      <use xlink:href="#DejaVuSans-55" x="137.792969"/>
      <use xlink:href="#DejaVuSans-20" x="210.986328"/>
      <use xlink:href="#DejaVuSans-49" x="242.773438"/>
      <use xlink:href="#DejaVuSans-6e" x="272.265625"/>
      <use xlink:href="#DejaVuSans-66" x="335.644531"/>
      <use xlink:href="#DejaVuSans-65" x="370.849609"/>
      <use xlink:href="#DejaVuSans-72" x="432.373047"/>
      <use xlink:href="#DejaVuSans-65" x="471.236328"/>
      <use xlink:href="#DejaVuSans-6e" x="532.759766"/>
      <use xlink:href="#DejaVuSans-63" x="596.138672"/>
      <use xlink:href="#DejaVuSans-65" x="651.119141"/>
     </g>
    </g>
   </g>
  </g>
 </g>
 <defs>
  <clipPath id="p65bef2ac5e">
   <rect x="61.04" y="64.608" width="792.16" height="311.032"/>
  </clipPath>
 </defs>
</svg>
