<?xml version="1.0" encoding="utf-8" standalone="no"?>
<!DOCTYPE svg PUBLIC "-//W3C//DTD SVG 1.1//EN"
  "http://www.w3.org/Graphics/SVG/1.1/DTD/svg11.dtd">
<svg xmlns:xlink="http://www.w3.org/1999/xlink" width="864pt" height="432pt" viewBox="0 0 864 432" xmlns="http://www.w3.org/2000/svg" version="1.1">
 <metadata>
  <rdf:RDF xmlns:dc="http://purl.org/dc/elements/1.1/" xmlns:cc="http://creativecommons.org/ns#" xmlns:rdf="http://www.w3.org/1999/02/22-rdf-syntax-ns#">
   <cc:Work>
    <dc:type rdf:resource="http://purl.org/dc/dcmitype/StillImage"/>
    <dc:date>2025-01-16T15:36:47.845582</dc:date>
    <dc:format>image/svg+xml</dc:format>
    <dc:creator>
     <cc:Agent>
      <dc:title>Matplotlib v3.7.5, https://matplotlib.org/</dc:title>
     </cc:Agent>
    </dc:creator>
   </cc:Work>
  </rdf:RDF>
 </metadata>
 <defs>
  <style type="text/css">*{stroke-linejoin: round; stroke-linecap: butt}</style>
 </defs>
 <g id="figure_1">
  <g id="patch_1">
   <path d="M 0 432 
L 864 432 
L 864 0 
L 0 0 
z
" style="fill: #ffffff"/>
  </g>
  <g id="axes_1">
   <g id="patch_2">
    <path d="M 61.04 375.64 
L 853.2 375.64 
L 853.2 36.24 
L 61.04 36.24 
z
" style="fill: #ffffff"/>
   </g>
   <g id="matplotlib.axis_1">
    <g id="xtick_1">
     <g id="line2d_1">
      <defs>
       <path id="m9c6fccbc38" d="M 0 0 
L 0 3.5 
" style="stroke: #000000; stroke-width: 0.8"/>
      </defs>
      <g>
       <use xlink:href="#m9c6fccbc38" x="97.047273" y="375.64" style="stroke: #000000; stroke-width: 0.8"/>
      </g>
     </g>
     <g id="text_1">
      <!-- 0 -->
      <g transform="translate(92.275398 394.037656) scale(0.15 -0.15)">
       <defs>
        <path id="DejaVuSans-30" d="M 2034 4250 
Q 1547 4250 1301 3770 
Q 1056 3291 1056 2328 
Q 1056 1369 1301 889 
Q 1547 409 2034 409 
Q 2525 409 2770 889 
Q 3016 1369 3016 2328 
Q 3016 3291 2770 3770 
Q 2525 4250 2034 4250 
z
M 2034 4750 
Q 2819 4750 3233 4129 
Q 3647 3509 3647 2328 
Q 3647 1150 3233 529 
Q 2819 -91 2034 -91 
Q 1250 -91 836 529 
Q 422 1150 422 2328 
Q 422 3509 836 4129 
Q 1250 4750 2034 4750 
z
" transform="scale(0.015625)"/>
       </defs>
       <use xlink:href="#DejaVuSans-30"/>
      </g>
     </g>
    </g>
    <g id="xtick_2">
     <g id="line2d_2">
      <g>
       <use xlink:href="#m9c6fccbc38" x="215.103905" y="375.64" style="stroke: #000000; stroke-width: 0.8"/>
      </g>
     </g>
     <g id="text_2">
      <!-- 50 -->
      <g transform="translate(205.560155 394.037656) scale(0.15 -0.15)">
       <defs>
        <path id="DejaVuSans-35" d="M 691 4666 
L 3169 4666 
L 3169 4134 
L 1269 4134 
L 1269 2991 
Q 1406 3038 1543 3061 
Q 1681 3084 1819 3084 
Q 2600 3084 3056 2656 
Q 3513 2228 3513 1497 
Q 3513 744 3044 326 
Q 2575 -91 1722 -91 
Q 1428 -91 1123 -41 
Q 819 9 494 109 
L 494 744 
Q 775 591 1075 516 
Q 1375 441 1709 441 
Q 2250 441 2565 725 
Q 2881 1009 2881 1497 
Q 2881 1984 2565 2268 
Q 2250 2553 1709 2553 
Q 1456 2553 1204 2497 
Q 953 2441 691 2322 
L 691 4666 
z
" transform="scale(0.015625)"/>
       </defs>
       <use xlink:href="#DejaVuSans-35"/>
       <use xlink:href="#DejaVuSans-30" x="63.623047"/>
      </g>
     </g>
    </g>
    <g id="xtick_3">
     <g id="line2d_3">
      <g>
       <use xlink:href="#m9c6fccbc38" x="333.160537" y="375.64" style="stroke: #000000; stroke-width: 0.8"/>
      </g>
     </g>
     <g id="text_3">
      <!-- 100 -->
      <g transform="translate(318.844912 394.037656) scale(0.15 -0.15)">
       <defs>
        <path id="DejaVuSans-31" d="M 794 531 
L 1825 531 
L 1825 4091 
L 703 3866 
L 703 4441 
L 1819 4666 
L 2450 4666 
L 2450 531 
L 3481 531 
L 3481 0 
L 794 0 
L 794 531 
z
" transform="scale(0.015625)"/>
       </defs>
       <use xlink:href="#DejaVuSans-31"/>
       <use xlink:href="#DejaVuSans-30" x="63.623047"/>
       <use xlink:href="#DejaVuSans-30" x="127.246094"/>
      </g>
     </g>
    </g>
    <g id="xtick_4">
     <g id="line2d_4">
      <g>
       <use xlink:href="#m9c6fccbc38" x="451.217168" y="375.64" style="stroke: #000000; stroke-width: 0.8"/>
      </g>
     </g>
     <g id="text_4">
      <!-- 150 -->
      <g transform="translate(436.901543 394.037656) scale(0.15 -0.15)">
       <use xlink:href="#DejaVuSans-31"/>
       <use xlink:href="#DejaVuSans-35" x="63.623047"/>
       <use xlink:href="#DejaVuSans-30" x="127.246094"/>
      </g>
     </g>
    </g>
    <g id="xtick_5">
     <g id="line2d_5">
      <g>
       <use xlink:href="#m9c6fccbc38" x="569.2738" y="375.64" style="stroke: #000000; stroke-width: 0.8"/>
      </g>
     </g>
     <g id="text_5">
      <!-- 200 -->
      <g transform="translate(554.958175 394.037656) scale(0.15 -0.15)">
       <defs>
        <path id="DejaVuSans-32" d="M 1228 531 
L 3431 531 
L 3431 0 
L 469 0 
L 469 531 
Q 828 903 1448 1529 
Q 2069 2156 2228 2338 
Q 2531 2678 2651 2914 
Q 2772 3150 2772 3378 
Q 2772 3750 2511 3984 
Q 2250 4219 1831 4219 
Q 1534 4219 1204 4116 
Q 875 4013 500 3803 
L 500 4441 
Q 881 4594 1212 4672 
Q 1544 4750 1819 4750 
Q 2544 4750 2975 4387 
Q 3406 4025 3406 3419 
Q 3406 3131 3298 2873 
Q 3191 2616 2906 2266 
Q 2828 2175 2409 1742 
Q 1991 1309 1228 531 
z
" transform="scale(0.015625)"/>
       </defs>
       <use xlink:href="#DejaVuSans-32"/>
       <use xlink:href="#DejaVuSans-30" x="63.623047"/>
       <use xlink:href="#DejaVuSans-30" x="127.246094"/>
      </g>
     </g>
    </g>
    <g id="xtick_6">
     <g id="line2d_6">
      <g>
       <use xlink:href="#m9c6fccbc38" x="687.330432" y="375.64" style="stroke: #000000; stroke-width: 0.8"/>
      </g>
     </g>
     <g id="text_6">
      <!-- 250 -->
      <g transform="translate(673.014807 394.037656) scale(0.15 -0.15)">
       <use xlink:href="#DejaVuSans-32"/>
       <use xlink:href="#DejaVuSans-35" x="63.623047"/>
       <use xlink:href="#DejaVuSans-30" x="127.246094"/>
      </g>
     </g>
    </g>
    <g id="xtick_7">
     <g id="line2d_7">
      <g>
       <use xlink:href="#m9c6fccbc38" x="805.387064" y="375.64" style="stroke: #000000; stroke-width: 0.8"/>
      </g>
     </g>
     <g id="text_7">
      <!-- 300 -->
      <g transform="translate(791.071439 394.037656) scale(0.15 -0.15)">
       <defs>
        <path id="DejaVuSans-33" d="M 2597 2516 
Q 3050 2419 3304 2112 
Q 3559 1806 3559 1356 
Q 3559 666 3084 287 
Q 2609 -91 1734 -91 
Q 1441 -91 1130 -33 
Q 819 25 488 141 
L 488 750 
Q 750 597 1062 519 
Q 1375 441 1716 441 
Q 2309 441 2620 675 
Q 2931 909 2931 1356 
Q 2931 1769 2642 2001 
Q 2353 2234 1838 2234 
L 1294 2234 
L 1294 2753 
L 1863 2753 
Q 2328 2753 2575 2939 
Q 2822 3125 2822 3475 
Q 2822 3834 2567 4026 
Q 2313 4219 1838 4219 
Q 1578 4219 1281 4162 
Q 984 4106 628 3988 
L 628 4550 
Q 988 4650 1302 4700 
Q 1616 4750 1894 4750 
Q 2613 4750 3031 4423 
Q 3450 4097 3450 3541 
Q 3450 3153 3228 2886 
Q 3006 2619 2597 2516 
z
" transform="scale(0.015625)"/>
       </defs>
       <use xlink:href="#DejaVuSans-33"/>
       <use xlink:href="#DejaVuSans-30" x="63.623047"/>
       <use xlink:href="#DejaVuSans-30" x="127.246094"/>
      </g>
     </g>
    </g>
    <g id="text_8">
     <!-- Layer Index -->
     <g transform="translate(398.52625 416.354062) scale(0.2 -0.2)">
      <defs>
       <path id="DejaVuSans-4c" d="M 628 4666 
L 1259 4666 
L 1259 531 
L 3531 531 
L 3531 0 
L 628 0 
L 628 4666 
z
" transform="scale(0.015625)"/>
       <path id="DejaVuSans-61" d="M 2194 1759 
Q 1497 1759 1228 1600 
Q 959 1441 959 1056 
Q 959 750 1161 570 
Q 1363 391 1709 391 
Q 2188 391 2477 730 
Q 2766 1069 2766 1631 
L 2766 1759 
L 2194 1759 
z
M 3341 1997 
L 3341 0 
L 2766 0 
L 2766 531 
Q 2569 213 2275 61 
Q 1981 -91 1556 -91 
Q 1019 -91 701 211 
Q 384 513 384 1019 
Q 384 1609 779 1909 
Q 1175 2209 1959 2209 
L 2766 2209 
L 2766 2266 
Q 2766 2663 2505 2880 
Q 2244 3097 1772 3097 
Q 1472 3097 1187 3025 
Q 903 2953 641 2809 
L 641 3341 
Q 956 3463 1253 3523 
Q 1550 3584 1831 3584 
Q 2591 3584 2966 3190 
Q 3341 2797 3341 1997 
z
" transform="scale(0.015625)"/>
       <path id="DejaVuSans-79" d="M 2059 -325 
Q 1816 -950 1584 -1140 
Q 1353 -1331 966 -1331 
L 506 -1331 
L 506 -850 
L 844 -850 
Q 1081 -850 1212 -737 
Q 1344 -625 1503 -206 
L 1606 56 
L 191 3500 
L 800 3500 
L 1894 763 
L 2988 3500 
L 3597 3500 
L 2059 -325 
z
" transform="scale(0.015625)"/>
       <path id="DejaVuSans-65" d="M 3597 1894 
L 3597 1613 
L 953 1613 
Q 991 1019 1311 708 
Q 1631 397 2203 397 
Q 2534 397 2845 478 
Q 3156 559 3463 722 
L 3463 178 
Q 3153 47 2828 -22 
Q 2503 -91 2169 -91 
Q 1331 -91 842 396 
Q 353 884 353 1716 
Q 353 2575 817 3079 
Q 1281 3584 2069 3584 
Q 2775 3584 3186 3129 
Q 3597 2675 3597 1894 
z
M 3022 2063 
Q 3016 2534 2758 2815 
Q 2500 3097 2075 3097 
Q 1594 3097 1305 2825 
Q 1016 2553 972 2059 
L 3022 2063 
z
" transform="scale(0.015625)"/>
       <path id="DejaVuSans-72" d="M 2631 2963 
Q 2534 3019 2420 3045 
Q 2306 3072 2169 3072 
Q 1681 3072 1420 2755 
Q 1159 2438 1159 1844 
L 1159 0 
L 581 0 
L 581 3500 
L 1159 3500 
L 1159 2956 
Q 1341 3275 1631 3429 
Q 1922 3584 2338 3584 
Q 2397 3584 2469 3576 
Q 2541 3569 2628 3553 
L 2631 2963 
z
" transform="scale(0.015625)"/>
       <path id="DejaVuSans-20" transform="scale(0.015625)"/>
       <path id="DejaVuSans-49" d="M 628 4666 
L 1259 4666 
L 1259 0 
L 628 0 
L 628 4666 
z
" transform="scale(0.015625)"/>
       <path id="DejaVuSans-6e" d="M 3513 2113 
L 3513 0 
L 2938 0 
L 2938 2094 
Q 2938 2591 2744 2837 
Q 2550 3084 2163 3084 
Q 1697 3084 1428 2787 
Q 1159 2491 1159 1978 
L 1159 0 
L 581 0 
L 581 3500 
L 1159 3500 
L 1159 2956 
Q 1366 3272 1645 3428 
Q 1925 3584 2291 3584 
Q 2894 3584 3203 3211 
Q 3513 2838 3513 2113 
z
" transform="scale(0.015625)"/>
       <path id="DejaVuSans-64" d="M 2906 2969 
L 2906 4863 
L 3481 4863 
L 3481 0 
L 2906 0 
L 2906 525 
Q 2725 213 2448 61 
Q 2172 -91 1784 -91 
Q 1150 -91 751 415 
Q 353 922 353 1747 
Q 353 2572 751 3078 
Q 1150 3584 1784 3584 
Q 2172 3584 2448 3432 
Q 2725 3281 2906 2969 
z
M 947 1747 
Q 947 1113 1208 752 
Q 1469 391 1925 391 
Q 2381 391 2643 752 
Q 2906 1113 2906 1747 
Q 2906 2381 2643 2742 
Q 2381 3103 1925 3103 
Q 1469 3103 1208 2742 
Q 947 2381 947 1747 
z
" transform="scale(0.015625)"/>
       <path id="DejaVuSans-78" d="M 3513 3500 
L 2247 1797 
L 3578 0 
L 2900 0 
L 1881 1375 
L 863 0 
L 184 0 
L 1544 1831 
L 300 3500 
L 978 3500 
L 1906 2253 
L 2834 3500 
L 3513 3500 
z
" transform="scale(0.015625)"/>
      </defs>
      <use xlink:href="#DejaVuSans-4c"/>
      <use xlink:href="#DejaVuSans-61" x="55.712891"/>
      <use xlink:href="#DejaVuSans-79" x="116.992188"/>
      <use xlink:href="#DejaVuSans-65" x="176.171875"/>
      <use xlink:href="#DejaVuSans-72" x="237.695312"/>
      <use xlink:href="#DejaVuSans-20" x="278.808594"/>
      <use xlink:href="#DejaVuSans-49" x="310.595703"/>
      <use xlink:href="#DejaVuSans-6e" x="340.087891"/>
      <use xlink:href="#DejaVuSans-64" x="403.466797"/>
      <use xlink:href="#DejaVuSans-65" x="466.943359"/>
      <use xlink:href="#DejaVuSans-78" x="526.716797"/>
     </g>
    </g>
   </g>
   <g id="matplotlib.axis_2">
    <g id="ytick_1">
     <g id="line2d_8">
      <path d="M 61.04 360.22419 
L 853.2 360.22419 
" clip-path="url(#p85d540f050)" style="fill: none; stroke: #b0b0b0; stroke-opacity: 0.5; stroke-width: 0.8; stroke-linecap: square"/>
     </g>
     <g id="line2d_9">
      <defs>
       <path id="mb4f8989a2a" d="M 0 0 
L -3.5 0 
" style="stroke: #000000; stroke-width: 0.8"/>
      </defs>
      <g>
       <use xlink:href="#mb4f8989a2a" x="61.04" y="360.22419" style="stroke: #000000; stroke-width: 0.8"/>
      </g>
     </g>
     <g id="text_9">
      <!-- 0 -->
      <g transform="translate(44.49625 365.923018) scale(0.15 -0.15)">
       <use xlink:href="#DejaVuSans-30"/>
      </g>
     </g>
    </g>
    <g id="ytick_2">
     <g id="line2d_10">
      <path d="M 61.04 302.910046 
L 853.2 302.910046 
" clip-path="url(#p85d540f050)" style="fill: none; stroke: #b0b0b0; stroke-opacity: 0.5; stroke-width: 0.8; stroke-linecap: square"/>
     </g>
     <g id="line2d_11">
      <g>
       <use xlink:href="#mb4f8989a2a" x="61.04" y="302.910046" style="stroke: #000000; stroke-width: 0.8"/>
      </g>
     </g>
     <g id="text_10">
      <!-- 5 -->
      <g transform="translate(44.49625 308.608874) scale(0.15 -0.15)">
       <use xlink:href="#DejaVuSans-35"/>
      </g>
     </g>
    </g>
    <g id="ytick_3">
     <g id="line2d_12">
      <path d="M 61.04 245.595902 
L 853.2 245.595902 
" clip-path="url(#p85d540f050)" style="fill: none; stroke: #b0b0b0; stroke-opacity: 0.5; stroke-width: 0.8; stroke-linecap: square"/>
     </g>
     <g id="line2d_13">
      <g>
       <use xlink:href="#mb4f8989a2a" x="61.04" y="245.595902" style="stroke: #000000; stroke-width: 0.8"/>
      </g>
     </g>
     <g id="text_11">
      <!-- 10 -->
      <g transform="translate(34.9525 251.29473) scale(0.15 -0.15)">
       <use xlink:href="#DejaVuSans-31"/>
       <use xlink:href="#DejaVuSans-30" x="63.623047"/>
      </g>
     </g>
    </g>
    <g id="ytick_4">
     <g id="line2d_14">
      <path d="M 61.04 188.281758 
L 853.2 188.281758 
" clip-path="url(#p85d540f050)" style="fill: none; stroke: #b0b0b0; stroke-opacity: 0.5; stroke-width: 0.8; stroke-linecap: square"/>
     </g>
     <g id="line2d_15">
      <g>
       <use xlink:href="#mb4f8989a2a" x="61.04" y="188.281758" style="stroke: #000000; stroke-width: 0.8"/>
      </g>
     </g>
     <g id="text_12">
      <!-- 15 -->
      <g transform="translate(34.9525 193.980586) scale(0.15 -0.15)">
       <use xlink:href="#DejaVuSans-31"/>
       <use xlink:href="#DejaVuSans-35" x="63.623047"/>
      </g>
     </g>
    </g>
    <g id="ytick_5">
     <g id="line2d_16">
      <path d="M 61.04 130.967614 
L 853.2 130.967614 
" clip-path="url(#p85d540f050)" style="fill: none; stroke: #b0b0b0; stroke-opacity: 0.5; stroke-width: 0.8; stroke-linecap: square"/>
     </g>
     <g id="line2d_17">
      <g>
       <use xlink:href="#mb4f8989a2a" x="61.04" y="130.967614" style="stroke: #000000; stroke-width: 0.8"/>
      </g>
     </g>
     <g id="text_13">
      <!-- 20 -->
      <g transform="translate(34.9525 136.666442) scale(0.15 -0.15)">
       <use xlink:href="#DejaVuSans-32"/>
       <use xlink:href="#DejaVuSans-30" x="63.623047"/>
      </g>
     </g>
    </g>
    <g id="ytick_6">
     <g id="line2d_18">
      <path d="M 61.04 73.65347 
L 853.2 73.65347 
" clip-path="url(#p85d540f050)" style="fill: none; stroke: #b0b0b0; stroke-opacity: 0.5; stroke-width: 0.8; stroke-linecap: square"/>
     </g>
     <g id="line2d_19">
      <g>
       <use xlink:href="#mb4f8989a2a" x="61.04" y="73.65347" style="stroke: #000000; stroke-width: 0.8"/>
      </g>
     </g>
     <g id="text_14">
      <!-- 25 -->
      <g transform="translate(34.9525 79.352298) scale(0.15 -0.15)">
       <use xlink:href="#DejaVuSans-32"/>
       <use xlink:href="#DejaVuSans-35" x="63.623047"/>
      </g>
     </g>
    </g>
    <g id="text_15">
     <!-- Execution Time (ms)    -->
     <g transform="translate(26.793125 318.119687) rotate(-90) scale(0.2 -0.2)">
      <defs>
       <path id="DejaVuSans-45" d="M 628 4666 
L 3578 4666 
L 3578 4134 
L 1259 4134 
L 1259 2753 
L 3481 2753 
L 3481 2222 
L 1259 2222 
L 1259 531 
L 3634 531 
L 3634 0 
L 628 0 
L 628 4666 
z
" transform="scale(0.015625)"/>
       <path id="DejaVuSans-63" d="M 3122 3366 
L 3122 2828 
Q 2878 2963 2633 3030 
Q 2388 3097 2138 3097 
Q 1578 3097 1268 2742 
Q 959 2388 959 1747 
Q 959 1106 1268 751 
Q 1578 397 2138 397 
Q 2388 397 2633 464 
Q 2878 531 3122 666 
L 3122 134 
Q 2881 22 2623 -34 
Q 2366 -91 2075 -91 
Q 1284 -91 818 406 
Q 353 903 353 1747 
Q 353 2603 823 3093 
Q 1294 3584 2113 3584 
Q 2378 3584 2631 3529 
Q 2884 3475 3122 3366 
z
" transform="scale(0.015625)"/>
       <path id="DejaVuSans-75" d="M 544 1381 
L 544 3500 
L 1119 3500 
L 1119 1403 
Q 1119 906 1312 657 
Q 1506 409 1894 409 
Q 2359 409 2629 706 
Q 2900 1003 2900 1516 
L 2900 3500 
L 3475 3500 
L 3475 0 
L 2900 0 
L 2900 538 
Q 2691 219 2414 64 
Q 2138 -91 1772 -91 
Q 1169 -91 856 284 
Q 544 659 544 1381 
z
M 1991 3584 
L 1991 3584 
z
" transform="scale(0.015625)"/>
       <path id="DejaVuSans-74" d="M 1172 4494 
L 1172 3500 
L 2356 3500 
L 2356 3053 
L 1172 3053 
L 1172 1153 
Q 1172 725 1289 603 
Q 1406 481 1766 481 
L 2356 481 
L 2356 0 
L 1766 0 
Q 1100 0 847 248 
Q 594 497 594 1153 
L 594 3053 
L 172 3053 
L 172 3500 
L 594 3500 
L 594 4494 
L 1172 4494 
z
" transform="scale(0.015625)"/>
       <path id="DejaVuSans-69" d="M 603 3500 
L 1178 3500 
L 1178 0 
L 603 0 
L 603 3500 
z
M 603 4863 
L 1178 4863 
L 1178 4134 
L 603 4134 
L 603 4863 
z
" transform="scale(0.015625)"/>
       <path id="DejaVuSans-6f" d="M 1959 3097 
Q 1497 3097 1228 2736 
Q 959 2375 959 1747 
Q 959 1119 1226 758 
Q 1494 397 1959 397 
Q 2419 397 2687 759 
Q 2956 1122 2956 1747 
Q 2956 2369 2687 2733 
Q 2419 3097 1959 3097 
z
M 1959 3584 
Q 2709 3584 3137 3096 
Q 3566 2609 3566 1747 
Q 3566 888 3137 398 
Q 2709 -91 1959 -91 
Q 1206 -91 779 398 
Q 353 888 353 1747 
Q 353 2609 779 3096 
Q 1206 3584 1959 3584 
z
" transform="scale(0.015625)"/>
       <path id="DejaVuSans-54" d="M -19 4666 
L 3928 4666 
L 3928 4134 
L 2272 4134 
L 2272 0 
L 1638 0 
L 1638 4134 
L -19 4134 
L -19 4666 
z
" transform="scale(0.015625)"/>
       <path id="DejaVuSans-6d" d="M 3328 2828 
Q 3544 3216 3844 3400 
Q 4144 3584 4550 3584 
Q 5097 3584 5394 3201 
Q 5691 2819 5691 2113 
L 5691 0 
L 5113 0 
L 5113 2094 
Q 5113 2597 4934 2840 
Q 4756 3084 4391 3084 
Q 3944 3084 3684 2787 
Q 3425 2491 3425 1978 
L 3425 0 
L 2847 0 
L 2847 2094 
Q 2847 2600 2669 2842 
Q 2491 3084 2119 3084 
Q 1678 3084 1418 2786 
Q 1159 2488 1159 1978 
L 1159 0 
L 581 0 
L 581 3500 
L 1159 3500 
L 1159 2956 
Q 1356 3278 1631 3431 
Q 1906 3584 2284 3584 
Q 2666 3584 2933 3390 
Q 3200 3197 3328 2828 
z
" transform="scale(0.015625)"/>
       <path id="DejaVuSans-28" d="M 1984 4856 
Q 1566 4138 1362 3434 
Q 1159 2731 1159 2009 
Q 1159 1288 1364 580 
Q 1569 -128 1984 -844 
L 1484 -844 
Q 1016 -109 783 600 
Q 550 1309 550 2009 
Q 550 2706 781 3412 
Q 1013 4119 1484 4856 
L 1984 4856 
z
" transform="scale(0.015625)"/>
       <path id="DejaVuSans-73" d="M 2834 3397 
L 2834 2853 
Q 2591 2978 2328 3040 
Q 2066 3103 1784 3103 
Q 1356 3103 1142 2972 
Q 928 2841 928 2578 
Q 928 2378 1081 2264 
Q 1234 2150 1697 2047 
L 1894 2003 
Q 2506 1872 2764 1633 
Q 3022 1394 3022 966 
Q 3022 478 2636 193 
Q 2250 -91 1575 -91 
Q 1294 -91 989 -36 
Q 684 19 347 128 
L 347 722 
Q 666 556 975 473 
Q 1284 391 1588 391 
Q 1994 391 2212 530 
Q 2431 669 2431 922 
Q 2431 1156 2273 1281 
Q 2116 1406 1581 1522 
L 1381 1569 
Q 847 1681 609 1914 
Q 372 2147 372 2553 
Q 372 3047 722 3315 
Q 1072 3584 1716 3584 
Q 2034 3584 2315 3537 
Q 2597 3491 2834 3397 
z
" transform="scale(0.015625)"/>
       <path id="DejaVuSans-29" d="M 513 4856 
L 1013 4856 
Q 1481 4119 1714 3412 
Q 1947 2706 1947 2009 
Q 1947 1309 1714 600 
Q 1481 -109 1013 -844 
L 513 -844 
Q 928 -128 1133 580 
Q 1338 1288 1338 2009 
Q 1338 2731 1133 3434 
Q 928 4138 513 4856 
z
" transform="scale(0.015625)"/>
      </defs>
      <use xlink:href="#DejaVuSans-45"/>
      <use xlink:href="#DejaVuSans-78" x="63.183594"/>
      <use xlink:href="#DejaVuSans-65" x="119.238281"/>
      <use xlink:href="#DejaVuSans-63" x="180.761719"/>
      <use xlink:href="#DejaVuSans-75" x="235.742188"/>
      <use xlink:href="#DejaVuSans-74" x="299.121094"/>
      <use xlink:href="#DejaVuSans-69" x="338.330078"/>
      <use xlink:href="#DejaVuSans-6f" x="366.113281"/>
      <use xlink:href="#DejaVuSans-6e" x="427.294922"/>
      <use xlink:href="#DejaVuSans-20" x="490.673828"/>
      <use xlink:href="#DejaVuSans-54" x="522.460938"/>
      <use xlink:href="#DejaVuSans-69" x="580.419922"/>
      <use xlink:href="#DejaVuSans-6d" x="608.203125"/>
      <use xlink:href="#DejaVuSans-65" x="705.615234"/>
      <use xlink:href="#DejaVuSans-20" x="767.138672"/>
      <use xlink:href="#DejaVuSans-28" x="798.925781"/>
      <use xlink:href="#DejaVuSans-6d" x="837.939453"/>
      <use xlink:href="#DejaVuSans-73" x="935.351562"/>
      <use xlink:href="#DejaVuSans-29" x="987.451172"/>
      <use xlink:href="#DejaVuSans-20" x="1026.464844"/>
      <use xlink:href="#DejaVuSans-20" x="1058.251953"/>
      <use xlink:href="#DejaVuSans-20" x="1090.039062"/>
     </g>
    </g>
   </g>
   <g id="line2d_20">
    <path d="M 97.047273 100.908801 
L 99.408405 326.401476 
L 101.769538 310.523657 
L 104.130671 51.692491 
L 106.491803 358.285826 
L 108.852936 292.516044 
L 111.214069 51.744074 
L 113.575201 357.593798 
L 115.936334 274.28769 
L 118.297466 51.71689 
L 120.658599 356.933376 
L 123.019732 255.80044 
L 125.380864 51.667273 
L 127.741997 356.281141 
L 130.10313 236.703694 
L 132.464262 51.791071 
L 134.825395 355.625303 
L 137.186528 217.647724 
L 139.54766 51.858211 
L 141.908793 354.973232 
L 144.269925 198.051036 
L 146.631058 343.265426 
L 148.992191 338.945086 
L 151.353323 285.259746 
L 153.714456 359.27867 
L 156.075589 334.55515 
L 158.436721 286.885175 
L 160.797854 359.10116 
L 163.158987 329.798076 
L 165.520119 286.744346 
L 167.881252 358.905637 
L 170.242385 325.150718 
L 172.603517 286.505428 
L 174.96465 358.677527 
L 177.325782 320.324048 
L 179.686915 286.488889 
L 182.048048 358.496578 
L 184.40918 315.666537 
L 186.770313 286.389162 
L 189.131446 358.262409 
L 191.492578 310.985936 
L 193.853711 286.186761 
L 196.214844 358.034954 
L 198.575976 306.178262 
L 200.937109 286.110124 
L 203.298241 357.88479 
L 205.659374 301.581013 
L 208.020507 285.846643 
L 210.381639 357.787848 
L 212.742772 297.032235 
L 215.103905 285.849427 
L 217.465037 357.579388 
L 219.82617 292.380946 
L 222.187303 285.794733 
L 224.548435 357.418745 
L 226.909568 287.817758 
L 229.2707 285.64588 
L 231.631833 357.209957 
L 233.992966 212.408065 
L 236.354098 351.40338 
L 238.715231 349.993288 
L 241.076364 341.58432 
L 243.437496 359.87834 
L 245.798629 348.996186 
L 248.159762 341.887758 
L 250.520894 359.869334 
L 252.882027 347.850394 
L 255.243159 341.914286 
L 257.604292 359.810054 
L 259.965425 346.692484 
L 262.326557 341.620838 
L 264.68769 359.765022 
L 267.048823 345.56749 
L 269.409955 341.956862 
L 271.771088 359.735546 
L 274.132221 344.432342 
L 276.493353 341.962594 
L 278.854486 359.722609 
L 281.215618 343.17618 
L 283.576751 341.955716 
L 285.937884 359.645645 
L 288.299016 342.015159 
L 290.660149 341.956207 
L 293.021282 359.607981 
L 295.382414 340.87428 
L 297.743547 341.902823 
L 300.10468 359.55296 
L 302.465812 339.595028 
L 304.826945 341.891197 
L 307.188077 359.52463 
L 309.54921 338.511136 
L 311.910343 341.892179 
L 314.271475 359.482054 
L 316.632608 337.353063 
L 318.993741 341.868435 
L 321.354873 359.428997 
L 323.716006 336.194335 
L 326.077139 341.888577 
L 328.438271 359.401159 
L 330.799404 334.712846 
L 333.160537 341.900531 
L 335.521669 359.349085 
L 337.882802 333.56296 
L 340.243934 341.90266 
L 342.605067 359.324194 
L 344.9662 332.379341 
L 347.327332 341.919854 
L 349.688465 359.267044 
L 352.049598 331.103365 
L 354.41073 341.919199 
L 356.771863 359.221684 
L 359.132996 330.027988 
L 361.494128 341.91052 
L 363.855261 359.203016 
L 366.216393 328.765111 
L 368.577526 341.901841 
L 370.938659 359.161258 
L 373.299791 327.542355 
L 375.660924 341.900858 
L 378.022057 359.112951 
L 380.383189 326.427186 
L 382.744322 341.865487 
L 385.105455 359.086095 
L 387.466587 325.340346 
L 392.188852 359.032875 
L 394.549985 324.077961 
L 399.27225 358.990462 
L 401.633383 322.860445 
L 403.994516 341.855334 
L 406.355648 358.932657 
L 408.716781 321.595112 
L 411.077914 341.81718 
L 413.439046 358.906292 
L 415.800179 320.569353 
L 418.161311 341.837813 
L 420.522444 358.864207 
L 422.883577 319.492502 
L 425.244709 341.843708 
L 427.605842 358.794939 
L 429.966975 318.295946 
L 432.328107 341.829461 
L 434.68924 358.784131 
L 437.050373 317.064183 
L 439.411505 341.78623 
L 441.772638 358.753509 
L 444.13377 315.905619 
L 446.494903 341.824057 
L 448.856036 358.667047 
L 451.217168 314.72855 
L 453.578301 341.816525 
L 455.939434 358.632331 
L 458.300566 313.399189 
L 460.661699 341.768872 
L 463.022832 358.618084 
L 465.383964 312.254708 
L 467.745097 341.802933 
L 470.10623 358.580748 
L 472.467362 310.688067 
L 474.828495 341.777223 
L 477.189627 358.584842 
L 479.55076 309.452374 
L 481.911893 341.80326 
L 484.273025 358.527036 
L 486.634158 308.138242 
L 488.995291 341.812267 
L 491.356423 358.496251 
L 493.717556 307.210899 
L 496.078689 341.834538 
L 498.439821 358.4635 
L 500.800954 306.016309 
L 503.162086 341.816852 
L 505.523219 358.408642 
L 507.884352 304.841205 
L 510.245484 341.829952 
L 512.606617 358.364919 
L 514.96775 303.755839 
L 517.328882 341.811121 
L 519.690015 358.299417 
L 522.051148 302.390289 
L 524.41228 341.813904 
L 526.773413 358.266175 
L 529.134545 301.226648 
L 531.495678 341.794254 
L 533.856811 358.223763 
L 536.217943 299.926599 
L 538.579076 341.81849 
L 540.940209 358.218359 
L 543.301341 298.708919 
L 545.662474 341.779516 
L 548.023607 358.112246 
L 550.384739 297.422626 
L 552.745872 341.760684 
L 555.107004 358.095543 
L 557.468137 296.616625 
L 559.82927 341.756427 
L 562.190402 358.041176 
L 564.551535 295.345725 
L 566.912668 341.766743 
L 569.2738 358.018742 
L 571.634933 294.2543 
L 573.996066 341.727442 
L 576.357198 357.935063 
L 578.718331 112.860602 
L 581.079463 355.825739 
L 583.440596 354.65522 
L 585.801729 355.301888 
L 588.162861 360.071734 
L 590.523994 354.547306 
L 592.885127 355.388678 
L 595.246259 360.07501 
L 597.607392 354.243705 
L 599.968525 355.399158 
L 602.329657 360.059289 
L 604.69079 353.922746 
L 607.051923 355.404726 
L 609.413055 360.052248 
L 611.774188 353.648784 
L 614.13532 355.399977 
L 616.496453 360.041931 
L 618.857586 353.193055 
L 621.218718 355.396374 
L 623.579851 360.03227 
L 625.940984 352.866692 
L 628.302116 355.386385 
L 630.663249 360.029322 
L 633.024382 352.528374 
L 635.385514 355.397029 
L 637.746647 360.017532 
L 640.107779 352.228048 
L 642.468912 355.426177 
L 644.830045 360.00525 
L 647.191177 351.898901 
L 649.55231 355.422411 
L 651.913443 360.00394 
L 654.274575 351.621665 
L 656.635708 355.435184 
L 658.996841 359.994442 
L 661.357973 351.32314 
L 663.719106 355.43502 
L 666.080238 359.983307 
L 668.441371 351.016427 
L 673.163636 359.975283 
L 675.524769 350.692848 
L 680.247034 359.97168 
L 682.608167 350.381878 
L 684.9693 355.422575 
L 687.330432 359.959726 
L 689.691565 350.066977 
L 692.052697 355.420282 
L 694.41383 359.951375 
L 696.774963 349.73259 
L 699.136095 355.424376 
L 701.497228 359.944333 
L 703.858361 349.467799 
L 706.219493 355.430599 
L 708.580626 359.936964 
L 710.941759 349.16256 
L 713.302891 355.426177 
L 715.664024 359.925665 
L 718.025156 348.85028 
L 720.386289 355.424049 
L 722.747422 359.917969 
L 725.108554 348.515565 
L 727.469687 355.43502 
L 729.83082 359.913056 
L 732.191952 348.205087 
L 734.553085 355.440915 
L 736.914218 359.905032 
L 739.27535 347.889531 
L 741.636483 355.437968 
L 743.997615 359.894879 
L 746.358748 347.573976 
L 748.719881 355.426996 
L 751.081013 359.888165 
L 753.442146 347.20258 
L 755.803279 355.420119 
L 758.164411 359.87965 
L 760.525544 346.829711 
L 762.886677 355.410621 
L 765.247809 359.869006 
L 767.608942 346.49778 
L 769.970075 355.410948 
L 772.331207 359.862292 
L 774.69234 346.140959 
L 777.053472 355.425031 
L 779.414605 359.852139 
L 781.775738 345.848329 
L 784.13687 355.414223 
L 786.498003 359.841987 
L 788.859136 345.510503 
L 791.220268 355.420937 
L 793.581401 359.836255 
L 795.942534 345.212306 
L 798.303666 355.434365 
L 800.664799 359.825611 
L 803.025931 344.889218 
L 805.387064 355.433219 
L 807.748197 359.820207 
L 810.109329 247.160414 
L 812.470462 359.361203 
L 814.831595 360.095806 
L 817.192727 360.212727 
L 817.192727 360.212727 
" clip-path="url(#p85d540f050)" style="fill: none; stroke: #6495ed; stroke-width: 3; stroke-linecap: square"/>
   </g>
   <g id="line2d_21">
    <path d="M 97.047273 347.877832 
L 99.408405 358.849797 
L 101.769538 356.870931 
L 104.130671 352.424627 
L 106.491803 359.340151 
L 108.852936 356.817947 
L 111.214069 352.653756 
L 113.575201 359.087332 
L 115.936334 356.510998 
L 118.297466 352.644458 
L 120.658599 358.913861 
L 123.019732 356.20787 
L 125.380864 352.656048 
L 127.741997 358.726635 
L 130.10313 355.026434 
L 132.464262 352.648789 
L 134.825395 358.570486 
L 137.186528 354.870412 
L 139.54766 352.639746 
L 141.908793 358.397015 
L 144.269925 355.075215 
L 146.631058 359.450831 
L 148.992191 358.432677 
L 151.353323 357.654861 
L 153.714456 359.675757 
L 156.075589 358.380458 
L 158.436721 357.646455 
L 160.797854 359.613986 
L 163.158987 358.304803 
L 165.520119 357.673074 
L 167.881252 359.584946 
L 170.242385 358.073891 
L 172.603517 357.664795 
L 174.96465 359.526995 
L 177.325782 358.000656 
L 179.686915 357.661738 
L 182.048048 359.499612 
L 184.40918 357.960918 
L 186.770313 357.677022 
L 189.131446 359.461275 
L 191.492578 357.845398 
L 193.853711 357.675366 
L 196.214844 359.409183 
L 198.575976 357.765923 
L 200.937109 357.661356 
L 203.298241 359.363332 
L 205.659374 357.722873 
L 208.020507 357.671673 
L 210.381639 359.316716 
L 212.742772 357.833299 
L 215.103905 357.661102 
L 217.465037 359.279016 
L 219.82617 357.761083 
L 222.187303 357.661993 
L 224.548435 359.190498 
L 226.909568 357.720836 
L 229.2707 357.647091 
L 231.631833 359.121593 
L 233.992966 355.77623 
L 236.354098 359.667606 
L 238.715231 359.094337 
L 241.076364 359.152543 
L 243.437496 359.792041 
L 245.798629 359.151906 
L 248.159762 359.138151 
L 250.520894 359.79064 
L 252.882027 359.123631 
L 255.243159 359.150123 
L 257.604292 359.777395 
L 259.965425 359.107583 
L 262.326557 359.152288 
L 264.68769 359.763002 
L 267.048823 359.077525 
L 269.409955 359.147703 
L 271.771088 359.763257 
L 274.132221 358.958949 
L 276.493353 359.108347 
L 278.854486 359.757526 
L 281.215618 358.954236 
L 283.576751 359.126815 
L 285.937884 359.741987 
L 288.299016 358.807002 
L 290.660149 359.080837 
L 293.021282 359.738039 
L 295.382414 358.959203 
L 297.743547 359.129999 
L 300.10468 359.709509 
L 302.465812 358.898705 
L 304.826945 359.117263 
L 307.188077 359.692187 
L 309.54921 358.917937 
L 311.910343 359.135986 
L 314.271475 359.692952 
L 316.632608 358.807767 
L 318.993741 359.110513 
L 321.354873 359.679706 
L 323.716006 358.780001 
L 326.077139 359.096757 
L 328.438271 359.679578 
L 330.799404 358.751471 
L 333.160537 359.092172 
L 335.521669 359.67563 
L 337.882802 358.732367 
L 340.243934 359.085167 
L 342.605067 359.650412 
L 344.9662 358.706639 
L 347.327332 359.090644 
L 349.688465 359.633854 
L 352.049598 358.674416 
L 354.41073 359.088478 
L 356.771863 359.628887 
L 359.132996 358.670977 
L 363.855261 359.608509 
L 366.216393 358.642702 
L 370.938659 359.60316 
L 373.299791 358.61863 
L 378.022057 359.595772 
L 380.383189 358.591883 
L 385.105455 359.59348 
L 387.466587 358.564882 
L 392.188852 359.565077 
L 394.549985 358.543357 
L 399.27225 359.568644 
L 401.633383 358.522597 
L 403.994516 359.095356 
L 406.355648 359.546482 
L 408.716781 358.487189 
L 411.077914 359.087714 
L 413.439046 359.536166 
L 415.800179 358.47942 
L 418.161311 359.087205 
L 420.522444 359.530562 
L 422.883577 358.342376 
L 425.244709 359.074468 
L 427.605842 359.515023 
L 429.966975 358.261626 
L 432.328107 359.087332 
L 434.68924 359.498084 
L 437.050373 358.29092 
L 439.411505 359.081346 
L 441.772638 359.500758 
L 444.13377 358.218832 
L 446.494903 359.074723 
L 448.856036 359.477196 
L 451.217168 358.242267 
L 453.578301 359.091153 
L 455.939434 359.472229 
L 458.300566 358.15948 
L 460.661699 359.081728 
L 463.022832 359.461912 
L 465.383964 358.154895 
L 467.745097 359.08211 
L 470.10623 359.456563 
L 472.467362 358.10777 
L 474.828495 359.085422 
L 477.189627 359.440133 
L 479.55076 358.136809 
L 481.911893 359.083384 
L 484.273025 359.413641 
L 486.634158 358.041031 
L 488.995291 359.080072 
L 491.356423 359.411858 
L 493.717556 358.082806 
L 496.078689 359.087714 
L 498.439821 359.392626 
L 500.800954 358.002949 
L 503.162086 359.09854 
L 505.523219 359.400267 
L 507.884352 358.018487 
L 510.245484 359.095229 
L 512.606617 359.398739 
L 514.96775 357.944361 
L 517.328882 359.091153 
L 519.690015 359.390206 
L 522.051148 357.988302 
L 524.41228 359.094719 
L 526.773413 359.380144 
L 529.134545 357.901312 
L 531.495678 359.093955 
L 533.856811 359.347793 
L 536.217943 357.916213 
L 538.579076 359.083257 
L 540.940209 359.328434 
L 543.301341 357.847691 
L 545.662474 359.08988 
L 548.023607 359.336585 
L 550.384739 357.875202 
L 552.745872 359.087587 
L 555.107004 359.321938 
L 557.468137 357.77522 
L 559.82927 359.081091 
L 562.190402 359.311239 
L 564.551535 357.825275 
L 566.912668 359.083511 
L 569.2738 359.311494 
L 571.634933 357.727713 
L 573.996066 359.083893 
L 576.357198 359.226287 
L 578.718331 354.391521 
L 581.079463 359.808599 
L 583.440596 359.255454 
L 585.801729 359.215716 
L 588.162861 359.853941 
L 590.523994 359.311622 
L 592.885127 359.257237 
L 595.246259 359.860054 
L 597.607392 359.312768 
L 599.968525 359.234821 
L 602.329657 359.857762 
L 604.69079 359.314296 
L 607.051923 359.261695 
L 609.413055 359.853559 
L 611.774188 359.302579 
L 614.13532 359.254562 
L 616.496453 359.845407 
L 618.857586 359.284111 
L 621.218718 359.274049 
L 623.579851 359.848846 
L 625.940984 359.286276 
L 628.302116 359.247302 
L 630.663249 359.846808 
L 633.024382 359.278379 
L 635.385514 359.261058 
L 637.746647 359.842223 
L 640.107779 359.275195 
L 642.468912 359.238259 
L 644.830045 359.851648 
L 647.191177 359.28513 
L 649.55231 359.2687 
L 651.913443 359.85012 
L 654.274575 359.236349 
L 656.635708 359.249213 
L 658.996841 359.854832 
L 661.357973 359.23049 
L 663.719106 359.274431 
L 666.080238 359.842987 
L 668.441371 359.220301 
L 670.802504 359.264115 
L 673.163636 359.852922 
L 675.524769 359.220556 
L 677.885902 359.258128 
L 680.247034 359.850757 
L 682.608167 359.224377 
L 684.9693 359.2687 
L 687.330432 359.849101 
L 689.691565 359.197375 
L 692.052697 359.272011 
L 694.41383 359.838402 
L 696.774963 359.209093 
L 699.136095 359.283474 
L 701.497228 359.830506 
L 703.858361 359.202215 
L 706.219493 359.266662 
L 708.580626 359.808217 
L 710.941759 359.179035 
L 713.302891 359.283983 
L 715.664024 359.826175 
L 718.025156 359.193172 
L 720.386289 359.264242 
L 722.747422 359.809618 
L 725.108554 359.193809 
L 727.469687 359.258256 
L 729.83082 359.803377 
L 732.191952 359.198776 
L 734.553085 359.255963 
L 736.914218 359.790895 
L 739.27535 359.198522 
L 741.636483 359.266789 
L 743.997615 359.798282 
L 746.358748 359.187823 
L 748.719881 359.24934 
L 751.081013 359.791532 
L 753.442146 359.184002 
L 755.803279 359.26628 
L 758.164411 359.790513 
L 760.525544 359.180181 
L 762.886677 359.253161 
L 765.247809 359.781088 
L 767.608942 359.187314 
L 769.970075 359.275577 
L 772.331207 359.791787 
L 774.69234 359.124013 
L 777.053472 359.257492 
L 779.414605 359.776758 
L 781.775738 359.119173 
L 784.13687 359.268445 
L 786.498003 359.768606 
L 788.859136 359.114588 
L 791.220268 359.243991 
L 793.581401 359.782107 
L 795.942534 359.124395 
L 798.303666 359.262459 
L 800.664799 359.775484 
L 803.025931 359.114843 
L 805.387064 359.252142 
L 807.748197 359.774592 
L 810.109329 356.489218 
L 812.470462 359.49197 
L 814.831595 356.53214 
L 817.192727 360.178594 
L 817.192727 360.178594 
" clip-path="url(#p85d540f050)" style="fill: none; stroke: #00ff00; stroke-width: 3; stroke-linecap: square"/>
   </g>
   <g id="patch_3">
    <path d="M 61.04 375.64 
L 61.04 36.24 
" style="fill: none; stroke: #000000; stroke-width: 0.8; stroke-linejoin: miter; stroke-linecap: square"/>
   </g>
   <g id="patch_4">
    <path d="M 853.2 375.64 
L 853.2 36.24 
" style="fill: none; stroke: #000000; stroke-width: 0.8; stroke-linejoin: miter; stroke-linecap: square"/>
   </g>
   <g id="patch_5">
    <path d="M 61.04 375.64 
L 853.2 375.64 
" style="fill: none; stroke: #000000; stroke-width: 0.8; stroke-linejoin: miter; stroke-linecap: square"/>
   </g>
   <g id="patch_6">
    <path d="M 61.04 36.24 
L 853.2 36.24 
" style="fill: none; stroke: #000000; stroke-width: 0.8; stroke-linejoin: miter; stroke-linecap: square"/>
   </g>
   <g id="text_16">
    <!-- CPU vs GPU Inference Times with densenet201 -->
    <g transform="translate(163.114141 30.24) scale(0.25 -0.25)">
     <defs>
      <path id="DejaVuSans-43" d="M 4122 4306 
L 4122 3641 
Q 3803 3938 3442 4084 
Q 3081 4231 2675 4231 
Q 1875 4231 1450 3742 
Q 1025 3253 1025 2328 
Q 1025 1406 1450 917 
Q 1875 428 2675 428 
Q 3081 428 3442 575 
Q 3803 722 4122 1019 
L 4122 359 
Q 3791 134 3420 21 
Q 3050 -91 2638 -91 
Q 1578 -91 968 557 
Q 359 1206 359 2328 
Q 359 3453 968 4101 
Q 1578 4750 2638 4750 
Q 3056 4750 3426 4639 
Q 3797 4528 4122 4306 
z
" transform="scale(0.015625)"/>
      <path id="DejaVuSans-50" d="M 1259 4147 
L 1259 2394 
L 2053 2394 
Q 2494 2394 2734 2622 
Q 2975 2850 2975 3272 
Q 2975 3691 2734 3919 
Q 2494 4147 2053 4147 
L 1259 4147 
z
M 628 4666 
L 2053 4666 
Q 2838 4666 3239 4311 
Q 3641 3956 3641 3272 
Q 3641 2581 3239 2228 
Q 2838 1875 2053 1875 
L 1259 1875 
L 1259 0 
L 628 0 
L 628 4666 
z
" transform="scale(0.015625)"/>
      <path id="DejaVuSans-55" d="M 556 4666 
L 1191 4666 
L 1191 1831 
Q 1191 1081 1462 751 
Q 1734 422 2344 422 
Q 2950 422 3222 751 
Q 3494 1081 3494 1831 
L 3494 4666 
L 4128 4666 
L 4128 1753 
Q 4128 841 3676 375 
Q 3225 -91 2344 -91 
Q 1459 -91 1007 375 
Q 556 841 556 1753 
L 556 4666 
z
" transform="scale(0.015625)"/>
      <path id="DejaVuSans-76" d="M 191 3500 
L 800 3500 
L 1894 563 
L 2988 3500 
L 3597 3500 
L 2284 0 
L 1503 0 
L 191 3500 
z
" transform="scale(0.015625)"/>
      <path id="DejaVuSans-47" d="M 3809 666 
L 3809 1919 
L 2778 1919 
L 2778 2438 
L 4434 2438 
L 4434 434 
Q 4069 175 3628 42 
Q 3188 -91 2688 -91 
Q 1594 -91 976 548 
Q 359 1188 359 2328 
Q 359 3472 976 4111 
Q 1594 4750 2688 4750 
Q 3144 4750 3555 4637 
Q 3966 4525 4313 4306 
L 4313 3634 
Q 3963 3931 3569 4081 
Q 3175 4231 2741 4231 
Q 1884 4231 1454 3753 
Q 1025 3275 1025 2328 
Q 1025 1384 1454 906 
Q 1884 428 2741 428 
Q 3075 428 3337 486 
Q 3600 544 3809 666 
z
" transform="scale(0.015625)"/>
      <path id="DejaVuSans-66" d="M 2375 4863 
L 2375 4384 
L 1825 4384 
Q 1516 4384 1395 4259 
Q 1275 4134 1275 3809 
L 1275 3500 
L 2222 3500 
L 2222 3053 
L 1275 3053 
L 1275 0 
L 697 0 
L 697 3053 
L 147 3053 
L 147 3500 
L 697 3500 
L 697 3744 
Q 697 4328 969 4595 
Q 1241 4863 1831 4863 
L 2375 4863 
z
" transform="scale(0.015625)"/>
      <path id="DejaVuSans-77" d="M 269 3500 
L 844 3500 
L 1563 769 
L 2278 3500 
L 2956 3500 
L 3675 769 
L 4391 3500 
L 4966 3500 
L 4050 0 
L 3372 0 
L 2619 2869 
L 1863 0 
L 1184 0 
L 269 3500 
z
" transform="scale(0.015625)"/>
      <path id="DejaVuSans-68" d="M 3513 2113 
L 3513 0 
L 2938 0 
L 2938 2094 
Q 2938 2591 2744 2837 
Q 2550 3084 2163 3084 
Q 1697 3084 1428 2787 
Q 1159 2491 1159 1978 
L 1159 0 
L 581 0 
L 581 4863 
L 1159 4863 
L 1159 2956 
Q 1366 3272 1645 3428 
Q 1925 3584 2291 3584 
Q 2894 3584 3203 3211 
Q 3513 2838 3513 2113 
z
" transform="scale(0.015625)"/>
     </defs>
     <use xlink:href="#DejaVuSans-43"/>
     <use xlink:href="#DejaVuSans-50" x="69.824219"/>
     <use xlink:href="#DejaVuSans-55" x="130.126953"/>
     <use xlink:href="#DejaVuSans-20" x="203.320312"/>
     <use xlink:href="#DejaVuSans-76" x="235.107422"/>
     <use xlink:href="#DejaVuSans-73" x="294.287109"/>
     <use xlink:href="#DejaVuSans-20" x="346.386719"/>
     <use xlink:href="#DejaVuSans-47" x="378.173828"/>
     <use xlink:href="#DejaVuSans-50" x="455.664062"/>
     <use xlink:href="#DejaVuSans-55" x="515.966797"/>
     <use xlink:href="#DejaVuSans-20" x="589.160156"/>
     <use xlink:href="#DejaVuSans-49" x="620.947266"/>
     <use xlink:href="#DejaVuSans-6e" x="650.439453"/>
     <use xlink:href="#DejaVuSans-66" x="713.818359"/>
     <use xlink:href="#DejaVuSans-65" x="749.023438"/>
     <use xlink:href="#DejaVuSans-72" x="810.546875"/>
     <use xlink:href="#DejaVuSans-65" x="849.410156"/>
     <use xlink:href="#DejaVuSans-6e" x="910.933594"/>
     <use xlink:href="#DejaVuSans-63" x="974.3125"/>
     <use xlink:href="#DejaVuSans-65" x="1029.292969"/>
     <use xlink:href="#DejaVuSans-20" x="1090.816406"/>
     <use xlink:href="#DejaVuSans-54" x="1122.603516"/>
     <use xlink:href="#DejaVuSans-69" x="1180.5625"/>
     <use xlink:href="#DejaVuSans-6d" x="1208.345703"/>
     <use xlink:href="#DejaVuSans-65" x="1305.757812"/>
     <use xlink:href="#DejaVuSans-73" x="1367.28125"/>
     <use xlink:href="#DejaVuSans-20" x="1419.380859"/>
     <use xlink:href="#DejaVuSans-77" x="1451.167969"/>
     <use xlink:href="#DejaVuSans-69" x="1532.955078"/>
     <use xlink:href="#DejaVuSans-74" x="1560.738281"/>
     <use xlink:href="#DejaVuSans-68" x="1599.947266"/>
     <use xlink:href="#DejaVuSans-20" x="1663.326172"/>
     <use xlink:href="#DejaVuSans-64" x="1695.113281"/>
     <use xlink:href="#DejaVuSans-65" x="1758.589844"/>
     <use xlink:href="#DejaVuSans-6e" x="1820.113281"/>
     <use xlink:href="#DejaVuSans-73" x="1883.492188"/>
     <use xlink:href="#DejaVuSans-65" x="1935.591797"/>
     <use xlink:href="#DejaVuSans-6e" x="1997.115234"/>
     <use xlink:href="#DejaVuSans-65" x="2060.494141"/>
     <use xlink:href="#DejaVuSans-74" x="2122.017578"/>
     <use xlink:href="#DejaVuSans-32" x="2161.226562"/>
     <use xlink:href="#DejaVuSans-30" x="2224.849609"/>
     <use xlink:href="#DejaVuSans-31" x="2288.472656"/>
    </g>
   </g>
   <g id="legend_1">
    <g id="patch_7">
     <path d="M 632.671875 110.9525 
L 839.2 110.9525 
Q 843.2 110.9525 843.2 106.9525 
L 843.2 50.24 
Q 843.2 46.24 839.2 46.24 
L 632.671875 46.24 
Q 628.671875 46.24 628.671875 50.24 
L 628.671875 106.9525 
Q 628.671875 110.9525 632.671875 110.9525 
z
" style="fill: #ffffff; opacity: 0.8; stroke: #cccccc; stroke-linejoin: miter"/>
    </g>
    <g id="line2d_22">
     <path d="M 636.671875 62.436875 
L 656.671875 62.436875 
L 676.671875 62.436875 
" style="fill: none; stroke: #6495ed; stroke-width: 3; stroke-linecap: square"/>
    </g>
    <g id="text_17">
     <!-- CPU Inference -->
     <g transform="translate(692.671875 69.436875) scale(0.2 -0.2)">
      <use xlink:href="#DejaVuSans-43"/>
      <use xlink:href="#DejaVuSans-50" x="69.824219"/>
      <use xlink:href="#DejaVuSans-55" x="130.126953"/>
      <use xlink:href="#DejaVuSans-20" x="203.320312"/>
      <use xlink:href="#DejaVuSans-49" x="235.107422"/>
      <use xlink:href="#DejaVuSans-6e" x="264.599609"/>
      <use xlink:href="#DejaVuSans-66" x="327.978516"/>
      <use xlink:href="#DejaVuSans-65" x="363.183594"/>
      <use xlink:href="#DejaVuSans-72" x="424.707031"/>
      <use xlink:href="#DejaVuSans-65" x="463.570312"/>
      <use xlink:href="#DejaVuSans-6e" x="525.09375"/>
      <use xlink:href="#DejaVuSans-63" x="588.472656"/>
      <use xlink:href="#DejaVuSans-65" x="643.453125"/>
     </g>
    </g>
    <g id="line2d_23">
     <path d="M 636.671875 91.793125 
L 656.671875 91.793125 
L 676.671875 91.793125 
" style="fill: none; stroke: #00ff00; stroke-width: 3; stroke-linecap: square"/>
    </g>
    <g id="text_18">
     <!-- GPU Inference -->
     <g transform="translate(692.671875 98.793125) scale(0.2 -0.2)">
      <use xlink:href="#DejaVuSans-47"/>
      <use xlink:href="#DejaVuSans-50" x="77.490234"/>
      <use xlink:href="#DejaVuSans-55" x="137.792969"/>
      <use xlink:href="#DejaVuSans-20" x="210.986328"/>
      <use xlink:href="#DejaVuSans-49" x="242.773438"/>
      <use xlink:href="#DejaVuSans-6e" x="272.265625"/>
      <use xlink:href="#DejaVuSans-66" x="335.644531"/>
      <use xlink:href="#DejaVuSans-65" x="370.849609"/>
      <use xlink:href="#DejaVuSans-72" x="432.373047"/>
      <use xlink:href="#DejaVuSans-65" x="471.236328"/>
      <use xlink:href="#DejaVuSans-6e" x="532.759766"/>
      <use xlink:href="#DejaVuSans-63" x="596.138672"/>
      <use xlink:href="#DejaVuSans-65" x="651.119141"/>
     </g>
    </g>
   </g>
  </g>
 </g>
 <defs>
  <clipPath id="p85d540f050">
   <rect x="61.04" y="36.24" width="792.16" height="339.4"/>
  </clipPath>
 </defs>
</svg>
