<?xml version="1.0" encoding="utf-8" standalone="no"?>
<!DOCTYPE svg PUBLIC "-//W3C//DTD SVG 1.1//EN"
  "http://www.w3.org/Graphics/SVG/1.1/DTD/svg11.dtd">
<svg xmlns:xlink="http://www.w3.org/1999/xlink" width="864pt" height="432pt" viewBox="0 0 864 432" xmlns="http://www.w3.org/2000/svg" version="1.1">
 <metadata>
  <rdf:RDF xmlns:dc="http://purl.org/dc/elements/1.1/" xmlns:cc="http://creativecommons.org/ns#" xmlns:rdf="http://www.w3.org/1999/02/22-rdf-syntax-ns#">
   <cc:Work>
    <dc:type rdf:resource="http://purl.org/dc/dcmitype/StillImage"/>
    <dc:date>2025-01-16T15:53:00.845302</dc:date>
    <dc:format>image/svg+xml</dc:format>
    <dc:creator>
     <cc:Agent>
      <dc:title>Matplotlib v3.7.5, https://matplotlib.org/</dc:title>
     </cc:Agent>
    </dc:creator>
   </cc:Work>
  </rdf:RDF>
 </metadata>
 <defs>
  <style type="text/css">*{stroke-linejoin: round; stroke-linecap: butt}</style>
 </defs>
 <g id="figure_1">
  <g id="patch_1">
   <path d="M 0 432 
L 864 432 
L 864 0 
L 0 0 
z
" style="fill: #ffffff"/>
  </g>
  <g id="axes_1">
   <g id="patch_2">
    <path d="M 61.04 375.64 
L 853.2 375.64 
L 853.2 64.608 
L 61.04 64.608 
z
" style="fill: #ffffff"/>
   </g>
   <g id="matplotlib.axis_1">
    <g id="xtick_1">
     <g id="line2d_1">
      <defs>
       <path id="m23552333dc" d="M 0 0 
L 0 3.5 
" style="stroke: #000000; stroke-width: 0.8"/>
      </defs>
      <g>
       <use xlink:href="#m23552333dc" x="97.047273" y="375.64" style="stroke: #000000; stroke-width: 0.8"/>
      </g>
     </g>
     <g id="text_1">
      <!-- 0 -->
      <g transform="translate(92.275398 394.037656) scale(0.15 -0.15)">
       <defs>
        <path id="DejaVuSans-30" d="M 2034 4250 
Q 1547 4250 1301 3770 
Q 1056 3291 1056 2328 
Q 1056 1369 1301 889 
Q 1547 409 2034 409 
Q 2525 409 2770 889 
Q 3016 1369 3016 2328 
Q 3016 3291 2770 3770 
Q 2525 4250 2034 4250 
z
M 2034 4750 
Q 2819 4750 3233 4129 
Q 3647 3509 3647 2328 
Q 3647 1150 3233 529 
Q 2819 -91 2034 -91 
Q 1250 -91 836 529 
Q 422 1150 422 2328 
Q 422 3509 836 4129 
Q 1250 4750 2034 4750 
z
" transform="scale(0.015625)"/>
       </defs>
       <use xlink:href="#DejaVuSans-30"/>
      </g>
     </g>
    </g>
    <g id="xtick_2">
     <g id="line2d_2">
      <g>
       <use xlink:href="#m23552333dc" x="215.103905" y="375.64" style="stroke: #000000; stroke-width: 0.8"/>
      </g>
     </g>
     <g id="text_2">
      <!-- 50 -->
      <g transform="translate(205.560155 394.037656) scale(0.15 -0.15)">
       <defs>
        <path id="DejaVuSans-35" d="M 691 4666 
L 3169 4666 
L 3169 4134 
L 1269 4134 
L 1269 2991 
Q 1406 3038 1543 3061 
Q 1681 3084 1819 3084 
Q 2600 3084 3056 2656 
Q 3513 2228 3513 1497 
Q 3513 744 3044 326 
Q 2575 -91 1722 -91 
Q 1428 -91 1123 -41 
Q 819 9 494 109 
L 494 744 
Q 775 591 1075 516 
Q 1375 441 1709 441 
Q 2250 441 2565 725 
Q 2881 1009 2881 1497 
Q 2881 1984 2565 2268 
Q 2250 2553 1709 2553 
Q 1456 2553 1204 2497 
Q 953 2441 691 2322 
L 691 4666 
z
" transform="scale(0.015625)"/>
       </defs>
       <use xlink:href="#DejaVuSans-35"/>
       <use xlink:href="#DejaVuSans-30" x="63.623047"/>
      </g>
     </g>
    </g>
    <g id="xtick_3">
     <g id="line2d_3">
      <g>
       <use xlink:href="#m23552333dc" x="333.160537" y="375.64" style="stroke: #000000; stroke-width: 0.8"/>
      </g>
     </g>
     <g id="text_3">
      <!-- 100 -->
      <g transform="translate(318.844912 394.037656) scale(0.15 -0.15)">
       <defs>
        <path id="DejaVuSans-31" d="M 794 531 
L 1825 531 
L 1825 4091 
L 703 3866 
L 703 4441 
L 1819 4666 
L 2450 4666 
L 2450 531 
L 3481 531 
L 3481 0 
L 794 0 
L 794 531 
z
" transform="scale(0.015625)"/>
       </defs>
       <use xlink:href="#DejaVuSans-31"/>
       <use xlink:href="#DejaVuSans-30" x="63.623047"/>
       <use xlink:href="#DejaVuSans-30" x="127.246094"/>
      </g>
     </g>
    </g>
    <g id="xtick_4">
     <g id="line2d_4">
      <g>
       <use xlink:href="#m23552333dc" x="451.217168" y="375.64" style="stroke: #000000; stroke-width: 0.8"/>
      </g>
     </g>
     <g id="text_4">
      <!-- 150 -->
      <g transform="translate(436.901543 394.037656) scale(0.15 -0.15)">
       <use xlink:href="#DejaVuSans-31"/>
       <use xlink:href="#DejaVuSans-35" x="63.623047"/>
       <use xlink:href="#DejaVuSans-30" x="127.246094"/>
      </g>
     </g>
    </g>
    <g id="xtick_5">
     <g id="line2d_5">
      <g>
       <use xlink:href="#m23552333dc" x="569.2738" y="375.64" style="stroke: #000000; stroke-width: 0.8"/>
      </g>
     </g>
     <g id="text_5">
      <!-- 200 -->
      <g transform="translate(554.958175 394.037656) scale(0.15 -0.15)">
       <defs>
        <path id="DejaVuSans-32" d="M 1228 531 
L 3431 531 
L 3431 0 
L 469 0 
L 469 531 
Q 828 903 1448 1529 
Q 2069 2156 2228 2338 
Q 2531 2678 2651 2914 
Q 2772 3150 2772 3378 
Q 2772 3750 2511 3984 
Q 2250 4219 1831 4219 
Q 1534 4219 1204 4116 
Q 875 4013 500 3803 
L 500 4441 
Q 881 4594 1212 4672 
Q 1544 4750 1819 4750 
Q 2544 4750 2975 4387 
Q 3406 4025 3406 3419 
Q 3406 3131 3298 2873 
Q 3191 2616 2906 2266 
Q 2828 2175 2409 1742 
Q 1991 1309 1228 531 
z
" transform="scale(0.015625)"/>
       </defs>
       <use xlink:href="#DejaVuSans-32"/>
       <use xlink:href="#DejaVuSans-30" x="63.623047"/>
       <use xlink:href="#DejaVuSans-30" x="127.246094"/>
      </g>
     </g>
    </g>
    <g id="xtick_6">
     <g id="line2d_6">
      <g>
       <use xlink:href="#m23552333dc" x="687.330432" y="375.64" style="stroke: #000000; stroke-width: 0.8"/>
      </g>
     </g>
     <g id="text_6">
      <!-- 250 -->
      <g transform="translate(673.014807 394.037656) scale(0.15 -0.15)">
       <use xlink:href="#DejaVuSans-32"/>
       <use xlink:href="#DejaVuSans-35" x="63.623047"/>
       <use xlink:href="#DejaVuSans-30" x="127.246094"/>
      </g>
     </g>
    </g>
    <g id="xtick_7">
     <g id="line2d_7">
      <g>
       <use xlink:href="#m23552333dc" x="805.387064" y="375.64" style="stroke: #000000; stroke-width: 0.8"/>
      </g>
     </g>
     <g id="text_7">
      <!-- 300 -->
      <g transform="translate(791.071439 394.037656) scale(0.15 -0.15)">
       <defs>
        <path id="DejaVuSans-33" d="M 2597 2516 
Q 3050 2419 3304 2112 
Q 3559 1806 3559 1356 
Q 3559 666 3084 287 
Q 2609 -91 1734 -91 
Q 1441 -91 1130 -33 
Q 819 25 488 141 
L 488 750 
Q 750 597 1062 519 
Q 1375 441 1716 441 
Q 2309 441 2620 675 
Q 2931 909 2931 1356 
Q 2931 1769 2642 2001 
Q 2353 2234 1838 2234 
L 1294 2234 
L 1294 2753 
L 1863 2753 
Q 2328 2753 2575 2939 
Q 2822 3125 2822 3475 
Q 2822 3834 2567 4026 
Q 2313 4219 1838 4219 
Q 1578 4219 1281 4162 
Q 984 4106 628 3988 
L 628 4550 
Q 988 4650 1302 4700 
Q 1616 4750 1894 4750 
Q 2613 4750 3031 4423 
Q 3450 4097 3450 3541 
Q 3450 3153 3228 2886 
Q 3006 2619 2597 2516 
z
" transform="scale(0.015625)"/>
       </defs>
       <use xlink:href="#DejaVuSans-33"/>
       <use xlink:href="#DejaVuSans-30" x="63.623047"/>
       <use xlink:href="#DejaVuSans-30" x="127.246094"/>
      </g>
     </g>
    </g>
    <g id="text_8">
     <!-- Layer Index -->
     <g transform="translate(398.52625 416.354062) scale(0.2 -0.2)">
      <defs>
       <path id="DejaVuSans-4c" d="M 628 4666 
L 1259 4666 
L 1259 531 
L 3531 531 
L 3531 0 
L 628 0 
L 628 4666 
z
" transform="scale(0.015625)"/>
       <path id="DejaVuSans-61" d="M 2194 1759 
Q 1497 1759 1228 1600 
Q 959 1441 959 1056 
Q 959 750 1161 570 
Q 1363 391 1709 391 
Q 2188 391 2477 730 
Q 2766 1069 2766 1631 
L 2766 1759 
L 2194 1759 
z
M 3341 1997 
L 3341 0 
L 2766 0 
L 2766 531 
Q 2569 213 2275 61 
Q 1981 -91 1556 -91 
Q 1019 -91 701 211 
Q 384 513 384 1019 
Q 384 1609 779 1909 
Q 1175 2209 1959 2209 
L 2766 2209 
L 2766 2266 
Q 2766 2663 2505 2880 
Q 2244 3097 1772 3097 
Q 1472 3097 1187 3025 
Q 903 2953 641 2809 
L 641 3341 
Q 956 3463 1253 3523 
Q 1550 3584 1831 3584 
Q 2591 3584 2966 3190 
Q 3341 2797 3341 1997 
z
" transform="scale(0.015625)"/>
       <path id="DejaVuSans-79" d="M 2059 -325 
Q 1816 -950 1584 -1140 
Q 1353 -1331 966 -1331 
L 506 -1331 
L 506 -850 
L 844 -850 
Q 1081 -850 1212 -737 
Q 1344 -625 1503 -206 
L 1606 56 
L 191 3500 
L 800 3500 
L 1894 763 
L 2988 3500 
L 3597 3500 
L 2059 -325 
z
" transform="scale(0.015625)"/>
       <path id="DejaVuSans-65" d="M 3597 1894 
L 3597 1613 
L 953 1613 
Q 991 1019 1311 708 
Q 1631 397 2203 397 
Q 2534 397 2845 478 
Q 3156 559 3463 722 
L 3463 178 
Q 3153 47 2828 -22 
Q 2503 -91 2169 -91 
Q 1331 -91 842 396 
Q 353 884 353 1716 
Q 353 2575 817 3079 
Q 1281 3584 2069 3584 
Q 2775 3584 3186 3129 
Q 3597 2675 3597 1894 
z
M 3022 2063 
Q 3016 2534 2758 2815 
Q 2500 3097 2075 3097 
Q 1594 3097 1305 2825 
Q 1016 2553 972 2059 
L 3022 2063 
z
" transform="scale(0.015625)"/>
       <path id="DejaVuSans-72" d="M 2631 2963 
Q 2534 3019 2420 3045 
Q 2306 3072 2169 3072 
Q 1681 3072 1420 2755 
Q 1159 2438 1159 1844 
L 1159 0 
L 581 0 
L 581 3500 
L 1159 3500 
L 1159 2956 
Q 1341 3275 1631 3429 
Q 1922 3584 2338 3584 
Q 2397 3584 2469 3576 
Q 2541 3569 2628 3553 
L 2631 2963 
z
" transform="scale(0.015625)"/>
       <path id="DejaVuSans-20" transform="scale(0.015625)"/>
       <path id="DejaVuSans-49" d="M 628 4666 
L 1259 4666 
L 1259 0 
L 628 0 
L 628 4666 
z
" transform="scale(0.015625)"/>
       <path id="DejaVuSans-6e" d="M 3513 2113 
L 3513 0 
L 2938 0 
L 2938 2094 
Q 2938 2591 2744 2837 
Q 2550 3084 2163 3084 
Q 1697 3084 1428 2787 
Q 1159 2491 1159 1978 
L 1159 0 
L 581 0 
L 581 3500 
L 1159 3500 
L 1159 2956 
Q 1366 3272 1645 3428 
Q 1925 3584 2291 3584 
Q 2894 3584 3203 3211 
Q 3513 2838 3513 2113 
z
" transform="scale(0.015625)"/>
       <path id="DejaVuSans-64" d="M 2906 2969 
L 2906 4863 
L 3481 4863 
L 3481 0 
L 2906 0 
L 2906 525 
Q 2725 213 2448 61 
Q 2172 -91 1784 -91 
Q 1150 -91 751 415 
Q 353 922 353 1747 
Q 353 2572 751 3078 
Q 1150 3584 1784 3584 
Q 2172 3584 2448 3432 
Q 2725 3281 2906 2969 
z
M 947 1747 
Q 947 1113 1208 752 
Q 1469 391 1925 391 
Q 2381 391 2643 752 
Q 2906 1113 2906 1747 
Q 2906 2381 2643 2742 
Q 2381 3103 1925 3103 
Q 1469 3103 1208 2742 
Q 947 2381 947 1747 
z
" transform="scale(0.015625)"/>
       <path id="DejaVuSans-78" d="M 3513 3500 
L 2247 1797 
L 3578 0 
L 2900 0 
L 1881 1375 
L 863 0 
L 184 0 
L 1544 1831 
L 300 3500 
L 978 3500 
L 1906 2253 
L 2834 3500 
L 3513 3500 
z
" transform="scale(0.015625)"/>
      </defs>
      <use xlink:href="#DejaVuSans-4c"/>
      <use xlink:href="#DejaVuSans-61" x="55.712891"/>
      <use xlink:href="#DejaVuSans-79" x="116.992188"/>
      <use xlink:href="#DejaVuSans-65" x="176.171875"/>
      <use xlink:href="#DejaVuSans-72" x="237.695312"/>
      <use xlink:href="#DejaVuSans-20" x="278.808594"/>
      <use xlink:href="#DejaVuSans-49" x="310.595703"/>
      <use xlink:href="#DejaVuSans-6e" x="340.087891"/>
      <use xlink:href="#DejaVuSans-64" x="403.466797"/>
      <use xlink:href="#DejaVuSans-65" x="466.943359"/>
      <use xlink:href="#DejaVuSans-78" x="526.716797"/>
     </g>
    </g>
   </g>
   <g id="matplotlib.axis_2">
    <g id="ytick_1">
     <g id="line2d_8">
      <path d="M 61.04 361.512004 
L 853.2 361.512004 
" clip-path="url(#p8e7eb3b144)" style="fill: none; stroke: #b0b0b0; stroke-opacity: 0.5; stroke-width: 0.8; stroke-linecap: square"/>
     </g>
     <g id="line2d_9">
      <defs>
       <path id="m46f42857c5" d="M 0 0 
L -3.5 0 
" style="stroke: #000000; stroke-width: 0.8"/>
      </defs>
      <g>
       <use xlink:href="#m46f42857c5" x="61.04" y="361.512004" style="stroke: #000000; stroke-width: 0.8"/>
      </g>
     </g>
     <g id="text_9">
      <!-- 0 -->
      <g transform="translate(44.49625 367.210832) scale(0.15 -0.15)">
       <use xlink:href="#DejaVuSans-30"/>
      </g>
     </g>
    </g>
    <g id="ytick_2">
     <g id="line2d_10">
      <path d="M 61.04 312.400482 
L 853.2 312.400482 
" clip-path="url(#p8e7eb3b144)" style="fill: none; stroke: #b0b0b0; stroke-opacity: 0.5; stroke-width: 0.8; stroke-linecap: square"/>
     </g>
     <g id="line2d_11">
      <g>
       <use xlink:href="#m46f42857c5" x="61.04" y="312.400482" style="stroke: #000000; stroke-width: 0.8"/>
      </g>
     </g>
     <g id="text_10">
      <!-- 5 -->
      <g transform="translate(44.49625 318.09931) scale(0.15 -0.15)">
       <use xlink:href="#DejaVuSans-35"/>
      </g>
     </g>
    </g>
    <g id="ytick_3">
     <g id="line2d_12">
      <path d="M 61.04 263.288959 
L 853.2 263.288959 
" clip-path="url(#p8e7eb3b144)" style="fill: none; stroke: #b0b0b0; stroke-opacity: 0.5; stroke-width: 0.8; stroke-linecap: square"/>
     </g>
     <g id="line2d_13">
      <g>
       <use xlink:href="#m46f42857c5" x="61.04" y="263.288959" style="stroke: #000000; stroke-width: 0.8"/>
      </g>
     </g>
     <g id="text_11">
      <!-- 10 -->
      <g transform="translate(34.9525 268.987787) scale(0.15 -0.15)">
       <use xlink:href="#DejaVuSans-31"/>
       <use xlink:href="#DejaVuSans-30" x="63.623047"/>
      </g>
     </g>
    </g>
    <g id="ytick_4">
     <g id="line2d_14">
      <path d="M 61.04 214.177437 
L 853.2 214.177437 
" clip-path="url(#p8e7eb3b144)" style="fill: none; stroke: #b0b0b0; stroke-opacity: 0.5; stroke-width: 0.8; stroke-linecap: square"/>
     </g>
     <g id="line2d_15">
      <g>
       <use xlink:href="#m46f42857c5" x="61.04" y="214.177437" style="stroke: #000000; stroke-width: 0.8"/>
      </g>
     </g>
     <g id="text_12">
      <!-- 15 -->
      <g transform="translate(34.9525 219.876265) scale(0.15 -0.15)">
       <use xlink:href="#DejaVuSans-31"/>
       <use xlink:href="#DejaVuSans-35" x="63.623047"/>
      </g>
     </g>
    </g>
    <g id="ytick_5">
     <g id="line2d_16">
      <path d="M 61.04 165.065914 
L 853.2 165.065914 
" clip-path="url(#p8e7eb3b144)" style="fill: none; stroke: #b0b0b0; stroke-opacity: 0.5; stroke-width: 0.8; stroke-linecap: square"/>
     </g>
     <g id="line2d_17">
      <g>
       <use xlink:href="#m46f42857c5" x="61.04" y="165.065914" style="stroke: #000000; stroke-width: 0.8"/>
      </g>
     </g>
     <g id="text_13">
      <!-- 20 -->
      <g transform="translate(34.9525 170.764742) scale(0.15 -0.15)">
       <use xlink:href="#DejaVuSans-32"/>
       <use xlink:href="#DejaVuSans-30" x="63.623047"/>
      </g>
     </g>
    </g>
    <g id="ytick_6">
     <g id="line2d_18">
      <path d="M 61.04 115.954391 
L 853.2 115.954391 
" clip-path="url(#p8e7eb3b144)" style="fill: none; stroke: #b0b0b0; stroke-opacity: 0.5; stroke-width: 0.8; stroke-linecap: square"/>
     </g>
     <g id="line2d_19">
      <g>
       <use xlink:href="#m46f42857c5" x="61.04" y="115.954391" style="stroke: #000000; stroke-width: 0.8"/>
      </g>
     </g>
     <g id="text_14">
      <!-- 25 -->
      <g transform="translate(34.9525 121.65322) scale(0.15 -0.15)">
       <use xlink:href="#DejaVuSans-32"/>
       <use xlink:href="#DejaVuSans-35" x="63.623047"/>
      </g>
     </g>
    </g>
    <g id="ytick_7">
     <g id="line2d_20">
      <path d="M 61.04 66.842869 
L 853.2 66.842869 
" clip-path="url(#p8e7eb3b144)" style="fill: none; stroke: #b0b0b0; stroke-opacity: 0.5; stroke-width: 0.8; stroke-linecap: square"/>
     </g>
     <g id="line2d_21">
      <g>
       <use xlink:href="#m46f42857c5" x="61.04" y="66.842869" style="stroke: #000000; stroke-width: 0.8"/>
      </g>
     </g>
     <g id="text_15">
      <!-- 30 -->
      <g transform="translate(34.9525 72.541697) scale(0.15 -0.15)">
       <use xlink:href="#DejaVuSans-33"/>
       <use xlink:href="#DejaVuSans-30" x="63.623047"/>
      </g>
     </g>
    </g>
    <g id="text_16">
     <!-- Execution Time (ms)    -->
     <g transform="translate(26.793125 332.303687) rotate(-90) scale(0.2 -0.2)">
      <defs>
       <path id="DejaVuSans-45" d="M 628 4666 
L 3578 4666 
L 3578 4134 
L 1259 4134 
L 1259 2753 
L 3481 2753 
L 3481 2222 
L 1259 2222 
L 1259 531 
L 3634 531 
L 3634 0 
L 628 0 
L 628 4666 
z
" transform="scale(0.015625)"/>
       <path id="DejaVuSans-63" d="M 3122 3366 
L 3122 2828 
Q 2878 2963 2633 3030 
Q 2388 3097 2138 3097 
Q 1578 3097 1268 2742 
Q 959 2388 959 1747 
Q 959 1106 1268 751 
Q 1578 397 2138 397 
Q 2388 397 2633 464 
Q 2878 531 3122 666 
L 3122 134 
Q 2881 22 2623 -34 
Q 2366 -91 2075 -91 
Q 1284 -91 818 406 
Q 353 903 353 1747 
Q 353 2603 823 3093 
Q 1294 3584 2113 3584 
Q 2378 3584 2631 3529 
Q 2884 3475 3122 3366 
z
" transform="scale(0.015625)"/>
       <path id="DejaVuSans-75" d="M 544 1381 
L 544 3500 
L 1119 3500 
L 1119 1403 
Q 1119 906 1312 657 
Q 1506 409 1894 409 
Q 2359 409 2629 706 
Q 2900 1003 2900 1516 
L 2900 3500 
L 3475 3500 
L 3475 0 
L 2900 0 
L 2900 538 
Q 2691 219 2414 64 
Q 2138 -91 1772 -91 
Q 1169 -91 856 284 
Q 544 659 544 1381 
z
M 1991 3584 
L 1991 3584 
z
" transform="scale(0.015625)"/>
       <path id="DejaVuSans-74" d="M 1172 4494 
L 1172 3500 
L 2356 3500 
L 2356 3053 
L 1172 3053 
L 1172 1153 
Q 1172 725 1289 603 
Q 1406 481 1766 481 
L 2356 481 
L 2356 0 
L 1766 0 
Q 1100 0 847 248 
Q 594 497 594 1153 
L 594 3053 
L 172 3053 
L 172 3500 
L 594 3500 
L 594 4494 
L 1172 4494 
z
" transform="scale(0.015625)"/>
       <path id="DejaVuSans-69" d="M 603 3500 
L 1178 3500 
L 1178 0 
L 603 0 
L 603 3500 
z
M 603 4863 
L 1178 4863 
L 1178 4134 
L 603 4134 
L 603 4863 
z
" transform="scale(0.015625)"/>
       <path id="DejaVuSans-6f" d="M 1959 3097 
Q 1497 3097 1228 2736 
Q 959 2375 959 1747 
Q 959 1119 1226 758 
Q 1494 397 1959 397 
Q 2419 397 2687 759 
Q 2956 1122 2956 1747 
Q 2956 2369 2687 2733 
Q 2419 3097 1959 3097 
z
M 1959 3584 
Q 2709 3584 3137 3096 
Q 3566 2609 3566 1747 
Q 3566 888 3137 398 
Q 2709 -91 1959 -91 
Q 1206 -91 779 398 
Q 353 888 353 1747 
Q 353 2609 779 3096 
Q 1206 3584 1959 3584 
z
" transform="scale(0.015625)"/>
       <path id="DejaVuSans-54" d="M -19 4666 
L 3928 4666 
L 3928 4134 
L 2272 4134 
L 2272 0 
L 1638 0 
L 1638 4134 
L -19 4134 
L -19 4666 
z
" transform="scale(0.015625)"/>
       <path id="DejaVuSans-6d" d="M 3328 2828 
Q 3544 3216 3844 3400 
Q 4144 3584 4550 3584 
Q 5097 3584 5394 3201 
Q 5691 2819 5691 2113 
L 5691 0 
L 5113 0 
L 5113 2094 
Q 5113 2597 4934 2840 
Q 4756 3084 4391 3084 
Q 3944 3084 3684 2787 
Q 3425 2491 3425 1978 
L 3425 0 
L 2847 0 
L 2847 2094 
Q 2847 2600 2669 2842 
Q 2491 3084 2119 3084 
Q 1678 3084 1418 2786 
Q 1159 2488 1159 1978 
L 1159 0 
L 581 0 
L 581 3500 
L 1159 3500 
L 1159 2956 
Q 1356 3278 1631 3431 
Q 1906 3584 2284 3584 
Q 2666 3584 2933 3390 
Q 3200 3197 3328 2828 
z
" transform="scale(0.015625)"/>
       <path id="DejaVuSans-28" d="M 1984 4856 
Q 1566 4138 1362 3434 
Q 1159 2731 1159 2009 
Q 1159 1288 1364 580 
Q 1569 -128 1984 -844 
L 1484 -844 
Q 1016 -109 783 600 
Q 550 1309 550 2009 
Q 550 2706 781 3412 
Q 1013 4119 1484 4856 
L 1984 4856 
z
" transform="scale(0.015625)"/>
       <path id="DejaVuSans-73" d="M 2834 3397 
L 2834 2853 
Q 2591 2978 2328 3040 
Q 2066 3103 1784 3103 
Q 1356 3103 1142 2972 
Q 928 2841 928 2578 
Q 928 2378 1081 2264 
Q 1234 2150 1697 2047 
L 1894 2003 
Q 2506 1872 2764 1633 
Q 3022 1394 3022 966 
Q 3022 478 2636 193 
Q 2250 -91 1575 -91 
Q 1294 -91 989 -36 
Q 684 19 347 128 
L 347 722 
Q 666 556 975 473 
Q 1284 391 1588 391 
Q 1994 391 2212 530 
Q 2431 669 2431 922 
Q 2431 1156 2273 1281 
Q 2116 1406 1581 1522 
L 1381 1569 
Q 847 1681 609 1914 
Q 372 2147 372 2553 
Q 372 3047 722 3315 
Q 1072 3584 1716 3584 
Q 2034 3584 2315 3537 
Q 2597 3491 2834 3397 
z
" transform="scale(0.015625)"/>
       <path id="DejaVuSans-29" d="M 513 4856 
L 1013 4856 
Q 1481 4119 1714 3412 
Q 1947 2706 1947 2009 
Q 1947 1309 1714 600 
Q 1481 -109 1013 -844 
L 513 -844 
Q 928 -128 1133 580 
Q 1338 1288 1338 2009 
Q 1338 2731 1133 3434 
Q 928 4138 513 4856 
z
" transform="scale(0.015625)"/>
      </defs>
      <use xlink:href="#DejaVuSans-45"/>
      <use xlink:href="#DejaVuSans-78" x="63.183594"/>
      <use xlink:href="#DejaVuSans-65" x="119.238281"/>
      <use xlink:href="#DejaVuSans-63" x="180.761719"/>
      <use xlink:href="#DejaVuSans-75" x="235.742188"/>
      <use xlink:href="#DejaVuSans-74" x="299.121094"/>
      <use xlink:href="#DejaVuSans-69" x="338.330078"/>
      <use xlink:href="#DejaVuSans-6f" x="366.113281"/>
      <use xlink:href="#DejaVuSans-6e" x="427.294922"/>
      <use xlink:href="#DejaVuSans-20" x="490.673828"/>
      <use xlink:href="#DejaVuSans-54" x="522.460938"/>
      <use xlink:href="#DejaVuSans-69" x="580.419922"/>
      <use xlink:href="#DejaVuSans-6d" x="608.203125"/>
      <use xlink:href="#DejaVuSans-65" x="705.615234"/>
      <use xlink:href="#DejaVuSans-20" x="767.138672"/>
      <use xlink:href="#DejaVuSans-28" x="798.925781"/>
      <use xlink:href="#DejaVuSans-6d" x="837.939453"/>
      <use xlink:href="#DejaVuSans-73" x="935.351562"/>
      <use xlink:href="#DejaVuSans-29" x="987.451172"/>
      <use xlink:href="#DejaVuSans-20" x="1026.464844"/>
      <use xlink:href="#DejaVuSans-20" x="1058.251953"/>
      <use xlink:href="#DejaVuSans-20" x="1090.039062"/>
     </g>
    </g>
   </g>
   <g id="line2d_22">
    <path d="M 97.047273 130.193646 
L 99.408405 332.116513 
L 101.769538 318.250366 
L 104.130671 79.357327 
L 106.491803 359.468263 
L 108.852936 302.956616 
L 111.214069 79.064482 
L 113.575201 358.681777 
L 115.936334 287.642802 
L 118.297466 79.240862 
L 120.658599 357.943701 
L 123.019732 271.610696 
L 125.380864 78.745818 
L 127.741997 357.186822 
L 130.10313 254.374235 
L 132.464262 78.797736 
L 134.825395 356.450992 
L 137.186528 238.145964 
L 139.54766 78.987026 
L 141.908793 355.69299 
L 144.269925 221.610255 
L 146.631058 346.786826 
L 148.992191 343.25234 
L 151.353323 293.495071 
L 153.714456 360.579867 
L 156.075589 339.555084 
L 158.436721 294.846901 
L 160.797854 360.405171 
L 163.158987 335.595152 
L 165.520119 294.854618 
L 167.881252 360.216442 
L 170.242385 331.519036 
L 172.603517 294.795264 
L 174.96465 359.959378 
L 179.686915 294.646807 
L 182.048048 359.746515 
L 184.40918 323.416196 
L 186.770313 294.566685 
L 189.131446 359.503904 
L 191.492578 319.173101 
L 193.853711 294.476039 
L 196.214844 359.267187 
L 198.575976 315.137818 
L 200.937109 294.338386 
L 203.298241 359.047307 
L 205.659374 311.197109 
L 208.020507 294.171126 
L 210.381639 358.872049 
L 212.742772 307.161966 
L 215.103905 294.064624 
L 217.465037 358.666062 
L 219.82617 303.189405 
L 222.187303 293.944231 
L 224.548435 358.42331 
L 226.909568 299.280549 
L 229.2707 293.957421 
L 231.631833 358.169755 
L 233.992966 234.54202 
L 236.354098 353.86099 
L 238.715231 352.714727 
L 241.076364 345.262405 
L 243.437496 361.172293 
L 245.798629 351.899616 
L 248.159762 345.486072 
L 250.520894 361.173696 
L 252.882027 350.922578 
L 255.243159 345.553846 
L 257.604292 361.141282 
L 259.965425 349.948486 
L 262.326557 345.601274 
L 264.68769 361.110412 
L 267.048823 348.973552 
L 269.409955 345.600011 
L 271.771088 361.072105 
L 274.132221 347.965503 
L 276.493353 345.59075 
L 278.854486 361.0345 
L 281.215618 346.976958 
L 283.576751 345.591171 
L 285.937884 360.98609 
L 288.299016 345.966523 
L 290.660149 345.602397 
L 293.021282 360.94189 
L 295.382414 344.968577 
L 297.743547 345.576297 
L 300.10468 360.88464 
L 302.465812 343.949162 
L 304.826945 345.56872 
L 307.188077 360.837212 
L 309.54921 342.955285 
L 311.910343 345.550479 
L 314.271475 360.79245 
L 316.632608 341.98386 
L 318.993741 345.532097 
L 321.354873 360.756669 
L 323.716006 341.023098 
L 326.077139 345.57321 
L 328.438271 360.705453 
L 330.799404 339.67225 
L 333.160537 345.521994 
L 335.521669 360.675003 
L 337.882802 338.679075 
L 340.243934 345.505156 
L 342.605067 360.625752 
L 344.9662 337.591185 
L 347.327332 345.513435 
L 349.688465 360.593619 
L 352.049598 336.526868 
L 354.41073 345.514136 
L 356.771863 360.548436 
L 359.132996 335.555442 
L 361.494128 345.513855 
L 363.855261 360.509287 
L 366.216393 334.575316 
L 368.577526 345.510207 
L 370.938659 360.471682 
L 373.299791 333.458099 
L 375.660924 345.50277 
L 378.022057 360.42678 
L 380.383189 332.531295 
L 382.744322 345.502069 
L 385.105455 360.386649 
L 387.466587 331.496164 
L 389.82772 345.494492 
L 392.188852 360.339642 
L 394.549985 330.432268 
L 399.27225 360.291372 
L 401.633383 329.43797 
L 403.994516 345.487055 
L 406.355648 360.251522 
L 408.716781 328.435394 
L 411.077914 345.488738 
L 413.439046 360.205638 
L 415.800179 327.290674 
L 418.161311 345.44552 
L 420.522444 360.15835 
L 422.883577 326.391653 
L 425.244709 345.486493 
L 427.605842 360.110361 
L 429.966975 325.384446 
L 432.328107 345.469374 
L 434.68924 360.050726 
L 437.050373 324.37359 
L 439.411505 345.444959 
L 441.772638 360.019856 
L 444.13377 323.292154 
L 446.494903 345.474566 
L 448.856036 359.959378 
L 451.217168 322.285929 
L 453.578301 345.474566 
L 455.939434 359.93819 
L 458.300566 321.208703 
L 460.661699 345.439627 
L 463.022832 359.886834 
L 465.383964 320.027501 
L 467.745097 345.395146 
L 470.10623 359.853298 
L 472.467362 318.811079 
L 474.828495 345.358102 
L 477.189627 359.795907 
L 479.55076 317.756584 
L 481.911893 345.393462 
L 484.273025 359.757741 
L 486.634158 316.636982 
L 488.995291 345.38392 
L 491.356423 359.72224 
L 493.717556 315.515696 
L 496.078689 345.424052 
L 498.439821 359.683231 
L 500.800954 314.691183 
L 503.162086 345.433874 
L 505.523219 359.62542 
L 507.884352 313.695903 
L 510.245484 345.411002 
L 512.606617 359.593989 
L 514.96775 312.454925 
L 517.328882 345.404688 
L 519.690015 359.529021 
L 522.051148 311.518298 
L 524.41228 345.40146 
L 526.773413 359.501659 
L 529.134545 310.53719 
L 531.495678 345.372695 
L 533.856811 359.4757 
L 536.217943 309.527738 
L 538.579076 345.4277 
L 540.940209 359.425747 
L 543.301341 308.466508 
L 545.662474 345.374519 
L 548.023607 359.35236 
L 550.384739 307.340872 
L 552.745872 345.377045 
L 555.107004 359.335662 
L 557.468137 306.407473 
L 559.82927 345.358944 
L 562.190402 359.267608 
L 564.551535 305.433381 
L 566.912668 345.365679 
L 569.2738 359.233791 
L 571.634933 304.400215 
L 573.996066 345.325408 
L 576.357198 359.148056 
L 578.718331 149.185633 
L 581.079463 357.586029 
L 583.440596 356.631862 
L 585.801729 357.211378 
L 588.162861 361.365371 
L 590.523994 356.580927 
L 592.885127 357.260209 
L 595.246259 361.370563 
L 597.607392 356.342946 
L 599.968525 357.267506 
L 602.329657 361.354426 
L 604.69079 356.06722 
L 607.051923 357.257262 
L 609.413055 361.345306 
L 611.774188 355.831765 
L 614.13532 357.263436 
L 616.496453 361.34278 
L 618.857586 355.430735 
L 621.218718 357.244774 
L 623.579851 361.330993 
L 625.940984 355.127927 
L 628.302116 357.235653 
L 630.663249 361.326082 
L 633.024382 354.84743 
L 635.385514 357.23397 
L 637.746647 361.315277 
L 640.107779 354.571423 
L 642.468912 357.253334 
L 644.830045 361.310507 
L 647.191177 354.306502 
L 649.55231 357.262174 
L 651.913443 361.302368 
L 654.274575 354.042983 
L 656.635708 357.280555 
L 658.996841 361.289599 
L 661.357973 353.782552 
L 663.719106 357.282099 
L 666.080238 361.284969 
L 668.441371 353.515105 
L 670.802504 357.281678 
L 673.163636 361.273041 
L 675.524769 353.225908 
L 680.247034 361.272761 
L 682.608167 352.974738 
L 684.9693 357.28687 
L 687.330432 361.259431 
L 689.691565 352.706448 
L 692.052697 357.295148 
L 694.41383 361.254519 
L 696.774963 352.39438 
L 699.136095 357.289395 
L 701.497228 361.249749 
L 703.858361 352.157662 
L 706.219493 357.277749 
L 708.580626 361.240067 
L 710.941759 351.924593 
L 713.302891 357.284344 
L 715.664024 361.236559 
L 718.025156 351.626276 
L 720.386289 357.296552 
L 722.747422 361.224912 
L 725.108554 351.355882 
L 727.469687 357.283081 
L 729.83082 361.216633 
L 732.191952 351.115656 
L 734.553085 357.292623 
L 736.914218 361.214108 
L 739.27535 350.847647 
L 741.636483 357.286168 
L 743.997615 361.206951 
L 746.358748 350.587497 
L 748.719881 357.292482 
L 751.081013 361.199935 
L 753.442146 350.252416 
L 755.803279 357.272557 
L 758.164411 361.188008 
L 760.525544 349.927017 
L 762.886677 357.235092 
L 765.247809 361.179449 
L 767.608942 349.613405 
L 769.970075 357.226813 
L 772.331207 361.169627 
L 774.69234 349.326453 
L 777.053472 357.253474 
L 779.414605 361.158682 
L 781.775738 349.050446 
L 784.13687 357.253474 
L 786.498003 361.155595 
L 788.859136 348.710314 
L 791.220268 357.284204 
L 793.581401 361.151666 
L 795.942534 348.460968 
L 798.303666 357.285046 
L 800.664799 361.14016 
L 803.025931 348.215831 
L 805.387064 357.280976 
L 807.748197 361.138757 
L 810.109329 262.351911 
L 812.470462 360.802834 
L 814.831595 361.390488 
L 817.192727 361.502182 
L 817.192727 361.502182 
" clip-path="url(#p8e7eb3b144)" style="fill: none; stroke: #6495ed; stroke-width: 3; stroke-linecap: square"/>
   </g>
   <g id="line2d_23">
    <path d="M 97.047273 345.356169 
L 99.408405 359.804015 
L 101.769538 357.204705 
L 104.130671 351.305757 
L 106.491803 360.314665 
L 108.852936 356.998764 
L 111.214069 351.548586 
L 113.575201 360.105123 
L 115.936334 356.575641 
L 118.297466 351.556007 
L 120.658599 359.870806 
L 123.019732 356.224658 
L 125.380864 351.594423 
L 127.741997 359.654388 
L 130.10313 354.75535 
L 132.464262 351.577616 
L 134.825395 359.410904 
L 137.186528 354.387014 
L 139.54766 351.572378 
L 141.908793 359.182153 
L 144.269925 354.668477 
L 146.631058 360.448794 
L 148.992191 359.131623 
L 151.353323 358.197959 
L 153.714456 360.742045 
L 156.075589 359.068979 
L 158.436721 358.218149 
L 160.797854 360.690096 
L 163.158987 358.953949 
L 165.520119 358.242923 
L 167.881252 360.641093 
L 170.242385 358.66801 
L 172.603517 358.22557 
L 174.96465 360.581286 
L 177.325782 358.566513 
L 179.686915 358.245651 
L 182.048048 360.517769 
L 184.40918 358.480732 
L 186.770313 358.239321 
L 189.131446 360.46451 
L 191.492578 358.308841 
L 193.853711 358.240085 
L 196.214844 360.410269 
L 198.575976 358.235065 
L 200.937109 358.229936 
L 203.298241 360.340203 
L 205.659374 358.16489 
L 208.020507 358.236156 
L 210.381639 360.293165 
L 212.742772 358.290288 
L 215.103905 358.236266 
L 217.465037 360.242853 
L 219.82617 358.235611 
L 222.187303 358.241722 
L 224.548435 360.167767 
L 226.909568 358.179624 
L 229.2707 358.239758 
L 231.631833 360.133171 
L 233.992966 355.545936 
L 236.354098 360.78308 
L 238.715231 359.891324 
L 241.076364 359.907367 
L 243.437496 360.898219 
L 245.798629 359.887068 
L 248.159762 359.927557 
L 250.520894 360.899529 
L 252.882027 359.85509 
L 255.243159 359.919699 
L 257.604292 360.887524 
L 259.965425 359.824532 
L 262.326557 359.923847 
L 264.68769 360.867552 
L 267.048823 359.780878 
L 269.409955 359.928212 
L 271.771088 360.862859 
L 274.132221 359.590652 
L 276.493353 359.905075 
L 278.854486 360.844742 
L 281.215618 359.627431 
L 283.576751 359.90704 
L 285.937884 360.823242 
L 288.299016 359.550163 
L 290.660149 359.915334 
L 293.021282 360.827062 
L 295.382414 359.58334 
L 297.743547 359.912824 
L 300.10468 360.794539 
L 302.465812 359.565442 
L 304.826945 359.916753 
L 307.188077 360.771839 
L 309.54921 359.553437 
L 311.910343 359.926793 
L 314.271475 360.774131 
L 316.632608 359.544378 
L 318.993741 359.932359 
L 321.354873 360.759397 
L 323.716006 359.514911 
L 326.077139 359.930286 
L 328.438271 360.747065 
L 330.799404 359.470165 
L 333.160537 359.931268 
L 335.521669 360.734296 
L 337.882802 359.44299 
L 340.243934 359.920245 
L 342.605067 360.720981 
L 344.9662 359.405011 
L 347.327332 359.93356 
L 349.688465 360.707121 
L 352.049598 359.377399 
L 354.41073 359.915443 
L 356.771863 360.691405 
L 359.132996 359.352188 
L 361.494128 359.919045 
L 363.855261 360.684202 
L 366.216393 359.322612 
L 370.938659 360.651134 
L 373.299791 359.295437 
L 378.022057 360.642075 
L 380.383189 359.246762 
L 385.105455 360.635418 
L 387.466587 359.219697 
L 392.188852 360.609225 
L 394.549985 359.189575 
L 399.27225 360.611081 
L 401.633383 359.144174 
L 403.994516 359.941199 
L 406.355648 360.591982 
L 408.716781 359.124202 
L 411.077914 359.924611 
L 413.439046 360.555312 
L 415.800179 358.853979 
L 418.161311 359.933451 
L 420.522444 360.567098 
L 422.883577 358.890322 
L 425.244709 359.927448 
L 427.605842 360.544944 
L 429.966975 358.805959 
L 432.328107 359.929958 
L 434.68924 360.523116 
L 437.050373 358.833898 
L 439.411505 359.919372 
L 441.772638 360.518751 
L 444.13377 358.711774 
L 446.494903 359.926902 
L 448.856036 360.499325 
L 451.217168 358.761977 
L 453.578301 359.927448 
L 455.939434 360.480007 
L 458.300566 358.657533 
L 460.661699 359.922646 
L 463.022832 360.47968 
L 465.383964 358.662226 
L 467.745097 359.925484 
L 470.10623 360.454142 
L 472.467362 358.578409 
L 474.828495 359.935306 
L 477.189627 360.448249 
L 479.55076 358.657424 
L 481.911893 359.923083 
L 484.273025 360.429259 
L 486.634158 358.497975 
L 488.995291 359.931704 
L 491.356423 360.425876 
L 493.717556 358.539338 
L 496.078689 359.923847 
L 498.439821 360.405685 
L 500.800954 358.431293 
L 503.162086 359.928212 
L 505.523219 360.400119 
L 507.884352 358.446572 
L 510.245484 359.935197 
L 512.606617 360.386586 
L 514.96775 358.360136 
L 517.328882 359.933996 
L 519.690015 360.360175 
L 522.051148 358.378143 
L 524.41228 359.93105 
L 526.773413 360.357992 
L 529.134545 358.276537 
L 531.495678 359.925702 
L 533.856811 360.32547 
L 536.217943 358.325867 
L 538.579076 359.929194 
L 540.940209 360.320886 
L 543.301341 358.202106 
L 545.662474 359.914133 
L 548.023607 360.305934 
L 550.384739 358.258857 
L 552.745872 359.92341 
L 555.107004 360.28367 
L 557.468137 358.123527 
L 559.82927 359.925375 
L 562.190402 360.260643 
L 564.551535 358.160852 
L 566.912668 359.914679 
L 569.2738 360.27363 
L 571.634933 358.048878 
L 573.996066 359.924501 
L 576.357198 360.239143 
L 578.718331 353.532255 
L 581.079463 360.924303 
L 583.440596 360.001225 
L 585.801729 359.981034 
L 588.162861 360.975706 
L 590.523994 360.029709 
L 592.885127 360.01945 
L 595.246259 360.992513 
L 597.607392 360.032983 
L 599.968525 360.025999 
L 602.329657 360.992077 
L 604.69079 360.016067 
L 607.051923 360.022834 
L 609.413055 360.96381 
L 611.774188 360.025453 
L 614.13532 360.027745 
L 616.496453 360.968176 
L 618.857586 359.987582 
L 621.218718 360.022943 
L 623.579851 360.96763 
L 625.940984 359.967938 
L 628.302116 360.022724 
L 630.663249 360.94995 
L 633.024382 359.965209 
L 635.385514 360.026326 
L 637.746647 360.964356 
L 640.107779 359.976123 
L 642.468912 360.037676 
L 644.830045 360.963046 
L 647.191177 359.962808 
L 649.55231 360.019778 
L 651.913443 360.946894 
L 654.274575 359.925047 
L 656.635708 360.022943 
L 658.996841 360.938491 
L 661.357973 359.916425 
L 663.719106 360.02829 
L 666.080238 360.938382 
L 668.441371 359.912933 
L 670.802504 360.025235 
L 673.163636 360.941001 
L 675.524769 359.898527 
L 677.885902 360.023707 
L 680.247034 360.942092 
L 682.608167 359.907258 
L 684.9693 360.018905 
L 687.330432 360.932161 
L 689.691565 359.868733 
L 692.052697 360.041387 
L 694.41383 360.929323 
L 696.774963 359.859238 
L 699.136095 360.023598 
L 701.497228 360.920374 
L 703.858361 359.837847 
L 706.219493 360.021197 
L 708.580626 360.91459 
L 710.941759 359.860875 
L 713.302891 360.013775 
L 715.664024 360.918519 
L 718.025156 359.880192 
L 720.386289 360.023161 
L 722.747422 360.914917 
L 725.108554 359.884448 
L 727.469687 360.024143 
L 729.83082 360.91328 
L 732.191952 359.887286 
L 734.553085 360.032983 
L 736.914218 360.885778 
L 739.27535 359.897436 
L 741.636483 360.024471 
L 743.997615 360.894945 
L 746.358748 359.846032 
L 748.719881 360.02458 
L 751.081013 360.892981 
L 753.442146 359.853235 
L 755.803279 360.036148 
L 758.164411 360.892981 
L 760.525544 359.849197 
L 762.886677 360.025453 
L 765.247809 360.893963 
L 767.608942 359.868405 
L 769.970075 360.021633 
L 772.331207 360.892653 
L 774.69234 359.782842 
L 777.053472 360.014539 
L 779.414605 360.878465 
L 781.775738 359.782733 
L 784.13687 360.021524 
L 786.498003 360.873663 
L 788.859136 359.788517 
L 791.220268 360.024798 
L 793.581401 360.872354 
L 795.942534 359.790918 
L 798.303666 360.030801 
L 800.664799 360.876828 
L 803.025931 359.769527 
L 805.387064 360.034402 
L 807.748197 360.876283 
L 810.109329 356.553487 
L 812.470462 360.490921 
L 814.831595 355.084725 
L 817.192727 361.482319 
L 817.192727 361.482319 
" clip-path="url(#p8e7eb3b144)" style="fill: none; stroke: #00ff00; stroke-width: 3; stroke-linecap: square"/>
   </g>
   <g id="patch_3">
    <path d="M 61.04 375.64 
L 61.04 64.608 
" style="fill: none; stroke: #000000; stroke-width: 0.8; stroke-linejoin: miter; stroke-linecap: square"/>
   </g>
   <g id="patch_4">
    <path d="M 853.2 375.64 
L 853.2 64.608 
" style="fill: none; stroke: #000000; stroke-width: 0.8; stroke-linejoin: miter; stroke-linecap: square"/>
   </g>
   <g id="patch_5">
    <path d="M 61.04 375.64 
L 853.2 375.64 
" style="fill: none; stroke: #000000; stroke-width: 0.8; stroke-linejoin: miter; stroke-linecap: square"/>
   </g>
   <g id="patch_6">
    <path d="M 61.04 64.608 
L 853.2 64.608 
" style="fill: none; stroke: #000000; stroke-width: 0.8; stroke-linejoin: miter; stroke-linecap: square"/>
   </g>
   <g id="text_17">
    <!-- [nano] -->
    <g transform="translate(416.21375 30.613469) scale(0.25 -0.25)">
     <defs>
      <path id="DejaVuSans-5b" d="M 550 4863 
L 1875 4863 
L 1875 4416 
L 1125 4416 
L 1125 -397 
L 1875 -397 
L 1875 -844 
L 550 -844 
L 550 4863 
z
" transform="scale(0.015625)"/>
      <path id="DejaVuSans-5d" d="M 1947 4863 
L 1947 -844 
L 622 -844 
L 622 -397 
L 1369 -397 
L 1369 4416 
L 622 4416 
L 622 4863 
L 1947 4863 
z
" transform="scale(0.015625)"/>
     </defs>
     <use xlink:href="#DejaVuSans-5b"/>
     <use xlink:href="#DejaVuSans-6e" x="39.013672"/>
     <use xlink:href="#DejaVuSans-61" x="102.392578"/>
     <use xlink:href="#DejaVuSans-6e" x="163.671875"/>
     <use xlink:href="#DejaVuSans-6f" x="227.050781"/>
     <use xlink:href="#DejaVuSans-5d" x="288.232422"/>
    </g>
    <!-- CPU vs GPU Inference Times with densenet201 -->
    <g transform="translate(163.114141 58.608) scale(0.25 -0.25)">
     <defs>
      <path id="DejaVuSans-43" d="M 4122 4306 
L 4122 3641 
Q 3803 3938 3442 4084 
Q 3081 4231 2675 4231 
Q 1875 4231 1450 3742 
Q 1025 3253 1025 2328 
Q 1025 1406 1450 917 
Q 1875 428 2675 428 
Q 3081 428 3442 575 
Q 3803 722 4122 1019 
L 4122 359 
Q 3791 134 3420 21 
Q 3050 -91 2638 -91 
Q 1578 -91 968 557 
Q 359 1206 359 2328 
Q 359 3453 968 4101 
Q 1578 4750 2638 4750 
Q 3056 4750 3426 4639 
Q 3797 4528 4122 4306 
z
" transform="scale(0.015625)"/>
      <path id="DejaVuSans-50" d="M 1259 4147 
L 1259 2394 
L 2053 2394 
Q 2494 2394 2734 2622 
Q 2975 2850 2975 3272 
Q 2975 3691 2734 3919 
Q 2494 4147 2053 4147 
L 1259 4147 
z
M 628 4666 
L 2053 4666 
Q 2838 4666 3239 4311 
Q 3641 3956 3641 3272 
Q 3641 2581 3239 2228 
Q 2838 1875 2053 1875 
L 1259 1875 
L 1259 0 
L 628 0 
L 628 4666 
z
" transform="scale(0.015625)"/>
      <path id="DejaVuSans-55" d="M 556 4666 
L 1191 4666 
L 1191 1831 
Q 1191 1081 1462 751 
Q 1734 422 2344 422 
Q 2950 422 3222 751 
Q 3494 1081 3494 1831 
L 3494 4666 
L 4128 4666 
L 4128 1753 
Q 4128 841 3676 375 
Q 3225 -91 2344 -91 
Q 1459 -91 1007 375 
Q 556 841 556 1753 
L 556 4666 
z
" transform="scale(0.015625)"/>
      <path id="DejaVuSans-76" d="M 191 3500 
L 800 3500 
L 1894 563 
L 2988 3500 
L 3597 3500 
L 2284 0 
L 1503 0 
L 191 3500 
z
" transform="scale(0.015625)"/>
      <path id="DejaVuSans-47" d="M 3809 666 
L 3809 1919 
L 2778 1919 
L 2778 2438 
L 4434 2438 
L 4434 434 
Q 4069 175 3628 42 
Q 3188 -91 2688 -91 
Q 1594 -91 976 548 
Q 359 1188 359 2328 
Q 359 3472 976 4111 
Q 1594 4750 2688 4750 
Q 3144 4750 3555 4637 
Q 3966 4525 4313 4306 
L 4313 3634 
Q 3963 3931 3569 4081 
Q 3175 4231 2741 4231 
Q 1884 4231 1454 3753 
Q 1025 3275 1025 2328 
Q 1025 1384 1454 906 
Q 1884 428 2741 428 
Q 3075 428 3337 486 
Q 3600 544 3809 666 
z
" transform="scale(0.015625)"/>
      <path id="DejaVuSans-66" d="M 2375 4863 
L 2375 4384 
L 1825 4384 
Q 1516 4384 1395 4259 
Q 1275 4134 1275 3809 
L 1275 3500 
L 2222 3500 
L 2222 3053 
L 1275 3053 
L 1275 0 
L 697 0 
L 697 3053 
L 147 3053 
L 147 3500 
L 697 3500 
L 697 3744 
Q 697 4328 969 4595 
Q 1241 4863 1831 4863 
L 2375 4863 
z
" transform="scale(0.015625)"/>
      <path id="DejaVuSans-77" d="M 269 3500 
L 844 3500 
L 1563 769 
L 2278 3500 
L 2956 3500 
L 3675 769 
L 4391 3500 
L 4966 3500 
L 4050 0 
L 3372 0 
L 2619 2869 
L 1863 0 
L 1184 0 
L 269 3500 
z
" transform="scale(0.015625)"/>
      <path id="DejaVuSans-68" d="M 3513 2113 
L 3513 0 
L 2938 0 
L 2938 2094 
Q 2938 2591 2744 2837 
Q 2550 3084 2163 3084 
Q 1697 3084 1428 2787 
Q 1159 2491 1159 1978 
L 1159 0 
L 581 0 
L 581 4863 
L 1159 4863 
L 1159 2956 
Q 1366 3272 1645 3428 
Q 1925 3584 2291 3584 
Q 2894 3584 3203 3211 
Q 3513 2838 3513 2113 
z
" transform="scale(0.015625)"/>
     </defs>
     <use xlink:href="#DejaVuSans-43"/>
     <use xlink:href="#DejaVuSans-50" x="69.824219"/>
     <use xlink:href="#DejaVuSans-55" x="130.126953"/>
     <use xlink:href="#DejaVuSans-20" x="203.320312"/>
     <use xlink:href="#DejaVuSans-76" x="235.107422"/>
     <use xlink:href="#DejaVuSans-73" x="294.287109"/>
     <use xlink:href="#DejaVuSans-20" x="346.386719"/>
     <use xlink:href="#DejaVuSans-47" x="378.173828"/>
     <use xlink:href="#DejaVuSans-50" x="455.664062"/>
     <use xlink:href="#DejaVuSans-55" x="515.966797"/>
     <use xlink:href="#DejaVuSans-20" x="589.160156"/>
     <use xlink:href="#DejaVuSans-49" x="620.947266"/>
     <use xlink:href="#DejaVuSans-6e" x="650.439453"/>
     <use xlink:href="#DejaVuSans-66" x="713.818359"/>
     <use xlink:href="#DejaVuSans-65" x="749.023438"/>
     <use xlink:href="#DejaVuSans-72" x="810.546875"/>
     <use xlink:href="#DejaVuSans-65" x="849.410156"/>
     <use xlink:href="#DejaVuSans-6e" x="910.933594"/>
     <use xlink:href="#DejaVuSans-63" x="974.3125"/>
     <use xlink:href="#DejaVuSans-65" x="1029.292969"/>
     <use xlink:href="#DejaVuSans-20" x="1090.816406"/>
     <use xlink:href="#DejaVuSans-54" x="1122.603516"/>
     <use xlink:href="#DejaVuSans-69" x="1180.5625"/>
     <use xlink:href="#DejaVuSans-6d" x="1208.345703"/>
     <use xlink:href="#DejaVuSans-65" x="1305.757812"/>
     <use xlink:href="#DejaVuSans-73" x="1367.28125"/>
     <use xlink:href="#DejaVuSans-20" x="1419.380859"/>
     <use xlink:href="#DejaVuSans-77" x="1451.167969"/>
     <use xlink:href="#DejaVuSans-69" x="1532.955078"/>
     <use xlink:href="#DejaVuSans-74" x="1560.738281"/>
     <use xlink:href="#DejaVuSans-68" x="1599.947266"/>
     <use xlink:href="#DejaVuSans-20" x="1663.326172"/>
     <use xlink:href="#DejaVuSans-64" x="1695.113281"/>
     <use xlink:href="#DejaVuSans-65" x="1758.589844"/>
     <use xlink:href="#DejaVuSans-6e" x="1820.113281"/>
     <use xlink:href="#DejaVuSans-73" x="1883.492188"/>
     <use xlink:href="#DejaVuSans-65" x="1935.591797"/>
     <use xlink:href="#DejaVuSans-6e" x="1997.115234"/>
     <use xlink:href="#DejaVuSans-65" x="2060.494141"/>
     <use xlink:href="#DejaVuSans-74" x="2122.017578"/>
     <use xlink:href="#DejaVuSans-32" x="2161.226562"/>
     <use xlink:href="#DejaVuSans-30" x="2224.849609"/>
     <use xlink:href="#DejaVuSans-31" x="2288.472656"/>
    </g>
   </g>
   <g id="legend_1">
    <g id="patch_7">
     <path d="M 632.671875 139.3205 
L 839.2 139.3205 
Q 843.2 139.3205 843.2 135.3205 
L 843.2 78.608 
Q 843.2 74.608 839.2 74.608 
L 632.671875 74.608 
Q 628.671875 74.608 628.671875 78.608 
L 628.671875 135.3205 
Q 628.671875 139.3205 632.671875 139.3205 
z
" style="fill: #ffffff; opacity: 0.8; stroke: #cccccc; stroke-linejoin: miter"/>
    </g>
    <g id="line2d_24">
     <path d="M 636.671875 90.804875 
L 656.671875 90.804875 
L 676.671875 90.804875 
" style="fill: none; stroke: #6495ed; stroke-width: 3; stroke-linecap: square"/>
    </g>
    <g id="text_18">
     <!-- CPU Inference -->
     <g transform="translate(692.671875 97.804875) scale(0.2 -0.2)">
      <use xlink:href="#DejaVuSans-43"/>
      <use xlink:href="#DejaVuSans-50" x="69.824219"/>
      <use xlink:href="#DejaVuSans-55" x="130.126953"/>
      <use xlink:href="#DejaVuSans-20" x="203.320312"/>
      <use xlink:href="#DejaVuSans-49" x="235.107422"/>
      <use xlink:href="#DejaVuSans-6e" x="264.599609"/>
      <use xlink:href="#DejaVuSans-66" x="327.978516"/>
      <use xlink:href="#DejaVuSans-65" x="363.183594"/>
      <use xlink:href="#DejaVuSans-72" x="424.707031"/>
      <use xlink:href="#DejaVuSans-65" x="463.570312"/>
      <use xlink:href="#DejaVuSans-6e" x="525.09375"/>
      <use xlink:href="#DejaVuSans-63" x="588.472656"/>
      <use xlink:href="#DejaVuSans-65" x="643.453125"/>
     </g>
    </g>
    <g id="line2d_25">
     <path d="M 636.671875 120.161125 
L 656.671875 120.161125 
L 676.671875 120.161125 
" style="fill: none; stroke: #00ff00; stroke-width: 3; stroke-linecap: square"/>
    </g>
    <g id="text_19">
     <!-- GPU Inference -->
     <g transform="translate(692.671875 127.161125) scale(0.2 -0.2)">
      <use xlink:href="#DejaVuSans-47"/>
      <use xlink:href="#DejaVuSans-50" x="77.490234"/>
      <use xlink:href="#DejaVuSans-55" x="137.792969"/>
      <use xlink:href="#DejaVuSans-20" x="210.986328"/>
      <use xlink:href="#DejaVuSans-49" x="242.773438"/>
      <use xlink:href="#DejaVuSans-6e" x="272.265625"/>
      <use xlink:href="#DejaVuSans-66" x="335.644531"/>
      <use xlink:href="#DejaVuSans-65" x="370.849609"/>
      <use xlink:href="#DejaVuSans-72" x="432.373047"/>
      <use xlink:href="#DejaVuSans-65" x="471.236328"/>
      <use xlink:href="#DejaVuSans-6e" x="532.759766"/>
      <use xlink:href="#DejaVuSans-63" x="596.138672"/>
      <use xlink:href="#DejaVuSans-65" x="651.119141"/>
     </g>
    </g>
   </g>
  </g>
 </g>
 <defs>
  <clipPath id="p8e7eb3b144">
   <rect x="61.04" y="64.608" width="792.16" height="311.032"/>
  </clipPath>
 </defs>
</svg>
