<?xml version="1.0" encoding="utf-8" standalone="no"?>
<!DOCTYPE svg PUBLIC "-//W3C//DTD SVG 1.1//EN"
  "http://www.w3.org/Graphics/SVG/1.1/DTD/svg11.dtd">
<svg xmlns:xlink="http://www.w3.org/1999/xlink" width="864pt" height="432pt" viewBox="0 0 864 432" xmlns="http://www.w3.org/2000/svg" version="1.1">
 <metadata>
  <rdf:RDF xmlns:dc="http://purl.org/dc/elements/1.1/" xmlns:cc="http://creativecommons.org/ns#" xmlns:rdf="http://www.w3.org/1999/02/22-rdf-syntax-ns#">
   <cc:Work>
    <dc:type rdf:resource="http://purl.org/dc/dcmitype/StillImage"/>
    <dc:date>2025-01-08T16:38:11.974997</dc:date>
    <dc:format>image/svg+xml</dc:format>
    <dc:creator>
     <cc:Agent>
      <dc:title>Matplotlib v3.9.2, https://matplotlib.org/</dc:title>
     </cc:Agent>
    </dc:creator>
   </cc:Work>
  </rdf:RDF>
 </metadata>
 <defs>
  <style type="text/css">*{stroke-linejoin: round; stroke-linecap: butt}</style>
 </defs>
 <g id="figure_1">
  <g id="patch_1">
   <path d="M 0 432 
L 864 432 
L 864 0 
L 0 0 
z
" style="fill: #ffffff"/>
  </g>
  <g id="axes_1">
   <g id="patch_2">
    <path d="M 61.04 375.64 
L 853.2 375.64 
L 853.2 36.24 
L 61.04 36.24 
z
" style="fill: #ffffff"/>
   </g>
   <g id="matplotlib.axis_1">
    <g id="xtick_1">
     <g id="line2d_1">
      <defs>
       <path id="mf248204cf4" d="M 0 0 
L 0 3.5 
" style="stroke: #000000; stroke-width: 0.8"/>
      </defs>
      <g>
       <use xlink:href="#mf248204cf4" x="97.047273" y="375.64" style="stroke: #000000; stroke-width: 0.8"/>
      </g>
     </g>
     <g id="text_1">
      <!-- 0 -->
      <g transform="translate(92.275398 394.037656) scale(0.15 -0.15)">
       <defs>
        <path id="DejaVuSans-30" d="M 2034 4250 
Q 1547 4250 1301 3770 
Q 1056 3291 1056 2328 
Q 1056 1369 1301 889 
Q 1547 409 2034 409 
Q 2525 409 2770 889 
Q 3016 1369 3016 2328 
Q 3016 3291 2770 3770 
Q 2525 4250 2034 4250 
z
M 2034 4750 
Q 2819 4750 3233 4129 
Q 3647 3509 3647 2328 
Q 3647 1150 3233 529 
Q 2819 -91 2034 -91 
Q 1250 -91 836 529 
Q 422 1150 422 2328 
Q 422 3509 836 4129 
Q 1250 4750 2034 4750 
z
" transform="scale(0.015625)"/>
       </defs>
       <use xlink:href="#DejaVuSans-30"/>
      </g>
     </g>
    </g>
    <g id="xtick_2">
     <g id="line2d_2">
      <g>
       <use xlink:href="#mf248204cf4" x="215.103905" y="375.64" style="stroke: #000000; stroke-width: 0.8"/>
      </g>
     </g>
     <g id="text_2">
      <!-- 50 -->
      <g transform="translate(205.560155 394.037656) scale(0.15 -0.15)">
       <defs>
        <path id="DejaVuSans-35" d="M 691 4666 
L 3169 4666 
L 3169 4134 
L 1269 4134 
L 1269 2991 
Q 1406 3038 1543 3061 
Q 1681 3084 1819 3084 
Q 2600 3084 3056 2656 
Q 3513 2228 3513 1497 
Q 3513 744 3044 326 
Q 2575 -91 1722 -91 
Q 1428 -91 1123 -41 
Q 819 9 494 109 
L 494 744 
Q 775 591 1075 516 
Q 1375 441 1709 441 
Q 2250 441 2565 725 
Q 2881 1009 2881 1497 
Q 2881 1984 2565 2268 
Q 2250 2553 1709 2553 
Q 1456 2553 1204 2497 
Q 953 2441 691 2322 
L 691 4666 
z
" transform="scale(0.015625)"/>
       </defs>
       <use xlink:href="#DejaVuSans-35"/>
       <use xlink:href="#DejaVuSans-30" x="63.623047"/>
      </g>
     </g>
    </g>
    <g id="xtick_3">
     <g id="line2d_3">
      <g>
       <use xlink:href="#mf248204cf4" x="333.160537" y="375.64" style="stroke: #000000; stroke-width: 0.8"/>
      </g>
     </g>
     <g id="text_3">
      <!-- 100 -->
      <g transform="translate(318.844912 394.037656) scale(0.15 -0.15)">
       <defs>
        <path id="DejaVuSans-31" d="M 794 531 
L 1825 531 
L 1825 4091 
L 703 3866 
L 703 4441 
L 1819 4666 
L 2450 4666 
L 2450 531 
L 3481 531 
L 3481 0 
L 794 0 
L 794 531 
z
" transform="scale(0.015625)"/>
       </defs>
       <use xlink:href="#DejaVuSans-31"/>
       <use xlink:href="#DejaVuSans-30" x="63.623047"/>
       <use xlink:href="#DejaVuSans-30" x="127.246094"/>
      </g>
     </g>
    </g>
    <g id="xtick_4">
     <g id="line2d_4">
      <g>
       <use xlink:href="#mf248204cf4" x="451.217168" y="375.64" style="stroke: #000000; stroke-width: 0.8"/>
      </g>
     </g>
     <g id="text_4">
      <!-- 150 -->
      <g transform="translate(436.901543 394.037656) scale(0.15 -0.15)">
       <use xlink:href="#DejaVuSans-31"/>
       <use xlink:href="#DejaVuSans-35" x="63.623047"/>
       <use xlink:href="#DejaVuSans-30" x="127.246094"/>
      </g>
     </g>
    </g>
    <g id="xtick_5">
     <g id="line2d_5">
      <g>
       <use xlink:href="#mf248204cf4" x="569.2738" y="375.64" style="stroke: #000000; stroke-width: 0.8"/>
      </g>
     </g>
     <g id="text_5">
      <!-- 200 -->
      <g transform="translate(554.958175 394.037656) scale(0.15 -0.15)">
       <defs>
        <path id="DejaVuSans-32" d="M 1228 531 
L 3431 531 
L 3431 0 
L 469 0 
L 469 531 
Q 828 903 1448 1529 
Q 2069 2156 2228 2338 
Q 2531 2678 2651 2914 
Q 2772 3150 2772 3378 
Q 2772 3750 2511 3984 
Q 2250 4219 1831 4219 
Q 1534 4219 1204 4116 
Q 875 4013 500 3803 
L 500 4441 
Q 881 4594 1212 4672 
Q 1544 4750 1819 4750 
Q 2544 4750 2975 4387 
Q 3406 4025 3406 3419 
Q 3406 3131 3298 2873 
Q 3191 2616 2906 2266 
Q 2828 2175 2409 1742 
Q 1991 1309 1228 531 
z
" transform="scale(0.015625)"/>
       </defs>
       <use xlink:href="#DejaVuSans-32"/>
       <use xlink:href="#DejaVuSans-30" x="63.623047"/>
       <use xlink:href="#DejaVuSans-30" x="127.246094"/>
      </g>
     </g>
    </g>
    <g id="xtick_6">
     <g id="line2d_6">
      <g>
       <use xlink:href="#mf248204cf4" x="687.330432" y="375.64" style="stroke: #000000; stroke-width: 0.8"/>
      </g>
     </g>
     <g id="text_6">
      <!-- 250 -->
      <g transform="translate(673.014807 394.037656) scale(0.15 -0.15)">
       <use xlink:href="#DejaVuSans-32"/>
       <use xlink:href="#DejaVuSans-35" x="63.623047"/>
       <use xlink:href="#DejaVuSans-30" x="127.246094"/>
      </g>
     </g>
    </g>
    <g id="xtick_7">
     <g id="line2d_7">
      <g>
       <use xlink:href="#mf248204cf4" x="805.387064" y="375.64" style="stroke: #000000; stroke-width: 0.8"/>
      </g>
     </g>
     <g id="text_7">
      <!-- 300 -->
      <g transform="translate(791.071439 394.037656) scale(0.15 -0.15)">
       <defs>
        <path id="DejaVuSans-33" d="M 2597 2516 
Q 3050 2419 3304 2112 
Q 3559 1806 3559 1356 
Q 3559 666 3084 287 
Q 2609 -91 1734 -91 
Q 1441 -91 1130 -33 
Q 819 25 488 141 
L 488 750 
Q 750 597 1062 519 
Q 1375 441 1716 441 
Q 2309 441 2620 675 
Q 2931 909 2931 1356 
Q 2931 1769 2642 2001 
Q 2353 2234 1838 2234 
L 1294 2234 
L 1294 2753 
L 1863 2753 
Q 2328 2753 2575 2939 
Q 2822 3125 2822 3475 
Q 2822 3834 2567 4026 
Q 2313 4219 1838 4219 
Q 1578 4219 1281 4162 
Q 984 4106 628 3988 
L 628 4550 
Q 988 4650 1302 4700 
Q 1616 4750 1894 4750 
Q 2613 4750 3031 4423 
Q 3450 4097 3450 3541 
Q 3450 3153 3228 2886 
Q 3006 2619 2597 2516 
z
" transform="scale(0.015625)"/>
       </defs>
       <use xlink:href="#DejaVuSans-33"/>
       <use xlink:href="#DejaVuSans-30" x="63.623047"/>
       <use xlink:href="#DejaVuSans-30" x="127.246094"/>
      </g>
     </g>
    </g>
    <g id="text_8">
     <!-- Layer Index -->
     <g transform="translate(398.52625 416.354062) scale(0.2 -0.2)">
      <defs>
       <path id="DejaVuSans-4c" d="M 628 4666 
L 1259 4666 
L 1259 531 
L 3531 531 
L 3531 0 
L 628 0 
L 628 4666 
z
" transform="scale(0.015625)"/>
       <path id="DejaVuSans-61" d="M 2194 1759 
Q 1497 1759 1228 1600 
Q 959 1441 959 1056 
Q 959 750 1161 570 
Q 1363 391 1709 391 
Q 2188 391 2477 730 
Q 2766 1069 2766 1631 
L 2766 1759 
L 2194 1759 
z
M 3341 1997 
L 3341 0 
L 2766 0 
L 2766 531 
Q 2569 213 2275 61 
Q 1981 -91 1556 -91 
Q 1019 -91 701 211 
Q 384 513 384 1019 
Q 384 1609 779 1909 
Q 1175 2209 1959 2209 
L 2766 2209 
L 2766 2266 
Q 2766 2663 2505 2880 
Q 2244 3097 1772 3097 
Q 1472 3097 1187 3025 
Q 903 2953 641 2809 
L 641 3341 
Q 956 3463 1253 3523 
Q 1550 3584 1831 3584 
Q 2591 3584 2966 3190 
Q 3341 2797 3341 1997 
z
" transform="scale(0.015625)"/>
       <path id="DejaVuSans-79" d="M 2059 -325 
Q 1816 -950 1584 -1140 
Q 1353 -1331 966 -1331 
L 506 -1331 
L 506 -850 
L 844 -850 
Q 1081 -850 1212 -737 
Q 1344 -625 1503 -206 
L 1606 56 
L 191 3500 
L 800 3500 
L 1894 763 
L 2988 3500 
L 3597 3500 
L 2059 -325 
z
" transform="scale(0.015625)"/>
       <path id="DejaVuSans-65" d="M 3597 1894 
L 3597 1613 
L 953 1613 
Q 991 1019 1311 708 
Q 1631 397 2203 397 
Q 2534 397 2845 478 
Q 3156 559 3463 722 
L 3463 178 
Q 3153 47 2828 -22 
Q 2503 -91 2169 -91 
Q 1331 -91 842 396 
Q 353 884 353 1716 
Q 353 2575 817 3079 
Q 1281 3584 2069 3584 
Q 2775 3584 3186 3129 
Q 3597 2675 3597 1894 
z
M 3022 2063 
Q 3016 2534 2758 2815 
Q 2500 3097 2075 3097 
Q 1594 3097 1305 2825 
Q 1016 2553 972 2059 
L 3022 2063 
z
" transform="scale(0.015625)"/>
       <path id="DejaVuSans-72" d="M 2631 2963 
Q 2534 3019 2420 3045 
Q 2306 3072 2169 3072 
Q 1681 3072 1420 2755 
Q 1159 2438 1159 1844 
L 1159 0 
L 581 0 
L 581 3500 
L 1159 3500 
L 1159 2956 
Q 1341 3275 1631 3429 
Q 1922 3584 2338 3584 
Q 2397 3584 2469 3576 
Q 2541 3569 2628 3553 
L 2631 2963 
z
" transform="scale(0.015625)"/>
       <path id="DejaVuSans-20" transform="scale(0.015625)"/>
       <path id="DejaVuSans-49" d="M 628 4666 
L 1259 4666 
L 1259 0 
L 628 0 
L 628 4666 
z
" transform="scale(0.015625)"/>
       <path id="DejaVuSans-6e" d="M 3513 2113 
L 3513 0 
L 2938 0 
L 2938 2094 
Q 2938 2591 2744 2837 
Q 2550 3084 2163 3084 
Q 1697 3084 1428 2787 
Q 1159 2491 1159 1978 
L 1159 0 
L 581 0 
L 581 3500 
L 1159 3500 
L 1159 2956 
Q 1366 3272 1645 3428 
Q 1925 3584 2291 3584 
Q 2894 3584 3203 3211 
Q 3513 2838 3513 2113 
z
" transform="scale(0.015625)"/>
       <path id="DejaVuSans-64" d="M 2906 2969 
L 2906 4863 
L 3481 4863 
L 3481 0 
L 2906 0 
L 2906 525 
Q 2725 213 2448 61 
Q 2172 -91 1784 -91 
Q 1150 -91 751 415 
Q 353 922 353 1747 
Q 353 2572 751 3078 
Q 1150 3584 1784 3584 
Q 2172 3584 2448 3432 
Q 2725 3281 2906 2969 
z
M 947 1747 
Q 947 1113 1208 752 
Q 1469 391 1925 391 
Q 2381 391 2643 752 
Q 2906 1113 2906 1747 
Q 2906 2381 2643 2742 
Q 2381 3103 1925 3103 
Q 1469 3103 1208 2742 
Q 947 2381 947 1747 
z
" transform="scale(0.015625)"/>
       <path id="DejaVuSans-78" d="M 3513 3500 
L 2247 1797 
L 3578 0 
L 2900 0 
L 1881 1375 
L 863 0 
L 184 0 
L 1544 1831 
L 300 3500 
L 978 3500 
L 1906 2253 
L 2834 3500 
L 3513 3500 
z
" transform="scale(0.015625)"/>
      </defs>
      <use xlink:href="#DejaVuSans-4c"/>
      <use xlink:href="#DejaVuSans-61" x="55.712891"/>
      <use xlink:href="#DejaVuSans-79" x="116.992188"/>
      <use xlink:href="#DejaVuSans-65" x="176.171875"/>
      <use xlink:href="#DejaVuSans-72" x="237.695312"/>
      <use xlink:href="#DejaVuSans-20" x="278.808594"/>
      <use xlink:href="#DejaVuSans-49" x="310.595703"/>
      <use xlink:href="#DejaVuSans-6e" x="340.087891"/>
      <use xlink:href="#DejaVuSans-64" x="403.466797"/>
      <use xlink:href="#DejaVuSans-65" x="466.943359"/>
      <use xlink:href="#DejaVuSans-78" x="526.716797"/>
     </g>
    </g>
   </g>
   <g id="matplotlib.axis_2">
    <g id="ytick_1">
     <g id="line2d_8">
      <path d="M 61.04 360.223194 
L 853.2 360.223194 
" clip-path="url(#p4e34838e7d)" style="fill: none; stroke: #b0b0b0; stroke-opacity: 0.5; stroke-width: 0.8; stroke-linecap: square"/>
     </g>
     <g id="line2d_9">
      <defs>
       <path id="m1b99a95d2f" d="M 0 0 
L -3.5 0 
" style="stroke: #000000; stroke-width: 0.8"/>
      </defs>
      <g>
       <use xlink:href="#m1b99a95d2f" x="61.04" y="360.223194" style="stroke: #000000; stroke-width: 0.8"/>
      </g>
     </g>
     <g id="text_9">
      <!-- 0 -->
      <g transform="translate(44.49625 365.922022) scale(0.15 -0.15)">
       <use xlink:href="#DejaVuSans-30"/>
      </g>
     </g>
    </g>
    <g id="ytick_2">
     <g id="line2d_10">
      <path d="M 61.04 307.891368 
L 853.2 307.891368 
" clip-path="url(#p4e34838e7d)" style="fill: none; stroke: #b0b0b0; stroke-opacity: 0.5; stroke-width: 0.8; stroke-linecap: square"/>
     </g>
     <g id="line2d_11">
      <g>
       <use xlink:href="#m1b99a95d2f" x="61.04" y="307.891368" style="stroke: #000000; stroke-width: 0.8"/>
      </g>
     </g>
     <g id="text_10">
      <!-- 5 -->
      <g transform="translate(44.49625 313.590196) scale(0.15 -0.15)">
       <use xlink:href="#DejaVuSans-35"/>
      </g>
     </g>
    </g>
    <g id="ytick_3">
     <g id="line2d_12">
      <path d="M 61.04 255.559542 
L 853.2 255.559542 
" clip-path="url(#p4e34838e7d)" style="fill: none; stroke: #b0b0b0; stroke-opacity: 0.5; stroke-width: 0.8; stroke-linecap: square"/>
     </g>
     <g id="line2d_13">
      <g>
       <use xlink:href="#m1b99a95d2f" x="61.04" y="255.559542" style="stroke: #000000; stroke-width: 0.8"/>
      </g>
     </g>
     <g id="text_11">
      <!-- 10 -->
      <g transform="translate(34.9525 261.25837) scale(0.15 -0.15)">
       <use xlink:href="#DejaVuSans-31"/>
       <use xlink:href="#DejaVuSans-30" x="63.623047"/>
      </g>
     </g>
    </g>
    <g id="ytick_4">
     <g id="line2d_14">
      <path d="M 61.04 203.227716 
L 853.2 203.227716 
" clip-path="url(#p4e34838e7d)" style="fill: none; stroke: #b0b0b0; stroke-opacity: 0.5; stroke-width: 0.8; stroke-linecap: square"/>
     </g>
     <g id="line2d_15">
      <g>
       <use xlink:href="#m1b99a95d2f" x="61.04" y="203.227716" style="stroke: #000000; stroke-width: 0.8"/>
      </g>
     </g>
     <g id="text_12">
      <!-- 15 -->
      <g transform="translate(34.9525 208.926544) scale(0.15 -0.15)">
       <use xlink:href="#DejaVuSans-31"/>
       <use xlink:href="#DejaVuSans-35" x="63.623047"/>
      </g>
     </g>
    </g>
    <g id="ytick_5">
     <g id="line2d_16">
      <path d="M 61.04 150.89589 
L 853.2 150.89589 
" clip-path="url(#p4e34838e7d)" style="fill: none; stroke: #b0b0b0; stroke-opacity: 0.5; stroke-width: 0.8; stroke-linecap: square"/>
     </g>
     <g id="line2d_17">
      <g>
       <use xlink:href="#m1b99a95d2f" x="61.04" y="150.89589" style="stroke: #000000; stroke-width: 0.8"/>
      </g>
     </g>
     <g id="text_13">
      <!-- 20 -->
      <g transform="translate(34.9525 156.594719) scale(0.15 -0.15)">
       <use xlink:href="#DejaVuSans-32"/>
       <use xlink:href="#DejaVuSans-30" x="63.623047"/>
      </g>
     </g>
    </g>
    <g id="ytick_6">
     <g id="line2d_18">
      <path d="M 61.04 98.564065 
L 853.2 98.564065 
" clip-path="url(#p4e34838e7d)" style="fill: none; stroke: #b0b0b0; stroke-opacity: 0.5; stroke-width: 0.8; stroke-linecap: square"/>
     </g>
     <g id="line2d_19">
      <g>
       <use xlink:href="#m1b99a95d2f" x="61.04" y="98.564065" style="stroke: #000000; stroke-width: 0.8"/>
      </g>
     </g>
     <g id="text_14">
      <!-- 25 -->
      <g transform="translate(34.9525 104.262893) scale(0.15 -0.15)">
       <use xlink:href="#DejaVuSans-32"/>
       <use xlink:href="#DejaVuSans-35" x="63.623047"/>
      </g>
     </g>
    </g>
    <g id="ytick_7">
     <g id="line2d_20">
      <path d="M 61.04 46.232239 
L 853.2 46.232239 
" clip-path="url(#p4e34838e7d)" style="fill: none; stroke: #b0b0b0; stroke-opacity: 0.5; stroke-width: 0.8; stroke-linecap: square"/>
     </g>
     <g id="line2d_21">
      <g>
       <use xlink:href="#m1b99a95d2f" x="61.04" y="46.232239" style="stroke: #000000; stroke-width: 0.8"/>
      </g>
     </g>
     <g id="text_15">
      <!-- 30 -->
      <g transform="translate(34.9525 51.931067) scale(0.15 -0.15)">
       <use xlink:href="#DejaVuSans-33"/>
       <use xlink:href="#DejaVuSans-30" x="63.623047"/>
      </g>
     </g>
    </g>
    <g id="text_16">
     <!-- Execution Time (ms)    -->
     <g transform="translate(26.793125 318.119687) rotate(-90) scale(0.2 -0.2)">
      <defs>
       <path id="DejaVuSans-45" d="M 628 4666 
L 3578 4666 
L 3578 4134 
L 1259 4134 
L 1259 2753 
L 3481 2753 
L 3481 2222 
L 1259 2222 
L 1259 531 
L 3634 531 
L 3634 0 
L 628 0 
L 628 4666 
z
" transform="scale(0.015625)"/>
       <path id="DejaVuSans-63" d="M 3122 3366 
L 3122 2828 
Q 2878 2963 2633 3030 
Q 2388 3097 2138 3097 
Q 1578 3097 1268 2742 
Q 959 2388 959 1747 
Q 959 1106 1268 751 
Q 1578 397 2138 397 
Q 2388 397 2633 464 
Q 2878 531 3122 666 
L 3122 134 
Q 2881 22 2623 -34 
Q 2366 -91 2075 -91 
Q 1284 -91 818 406 
Q 353 903 353 1747 
Q 353 2603 823 3093 
Q 1294 3584 2113 3584 
Q 2378 3584 2631 3529 
Q 2884 3475 3122 3366 
z
" transform="scale(0.015625)"/>
       <path id="DejaVuSans-75" d="M 544 1381 
L 544 3500 
L 1119 3500 
L 1119 1403 
Q 1119 906 1312 657 
Q 1506 409 1894 409 
Q 2359 409 2629 706 
Q 2900 1003 2900 1516 
L 2900 3500 
L 3475 3500 
L 3475 0 
L 2900 0 
L 2900 538 
Q 2691 219 2414 64 
Q 2138 -91 1772 -91 
Q 1169 -91 856 284 
Q 544 659 544 1381 
z
M 1991 3584 
L 1991 3584 
z
" transform="scale(0.015625)"/>
       <path id="DejaVuSans-74" d="M 1172 4494 
L 1172 3500 
L 2356 3500 
L 2356 3053 
L 1172 3053 
L 1172 1153 
Q 1172 725 1289 603 
Q 1406 481 1766 481 
L 2356 481 
L 2356 0 
L 1766 0 
Q 1100 0 847 248 
Q 594 497 594 1153 
L 594 3053 
L 172 3053 
L 172 3500 
L 594 3500 
L 594 4494 
L 1172 4494 
z
" transform="scale(0.015625)"/>
       <path id="DejaVuSans-69" d="M 603 3500 
L 1178 3500 
L 1178 0 
L 603 0 
L 603 3500 
z
M 603 4863 
L 1178 4863 
L 1178 4134 
L 603 4134 
L 603 4863 
z
" transform="scale(0.015625)"/>
       <path id="DejaVuSans-6f" d="M 1959 3097 
Q 1497 3097 1228 2736 
Q 959 2375 959 1747 
Q 959 1119 1226 758 
Q 1494 397 1959 397 
Q 2419 397 2687 759 
Q 2956 1122 2956 1747 
Q 2956 2369 2687 2733 
Q 2419 3097 1959 3097 
z
M 1959 3584 
Q 2709 3584 3137 3096 
Q 3566 2609 3566 1747 
Q 3566 888 3137 398 
Q 2709 -91 1959 -91 
Q 1206 -91 779 398 
Q 353 888 353 1747 
Q 353 2609 779 3096 
Q 1206 3584 1959 3584 
z
" transform="scale(0.015625)"/>
       <path id="DejaVuSans-54" d="M -19 4666 
L 3928 4666 
L 3928 4134 
L 2272 4134 
L 2272 0 
L 1638 0 
L 1638 4134 
L -19 4134 
L -19 4666 
z
" transform="scale(0.015625)"/>
       <path id="DejaVuSans-6d" d="M 3328 2828 
Q 3544 3216 3844 3400 
Q 4144 3584 4550 3584 
Q 5097 3584 5394 3201 
Q 5691 2819 5691 2113 
L 5691 0 
L 5113 0 
L 5113 2094 
Q 5113 2597 4934 2840 
Q 4756 3084 4391 3084 
Q 3944 3084 3684 2787 
Q 3425 2491 3425 1978 
L 3425 0 
L 2847 0 
L 2847 2094 
Q 2847 2600 2669 2842 
Q 2491 3084 2119 3084 
Q 1678 3084 1418 2786 
Q 1159 2488 1159 1978 
L 1159 0 
L 581 0 
L 581 3500 
L 1159 3500 
L 1159 2956 
Q 1356 3278 1631 3431 
Q 1906 3584 2284 3584 
Q 2666 3584 2933 3390 
Q 3200 3197 3328 2828 
z
" transform="scale(0.015625)"/>
       <path id="DejaVuSans-28" d="M 1984 4856 
Q 1566 4138 1362 3434 
Q 1159 2731 1159 2009 
Q 1159 1288 1364 580 
Q 1569 -128 1984 -844 
L 1484 -844 
Q 1016 -109 783 600 
Q 550 1309 550 2009 
Q 550 2706 781 3412 
Q 1013 4119 1484 4856 
L 1984 4856 
z
" transform="scale(0.015625)"/>
       <path id="DejaVuSans-73" d="M 2834 3397 
L 2834 2853 
Q 2591 2978 2328 3040 
Q 2066 3103 1784 3103 
Q 1356 3103 1142 2972 
Q 928 2841 928 2578 
Q 928 2378 1081 2264 
Q 1234 2150 1697 2047 
L 1894 2003 
Q 2506 1872 2764 1633 
Q 3022 1394 3022 966 
Q 3022 478 2636 193 
Q 2250 -91 1575 -91 
Q 1294 -91 989 -36 
Q 684 19 347 128 
L 347 722 
Q 666 556 975 473 
Q 1284 391 1588 391 
Q 1994 391 2212 530 
Q 2431 669 2431 922 
Q 2431 1156 2273 1281 
Q 2116 1406 1581 1522 
L 1381 1569 
Q 847 1681 609 1914 
Q 372 2147 372 2553 
Q 372 3047 722 3315 
Q 1072 3584 1716 3584 
Q 2034 3584 2315 3537 
Q 2597 3491 2834 3397 
z
" transform="scale(0.015625)"/>
       <path id="DejaVuSans-29" d="M 513 4856 
L 1013 4856 
Q 1481 4119 1714 3412 
Q 1947 2706 1947 2009 
Q 1947 1309 1714 600 
Q 1481 -109 1013 -844 
L 513 -844 
Q 928 -128 1133 580 
Q 1338 1288 1338 2009 
Q 1338 2731 1133 3434 
Q 928 4138 513 4856 
z
" transform="scale(0.015625)"/>
      </defs>
      <use xlink:href="#DejaVuSans-45"/>
      <use xlink:href="#DejaVuSans-78" x="63.183594"/>
      <use xlink:href="#DejaVuSans-65" x="119.238281"/>
      <use xlink:href="#DejaVuSans-63" x="180.761719"/>
      <use xlink:href="#DejaVuSans-75" x="235.742188"/>
      <use xlink:href="#DejaVuSans-74" x="299.121094"/>
      <use xlink:href="#DejaVuSans-69" x="338.330078"/>
      <use xlink:href="#DejaVuSans-6f" x="366.113281"/>
      <use xlink:href="#DejaVuSans-6e" x="427.294922"/>
      <use xlink:href="#DejaVuSans-20" x="490.673828"/>
      <use xlink:href="#DejaVuSans-54" x="522.460938"/>
      <use xlink:href="#DejaVuSans-69" x="580.419922"/>
      <use xlink:href="#DejaVuSans-6d" x="608.203125"/>
      <use xlink:href="#DejaVuSans-65" x="705.615234"/>
      <use xlink:href="#DejaVuSans-20" x="767.138672"/>
      <use xlink:href="#DejaVuSans-28" x="798.925781"/>
      <use xlink:href="#DejaVuSans-6d" x="837.939453"/>
      <use xlink:href="#DejaVuSans-73" x="935.351562"/>
      <use xlink:href="#DejaVuSans-29" x="987.451172"/>
      <use xlink:href="#DejaVuSans-20" x="1026.464844"/>
      <use xlink:href="#DejaVuSans-20" x="1058.251953"/>
      <use xlink:href="#DejaVuSans-20" x="1090.039062"/>
     </g>
    </g>
   </g>
   <g id="line2d_22">
    <path d="M 97.047273 113.263626 
L 99.408405 328.895868 
L 101.769538 313.979951 
L 104.130671 52.41188 
L 106.491803 358.022267 
L 108.852936 297.568541 
L 111.214069 51.7054 
L 113.575201 357.195872 
L 115.936334 280.662072 
L 118.297466 51.81141 
L 120.658599 356.396391 
L 123.019732 263.7411 
L 125.380864 51.667273 
L 127.741997 355.599004 
L 130.10313 245.77678 
L 132.464262 51.778515 
L 134.825395 354.798028 
L 137.186528 228.941781 
L 139.54766 52.27492 
L 141.908793 353.988529 
L 144.269925 210.059412 
L 146.631058 344.507348 
L 148.992191 340.709852 
L 151.353323 287.748998 
L 153.714456 359.224403 
L 156.075589 336.818009 
L 158.436721 289.415093 
L 160.797854 359.050811 
L 163.158987 332.546087 
L 165.520119 289.414047 
L 167.881252 358.813075 
L 170.242385 328.348327 
L 172.603517 289.22326 
L 174.96465 358.582965 
L 179.686915 289.133847 
L 182.048048 358.318016 
L 184.40918 319.577513 
L 186.770313 289.012886 
L 189.131446 358.078336 
L 191.492578 315.114057 
L 193.853711 288.991505 
L 196.214844 357.866766 
L 198.575976 310.764385 
L 200.937109 288.70368 
L 203.298241 357.565634 
L 205.659374 306.48095 
L 208.020507 288.669739 
L 210.381639 357.356755 
L 212.742772 302.143689 
L 215.103905 288.459664 
L 217.465037 357.223085 
L 219.82617 297.93307 
L 222.187303 288.447553 
L 224.548435 356.970397 
L 226.909568 293.706004 
L 229.2707 288.384306 
L 231.631833 356.687955 
L 233.992966 224.777962 
L 236.354098 352.066606 
L 238.715231 350.852657 
L 241.076364 342.843944 
L 243.437496 359.874963 
L 245.798629 349.928028 
L 248.159762 343.180662 
L 250.520894 359.85418 
L 252.882027 348.846554 
L 255.243159 343.249441 
L 257.604292 359.819641 
L 259.965425 347.813972 
L 262.326557 343.272915 
L 264.68769 359.758487 
L 267.048823 346.838058 
L 269.409955 343.267981 
L 271.771088 359.731873 
L 274.132221 345.681226 
L 276.493353 343.254375 
L 278.854486 359.703613 
L 281.215618 344.639524 
L 283.576751 343.254076 
L 285.937884 359.652328 
L 288.299016 343.594831 
L 290.660149 343.248095 
L 293.021282 359.612855 
L 295.382414 342.437101 
L 297.743547 343.206529 
L 300.10468 359.559327 
L 302.465812 341.420817 
L 304.826945 343.207276 
L 307.188077 359.503706 
L 309.54921 340.426961 
L 311.910343 343.216397 
L 314.271475 359.465429 
L 316.632608 339.357448 
L 318.993741 343.221182 
L 321.354873 359.412947 
L 323.716006 338.329501 
L 326.077139 343.19053 
L 328.438271 359.378857 
L 330.799404 336.854791 
L 333.160537 343.16242 
L 335.521669 359.34372 
L 337.882802 335.799033 
L 340.243934 343.184848 
L 342.605067 359.299911 
L 344.9662 334.668068 
L 347.327332 343.168999 
L 349.688465 359.258494 
L 352.049598 333.546971 
L 354.41073 343.182306 
L 356.771863 359.221712 
L 359.132996 332.469832 
L 361.494128 343.156739 
L 363.855261 359.173118 
L 366.216393 331.425289 
L 368.577526 343.175877 
L 370.938659 359.142168 
L 373.299791 330.316004 
L 375.660924 343.187988 
L 378.022057 359.090733 
L 380.383189 329.230193 
L 382.744322 343.170046 
L 385.105455 359.032869 
L 387.466587 328.029552 
L 392.188852 358.976949 
L 394.549985 327.086383 
L 399.27225 358.96708 
L 401.633383 326.012234 
L 403.994516 343.133862 
L 406.355648 358.902787 
L 408.716781 324.863177 
L 411.077914 343.136853 
L 413.439046 358.855539 
L 415.800179 323.844202 
L 418.161311 343.139693 
L 420.522444 358.800964 
L 422.883577 322.62188 
L 425.244709 343.120555 
L 427.605842 358.733531 
L 429.966975 321.691719 
L 432.328107 343.114873 
L 434.68924 358.717682 
L 437.050373 320.529205 
L 439.411505 343.104855 
L 441.772638 358.65907 
L 444.13377 319.400332 
L 446.494903 343.105752 
L 448.856036 358.588048 
L 451.217168 318.356088 
L 453.578301 343.111135 
L 455.939434 358.56876 
L 458.300566 317.272371 
L 460.661699 343.103958 
L 463.022832 358.510298 
L 465.383964 316.215866 
L 467.745097 343.084222 
L 470.10623 358.474414 
L 472.467362 314.766125 
L 474.828495 343.067924 
L 477.189627 358.429259 
L 479.55076 313.607648 
L 481.911893 343.066279 
L 484.273025 358.377226 
L 486.634158 312.458441 
L 488.995291 343.089006 
L 491.356423 358.330127 
L 493.717556 311.415692 
L 496.078689 343.083923 
L 498.439821 358.297831 
L 500.800954 310.129376 
L 503.162086 343.091997 
L 505.523219 358.256414 
L 507.884352 309.213868 
L 510.245484 343.114425 
L 512.606617 358.207372 
L 514.96775 308.091126 
L 517.328882 343.068971 
L 519.690015 358.157432 
L 522.051148 306.987522 
L 524.41228 343.07839 
L 526.773413 358.108838 
L 529.134545 305.851922 
L 531.495678 343.070017 
L 533.856811 358.061889 
L 536.217943 304.842217 
L 538.579076 343.048486 
L 540.940209 357.997895 
L 543.301341 303.709905 
L 545.662474 343.051178 
L 548.023607 357.961562 
L 550.384739 302.628879 
L 552.745872 343.038917 
L 555.107004 357.902501 
L 557.468137 301.590167 
L 559.82927 343.051776 
L 562.190402 357.829835 
L 564.551535 300.520206 
L 566.912668 343.026358 
L 569.2738 357.800679 
L 571.634933 299.291006 
L 573.996066 342.982847 
L 576.357198 357.749543 
L 578.718331 133.878926 
L 581.079463 356.096306 
L 583.440596 354.996889 
L 585.801729 355.612311 
L 588.162861 360.064553 
L 590.523994 354.966088 
L 592.885127 355.659111 
L 595.246259 360.066348 
L 597.607392 354.689626 
L 599.968525 355.67182 
L 602.329657 360.055134 
L 604.69079 354.39283 
L 607.051923 355.67167 
L 609.413055 360.050499 
L 611.774188 354.163617 
L 614.13532 355.671521 
L 616.496453 360.03764 
L 618.857586 353.725375 
L 621.218718 355.648644 
L 623.579851 360.034351 
L 625.940984 353.406899 
L 628.302116 355.668531 
L 630.663249 360.01895 
L 633.024382 353.083338 
L 635.385514 355.689015 
L 637.746647 360.01282 
L 640.107779 352.802391 
L 642.468912 355.692454 
L 644.830045 360.003849 
L 647.191177 352.54776 
L 649.55231 355.689912 
L 651.913443 359.99727 
L 654.274575 352.259187 
L 656.635708 355.70292 
L 658.996841 359.992485 
L 661.357973 351.968521 
L 663.719106 355.705163 
L 666.080238 359.982019 
L 668.441371 351.705068 
L 670.802504 355.713237 
L 673.163636 359.971552 
L 675.524769 351.396011 
L 680.247034 359.968113 
L 682.608167 351.117905 
L 684.9693 355.714433 
L 687.330432 359.95346 
L 689.691565 350.82993 
L 692.052697 355.710994 
L 694.41383 359.949722 
L 696.774963 350.511154 
L 699.136095 355.714134 
L 701.497228 359.938209 
L 703.858361 350.25114 
L 706.219493 355.70292 
L 708.580626 359.930135 
L 710.941759 349.997256 
L 713.302891 355.69679 
L 715.664024 359.928491 
L 718.025156 349.68775 
L 720.386289 355.704116 
L 722.747422 359.917725 
L 725.108554 349.366882 
L 727.469687 355.704415 
L 729.83082 359.909352 
L 732.191952 349.111203 
L 734.553085 355.70905 
L 736.914218 359.899932 
L 739.27535 348.840872 
L 741.636483 355.705611 
L 743.997615 359.893055 
L 746.358748 348.570242 
L 748.719881 355.692753 
L 751.081013 359.887522 
L 753.442146 348.274642 
L 755.803279 355.689762 
L 758.164411 359.874365 
L 760.525544 347.862566 
L 762.886677 355.692454 
L 765.247809 359.859712 
L 767.608942 347.501476 
L 769.970075 355.679146 
L 772.331207 359.855077 
L 774.69234 347.194662 
L 777.053472 355.670474 
L 779.414605 359.846853 
L 781.775738 346.898913 
L 784.13687 355.705013 
L 786.498003 359.842517 
L 788.859136 346.608247 
L 791.220268 355.707854 
L 793.581401 359.835938 
L 795.942534 346.305171 
L 798.303666 355.701724 
L 800.664799 359.826369 
L 803.025931 345.987292 
L 805.387064 355.694397 
L 807.748197 359.811566 
L 810.109329 254.880125 
L 812.470462 359.460644 
L 814.831595 360.090869 
L 817.192727 360.212727 
L 817.192727 360.212727 
" clip-path="url(#p4e34838e7d)" style="fill: none; stroke: #6495ed; stroke-width: 3; stroke-linecap: square"/>
   </g>
   <g id="line2d_23">
    <path d="M 97.047273 342.87531 
L 99.408405 358.308314 
L 101.769538 355.596711 
L 104.130671 349.198622 
L 106.491803 358.935831 
L 108.852936 355.413317 
L 111.214069 349.563666 
L 113.575201 358.711269 
L 115.936334 354.948146 
L 118.297466 349.546106 
L 120.658599 358.473915 
L 123.019732 354.567286 
L 125.380864 349.608439 
L 127.741997 358.233072 
L 130.10313 352.997331 
L 132.464262 349.591809 
L 134.825395 357.986648 
L 137.186528 352.548092 
L 139.54766 349.534476 
L 141.908793 357.738479 
L 144.269925 352.900343 
L 146.631058 359.013514 
L 148.992191 357.670215 
L 151.353323 356.686958 
L 153.714456 359.388792 
L 156.075589 357.614278 
L 158.436721 356.694052 
L 160.797854 359.329948 
L 163.158987 357.505544 
L 165.520119 356.733707 
L 167.881252 359.27843 
L 170.242385 357.184575 
L 172.603517 356.705332 
L 174.96465 359.212957 
L 177.325782 357.079912 
L 179.686915 356.701611 
L 182.048048 359.156555 
L 184.40918 357.018742 
L 186.770313 356.511704 
L 189.131446 358.809769 
L 191.492578 356.730102 
L 193.853711 356.709635 
L 196.214844 359.041657 
L 198.575976 356.720683 
L 200.937109 356.500191 
L 203.298241 358.877452 
L 205.659374 356.647534 
L 208.020507 356.719869 
L 210.381639 358.764764 
L 212.742772 356.786737 
L 215.103905 356.711961 
L 217.465037 358.862682 
L 219.82617 356.695447 
L 222.187303 356.672654 
L 224.548435 358.777556 
L 226.909568 356.503215 
L 229.2707 356.71731 
L 231.631833 358.735691 
L 233.992966 353.869063 
L 236.354098 359.426587 
L 238.715231 358.517176 
L 241.076364 358.484498 
L 243.437496 359.541717 
L 245.798629 358.475543 
L 248.159762 358.492871 
L 250.520894 359.547532 
L 252.882027 358.445889 
L 255.243159 358.519735 
L 257.604292 359.461591 
L 259.965425 358.409256 
L 262.326557 358.514269 
L 264.68769 359.521831 
L 267.048823 358.376578 
L 269.409955 358.497871 
L 271.771088 359.398909 
L 274.132221 358.166088 
L 276.493353 358.490545 
L 278.854486 359.487757 
L 281.215618 358.173065 
L 283.576751 358.502058 
L 285.937884 359.477174 
L 288.299016 358.109104 
L 290.660149 358.500197 
L 293.021282 359.471243 
L 295.382414 358.165623 
L 297.743547 358.501593 
L 300.10468 359.446938 
L 302.465812 358.152133 
L 304.826945 358.515315 
L 307.188077 359.415074 
L 309.54921 358.141201 
L 311.910343 358.505896 
L 314.271475 359.419493 
L 316.632608 358.121199 
L 318.993741 358.505896 
L 321.354873 359.400654 
L 323.716006 358.08038 
L 326.077139 358.523921 
L 328.438271 359.397281 
L 330.799404 357.984438 
L 333.160537 358.520549 
L 335.521669 359.383326 
L 337.882802 358.001417 
L 340.243934 358.514501 
L 342.605067 359.358556 
L 344.9662 357.964436 
L 347.327332 358.521828 
L 349.688465 359.346461 
L 352.049598 357.934316 
L 354.41073 358.431701 
L 356.771863 359.328901 
L 359.132996 357.914895 
L 361.494128 358.514153 
L 363.855261 359.324598 
L 366.216393 357.883961 
L 368.577526 358.521944 
L 370.938659 359.296455 
L 373.299791 357.849189 
L 375.660924 358.496941 
L 378.022057 359.27308 
L 380.383189 357.796044 
L 382.744322 358.438911 
L 385.105455 359.268429 
L 387.466587 357.764063 
L 392.188852 359.25145 
L 394.549985 357.733013 
L 399.27225 359.236913 
L 401.633383 357.695334 
L 403.994516 358.519967 
L 406.355648 359.226796 
L 408.716781 357.655911 
L 411.077914 358.51392 
L 413.439046 359.188303 
L 415.800179 357.380064 
L 418.161311 358.517409 
L 420.522444 359.197955 
L 422.883577 357.421231 
L 425.244709 358.515664 
L 427.605842 359.169812 
L 429.966975 357.33029 
L 432.328107 358.505082 
L 434.68924 359.164928 
L 437.050373 357.360294 
L 439.411505 358.516246 
L 441.772638 359.155392 
L 444.13377 357.245513 
L 446.494903 358.510431 
L 448.856036 358.938505 
L 451.217168 357.063165 
L 453.578301 358.325409 
L 455.939434 359.10713 
L 458.300566 356.954083 
L 460.661699 358.409605 
L 463.022832 359.100036 
L 465.383964 357.006763 
L 467.745097 358.505198 
L 470.10623 358.91106 
L 472.467362 356.929196 
L 474.828495 358.509268 
L 477.189627 359.075382 
L 479.55076 357.113637 
L 481.911893 358.507175 
L 484.273025 359.037587 
L 486.634158 356.99525 
L 488.995291 358.360995 
L 491.356423 359.056427 
L 493.717556 357.045256 
L 496.078689 358.528457 
L 498.439821 359.030261 
L 500.800954 356.944663 
L 503.162086 358.5202 
L 505.523219 359.029795 
L 507.884352 356.952222 
L 510.245484 358.517409 
L 512.606617 359.012119 
L 514.96775 356.840232 
L 517.328882 358.511827 
L 519.690015 358.963276 
L 522.051148 356.890587 
L 524.41228 358.526363 
L 526.773413 358.975487 
L 529.134545 356.777317 
L 531.495678 358.517292 
L 533.856811 358.944553 
L 536.217943 356.819183 
L 538.579076 358.504849 
L 540.940209 358.922341 
L 543.301341 356.667421 
L 545.662474 358.484498 
L 548.023607 358.849541 
L 550.384739 356.74964 
L 552.745872 358.42984 
L 555.107004 358.907223 
L 557.468137 356.607413 
L 559.82927 358.50985 
L 562.190402 358.873963 
L 564.551535 356.631835 
L 566.912668 358.50357 
L 569.2738 358.885592 
L 571.634933 356.502285 
L 573.996066 358.50985 
L 576.357198 358.837563 
L 578.718331 351.726366 
L 581.079463 359.579163 
L 583.440596 358.61463 
L 585.801729 358.564158 
L 588.162861 359.576489 
L 590.523994 358.634167 
L 592.885127 358.596255 
L 595.246259 359.650567 
L 597.607392 358.614746 
L 599.968525 358.606954 
L 602.329657 359.640333 
L 604.69079 358.553576 
L 607.051923 358.61149 
L 609.413055 359.631611 
L 611.774188 358.639981 
L 614.13532 358.617421 
L 616.496453 359.627309 
L 618.857586 358.577765 
L 621.218718 358.612769 
L 623.579851 359.624634 
L 625.940984 358.554157 
L 628.302116 358.594278 
L 630.663249 359.619982 
L 633.024382 358.579044 
L 635.385514 358.610327 
L 637.746647 359.630448 
L 640.107779 358.575323 
L 642.468912 358.611839 
L 644.830045 359.626378 
L 647.191177 358.559623 
L 649.55231 358.611141 
L 651.913443 359.599863 
L 654.274575 358.517409 
L 656.635708 358.611955 
L 658.996841 359.59684 
L 661.357973 358.525898 
L 663.719106 358.584626 
L 666.080238 359.545089 
L 668.441371 358.517525 
L 670.802504 358.615327 
L 673.163636 359.610795 
L 675.524769 358.507524 
L 677.885902 358.623235 
L 680.247034 359.61033 
L 682.608167 358.511245 
L 684.9693 358.613932 
L 687.330432 359.593351 
L 689.691565 358.450773 
L 692.052697 358.429724 
L 694.41383 359.486827 
L 696.774963 358.450308 
L 699.136095 358.413559 
L 701.497228 359.571721 
L 703.858361 358.457285 
L 706.219493 358.609513 
L 708.580626 359.573 
L 710.941759 358.372857 
L 713.302891 358.596139 
L 715.664024 359.569278 
L 718.025156 358.47252 
L 720.386289 358.617886 
L 722.747422 359.57614 
L 725.108554 358.473101 
L 727.469687 358.620328 
L 729.83082 359.567418 
L 732.191952 358.47031 
L 734.553085 358.413675 
L 736.914218 359.444147 
L 739.27535 358.482172 
L 741.636483 358.609513 
L 743.997615 359.548462 
L 746.358748 358.441004 
L 748.719881 358.599279 
L 751.081013 359.545787 
L 753.442146 358.289823 
L 755.803279 358.625445 
L 758.164411 359.547648 
L 760.525544 358.445307 
L 762.886677 358.461588 
L 765.247809 359.395537 
L 767.608942 358.459727 
L 769.970075 358.623468 
L 772.331207 359.543927 
L 774.69234 358.379485 
L 777.053472 358.619165 
L 779.414605 359.54067 
L 781.775738 358.376462 
L 784.13687 358.620328 
L 786.498003 359.534623 
L 788.859136 358.374485 
L 791.220268 358.608931 
L 793.581401 359.531599 
L 795.942534 358.37995 
L 798.303666 358.62591 
L 800.664799 359.533111 
L 803.025931 358.355064 
L 805.387064 358.621491 
L 807.748197 359.533693 
L 810.109329 354.917909 
L 812.470462 359.111549 
L 814.831595 353.372027 
L 817.192727 360.191097 
L 817.192727 360.191097 
" clip-path="url(#p4e34838e7d)" style="fill: none; stroke: #00ff00; stroke-width: 3; stroke-linecap: square"/>
   </g>
   <g id="patch_3">
    <path d="M 61.04 375.64 
L 61.04 36.24 
" style="fill: none; stroke: #000000; stroke-width: 0.8; stroke-linejoin: miter; stroke-linecap: square"/>
   </g>
   <g id="patch_4">
    <path d="M 853.2 375.64 
L 853.2 36.24 
" style="fill: none; stroke: #000000; stroke-width: 0.8; stroke-linejoin: miter; stroke-linecap: square"/>
   </g>
   <g id="patch_5">
    <path d="M 61.04 375.64 
L 853.2 375.64 
" style="fill: none; stroke: #000000; stroke-width: 0.8; stroke-linejoin: miter; stroke-linecap: square"/>
   </g>
   <g id="patch_6">
    <path d="M 61.04 36.24 
L 853.2 36.24 
" style="fill: none; stroke: #000000; stroke-width: 0.8; stroke-linejoin: miter; stroke-linecap: square"/>
   </g>
   <g id="text_17">
    <!-- CPU vs GPU Inference Times with densenet201 -->
    <g transform="translate(163.114141 30.24) scale(0.25 -0.25)">
     <defs>
      <path id="DejaVuSans-43" d="M 4122 4306 
L 4122 3641 
Q 3803 3938 3442 4084 
Q 3081 4231 2675 4231 
Q 1875 4231 1450 3742 
Q 1025 3253 1025 2328 
Q 1025 1406 1450 917 
Q 1875 428 2675 428 
Q 3081 428 3442 575 
Q 3803 722 4122 1019 
L 4122 359 
Q 3791 134 3420 21 
Q 3050 -91 2638 -91 
Q 1578 -91 968 557 
Q 359 1206 359 2328 
Q 359 3453 968 4101 
Q 1578 4750 2638 4750 
Q 3056 4750 3426 4639 
Q 3797 4528 4122 4306 
z
" transform="scale(0.015625)"/>
      <path id="DejaVuSans-50" d="M 1259 4147 
L 1259 2394 
L 2053 2394 
Q 2494 2394 2734 2622 
Q 2975 2850 2975 3272 
Q 2975 3691 2734 3919 
Q 2494 4147 2053 4147 
L 1259 4147 
z
M 628 4666 
L 2053 4666 
Q 2838 4666 3239 4311 
Q 3641 3956 3641 3272 
Q 3641 2581 3239 2228 
Q 2838 1875 2053 1875 
L 1259 1875 
L 1259 0 
L 628 0 
L 628 4666 
z
" transform="scale(0.015625)"/>
      <path id="DejaVuSans-55" d="M 556 4666 
L 1191 4666 
L 1191 1831 
Q 1191 1081 1462 751 
Q 1734 422 2344 422 
Q 2950 422 3222 751 
Q 3494 1081 3494 1831 
L 3494 4666 
L 4128 4666 
L 4128 1753 
Q 4128 841 3676 375 
Q 3225 -91 2344 -91 
Q 1459 -91 1007 375 
Q 556 841 556 1753 
L 556 4666 
z
" transform="scale(0.015625)"/>
      <path id="DejaVuSans-76" d="M 191 3500 
L 800 3500 
L 1894 563 
L 2988 3500 
L 3597 3500 
L 2284 0 
L 1503 0 
L 191 3500 
z
" transform="scale(0.015625)"/>
      <path id="DejaVuSans-47" d="M 3809 666 
L 3809 1919 
L 2778 1919 
L 2778 2438 
L 4434 2438 
L 4434 434 
Q 4069 175 3628 42 
Q 3188 -91 2688 -91 
Q 1594 -91 976 548 
Q 359 1188 359 2328 
Q 359 3472 976 4111 
Q 1594 4750 2688 4750 
Q 3144 4750 3555 4637 
Q 3966 4525 4313 4306 
L 4313 3634 
Q 3963 3931 3569 4081 
Q 3175 4231 2741 4231 
Q 1884 4231 1454 3753 
Q 1025 3275 1025 2328 
Q 1025 1384 1454 906 
Q 1884 428 2741 428 
Q 3075 428 3337 486 
Q 3600 544 3809 666 
z
" transform="scale(0.015625)"/>
      <path id="DejaVuSans-66" d="M 2375 4863 
L 2375 4384 
L 1825 4384 
Q 1516 4384 1395 4259 
Q 1275 4134 1275 3809 
L 1275 3500 
L 2222 3500 
L 2222 3053 
L 1275 3053 
L 1275 0 
L 697 0 
L 697 3053 
L 147 3053 
L 147 3500 
L 697 3500 
L 697 3744 
Q 697 4328 969 4595 
Q 1241 4863 1831 4863 
L 2375 4863 
z
" transform="scale(0.015625)"/>
      <path id="DejaVuSans-77" d="M 269 3500 
L 844 3500 
L 1563 769 
L 2278 3500 
L 2956 3500 
L 3675 769 
L 4391 3500 
L 4966 3500 
L 4050 0 
L 3372 0 
L 2619 2869 
L 1863 0 
L 1184 0 
L 269 3500 
z
" transform="scale(0.015625)"/>
      <path id="DejaVuSans-68" d="M 3513 2113 
L 3513 0 
L 2938 0 
L 2938 2094 
Q 2938 2591 2744 2837 
Q 2550 3084 2163 3084 
Q 1697 3084 1428 2787 
Q 1159 2491 1159 1978 
L 1159 0 
L 581 0 
L 581 4863 
L 1159 4863 
L 1159 2956 
Q 1366 3272 1645 3428 
Q 1925 3584 2291 3584 
Q 2894 3584 3203 3211 
Q 3513 2838 3513 2113 
z
" transform="scale(0.015625)"/>
     </defs>
     <use xlink:href="#DejaVuSans-43"/>
     <use xlink:href="#DejaVuSans-50" x="69.824219"/>
     <use xlink:href="#DejaVuSans-55" x="130.126953"/>
     <use xlink:href="#DejaVuSans-20" x="203.320312"/>
     <use xlink:href="#DejaVuSans-76" x="235.107422"/>
     <use xlink:href="#DejaVuSans-73" x="294.287109"/>
     <use xlink:href="#DejaVuSans-20" x="346.386719"/>
     <use xlink:href="#DejaVuSans-47" x="378.173828"/>
     <use xlink:href="#DejaVuSans-50" x="455.664062"/>
     <use xlink:href="#DejaVuSans-55" x="515.966797"/>
     <use xlink:href="#DejaVuSans-20" x="589.160156"/>
     <use xlink:href="#DejaVuSans-49" x="620.947266"/>
     <use xlink:href="#DejaVuSans-6e" x="650.439453"/>
     <use xlink:href="#DejaVuSans-66" x="713.818359"/>
     <use xlink:href="#DejaVuSans-65" x="749.023438"/>
     <use xlink:href="#DejaVuSans-72" x="810.546875"/>
     <use xlink:href="#DejaVuSans-65" x="849.410156"/>
     <use xlink:href="#DejaVuSans-6e" x="910.933594"/>
     <use xlink:href="#DejaVuSans-63" x="974.3125"/>
     <use xlink:href="#DejaVuSans-65" x="1029.292969"/>
     <use xlink:href="#DejaVuSans-20" x="1090.816406"/>
     <use xlink:href="#DejaVuSans-54" x="1122.603516"/>
     <use xlink:href="#DejaVuSans-69" x="1180.5625"/>
     <use xlink:href="#DejaVuSans-6d" x="1208.345703"/>
     <use xlink:href="#DejaVuSans-65" x="1305.757812"/>
     <use xlink:href="#DejaVuSans-73" x="1367.28125"/>
     <use xlink:href="#DejaVuSans-20" x="1419.380859"/>
     <use xlink:href="#DejaVuSans-77" x="1451.167969"/>
     <use xlink:href="#DejaVuSans-69" x="1532.955078"/>
     <use xlink:href="#DejaVuSans-74" x="1560.738281"/>
     <use xlink:href="#DejaVuSans-68" x="1599.947266"/>
     <use xlink:href="#DejaVuSans-20" x="1663.326172"/>
     <use xlink:href="#DejaVuSans-64" x="1695.113281"/>
     <use xlink:href="#DejaVuSans-65" x="1758.589844"/>
     <use xlink:href="#DejaVuSans-6e" x="1820.113281"/>
     <use xlink:href="#DejaVuSans-73" x="1883.492188"/>
     <use xlink:href="#DejaVuSans-65" x="1935.591797"/>
     <use xlink:href="#DejaVuSans-6e" x="1997.115234"/>
     <use xlink:href="#DejaVuSans-65" x="2060.494141"/>
     <use xlink:href="#DejaVuSans-74" x="2122.017578"/>
     <use xlink:href="#DejaVuSans-32" x="2161.226562"/>
     <use xlink:href="#DejaVuSans-30" x="2224.849609"/>
     <use xlink:href="#DejaVuSans-31" x="2288.472656"/>
    </g>
   </g>
   <g id="legend_1">
    <g id="patch_7">
     <path d="M 632.671875 110.9525 
L 839.2 110.9525 
Q 843.2 110.9525 843.2 106.9525 
L 843.2 50.24 
Q 843.2 46.24 839.2 46.24 
L 632.671875 46.24 
Q 628.671875 46.24 628.671875 50.24 
L 628.671875 106.9525 
Q 628.671875 110.9525 632.671875 110.9525 
z
" style="fill: #ffffff; opacity: 0.8; stroke: #cccccc; stroke-linejoin: miter"/>
    </g>
    <g id="line2d_24">
     <path d="M 636.671875 62.436875 
L 656.671875 62.436875 
L 676.671875 62.436875 
" style="fill: none; stroke: #6495ed; stroke-width: 3; stroke-linecap: square"/>
    </g>
    <g id="text_18">
     <!-- CPU Inference -->
     <g transform="translate(692.671875 69.436875) scale(0.2 -0.2)">
      <use xlink:href="#DejaVuSans-43"/>
      <use xlink:href="#DejaVuSans-50" x="69.824219"/>
      <use xlink:href="#DejaVuSans-55" x="130.126953"/>
      <use xlink:href="#DejaVuSans-20" x="203.320312"/>
      <use xlink:href="#DejaVuSans-49" x="235.107422"/>
      <use xlink:href="#DejaVuSans-6e" x="264.599609"/>
      <use xlink:href="#DejaVuSans-66" x="327.978516"/>
      <use xlink:href="#DejaVuSans-65" x="363.183594"/>
      <use xlink:href="#DejaVuSans-72" x="424.707031"/>
      <use xlink:href="#DejaVuSans-65" x="463.570312"/>
      <use xlink:href="#DejaVuSans-6e" x="525.09375"/>
      <use xlink:href="#DejaVuSans-63" x="588.472656"/>
      <use xlink:href="#DejaVuSans-65" x="643.453125"/>
     </g>
    </g>
    <g id="line2d_25">
     <path d="M 636.671875 91.793125 
L 656.671875 91.793125 
L 676.671875 91.793125 
" style="fill: none; stroke: #00ff00; stroke-width: 3; stroke-linecap: square"/>
    </g>
    <g id="text_19">
     <!-- GPU Inference -->
     <g transform="translate(692.671875 98.793125) scale(0.2 -0.2)">
      <use xlink:href="#DejaVuSans-47"/>
      <use xlink:href="#DejaVuSans-50" x="77.490234"/>
      <use xlink:href="#DejaVuSans-55" x="137.792969"/>
      <use xlink:href="#DejaVuSans-20" x="210.986328"/>
      <use xlink:href="#DejaVuSans-49" x="242.773438"/>
      <use xlink:href="#DejaVuSans-6e" x="272.265625"/>
      <use xlink:href="#DejaVuSans-66" x="335.644531"/>
      <use xlink:href="#DejaVuSans-65" x="370.849609"/>
      <use xlink:href="#DejaVuSans-72" x="432.373047"/>
      <use xlink:href="#DejaVuSans-65" x="471.236328"/>
      <use xlink:href="#DejaVuSans-6e" x="532.759766"/>
      <use xlink:href="#DejaVuSans-63" x="596.138672"/>
      <use xlink:href="#DejaVuSans-65" x="651.119141"/>
     </g>
    </g>
   </g>
  </g>
 </g>
 <defs>
  <clipPath id="p4e34838e7d">
   <rect x="61.04" y="36.24" width="792.16" height="339.4"/>
  </clipPath>
 </defs>
</svg>
