<?xml version="1.0" encoding="utf-8" standalone="no"?>
<!DOCTYPE svg PUBLIC "-//W3C//DTD SVG 1.1//EN"
  "http://www.w3.org/Graphics/SVG/1.1/DTD/svg11.dtd">
<svg xmlns:xlink="http://www.w3.org/1999/xlink" width="576pt" height="432pt" viewBox="0 0 576 432" xmlns="http://www.w3.org/2000/svg" version="1.1">
 <metadata>
  <rdf:RDF xmlns:dc="http://purl.org/dc/elements/1.1/" xmlns:cc="http://creativecommons.org/ns#" xmlns:rdf="http://www.w3.org/1999/02/22-rdf-syntax-ns#">
   <cc:Work>
    <dc:type rdf:resource="http://purl.org/dc/dcmitype/StillImage"/>
    <dc:date>2025-01-16T19:48:49.860206</dc:date>
    <dc:format>image/svg+xml</dc:format>
    <dc:creator>
     <cc:Agent>
      <dc:title>Matplotlib v3.7.5, https://matplotlib.org/</dc:title>
     </cc:Agent>
    </dc:creator>
   </cc:Work>
  </rdf:RDF>
 </metadata>
 <defs>
  <style type="text/css">*{stroke-linejoin: round; stroke-linecap: butt}</style>
 </defs>
 <g id="figure_1">
  <g id="patch_1">
   <path d="M 0 432 
L 576 432 
L 576 0 
L 0 0 
z
" style="fill: #ffffff"/>
  </g>
  <g id="axes_1">
   <g id="patch_2">
    <path d="M 57.17 379.96 
L 511.27 379.96 
L 511.27 55.968 
L 57.17 55.968 
z
" style="fill: #ffffff"/>
   </g>
   <g id="matplotlib.axis_1">
    <g id="xtick_1">
     <g id="line2d_1">
      <path d="M 77.810909 379.96 
L 77.810909 55.968 
" clip-path="url(#p17e9065637)" style="fill: none; stroke-dasharray: 1.85,0.8; stroke-dashoffset: 0; stroke: #b0b0b0; stroke-opacity: 0.7; stroke-width: 0.5"/>
     </g>
     <g id="line2d_2">
      <defs>
       <path id="mac5b04fc86" d="M 0 0 
L 0 3.5 
" style="stroke: #000000; stroke-width: 0.8"/>
      </defs>
      <g>
       <use xlink:href="#mac5b04fc86" x="77.810909" y="379.96" style="stroke: #000000; stroke-width: 0.8"/>
      </g>
     </g>
     <g id="text_1">
      <!-- 0 -->
      <g transform="translate(74.629659 394.558437) scale(0.1 -0.1)">
       <defs>
        <path id="DejaVuSans-30" d="M 2034 4250 
Q 1547 4250 1301 3770 
Q 1056 3291 1056 2328 
Q 1056 1369 1301 889 
Q 1547 409 2034 409 
Q 2525 409 2770 889 
Q 3016 1369 3016 2328 
Q 3016 3291 2770 3770 
Q 2525 4250 2034 4250 
z
M 2034 4750 
Q 2819 4750 3233 4129 
Q 3647 3509 3647 2328 
Q 3647 1150 3233 529 
Q 2819 -91 2034 -91 
Q 1250 -91 836 529 
Q 422 1150 422 2328 
Q 422 3509 836 4129 
Q 1250 4750 2034 4750 
z
" transform="scale(0.015625)"/>
       </defs>
       <use xlink:href="#DejaVuSans-30"/>
      </g>
     </g>
    </g>
    <g id="xtick_2">
     <g id="line2d_3">
      <path d="M 145.26486 379.96 
L 145.26486 55.968 
" clip-path="url(#p17e9065637)" style="fill: none; stroke-dasharray: 1.85,0.8; stroke-dashoffset: 0; stroke: #b0b0b0; stroke-opacity: 0.7; stroke-width: 0.5"/>
     </g>
     <g id="line2d_4">
      <g>
       <use xlink:href="#mac5b04fc86" x="145.26486" y="379.96" style="stroke: #000000; stroke-width: 0.8"/>
      </g>
     </g>
     <g id="text_2">
      <!-- 50 -->
      <g transform="translate(138.90236 394.558437) scale(0.1 -0.1)">
       <defs>
        <path id="DejaVuSans-35" d="M 691 4666 
L 3169 4666 
L 3169 4134 
L 1269 4134 
L 1269 2991 
Q 1406 3038 1543 3061 
Q 1681 3084 1819 3084 
Q 2600 3084 3056 2656 
Q 3513 2228 3513 1497 
Q 3513 744 3044 326 
Q 2575 -91 1722 -91 
Q 1428 -91 1123 -41 
Q 819 9 494 109 
L 494 744 
Q 775 591 1075 516 
Q 1375 441 1709 441 
Q 2250 441 2565 725 
Q 2881 1009 2881 1497 
Q 2881 1984 2565 2268 
Q 2250 2553 1709 2553 
Q 1456 2553 1204 2497 
Q 953 2441 691 2322 
L 691 4666 
z
" transform="scale(0.015625)"/>
       </defs>
       <use xlink:href="#DejaVuSans-35"/>
       <use xlink:href="#DejaVuSans-30" x="63.623047"/>
      </g>
     </g>
    </g>
    <g id="xtick_3">
     <g id="line2d_5">
      <path d="M 212.718812 379.96 
L 212.718812 55.968 
" clip-path="url(#p17e9065637)" style="fill: none; stroke-dasharray: 1.85,0.8; stroke-dashoffset: 0; stroke: #b0b0b0; stroke-opacity: 0.7; stroke-width: 0.5"/>
     </g>
     <g id="line2d_6">
      <g>
       <use xlink:href="#mac5b04fc86" x="212.718812" y="379.96" style="stroke: #000000; stroke-width: 0.8"/>
      </g>
     </g>
     <g id="text_3">
      <!-- 100 -->
      <g transform="translate(203.175062 394.558437) scale(0.1 -0.1)">
       <defs>
        <path id="DejaVuSans-31" d="M 794 531 
L 1825 531 
L 1825 4091 
L 703 3866 
L 703 4441 
L 1819 4666 
L 2450 4666 
L 2450 531 
L 3481 531 
L 3481 0 
L 794 0 
L 794 531 
z
" transform="scale(0.015625)"/>
       </defs>
       <use xlink:href="#DejaVuSans-31"/>
       <use xlink:href="#DejaVuSans-30" x="63.623047"/>
       <use xlink:href="#DejaVuSans-30" x="127.246094"/>
      </g>
     </g>
    </g>
    <g id="xtick_4">
     <g id="line2d_7">
      <path d="M 280.172763 379.96 
L 280.172763 55.968 
" clip-path="url(#p17e9065637)" style="fill: none; stroke-dasharray: 1.85,0.8; stroke-dashoffset: 0; stroke: #b0b0b0; stroke-opacity: 0.7; stroke-width: 0.5"/>
     </g>
     <g id="line2d_8">
      <g>
       <use xlink:href="#mac5b04fc86" x="280.172763" y="379.96" style="stroke: #000000; stroke-width: 0.8"/>
      </g>
     </g>
     <g id="text_4">
      <!-- 150 -->
      <g transform="translate(270.629013 394.558437) scale(0.1 -0.1)">
       <use xlink:href="#DejaVuSans-31"/>
       <use xlink:href="#DejaVuSans-35" x="63.623047"/>
       <use xlink:href="#DejaVuSans-30" x="127.246094"/>
      </g>
     </g>
    </g>
    <g id="xtick_5">
     <g id="line2d_9">
      <path d="M 347.626714 379.96 
L 347.626714 55.968 
" clip-path="url(#p17e9065637)" style="fill: none; stroke-dasharray: 1.85,0.8; stroke-dashoffset: 0; stroke: #b0b0b0; stroke-opacity: 0.7; stroke-width: 0.5"/>
     </g>
     <g id="line2d_10">
      <g>
       <use xlink:href="#mac5b04fc86" x="347.626714" y="379.96" style="stroke: #000000; stroke-width: 0.8"/>
      </g>
     </g>
     <g id="text_5">
      <!-- 200 -->
      <g transform="translate(338.082964 394.558437) scale(0.1 -0.1)">
       <defs>
        <path id="DejaVuSans-32" d="M 1228 531 
L 3431 531 
L 3431 0 
L 469 0 
L 469 531 
Q 828 903 1448 1529 
Q 2069 2156 2228 2338 
Q 2531 2678 2651 2914 
Q 2772 3150 2772 3378 
Q 2772 3750 2511 3984 
Q 2250 4219 1831 4219 
Q 1534 4219 1204 4116 
Q 875 4013 500 3803 
L 500 4441 
Q 881 4594 1212 4672 
Q 1544 4750 1819 4750 
Q 2544 4750 2975 4387 
Q 3406 4025 3406 3419 
Q 3406 3131 3298 2873 
Q 3191 2616 2906 2266 
Q 2828 2175 2409 1742 
Q 1991 1309 1228 531 
z
" transform="scale(0.015625)"/>
       </defs>
       <use xlink:href="#DejaVuSans-32"/>
       <use xlink:href="#DejaVuSans-30" x="63.623047"/>
       <use xlink:href="#DejaVuSans-30" x="127.246094"/>
      </g>
     </g>
    </g>
    <g id="xtick_6">
     <g id="line2d_11">
      <path d="M 415.080665 379.96 
L 415.080665 55.968 
" clip-path="url(#p17e9065637)" style="fill: none; stroke-dasharray: 1.85,0.8; stroke-dashoffset: 0; stroke: #b0b0b0; stroke-opacity: 0.7; stroke-width: 0.5"/>
     </g>
     <g id="line2d_12">
      <g>
       <use xlink:href="#mac5b04fc86" x="415.080665" y="379.96" style="stroke: #000000; stroke-width: 0.8"/>
      </g>
     </g>
     <g id="text_6">
      <!-- 250 -->
      <g transform="translate(405.536915 394.558437) scale(0.1 -0.1)">
       <use xlink:href="#DejaVuSans-32"/>
       <use xlink:href="#DejaVuSans-35" x="63.623047"/>
       <use xlink:href="#DejaVuSans-30" x="127.246094"/>
      </g>
     </g>
    </g>
    <g id="xtick_7">
     <g id="line2d_13">
      <path d="M 482.534617 379.96 
L 482.534617 55.968 
" clip-path="url(#p17e9065637)" style="fill: none; stroke-dasharray: 1.85,0.8; stroke-dashoffset: 0; stroke: #b0b0b0; stroke-opacity: 0.7; stroke-width: 0.5"/>
     </g>
     <g id="line2d_14">
      <g>
       <use xlink:href="#mac5b04fc86" x="482.534617" y="379.96" style="stroke: #000000; stroke-width: 0.8"/>
      </g>
     </g>
     <g id="text_7">
      <!-- 300 -->
      <g transform="translate(472.990867 394.558437) scale(0.1 -0.1)">
       <defs>
        <path id="DejaVuSans-33" d="M 2597 2516 
Q 3050 2419 3304 2112 
Q 3559 1806 3559 1356 
Q 3559 666 3084 287 
Q 2609 -91 1734 -91 
Q 1441 -91 1130 -33 
Q 819 25 488 141 
L 488 750 
Q 750 597 1062 519 
Q 1375 441 1716 441 
Q 2309 441 2620 675 
Q 2931 909 2931 1356 
Q 2931 1769 2642 2001 
Q 2353 2234 1838 2234 
L 1294 2234 
L 1294 2753 
L 1863 2753 
Q 2328 2753 2575 2939 
Q 2822 3125 2822 3475 
Q 2822 3834 2567 4026 
Q 2313 4219 1838 4219 
Q 1578 4219 1281 4162 
Q 984 4106 628 3988 
L 628 4550 
Q 988 4650 1302 4700 
Q 1616 4750 1894 4750 
Q 2613 4750 3031 4423 
Q 3450 4097 3450 3541 
Q 3450 3153 3228 2886 
Q 3006 2619 2597 2516 
z
" transform="scale(0.015625)"/>
       </defs>
       <use xlink:href="#DejaVuSans-33"/>
       <use xlink:href="#DejaVuSans-30" x="63.623047"/>
       <use xlink:href="#DejaVuSans-30" x="127.246094"/>
      </g>
     </g>
    </g>
    <g id="text_8">
     <!-- Number of Accelerated Layers -->
     <g transform="translate(132.374688 415.835) scale(0.2 -0.2)">
      <defs>
       <path id="DejaVuSans-4e" d="M 628 4666 
L 1478 4666 
L 3547 763 
L 3547 4666 
L 4159 4666 
L 4159 0 
L 3309 0 
L 1241 3903 
L 1241 0 
L 628 0 
L 628 4666 
z
" transform="scale(0.015625)"/>
       <path id="DejaVuSans-75" d="M 544 1381 
L 544 3500 
L 1119 3500 
L 1119 1403 
Q 1119 906 1312 657 
Q 1506 409 1894 409 
Q 2359 409 2629 706 
Q 2900 1003 2900 1516 
L 2900 3500 
L 3475 3500 
L 3475 0 
L 2900 0 
L 2900 538 
Q 2691 219 2414 64 
Q 2138 -91 1772 -91 
Q 1169 -91 856 284 
Q 544 659 544 1381 
z
M 1991 3584 
L 1991 3584 
z
" transform="scale(0.015625)"/>
       <path id="DejaVuSans-6d" d="M 3328 2828 
Q 3544 3216 3844 3400 
Q 4144 3584 4550 3584 
Q 5097 3584 5394 3201 
Q 5691 2819 5691 2113 
L 5691 0 
L 5113 0 
L 5113 2094 
Q 5113 2597 4934 2840 
Q 4756 3084 4391 3084 
Q 3944 3084 3684 2787 
Q 3425 2491 3425 1978 
L 3425 0 
L 2847 0 
L 2847 2094 
Q 2847 2600 2669 2842 
Q 2491 3084 2119 3084 
Q 1678 3084 1418 2786 
Q 1159 2488 1159 1978 
L 1159 0 
L 581 0 
L 581 3500 
L 1159 3500 
L 1159 2956 
Q 1356 3278 1631 3431 
Q 1906 3584 2284 3584 
Q 2666 3584 2933 3390 
Q 3200 3197 3328 2828 
z
" transform="scale(0.015625)"/>
       <path id="DejaVuSans-62" d="M 3116 1747 
Q 3116 2381 2855 2742 
Q 2594 3103 2138 3103 
Q 1681 3103 1420 2742 
Q 1159 2381 1159 1747 
Q 1159 1113 1420 752 
Q 1681 391 2138 391 
Q 2594 391 2855 752 
Q 3116 1113 3116 1747 
z
M 1159 2969 
Q 1341 3281 1617 3432 
Q 1894 3584 2278 3584 
Q 2916 3584 3314 3078 
Q 3713 2572 3713 1747 
Q 3713 922 3314 415 
Q 2916 -91 2278 -91 
Q 1894 -91 1617 61 
Q 1341 213 1159 525 
L 1159 0 
L 581 0 
L 581 4863 
L 1159 4863 
L 1159 2969 
z
" transform="scale(0.015625)"/>
       <path id="DejaVuSans-65" d="M 3597 1894 
L 3597 1613 
L 953 1613 
Q 991 1019 1311 708 
Q 1631 397 2203 397 
Q 2534 397 2845 478 
Q 3156 559 3463 722 
L 3463 178 
Q 3153 47 2828 -22 
Q 2503 -91 2169 -91 
Q 1331 -91 842 396 
Q 353 884 353 1716 
Q 353 2575 817 3079 
Q 1281 3584 2069 3584 
Q 2775 3584 3186 3129 
Q 3597 2675 3597 1894 
z
M 3022 2063 
Q 3016 2534 2758 2815 
Q 2500 3097 2075 3097 
Q 1594 3097 1305 2825 
Q 1016 2553 972 2059 
L 3022 2063 
z
" transform="scale(0.015625)"/>
       <path id="DejaVuSans-72" d="M 2631 2963 
Q 2534 3019 2420 3045 
Q 2306 3072 2169 3072 
Q 1681 3072 1420 2755 
Q 1159 2438 1159 1844 
L 1159 0 
L 581 0 
L 581 3500 
L 1159 3500 
L 1159 2956 
Q 1341 3275 1631 3429 
Q 1922 3584 2338 3584 
Q 2397 3584 2469 3576 
Q 2541 3569 2628 3553 
L 2631 2963 
z
" transform="scale(0.015625)"/>
       <path id="DejaVuSans-20" transform="scale(0.015625)"/>
       <path id="DejaVuSans-6f" d="M 1959 3097 
Q 1497 3097 1228 2736 
Q 959 2375 959 1747 
Q 959 1119 1226 758 
Q 1494 397 1959 397 
Q 2419 397 2687 759 
Q 2956 1122 2956 1747 
Q 2956 2369 2687 2733 
Q 2419 3097 1959 3097 
z
M 1959 3584 
Q 2709 3584 3137 3096 
Q 3566 2609 3566 1747 
Q 3566 888 3137 398 
Q 2709 -91 1959 -91 
Q 1206 -91 779 398 
Q 353 888 353 1747 
Q 353 2609 779 3096 
Q 1206 3584 1959 3584 
z
" transform="scale(0.015625)"/>
       <path id="DejaVuSans-66" d="M 2375 4863 
L 2375 4384 
L 1825 4384 
Q 1516 4384 1395 4259 
Q 1275 4134 1275 3809 
L 1275 3500 
L 2222 3500 
L 2222 3053 
L 1275 3053 
L 1275 0 
L 697 0 
L 697 3053 
L 147 3053 
L 147 3500 
L 697 3500 
L 697 3744 
Q 697 4328 969 4595 
Q 1241 4863 1831 4863 
L 2375 4863 
z
" transform="scale(0.015625)"/>
       <path id="DejaVuSans-41" d="M 2188 4044 
L 1331 1722 
L 3047 1722 
L 2188 4044 
z
M 1831 4666 
L 2547 4666 
L 4325 0 
L 3669 0 
L 3244 1197 
L 1141 1197 
L 716 0 
L 50 0 
L 1831 4666 
z
" transform="scale(0.015625)"/>
       <path id="DejaVuSans-63" d="M 3122 3366 
L 3122 2828 
Q 2878 2963 2633 3030 
Q 2388 3097 2138 3097 
Q 1578 3097 1268 2742 
Q 959 2388 959 1747 
Q 959 1106 1268 751 
Q 1578 397 2138 397 
Q 2388 397 2633 464 
Q 2878 531 3122 666 
L 3122 134 
Q 2881 22 2623 -34 
Q 2366 -91 2075 -91 
Q 1284 -91 818 406 
Q 353 903 353 1747 
Q 353 2603 823 3093 
Q 1294 3584 2113 3584 
Q 2378 3584 2631 3529 
Q 2884 3475 3122 3366 
z
" transform="scale(0.015625)"/>
       <path id="DejaVuSans-6c" d="M 603 4863 
L 1178 4863 
L 1178 0 
L 603 0 
L 603 4863 
z
" transform="scale(0.015625)"/>
       <path id="DejaVuSans-61" d="M 2194 1759 
Q 1497 1759 1228 1600 
Q 959 1441 959 1056 
Q 959 750 1161 570 
Q 1363 391 1709 391 
Q 2188 391 2477 730 
Q 2766 1069 2766 1631 
L 2766 1759 
L 2194 1759 
z
M 3341 1997 
L 3341 0 
L 2766 0 
L 2766 531 
Q 2569 213 2275 61 
Q 1981 -91 1556 -91 
Q 1019 -91 701 211 
Q 384 513 384 1019 
Q 384 1609 779 1909 
Q 1175 2209 1959 2209 
L 2766 2209 
L 2766 2266 
Q 2766 2663 2505 2880 
Q 2244 3097 1772 3097 
Q 1472 3097 1187 3025 
Q 903 2953 641 2809 
L 641 3341 
Q 956 3463 1253 3523 
Q 1550 3584 1831 3584 
Q 2591 3584 2966 3190 
Q 3341 2797 3341 1997 
z
" transform="scale(0.015625)"/>
       <path id="DejaVuSans-74" d="M 1172 4494 
L 1172 3500 
L 2356 3500 
L 2356 3053 
L 1172 3053 
L 1172 1153 
Q 1172 725 1289 603 
Q 1406 481 1766 481 
L 2356 481 
L 2356 0 
L 1766 0 
Q 1100 0 847 248 
Q 594 497 594 1153 
L 594 3053 
L 172 3053 
L 172 3500 
L 594 3500 
L 594 4494 
L 1172 4494 
z
" transform="scale(0.015625)"/>
       <path id="DejaVuSans-64" d="M 2906 2969 
L 2906 4863 
L 3481 4863 
L 3481 0 
L 2906 0 
L 2906 525 
Q 2725 213 2448 61 
Q 2172 -91 1784 -91 
Q 1150 -91 751 415 
Q 353 922 353 1747 
Q 353 2572 751 3078 
Q 1150 3584 1784 3584 
Q 2172 3584 2448 3432 
Q 2725 3281 2906 2969 
z
M 947 1747 
Q 947 1113 1208 752 
Q 1469 391 1925 391 
Q 2381 391 2643 752 
Q 2906 1113 2906 1747 
Q 2906 2381 2643 2742 
Q 2381 3103 1925 3103 
Q 1469 3103 1208 2742 
Q 947 2381 947 1747 
z
" transform="scale(0.015625)"/>
       <path id="DejaVuSans-4c" d="M 628 4666 
L 1259 4666 
L 1259 531 
L 3531 531 
L 3531 0 
L 628 0 
L 628 4666 
z
" transform="scale(0.015625)"/>
       <path id="DejaVuSans-79" d="M 2059 -325 
Q 1816 -950 1584 -1140 
Q 1353 -1331 966 -1331 
L 506 -1331 
L 506 -850 
L 844 -850 
Q 1081 -850 1212 -737 
Q 1344 -625 1503 -206 
L 1606 56 
L 191 3500 
L 800 3500 
L 1894 763 
L 2988 3500 
L 3597 3500 
L 2059 -325 
z
" transform="scale(0.015625)"/>
       <path id="DejaVuSans-73" d="M 2834 3397 
L 2834 2853 
Q 2591 2978 2328 3040 
Q 2066 3103 1784 3103 
Q 1356 3103 1142 2972 
Q 928 2841 928 2578 
Q 928 2378 1081 2264 
Q 1234 2150 1697 2047 
L 1894 2003 
Q 2506 1872 2764 1633 
Q 3022 1394 3022 966 
Q 3022 478 2636 193 
Q 2250 -91 1575 -91 
Q 1294 -91 989 -36 
Q 684 19 347 128 
L 347 722 
Q 666 556 975 473 
Q 1284 391 1588 391 
Q 1994 391 2212 530 
Q 2431 669 2431 922 
Q 2431 1156 2273 1281 
Q 2116 1406 1581 1522 
L 1381 1569 
Q 847 1681 609 1914 
Q 372 2147 372 2553 
Q 372 3047 722 3315 
Q 1072 3584 1716 3584 
Q 2034 3584 2315 3537 
Q 2597 3491 2834 3397 
z
" transform="scale(0.015625)"/>
      </defs>
      <use xlink:href="#DejaVuSans-4e"/>
      <use xlink:href="#DejaVuSans-75" x="74.804688"/>
      <use xlink:href="#DejaVuSans-6d" x="138.183594"/>
      <use xlink:href="#DejaVuSans-62" x="235.595703"/>
      <use xlink:href="#DejaVuSans-65" x="299.072266"/>
      <use xlink:href="#DejaVuSans-72" x="360.595703"/>
      <use xlink:href="#DejaVuSans-20" x="401.708984"/>
      <use xlink:href="#DejaVuSans-6f" x="433.496094"/>
      <use xlink:href="#DejaVuSans-66" x="494.677734"/>
      <use xlink:href="#DejaVuSans-20" x="529.882812"/>
      <use xlink:href="#DejaVuSans-41" x="561.669922"/>
      <use xlink:href="#DejaVuSans-63" x="628.328125"/>
      <use xlink:href="#DejaVuSans-63" x="683.308594"/>
      <use xlink:href="#DejaVuSans-65" x="738.289062"/>
      <use xlink:href="#DejaVuSans-6c" x="799.8125"/>
      <use xlink:href="#DejaVuSans-65" x="827.595703"/>
      <use xlink:href="#DejaVuSans-72" x="889.119141"/>
      <use xlink:href="#DejaVuSans-61" x="930.232422"/>
      <use xlink:href="#DejaVuSans-74" x="991.511719"/>
      <use xlink:href="#DejaVuSans-65" x="1030.720703"/>
      <use xlink:href="#DejaVuSans-64" x="1092.244141"/>
      <use xlink:href="#DejaVuSans-20" x="1155.720703"/>
      <use xlink:href="#DejaVuSans-4c" x="1187.507812"/>
      <use xlink:href="#DejaVuSans-61" x="1243.220703"/>
      <use xlink:href="#DejaVuSans-79" x="1304.5"/>
      <use xlink:href="#DejaVuSans-65" x="1363.679688"/>
      <use xlink:href="#DejaVuSans-72" x="1425.203125"/>
      <use xlink:href="#DejaVuSans-73" x="1466.316406"/>
     </g>
    </g>
   </g>
   <g id="matplotlib.axis_2">
    <g id="ytick_1">
     <g id="line2d_15">
      <path d="M 57.17 377.965527 
L 511.27 377.965527 
" clip-path="url(#p17e9065637)" style="fill: none; stroke-dasharray: 1.85,0.8; stroke-dashoffset: 0; stroke: #b0b0b0; stroke-opacity: 0.7; stroke-width: 0.5"/>
     </g>
     <g id="line2d_16">
      <defs>
       <path id="m618d49e4b5" d="M 0 0 
L -3.5 0 
" style="stroke: #000000; stroke-width: 0.8"/>
      </defs>
      <g>
       <use xlink:href="#m618d49e4b5" x="57.17" y="377.965527" style="stroke: #000000; stroke-width: 0.8"/>
      </g>
     </g>
     <g id="text_9">
      <!-- 10 -->
      <g style="fill: #d62728" transform="translate(34.9 382.524589) scale(0.12 -0.12)">
       <use xlink:href="#DejaVuSans-31"/>
       <use xlink:href="#DejaVuSans-30" x="63.623047"/>
      </g>
     </g>
    </g>
    <g id="ytick_2">
     <g id="line2d_17">
      <path d="M 57.17 323.84787 
L 511.27 323.84787 
" clip-path="url(#p17e9065637)" style="fill: none; stroke-dasharray: 1.85,0.8; stroke-dashoffset: 0; stroke: #b0b0b0; stroke-opacity: 0.7; stroke-width: 0.5"/>
     </g>
     <g id="line2d_18">
      <g>
       <use xlink:href="#m618d49e4b5" x="57.17" y="323.84787" style="stroke: #000000; stroke-width: 0.8"/>
      </g>
     </g>
     <g id="text_10">
      <!-- 20 -->
      <g style="fill: #d62728" transform="translate(34.9 328.406933) scale(0.12 -0.12)">
       <use xlink:href="#DejaVuSans-32"/>
       <use xlink:href="#DejaVuSans-30" x="63.623047"/>
      </g>
     </g>
    </g>
    <g id="ytick_3">
     <g id="line2d_19">
      <path d="M 57.17 269.730214 
L 511.27 269.730214 
" clip-path="url(#p17e9065637)" style="fill: none; stroke-dasharray: 1.85,0.8; stroke-dashoffset: 0; stroke: #b0b0b0; stroke-opacity: 0.7; stroke-width: 0.5"/>
     </g>
     <g id="line2d_20">
      <g>
       <use xlink:href="#m618d49e4b5" x="57.17" y="269.730214" style="stroke: #000000; stroke-width: 0.8"/>
      </g>
     </g>
     <g id="text_11">
      <!-- 30 -->
      <g style="fill: #d62728" transform="translate(34.9 274.289277) scale(0.12 -0.12)">
       <use xlink:href="#DejaVuSans-33"/>
       <use xlink:href="#DejaVuSans-30" x="63.623047"/>
      </g>
     </g>
    </g>
    <g id="ytick_4">
     <g id="line2d_21">
      <path d="M 57.17 215.612558 
L 511.27 215.612558 
" clip-path="url(#p17e9065637)" style="fill: none; stroke-dasharray: 1.85,0.8; stroke-dashoffset: 0; stroke: #b0b0b0; stroke-opacity: 0.7; stroke-width: 0.5"/>
     </g>
     <g id="line2d_22">
      <g>
       <use xlink:href="#m618d49e4b5" x="57.17" y="215.612558" style="stroke: #000000; stroke-width: 0.8"/>
      </g>
     </g>
     <g id="text_12">
      <!-- 40 -->
      <g style="fill: #d62728" transform="translate(34.9 220.17162) scale(0.12 -0.12)">
       <defs>
        <path id="DejaVuSans-34" d="M 2419 4116 
L 825 1625 
L 2419 1625 
L 2419 4116 
z
M 2253 4666 
L 3047 4666 
L 3047 1625 
L 3713 1625 
L 3713 1100 
L 3047 1100 
L 3047 0 
L 2419 0 
L 2419 1100 
L 313 1100 
L 313 1709 
L 2253 4666 
z
" transform="scale(0.015625)"/>
       </defs>
       <use xlink:href="#DejaVuSans-34"/>
       <use xlink:href="#DejaVuSans-30" x="63.623047"/>
      </g>
     </g>
    </g>
    <g id="ytick_5">
     <g id="line2d_23">
      <path d="M 57.17 161.494902 
L 511.27 161.494902 
" clip-path="url(#p17e9065637)" style="fill: none; stroke-dasharray: 1.85,0.8; stroke-dashoffset: 0; stroke: #b0b0b0; stroke-opacity: 0.7; stroke-width: 0.5"/>
     </g>
     <g id="line2d_24">
      <g>
       <use xlink:href="#m618d49e4b5" x="57.17" y="161.494902" style="stroke: #000000; stroke-width: 0.8"/>
      </g>
     </g>
     <g id="text_13">
      <!-- 50 -->
      <g style="fill: #d62728" transform="translate(34.9 166.053964) scale(0.12 -0.12)">
       <use xlink:href="#DejaVuSans-35"/>
       <use xlink:href="#DejaVuSans-30" x="63.623047"/>
      </g>
     </g>
    </g>
    <g id="ytick_6">
     <g id="line2d_25">
      <path d="M 57.17 107.377245 
L 511.27 107.377245 
" clip-path="url(#p17e9065637)" style="fill: none; stroke-dasharray: 1.85,0.8; stroke-dashoffset: 0; stroke: #b0b0b0; stroke-opacity: 0.7; stroke-width: 0.5"/>
     </g>
     <g id="line2d_26">
      <g>
       <use xlink:href="#m618d49e4b5" x="57.17" y="107.377245" style="stroke: #000000; stroke-width: 0.8"/>
      </g>
     </g>
     <g id="text_14">
      <!-- 60 -->
      <g style="fill: #d62728" transform="translate(34.9 111.936308) scale(0.12 -0.12)">
       <defs>
        <path id="DejaVuSans-36" d="M 2113 2584 
Q 1688 2584 1439 2293 
Q 1191 2003 1191 1497 
Q 1191 994 1439 701 
Q 1688 409 2113 409 
Q 2538 409 2786 701 
Q 3034 994 3034 1497 
Q 3034 2003 2786 2293 
Q 2538 2584 2113 2584 
z
M 3366 4563 
L 3366 3988 
Q 3128 4100 2886 4159 
Q 2644 4219 2406 4219 
Q 1781 4219 1451 3797 
Q 1122 3375 1075 2522 
Q 1259 2794 1537 2939 
Q 1816 3084 2150 3084 
Q 2853 3084 3261 2657 
Q 3669 2231 3669 1497 
Q 3669 778 3244 343 
Q 2819 -91 2113 -91 
Q 1303 -91 875 529 
Q 447 1150 447 2328 
Q 447 3434 972 4092 
Q 1497 4750 2381 4750 
Q 2619 4750 2861 4703 
Q 3103 4656 3366 4563 
z
" transform="scale(0.015625)"/>
       </defs>
       <use xlink:href="#DejaVuSans-36"/>
       <use xlink:href="#DejaVuSans-30" x="63.623047"/>
      </g>
     </g>
    </g>
    <g id="text_15">
     <!-- Throughput (task/ms) -->
     <g style="fill: #d62728" transform="translate(26.740625 326.392125) rotate(-90) scale(0.2 -0.2)">
      <defs>
       <path id="DejaVuSans-54" d="M -19 4666 
L 3928 4666 
L 3928 4134 
L 2272 4134 
L 2272 0 
L 1638 0 
L 1638 4134 
L -19 4134 
L -19 4666 
z
" transform="scale(0.015625)"/>
       <path id="DejaVuSans-68" d="M 3513 2113 
L 3513 0 
L 2938 0 
L 2938 2094 
Q 2938 2591 2744 2837 
Q 2550 3084 2163 3084 
Q 1697 3084 1428 2787 
Q 1159 2491 1159 1978 
L 1159 0 
L 581 0 
L 581 4863 
L 1159 4863 
L 1159 2956 
Q 1366 3272 1645 3428 
Q 1925 3584 2291 3584 
Q 2894 3584 3203 3211 
Q 3513 2838 3513 2113 
z
" transform="scale(0.015625)"/>
       <path id="DejaVuSans-67" d="M 2906 1791 
Q 2906 2416 2648 2759 
Q 2391 3103 1925 3103 
Q 1463 3103 1205 2759 
Q 947 2416 947 1791 
Q 947 1169 1205 825 
Q 1463 481 1925 481 
Q 2391 481 2648 825 
Q 2906 1169 2906 1791 
z
M 3481 434 
Q 3481 -459 3084 -895 
Q 2688 -1331 1869 -1331 
Q 1566 -1331 1297 -1286 
Q 1028 -1241 775 -1147 
L 775 -588 
Q 1028 -725 1275 -790 
Q 1522 -856 1778 -856 
Q 2344 -856 2625 -561 
Q 2906 -266 2906 331 
L 2906 616 
Q 2728 306 2450 153 
Q 2172 0 1784 0 
Q 1141 0 747 490 
Q 353 981 353 1791 
Q 353 2603 747 3093 
Q 1141 3584 1784 3584 
Q 2172 3584 2450 3431 
Q 2728 3278 2906 2969 
L 2906 3500 
L 3481 3500 
L 3481 434 
z
" transform="scale(0.015625)"/>
       <path id="DejaVuSans-70" d="M 1159 525 
L 1159 -1331 
L 581 -1331 
L 581 3500 
L 1159 3500 
L 1159 2969 
Q 1341 3281 1617 3432 
Q 1894 3584 2278 3584 
Q 2916 3584 3314 3078 
Q 3713 2572 3713 1747 
Q 3713 922 3314 415 
Q 2916 -91 2278 -91 
Q 1894 -91 1617 61 
Q 1341 213 1159 525 
z
M 3116 1747 
Q 3116 2381 2855 2742 
Q 2594 3103 2138 3103 
Q 1681 3103 1420 2742 
Q 1159 2381 1159 1747 
Q 1159 1113 1420 752 
Q 1681 391 2138 391 
Q 2594 391 2855 752 
Q 3116 1113 3116 1747 
z
" transform="scale(0.015625)"/>
       <path id="DejaVuSans-28" d="M 1984 4856 
Q 1566 4138 1362 3434 
Q 1159 2731 1159 2009 
Q 1159 1288 1364 580 
Q 1569 -128 1984 -844 
L 1484 -844 
Q 1016 -109 783 600 
Q 550 1309 550 2009 
Q 550 2706 781 3412 
Q 1013 4119 1484 4856 
L 1984 4856 
z
" transform="scale(0.015625)"/>
       <path id="DejaVuSans-6b" d="M 581 4863 
L 1159 4863 
L 1159 1991 
L 2875 3500 
L 3609 3500 
L 1753 1863 
L 3688 0 
L 2938 0 
L 1159 1709 
L 1159 0 
L 581 0 
L 581 4863 
z
" transform="scale(0.015625)"/>
       <path id="DejaVuSans-2f" d="M 1625 4666 
L 2156 4666 
L 531 -594 
L 0 -594 
L 1625 4666 
z
" transform="scale(0.015625)"/>
       <path id="DejaVuSans-29" d="M 513 4856 
L 1013 4856 
Q 1481 4119 1714 3412 
Q 1947 2706 1947 2009 
Q 1947 1309 1714 600 
Q 1481 -109 1013 -844 
L 513 -844 
Q 928 -128 1133 580 
Q 1338 1288 1338 2009 
Q 1338 2731 1133 3434 
Q 928 4138 513 4856 
z
" transform="scale(0.015625)"/>
      </defs>
      <use xlink:href="#DejaVuSans-54"/>
      <use xlink:href="#DejaVuSans-68" x="61.083984"/>
      <use xlink:href="#DejaVuSans-72" x="124.462891"/>
      <use xlink:href="#DejaVuSans-6f" x="163.326172"/>
      <use xlink:href="#DejaVuSans-75" x="224.507812"/>
      <use xlink:href="#DejaVuSans-67" x="287.886719"/>
      <use xlink:href="#DejaVuSans-68" x="351.363281"/>
      <use xlink:href="#DejaVuSans-70" x="414.742188"/>
      <use xlink:href="#DejaVuSans-75" x="478.21875"/>
      <use xlink:href="#DejaVuSans-74" x="541.597656"/>
      <use xlink:href="#DejaVuSans-20" x="580.806641"/>
      <use xlink:href="#DejaVuSans-28" x="612.59375"/>
      <use xlink:href="#DejaVuSans-74" x="651.607422"/>
      <use xlink:href="#DejaVuSans-61" x="690.816406"/>
      <use xlink:href="#DejaVuSans-73" x="752.095703"/>
      <use xlink:href="#DejaVuSans-6b" x="804.195312"/>
      <use xlink:href="#DejaVuSans-2f" x="862.105469"/>
      <use xlink:href="#DejaVuSans-6d" x="895.796875"/>
      <use xlink:href="#DejaVuSans-73" x="993.208984"/>
      <use xlink:href="#DejaVuSans-29" x="1045.308594"/>
     </g>
    </g>
   </g>
   <g id="line2d_27">
    <path d="M 77.810909 365.233091 
L 79.159988 356.706535 
L 80.509067 356.639339 
L 81.858146 356.204736 
L 83.207225 352.820628 
L 84.556304 352.990808 
L 85.905383 352.228839 
L 87.254462 348.705078 
L 88.603541 348.889414 
L 89.95262 348.10146 
L 91.301699 344.245511 
L 92.650778 344.039054 
L 93.999857 343.460052 
L 95.348936 338.747976 
L 96.698015 338.813273 
L 98.047094 337.057009 
L 99.396173 332.832056 
L 100.745253 331.892033 
L 102.094332 330.788053 
L 103.443411 324.431315 
L 104.79249 325.23937 
L 106.141569 321.716782 
L 107.490648 321.604128 
L 108.839727 320.989548 
L 110.188806 319.272507 
L 111.537885 319.538905 
L 112.886964 318.970169 
L 114.236043 317.178564 
L 115.585122 317.496927 
L 116.934201 316.888118 
L 118.28328 315.453114 
L 119.632359 315.236417 
L 120.981438 314.165764 
L 122.330517 312.672439 
L 123.679596 312.503538 
L 125.028675 311.893768 
L 126.377754 309.784122 
L 127.726833 310.305738 
L 129.075912 308.890679 
L 130.424991 307.790949 
L 131.77407 307.534444 
L 133.123149 306.018704 
L 134.472228 304.072592 
L 135.821307 303.635434 
L 137.170386 302.529465 
L 138.519465 300.004125 
L 139.868544 300.280301 
L 141.217623 298.726876 
L 142.566702 296.498919 
L 143.915781 296.313401 
L 145.26486 295.211643 
L 146.613939 292.694263 
L 147.963018 291.964154 
L 149.312097 290.838894 
L 150.661176 287.135477 
L 152.010255 287.099711 
L 153.359335 285.303535 
L 154.708414 282.620849 
L 156.057493 282.639585 
L 157.406572 277.47148 
L 160.10473 277.371447 
L 161.453809 276.697817 
L 162.802888 275.838359 
L 164.151967 276.128363 
L 165.501046 275.01614 
L 166.850125 275.528505 
L 168.199204 273.839856 
L 169.548283 274.433365 
L 172.246441 273.526601 
L 174.944599 272.166005 
L 178.991836 271.417939 
L 180.340915 270.126688 
L 181.689994 270.674244 
L 183.039073 269.472283 
L 184.388152 268.884156 
L 185.737231 268.486231 
L 187.08631 268.83039 
L 188.435389 267.072787 
L 189.784468 266.37673 
L 191.133547 267.04564 
L 193.831705 264.854735 
L 195.180784 265.392866 
L 197.878942 262.944991 
L 199.228021 263.670458 
L 200.5771 262.029231 
L 201.926179 261.634931 
L 203.275258 261.422756 
L 204.624337 260.643457 
L 205.973417 259.567328 
L 207.322496 259.506885 
L 210.020654 257.64781 
L 211.369733 257.321317 
L 214.067891 255.969854 
L 215.41697 254.887894 
L 216.766049 255.267253 
L 218.115128 252.921943 
L 219.464207 254.076134 
L 220.813286 253.049063 
L 222.162365 250.351923 
L 223.511444 251.681501 
L 224.860523 248.720602 
L 226.209602 248.548364 
L 227.558681 248.041645 
L 228.90776 247.205273 
L 230.256839 245.830573 
L 231.605918 246.235384 
L 232.954997 244.370617 
L 234.304076 244.338913 
L 235.653155 242.806619 
L 237.002234 241.841834 
L 238.351313 240.565319 
L 239.700392 240.065952 
L 241.049471 238.819462 
L 242.39855 236.034159 
L 243.747629 237.100196 
L 246.445787 232.818536 
L 247.794866 233.503059 
L 249.143945 231.788465 
L 250.493024 230.816163 
L 251.842103 230.344276 
L 253.191182 228.22444 
L 255.88934 226.621005 
L 257.238419 224.021007 
L 258.587499 223.897262 
L 259.936578 222.95728 
L 261.285657 220.52407 
L 262.634736 219.374699 
L 263.983815 217.725672 
L 265.332894 215.780477 
L 266.681973 214.219953 
L 269.380131 211.519358 
L 270.72921 208.9527 
L 272.078289 210.483099 
L 273.427368 204.752743 
L 274.776447 203.387574 
L 276.125526 204.309593 
L 277.474605 200.748059 
L 278.823684 200.274118 
L 280.172763 199.387549 
L 281.521842 194.73189 
L 282.870921 193.462256 
L 284.22 191.819498 
L 285.569079 187.519967 
L 286.918158 187.117943 
L 288.267237 185.904638 
L 289.616316 180.941834 
L 290.965395 180.763822 
L 295.012632 173.819354 
L 296.361711 172.94473 
L 297.71079 167.291573 
L 299.059869 163.607382 
L 300.408948 165.998215 
L 301.758027 157.986646 
L 304.456185 157.303609 
L 305.805264 149.577628 
L 307.154343 149.143271 
L 308.503422 147.101449 
L 309.852501 142.408789 
L 311.201581 139.736209 
L 312.55066 138.646409 
L 313.899739 129.759908 
L 315.248818 129.247928 
L 316.597897 127.57984 
L 317.946976 120.860949 
L 319.296055 116.393912 
L 320.645134 117.904705 
L 321.994213 105.572414 
L 323.343292 106.359788 
L 324.692371 104.627479 
L 326.04145 92.204338 
L 328.739608 90.066238 
L 330.088687 79.221179 
L 331.437766 76.084492 
L 332.786845 76.012065 
L 334.135924 70.694909 
L 335.485003 71.869147 
L 336.834082 74.746791 
L 338.183161 74.240028 
L 339.53224 76.705843 
L 340.881319 76.064462 
L 342.230398 79.016717 
L 343.579477 83.52731 
L 344.928556 83.816549 
L 346.277635 85.657251 
L 347.626714 84.688731 
L 350.324872 88.34692 
L 351.673951 90.856485 
L 353.02303 91.39211 
L 354.372109 97.647363 
L 355.721188 96.944283 
L 357.070267 97.790071 
L 358.419346 99.004255 
L 359.768425 101.16158 
L 361.117504 101.436924 
L 362.466583 101.422304 
L 363.815663 100.700317 
L 365.164742 103.381794 
L 366.513821 104.090849 
L 367.8629 104.597495 
L 369.211979 104.744755 
L 370.561058 104.299965 
L 371.910137 106.3456 
L 373.259216 107.93725 
L 374.608295 107.501099 
L 375.957374 108.289407 
L 377.306453 107.361437 
L 378.655532 109.766208 
L 380.004611 107.943637 
L 381.35369 110.78972 
L 382.702769 111.92642 
L 384.051848 111.422215 
L 386.750006 113.846249 
L 388.099085 113.635579 
L 389.448164 115.38878 
L 390.797243 115.891538 
L 392.146322 115.505787 
L 393.495401 117.716196 
L 394.84448 118.04384 
L 396.193559 117.727009 
L 397.542638 119.194158 
L 398.891717 119.657625 
L 400.240796 120.738441 
L 401.589875 123.168091 
L 402.938954 123.478685 
L 404.288033 123.563179 
L 405.637112 124.815878 
L 408.33527 124.987945 
L 409.684349 127.090978 
L 411.033428 125.497279 
L 412.382507 127.410666 
L 413.731586 126.677668 
L 415.080665 128.348899 
L 416.429745 129.186597 
L 417.778824 128.300666 
L 419.127903 129.48076 
L 420.476982 129.849882 
L 421.826061 130.45719 
L 423.17514 131.642569 
L 424.524219 131.605255 
L 425.873298 131.770901 
L 427.222377 133.01995 
L 428.571456 133.392424 
L 429.920535 133.035171 
L 431.269614 133.497591 
L 432.618693 134.205806 
L 433.967772 134.353512 
L 435.316851 135.592971 
L 436.66593 135.869494 
L 438.015009 137.519976 
L 439.364088 138.281684 
L 440.713167 138.295325 
L 442.062246 137.779231 
L 443.411325 138.360365 
L 444.760404 139.718545 
L 446.109483 139.945936 
L 447.458562 139.998839 
L 448.807641 140.466871 
L 450.15672 140.54232 
L 451.505799 140.939589 
L 452.854878 142.265907 
L 454.203957 142.104484 
L 455.553036 144.477943 
L 456.902115 144.161848 
L 458.251194 145.377117 
L 459.600273 147.147845 
L 460.949352 146.293524 
L 462.298431 147.823311 
L 463.64751 147.075777 
L 464.996589 148.965062 
L 466.345668 148.526864 
L 467.694747 148.834428 
L 469.043827 150.116044 
L 470.392906 150.183684 
L 471.741985 150.990928 
L 473.091064 151.118622 
L 474.440143 151.608157 
L 475.789222 151.699934 
L 477.138301 152.653337 
L 478.48738 152.512783 
L 479.836459 152.868642 
L 481.185538 152.919811 
L 482.534617 154.599805 
L 483.883696 154.250224 
L 485.232775 153.383267 
L 486.581854 156.157926 
L 487.930933 156.167181 
L 489.280012 160.278037 
L 490.629091 161.789202 
L 490.629091 161.789202 
" clip-path="url(#p17e9065637)" style="fill: none; stroke: #d62728; stroke-width: 1.5; stroke-linecap: square"/>
   </g>
   <g id="line2d_28">
    <path d="M 334.135924 379.96 
L 334.135924 55.968 
" clip-path="url(#p17e9065637)" style="fill: none; stroke-dasharray: 11.1,4.8; stroke-dashoffset: 0; stroke: #ffd700; stroke-width: 3"/>
   </g>
   <g id="patch_3">
    <path d="M 57.17 379.96 
L 57.17 55.968 
" style="fill: none; stroke: #000000; stroke-width: 0.8; stroke-linejoin: miter; stroke-linecap: square"/>
   </g>
   <g id="patch_4">
    <path d="M 511.27 379.96 
L 511.27 55.968 
" style="fill: none; stroke: #000000; stroke-width: 0.8; stroke-linejoin: miter; stroke-linecap: square"/>
   </g>
   <g id="patch_5">
    <path d="M 57.17 379.96 
L 511.27 379.96 
" style="fill: none; stroke: #000000; stroke-width: 0.8; stroke-linejoin: miter; stroke-linecap: square"/>
   </g>
   <g id="patch_6">
    <path d="M 57.17 55.968 
L 511.27 55.968 
" style="fill: none; stroke: #000000; stroke-width: 0.8; stroke-linejoin: miter; stroke-linecap: square"/>
   </g>
   <g id="text_16">
    <!-- Max Throughput -->
    <g transform="translate(331.224361 308.742015) rotate(-90) scale(0.14 -0.14)">
     <defs>
      <path id="DejaVuSans-4d" d="M 628 4666 
L 1569 4666 
L 2759 1491 
L 3956 4666 
L 4897 4666 
L 4897 0 
L 4281 0 
L 4281 4097 
L 3078 897 
L 2444 897 
L 1241 4097 
L 1241 0 
L 628 0 
L 628 4666 
z
" transform="scale(0.015625)"/>
      <path id="DejaVuSans-78" d="M 3513 3500 
L 2247 1797 
L 3578 0 
L 2900 0 
L 1881 1375 
L 863 0 
L 184 0 
L 1544 1831 
L 300 3500 
L 978 3500 
L 1906 2253 
L 2834 3500 
L 3513 3500 
z
" transform="scale(0.015625)"/>
     </defs>
     <use xlink:href="#DejaVuSans-4d"/>
     <use xlink:href="#DejaVuSans-61" x="86.279297"/>
     <use xlink:href="#DejaVuSans-78" x="147.558594"/>
     <use xlink:href="#DejaVuSans-20" x="206.738281"/>
     <use xlink:href="#DejaVuSans-54" x="238.525391"/>
     <use xlink:href="#DejaVuSans-68" x="299.609375"/>
     <use xlink:href="#DejaVuSans-72" x="362.988281"/>
     <use xlink:href="#DejaVuSans-6f" x="401.851562"/>
     <use xlink:href="#DejaVuSans-75" x="463.033203"/>
     <use xlink:href="#DejaVuSans-67" x="526.412109"/>
     <use xlink:href="#DejaVuSans-68" x="589.888672"/>
     <use xlink:href="#DejaVuSans-70" x="653.267578"/>
     <use xlink:href="#DejaVuSans-75" x="716.744141"/>
     <use xlink:href="#DejaVuSans-74" x="780.123047"/>
    </g>
   </g>
   <g id="legend_1">
    <g id="patch_7">
     <path d="M 64.17 78.646125 
L 154.249688 78.646125 
Q 156.249688 78.646125 156.249688 76.646125 
L 156.249688 62.968 
Q 156.249688 60.968 154.249688 60.968 
L 64.17 60.968 
Q 62.17 60.968 62.17 62.968 
L 62.17 76.646125 
Q 62.17 78.646125 64.17 78.646125 
z
" style="fill: #ffffff; opacity: 0.8; stroke: #cccccc; stroke-linejoin: miter"/>
    </g>
    <g id="line2d_29">
     <path d="M 66.17 69.066438 
L 76.17 69.066438 
L 86.17 69.066438 
" style="fill: none; stroke: #d62728; stroke-width: 1.5; stroke-linecap: square"/>
    </g>
    <g id="text_17">
     <!-- Throughput -->
     <g transform="translate(94.17 72.566438) scale(0.1 -0.1)">
      <use xlink:href="#DejaVuSans-54"/>
      <use xlink:href="#DejaVuSans-68" x="61.083984"/>
      <use xlink:href="#DejaVuSans-72" x="124.462891"/>
      <use xlink:href="#DejaVuSans-6f" x="163.326172"/>
      <use xlink:href="#DejaVuSans-75" x="224.507812"/>
      <use xlink:href="#DejaVuSans-67" x="287.886719"/>
      <use xlink:href="#DejaVuSans-68" x="351.363281"/>
      <use xlink:href="#DejaVuSans-70" x="414.742188"/>
      <use xlink:href="#DejaVuSans-75" x="478.21875"/>
      <use xlink:href="#DejaVuSans-74" x="541.597656"/>
     </g>
    </g>
   </g>
  </g>
  <g id="axes_2">
   <g id="matplotlib.axis_3">
    <g id="ytick_7">
     <g id="line2d_30">
      <defs>
       <path id="m1257a4dc08" d="M 0 0 
L 3.5 0 
" style="stroke: #000000; stroke-width: 0.8"/>
      </defs>
      <g>
       <use xlink:href="#m1257a4dc08" x="511.27" y="373.104947" style="stroke: #000000; stroke-width: 0.8"/>
      </g>
     </g>
     <g id="text_18">
      <!-- 100 -->
      <g style="fill: #1f77b4" transform="translate(518.27 377.664009) scale(0.12 -0.12)">
       <use xlink:href="#DejaVuSans-31"/>
       <use xlink:href="#DejaVuSans-30" x="63.623047"/>
       <use xlink:href="#DejaVuSans-30" x="127.246094"/>
      </g>
     </g>
    </g>
    <g id="ytick_8">
     <g id="line2d_31">
      <g>
       <use xlink:href="#m1257a4dc08" x="511.27" y="317.666516" style="stroke: #000000; stroke-width: 0.8"/>
      </g>
     </g>
     <g id="text_19">
      <!-- 200 -->
      <g style="fill: #1f77b4" transform="translate(518.27 322.225579) scale(0.12 -0.12)">
       <use xlink:href="#DejaVuSans-32"/>
       <use xlink:href="#DejaVuSans-30" x="63.623047"/>
       <use xlink:href="#DejaVuSans-30" x="127.246094"/>
      </g>
     </g>
    </g>
    <g id="ytick_9">
     <g id="line2d_32">
      <g>
       <use xlink:href="#m1257a4dc08" x="511.27" y="262.228086" style="stroke: #000000; stroke-width: 0.8"/>
      </g>
     </g>
     <g id="text_20">
      <!-- 300 -->
      <g style="fill: #1f77b4" transform="translate(518.27 266.787148) scale(0.12 -0.12)">
       <use xlink:href="#DejaVuSans-33"/>
       <use xlink:href="#DejaVuSans-30" x="63.623047"/>
       <use xlink:href="#DejaVuSans-30" x="127.246094"/>
      </g>
     </g>
    </g>
    <g id="ytick_10">
     <g id="line2d_33">
      <g>
       <use xlink:href="#m1257a4dc08" x="511.27" y="206.789655" style="stroke: #000000; stroke-width: 0.8"/>
      </g>
     </g>
     <g id="text_21">
      <!-- 400 -->
      <g style="fill: #1f77b4" transform="translate(518.27 211.348717) scale(0.12 -0.12)">
       <use xlink:href="#DejaVuSans-34"/>
       <use xlink:href="#DejaVuSans-30" x="63.623047"/>
       <use xlink:href="#DejaVuSans-30" x="127.246094"/>
      </g>
     </g>
    </g>
    <g id="ytick_11">
     <g id="line2d_34">
      <g>
       <use xlink:href="#m1257a4dc08" x="511.27" y="151.351224" style="stroke: #000000; stroke-width: 0.8"/>
      </g>
     </g>
     <g id="text_22">
      <!-- 500 -->
      <g style="fill: #1f77b4" transform="translate(518.27 155.910287) scale(0.12 -0.12)">
       <use xlink:href="#DejaVuSans-35"/>
       <use xlink:href="#DejaVuSans-30" x="63.623047"/>
       <use xlink:href="#DejaVuSans-30" x="127.246094"/>
      </g>
     </g>
    </g>
    <g id="ytick_12">
     <g id="line2d_35">
      <g>
       <use xlink:href="#m1257a4dc08" x="511.27" y="95.912793" style="stroke: #000000; stroke-width: 0.8"/>
      </g>
     </g>
     <g id="text_23">
      <!-- 600 -->
      <g style="fill: #1f77b4" transform="translate(518.27 100.471856) scale(0.12 -0.12)">
       <use xlink:href="#DejaVuSans-36"/>
       <use xlink:href="#DejaVuSans-30" x="63.623047"/>
       <use xlink:href="#DejaVuSans-30" x="127.246094"/>
      </g>
     </g>
    </g>
    <g id="text_24">
     <!-- Delay (ms) -->
     <g style="fill: #1f77b4" transform="translate(560.371875 272.573375) rotate(-90) scale(0.2 -0.2)">
      <defs>
       <path id="DejaVuSans-44" d="M 1259 4147 
L 1259 519 
L 2022 519 
Q 2988 519 3436 956 
Q 3884 1394 3884 2338 
Q 3884 3275 3436 3711 
Q 2988 4147 2022 4147 
L 1259 4147 
z
M 628 4666 
L 1925 4666 
Q 3281 4666 3915 4102 
Q 4550 3538 4550 2338 
Q 4550 1131 3912 565 
Q 3275 0 1925 0 
L 628 0 
L 628 4666 
z
" transform="scale(0.015625)"/>
      </defs>
      <use xlink:href="#DejaVuSans-44"/>
      <use xlink:href="#DejaVuSans-65" x="77.001953"/>
      <use xlink:href="#DejaVuSans-6c" x="138.525391"/>
      <use xlink:href="#DejaVuSans-61" x="166.308594"/>
      <use xlink:href="#DejaVuSans-79" x="227.587891"/>
      <use xlink:href="#DejaVuSans-20" x="286.767578"/>
      <use xlink:href="#DejaVuSans-28" x="318.554688"/>
      <use xlink:href="#DejaVuSans-6d" x="357.568359"/>
      <use xlink:href="#DejaVuSans-73" x="454.980469"/>
      <use xlink:href="#DejaVuSans-29" x="507.080078"/>
     </g>
    </g>
   </g>
   <g id="line2d_36">
    <path d="M 77.810909 70.694909 
L 79.159988 110.680388 
L 80.509067 111.860497 
L 81.858146 113.84574 
L 83.207225 126.585309 
L 84.556304 125.997005 
L 85.905383 129.018983 
L 87.254462 141.605659 
L 88.603541 141.373364 
L 89.95262 143.979846 
L 91.301699 156.665435 
L 92.650778 156.903711 
L 93.999857 159.989845 
L 95.348936 172.16179 
L 96.698015 172.526553 
L 98.047094 176.664229 
L 99.396173 189.036519 
L 100.745253 189.947897 
L 102.094332 194.154142 
L 103.443411 207.116158 
L 104.79249 206.539234 
L 106.141569 212.56488 
L 107.490648 213.285762 
L 108.839727 213.667193 
L 110.188806 216.985913 
L 111.537885 216.546199 
L 112.886964 217.913595 
L 114.236043 220.834252 
L 115.585122 220.699814 
L 116.934201 221.799975 
L 118.28328 225.099583 
L 119.632359 224.672087 
L 120.981438 226.510855 
L 122.330517 229.033523 
L 123.679596 229.236092 
L 125.028675 230.474958 
L 126.377754 233.824242 
L 127.726833 233.595777 
L 129.075912 235.401611 
L 130.424991 236.828385 
L 131.77407 238.421802 
L 133.123149 239.604939 
L 134.472228 243.05051 
L 135.821307 243.286123 
L 137.170386 245.066426 
L 138.519465 248.427527 
L 139.868544 247.673747 
L 142.566702 252.99394 
L 143.915781 253.636478 
L 145.26486 254.874397 
L 146.613939 258.669339 
L 147.963018 258.905427 
L 149.312097 260.967882 
L 150.661176 264.666975 
L 152.010255 264.674124 
L 154.708414 270.091042 
L 156.057493 270.556068 
L 157.406572 275.168728 
L 161.453809 276.252841 
L 162.802888 276.973067 
L 164.151967 277.00498 
L 165.501046 277.79527 
L 166.850125 277.684612 
L 169.548283 279.257787 
L 170.897362 279.08994 
L 172.246441 279.407179 
L 173.59552 280.264177 
L 174.944599 280.431404 
L 176.293678 280.756995 
L 177.642757 281.350223 
L 178.991836 281.326187 
L 180.340915 282.134968 
L 181.689994 282.263316 
L 183.039073 283.267116 
L 184.388152 283.506413 
L 185.737231 284.163067 
L 187.08631 284.145304 
L 188.435389 285.138017 
L 189.784468 285.690249 
L 191.133547 285.323517 
L 192.482626 286.446182 
L 193.831705 287.080222 
L 195.180784 286.795954 
L 196.529863 287.785567 
L 197.878942 288.622505 
L 199.228021 288.615611 
L 201.926179 290.0019 
L 203.275258 290.242073 
L 204.624337 291.363789 
L 205.973417 291.659364 
L 207.322496 291.81109 
L 208.671575 292.710542 
L 210.020654 293.347391 
L 211.369733 293.362235 
L 212.718812 294.370704 
L 214.067891 294.93293 
L 215.41697 295.182512 
L 218.115128 297.033463 
L 219.464207 296.748247 
L 220.813286 297.97019 
L 222.162365 298.508198 
L 223.511444 298.707886 
L 224.860523 299.855279 
L 226.209602 300.42531 
L 227.558681 300.593303 
L 228.90776 301.721949 
L 230.256839 302.209844 
L 231.605918 302.52515 
L 232.954997 303.713648 
L 234.304076 303.979096 
L 235.653155 304.56802 
L 237.002234 305.634626 
L 238.351313 306.318707 
L 239.700392 306.6083 
L 241.049471 307.3871 
L 242.39855 308.395861 
L 243.747629 308.446485 
L 245.096708 309.891021 
L 246.445787 310.584074 
L 247.794866 310.721503 
L 249.143945 311.943118 
L 250.493024 312.448301 
L 251.842103 312.752373 
L 253.191182 313.991058 
L 254.540261 314.749944 
L 255.88934 314.847581 
L 257.238419 316.049829 
L 258.587499 316.739345 
L 259.936578 317.127013 
L 261.285657 318.019644 
L 262.634736 319.200811 
L 263.983815 319.097995 
L 265.332894 320.831394 
L 266.681973 321.450809 
L 268.031052 321.687808 
L 269.380131 322.89498 
L 270.72921 323.652554 
L 272.078289 324.027018 
L 273.427368 325.60333 
L 274.776447 326.208776 
L 276.125526 326.310316 
L 277.474605 328.097913 
L 278.823684 328.62622 
L 280.172763 328.753181 
L 281.521842 330.230725 
L 282.870921 331.20232 
L 284.22 331.157859 
L 285.569079 333.088795 
L 286.918158 333.693803 
L 288.267237 333.621624 
L 289.616316 335.609602 
L 290.965395 336.397448 
L 292.314474 336.530609 
L 293.663553 338.221591 
L 295.012632 339.232649 
L 296.361711 339.27835 
L 297.71079 340.939569 
L 299.059869 341.813454 
L 300.408948 341.791862 
L 301.758027 344.021107 
L 303.107106 344.246399 
L 304.456185 344.604524 
L 305.805264 346.62055 
L 307.154343 347.221874 
L 308.503422 347.391326 
L 309.852501 349.319161 
L 311.201581 350.142167 
L 312.55066 350.347508 
L 313.899739 352.173803 
L 315.248818 352.938744 
L 316.597897 353.301975 
L 317.946976 354.945578 
L 319.296055 355.944163 
L 320.645134 355.723576 
L 321.994213 358.26944 
L 323.343292 358.282644 
L 324.692371 358.660464 
L 326.04145 361.048547 
L 327.390529 361.403244 
L 328.739608 361.551323 
L 330.088687 363.668122 
L 331.437766 364.247527 
L 332.786845 364.245703 
L 334.135924 365.233091 
L 335.485003 365.019142 
L 336.834082 364.437914 
L 338.183161 364.523114 
L 339.53224 364.107472 
L 340.881319 364.219406 
L 342.230398 363.683404 
L 343.579477 362.77757 
L 344.928556 362.741061 
L 346.277635 362.326804 
L 347.626714 362.552096 
L 351.673951 361.36699 
L 353.02303 361.198669 
L 354.372109 359.995545 
L 355.721188 360.122689 
L 358.419346 359.655729 
L 359.768425 359.26715 
L 362.466583 359.147811 
L 363.815663 359.371498 
L 365.164742 358.78283 
L 366.513821 359.44065 
L 367.8629 359.182934 
L 369.211979 358.277173 
L 370.561058 359.085735 
L 371.910137 358.158819 
L 373.259216 357.768999 
L 374.608295 357.923351 
L 375.957374 357.749122 
L 377.306453 357.936445 
L 378.655532 357.373745 
L 380.004611 357.759699 
L 381.35369 357.110376 
L 382.702769 356.935526 
L 384.051848 357.024045 
L 386.750006 356.473564 
L 388.099085 356.495557 
L 389.448164 356.083306 
L 390.797243 355.99103 
L 392.146322 356.107086 
L 393.495401 355.608396 
L 394.84448 355.470383 
L 396.193559 355.588336 
L 397.542638 355.242283 
L 398.891717 355.158797 
L 400.240796 354.928618 
L 401.589875 354.314674 
L 408.33527 353.8669 
L 409.684349 353.35745 
L 411.033428 353.669546 
L 412.382507 353.235412 
L 413.731586 353.43944 
L 415.080665 353.025877 
L 416.429745 352.802372 
L 417.778824 353.05852 
L 419.127903 352.750435 
L 421.826061 352.495601 
L 423.17514 352.199406 
L 424.524219 352.182994 
L 425.873298 352.574163 
L 428.571456 351.764579 
L 429.920535 352.136382 
L 431.269614 352.363023 
L 432.618693 351.501648 
L 433.967772 351.498803 
L 435.316851 351.16847 
L 436.66593 351.113178 
L 438.015009 350.658875 
L 439.364088 350.474323 
L 443.411325 350.449594 
L 444.760404 350.0957 
L 451.505799 349.769927 
L 452.854878 349.406951 
L 454.203957 349.441345 
L 455.553036 348.794867 
L 456.902115 348.896698 
L 459.600273 348.046411 
L 460.949352 348.279071 
L 462.298431 347.869884 
L 463.64751 348.056405 
L 464.996589 347.532548 
L 466.345668 347.670305 
L 467.694747 347.564316 
L 469.043827 347.21385 
L 470.392906 347.153306 
L 471.741985 346.940087 
L 475.789222 346.746271 
L 477.138301 346.448362 
L 478.48738 346.504202 
L 479.836459 352.082548 
L 481.185538 347.983058 
L 482.534617 345.888179 
L 483.883696 345.992199 
L 485.232775 346.22701 
L 486.581854 345.400831 
L 487.930933 345.398388 
L 489.280012 344.145443 
L 490.629091 343.705728 
L 490.629091 343.705728 
" clip-path="url(#p17e9065637)" style="fill: none; stroke: #1f77b4; stroke-width: 1.5; stroke-linecap: square"/>
   </g>
   <g id="patch_8">
    <path d="M 57.17 379.96 
L 57.17 55.968 
" style="fill: none; stroke: #000000; stroke-width: 0.8; stroke-linejoin: miter; stroke-linecap: square"/>
   </g>
   <g id="patch_9">
    <path d="M 511.27 379.96 
L 511.27 55.968 
" style="fill: none; stroke: #000000; stroke-width: 0.8; stroke-linejoin: miter; stroke-linecap: square"/>
   </g>
   <g id="patch_10">
    <path d="M 57.17 379.96 
L 511.27 379.96 
" style="fill: none; stroke: #000000; stroke-width: 0.8; stroke-linejoin: miter; stroke-linecap: square"/>
   </g>
   <g id="patch_11">
    <path d="M 57.17 55.968 
L 511.27 55.968 
" style="fill: none; stroke: #000000; stroke-width: 0.8; stroke-linejoin: miter; stroke-linecap: square"/>
   </g>
   <g id="text_25">
    <!-- [orin] -->
    <g transform="translate(257.071563 27.572375) scale(0.2 -0.2)">
     <defs>
      <path id="DejaVuSans-5b" d="M 550 4863 
L 1875 4863 
L 1875 4416 
L 1125 4416 
L 1125 -397 
L 1875 -397 
L 1875 -844 
L 550 -844 
L 550 4863 
z
" transform="scale(0.015625)"/>
      <path id="DejaVuSans-69" d="M 603 3500 
L 1178 3500 
L 1178 0 
L 603 0 
L 603 3500 
z
M 603 4863 
L 1178 4863 
L 1178 4134 
L 603 4134 
L 603 4863 
z
" transform="scale(0.015625)"/>
      <path id="DejaVuSans-6e" d="M 3513 2113 
L 3513 0 
L 2938 0 
L 2938 2094 
Q 2938 2591 2744 2837 
Q 2550 3084 2163 3084 
Q 1697 3084 1428 2787 
Q 1159 2491 1159 1978 
L 1159 0 
L 581 0 
L 581 3500 
L 1159 3500 
L 1159 2956 
Q 1366 3272 1645 3428 
Q 1925 3584 2291 3584 
Q 2894 3584 3203 3211 
Q 3513 2838 3513 2113 
z
" transform="scale(0.015625)"/>
      <path id="DejaVuSans-5d" d="M 1947 4863 
L 1947 -844 
L 622 -844 
L 622 -397 
L 1369 -397 
L 1369 4416 
L 622 4416 
L 622 4863 
L 1947 4863 
z
" transform="scale(0.015625)"/>
     </defs>
     <use xlink:href="#DejaVuSans-5b"/>
     <use xlink:href="#DejaVuSans-6f" x="39.013672"/>
     <use xlink:href="#DejaVuSans-72" x="100.195312"/>
     <use xlink:href="#DejaVuSans-69" x="141.308594"/>
     <use xlink:href="#DejaVuSans-6e" x="169.091797"/>
     <use xlink:href="#DejaVuSans-5d" x="232.470703"/>
    </g>
    <!-- GPU-accel [0,M] with densenet201 -->
    <g transform="translate(111.03875 49.968) scale(0.2 -0.2)">
     <defs>
      <path id="DejaVuSans-47" d="M 3809 666 
L 3809 1919 
L 2778 1919 
L 2778 2438 
L 4434 2438 
L 4434 434 
Q 4069 175 3628 42 
Q 3188 -91 2688 -91 
Q 1594 -91 976 548 
Q 359 1188 359 2328 
Q 359 3472 976 4111 
Q 1594 4750 2688 4750 
Q 3144 4750 3555 4637 
Q 3966 4525 4313 4306 
L 4313 3634 
Q 3963 3931 3569 4081 
Q 3175 4231 2741 4231 
Q 1884 4231 1454 3753 
Q 1025 3275 1025 2328 
Q 1025 1384 1454 906 
Q 1884 428 2741 428 
Q 3075 428 3337 486 
Q 3600 544 3809 666 
z
" transform="scale(0.015625)"/>
      <path id="DejaVuSans-50" d="M 1259 4147 
L 1259 2394 
L 2053 2394 
Q 2494 2394 2734 2622 
Q 2975 2850 2975 3272 
Q 2975 3691 2734 3919 
Q 2494 4147 2053 4147 
L 1259 4147 
z
M 628 4666 
L 2053 4666 
Q 2838 4666 3239 4311 
Q 3641 3956 3641 3272 
Q 3641 2581 3239 2228 
Q 2838 1875 2053 1875 
L 1259 1875 
L 1259 0 
L 628 0 
L 628 4666 
z
" transform="scale(0.015625)"/>
      <path id="DejaVuSans-55" d="M 556 4666 
L 1191 4666 
L 1191 1831 
Q 1191 1081 1462 751 
Q 1734 422 2344 422 
Q 2950 422 3222 751 
Q 3494 1081 3494 1831 
L 3494 4666 
L 4128 4666 
L 4128 1753 
Q 4128 841 3676 375 
Q 3225 -91 2344 -91 
Q 1459 -91 1007 375 
Q 556 841 556 1753 
L 556 4666 
z
" transform="scale(0.015625)"/>
      <path id="DejaVuSans-2d" d="M 313 2009 
L 1997 2009 
L 1997 1497 
L 313 1497 
L 313 2009 
z
" transform="scale(0.015625)"/>
      <path id="DejaVuSans-2c" d="M 750 794 
L 1409 794 
L 1409 256 
L 897 -744 
L 494 -744 
L 750 256 
L 750 794 
z
" transform="scale(0.015625)"/>
      <path id="DejaVuSans-77" d="M 269 3500 
L 844 3500 
L 1563 769 
L 2278 3500 
L 2956 3500 
L 3675 769 
L 4391 3500 
L 4966 3500 
L 4050 0 
L 3372 0 
L 2619 2869 
L 1863 0 
L 1184 0 
L 269 3500 
z
" transform="scale(0.015625)"/>
     </defs>
     <use xlink:href="#DejaVuSans-47"/>
     <use xlink:href="#DejaVuSans-50" x="77.490234"/>
     <use xlink:href="#DejaVuSans-55" x="137.792969"/>
     <use xlink:href="#DejaVuSans-2d" x="210.986328"/>
     <use xlink:href="#DejaVuSans-61" x="247.070312"/>
     <use xlink:href="#DejaVuSans-63" x="308.349609"/>
     <use xlink:href="#DejaVuSans-63" x="363.330078"/>
     <use xlink:href="#DejaVuSans-65" x="418.310547"/>
     <use xlink:href="#DejaVuSans-6c" x="479.833984"/>
     <use xlink:href="#DejaVuSans-20" x="507.617188"/>
     <use xlink:href="#DejaVuSans-5b" x="539.404297"/>
     <use xlink:href="#DejaVuSans-30" x="578.417969"/>
     <use xlink:href="#DejaVuSans-2c" x="642.041016"/>
     <use xlink:href="#DejaVuSans-4d" x="673.828125"/>
     <use xlink:href="#DejaVuSans-5d" x="760.107422"/>
     <use xlink:href="#DejaVuSans-20" x="799.121094"/>
     <use xlink:href="#DejaVuSans-77" x="830.908203"/>
     <use xlink:href="#DejaVuSans-69" x="912.695312"/>
     <use xlink:href="#DejaVuSans-74" x="940.478516"/>
     <use xlink:href="#DejaVuSans-68" x="979.6875"/>
     <use xlink:href="#DejaVuSans-20" x="1043.066406"/>
     <use xlink:href="#DejaVuSans-64" x="1074.853516"/>
     <use xlink:href="#DejaVuSans-65" x="1138.330078"/>
     <use xlink:href="#DejaVuSans-6e" x="1199.853516"/>
     <use xlink:href="#DejaVuSans-73" x="1263.232422"/>
     <use xlink:href="#DejaVuSans-65" x="1315.332031"/>
     <use xlink:href="#DejaVuSans-6e" x="1376.855469"/>
     <use xlink:href="#DejaVuSans-65" x="1440.234375"/>
     <use xlink:href="#DejaVuSans-74" x="1501.757812"/>
     <use xlink:href="#DejaVuSans-32" x="1540.966797"/>
     <use xlink:href="#DejaVuSans-30" x="1604.589844"/>
     <use xlink:href="#DejaVuSans-31" x="1668.212891"/>
    </g>
   </g>
   <g id="legend_2">
    <g id="patch_12">
     <path d="M 443.591875 78.646125 
L 504.27 78.646125 
Q 506.27 78.646125 506.27 76.646125 
L 506.27 62.968 
Q 506.27 60.968 504.27 60.968 
L 443.591875 60.968 
Q 441.591875 60.968 441.591875 62.968 
L 441.591875 76.646125 
Q 441.591875 78.646125 443.591875 78.646125 
z
" style="fill: #ffffff; opacity: 0.8; stroke: #cccccc; stroke-linejoin: miter"/>
    </g>
    <g id="line2d_37">
     <path d="M 445.591875 69.066438 
L 455.591875 69.066438 
L 465.591875 69.066438 
" style="fill: none; stroke: #1f77b4; stroke-width: 1.5; stroke-linecap: square"/>
    </g>
    <g id="text_26">
     <!-- Delay -->
     <g transform="translate(473.591875 72.566438) scale(0.1 -0.1)">
      <use xlink:href="#DejaVuSans-44"/>
      <use xlink:href="#DejaVuSans-65" x="77.001953"/>
      <use xlink:href="#DejaVuSans-6c" x="138.525391"/>
      <use xlink:href="#DejaVuSans-61" x="166.308594"/>
      <use xlink:href="#DejaVuSans-79" x="227.587891"/>
     </g>
    </g>
   </g>
  </g>
 </g>
 <defs>
  <clipPath id="p17e9065637">
   <rect x="57.17" y="55.968" width="454.1" height="323.992"/>
  </clipPath>
 </defs>
</svg>
