<?xml version="1.0" encoding="utf-8" standalone="no"?>
<!DOCTYPE svg PUBLIC "-//W3C//DTD SVG 1.1//EN"
  "http://www.w3.org/Graphics/SVG/1.1/DTD/svg11.dtd">
<svg xmlns:xlink="http://www.w3.org/1999/xlink" width="576pt" height="432pt" viewBox="0 0 576 432" xmlns="http://www.w3.org/2000/svg" version="1.1">
 <metadata>
  <rdf:RDF xmlns:dc="http://purl.org/dc/elements/1.1/" xmlns:cc="http://creativecommons.org/ns#" xmlns:rdf="http://www.w3.org/1999/02/22-rdf-syntax-ns#">
   <cc:Work>
    <dc:type rdf:resource="http://purl.org/dc/dcmitype/StillImage"/>
    <dc:date>2025-01-16T15:59:46.399592</dc:date>
    <dc:format>image/svg+xml</dc:format>
    <dc:creator>
     <cc:Agent>
      <dc:title>Matplotlib v3.7.5, https://matplotlib.org/</dc:title>
     </cc:Agent>
    </dc:creator>
   </cc:Work>
  </rdf:RDF>
 </metadata>
 <defs>
  <style type="text/css">*{stroke-linejoin: round; stroke-linecap: butt}</style>
 </defs>
 <g id="figure_1">
  <g id="patch_1">
   <path d="M 0 432 
L 576 432 
L 576 0 
L 0 0 
z
" style="fill: #ffffff"/>
  </g>
  <g id="axes_1">
   <g id="patch_2">
    <path d="M 64.73 379.96 
L 511.27 379.96 
L 511.27 55.968 
L 64.73 55.968 
z
" style="fill: #ffffff"/>
   </g>
   <g id="matplotlib.axis_1">
    <g id="xtick_1">
     <g id="line2d_1">
      <path d="M 83.696304 379.96 
L 83.696304 55.968 
" clip-path="url(#p78bcd8a298)" style="fill: none; stroke-dasharray: 1.85,0.8; stroke-dashoffset: 0; stroke: #b0b0b0; stroke-opacity: 0.7; stroke-width: 0.5"/>
     </g>
     <g id="line2d_2">
      <defs>
       <path id="m8d5cd64d1c" d="M 0 0 
L 0 3.5 
" style="stroke: #000000; stroke-width: 0.8"/>
      </defs>
      <g>
       <use xlink:href="#m8d5cd64d1c" x="83.696304" y="379.96" style="stroke: #000000; stroke-width: 0.8"/>
      </g>
     </g>
     <g id="text_1">
      <!-- 0 -->
      <g transform="translate(80.515054 394.558437) scale(0.1 -0.1)">
       <defs>
        <path id="DejaVuSans-30" d="M 2034 4250 
Q 1547 4250 1301 3770 
Q 1056 3291 1056 2328 
Q 1056 1369 1301 889 
Q 1547 409 2034 409 
Q 2525 409 2770 889 
Q 3016 1369 3016 2328 
Q 3016 3291 2770 3770 
Q 2525 4250 2034 4250 
z
M 2034 4750 
Q 2819 4750 3233 4129 
Q 3647 3509 3647 2328 
Q 3647 1150 3233 529 
Q 2819 -91 2034 -91 
Q 1250 -91 836 529 
Q 422 1150 422 2328 
Q 422 3509 836 4129 
Q 1250 4750 2034 4750 
z
" transform="scale(0.015625)"/>
       </defs>
       <use xlink:href="#DejaVuSans-30"/>
      </g>
     </g>
    </g>
    <g id="xtick_2">
     <g id="line2d_3">
      <path d="M 150.244739 379.96 
L 150.244739 55.968 
" clip-path="url(#p78bcd8a298)" style="fill: none; stroke-dasharray: 1.85,0.8; stroke-dashoffset: 0; stroke: #b0b0b0; stroke-opacity: 0.7; stroke-width: 0.5"/>
     </g>
     <g id="line2d_4">
      <g>
       <use xlink:href="#m8d5cd64d1c" x="150.244739" y="379.96" style="stroke: #000000; stroke-width: 0.8"/>
      </g>
     </g>
     <g id="text_2">
      <!-- 50 -->
      <g transform="translate(143.882239 394.558437) scale(0.1 -0.1)">
       <defs>
        <path id="DejaVuSans-35" d="M 691 4666 
L 3169 4666 
L 3169 4134 
L 1269 4134 
L 1269 2991 
Q 1406 3038 1543 3061 
Q 1681 3084 1819 3084 
Q 2600 3084 3056 2656 
Q 3513 2228 3513 1497 
Q 3513 744 3044 326 
Q 2575 -91 1722 -91 
Q 1428 -91 1123 -41 
Q 819 9 494 109 
L 494 744 
Q 775 591 1075 516 
Q 1375 441 1709 441 
Q 2250 441 2565 725 
Q 2881 1009 2881 1497 
Q 2881 1984 2565 2268 
Q 2250 2553 1709 2553 
Q 1456 2553 1204 2497 
Q 953 2441 691 2322 
L 691 4666 
z
" transform="scale(0.015625)"/>
       </defs>
       <use xlink:href="#DejaVuSans-35"/>
       <use xlink:href="#DejaVuSans-30" x="63.623047"/>
      </g>
     </g>
    </g>
    <g id="xtick_3">
     <g id="line2d_5">
      <path d="M 216.793174 379.96 
L 216.793174 55.968 
" clip-path="url(#p78bcd8a298)" style="fill: none; stroke-dasharray: 1.85,0.8; stroke-dashoffset: 0; stroke: #b0b0b0; stroke-opacity: 0.7; stroke-width: 0.5"/>
     </g>
     <g id="line2d_6">
      <g>
       <use xlink:href="#m8d5cd64d1c" x="216.793174" y="379.96" style="stroke: #000000; stroke-width: 0.8"/>
      </g>
     </g>
     <g id="text_3">
      <!-- 100 -->
      <g transform="translate(207.249424 394.558437) scale(0.1 -0.1)">
       <defs>
        <path id="DejaVuSans-31" d="M 794 531 
L 1825 531 
L 1825 4091 
L 703 3866 
L 703 4441 
L 1819 4666 
L 2450 4666 
L 2450 531 
L 3481 531 
L 3481 0 
L 794 0 
L 794 531 
z
" transform="scale(0.015625)"/>
       </defs>
       <use xlink:href="#DejaVuSans-31"/>
       <use xlink:href="#DejaVuSans-30" x="63.623047"/>
       <use xlink:href="#DejaVuSans-30" x="127.246094"/>
      </g>
     </g>
    </g>
    <g id="xtick_4">
     <g id="line2d_7">
      <path d="M 283.34161 379.96 
L 283.34161 55.968 
" clip-path="url(#p78bcd8a298)" style="fill: none; stroke-dasharray: 1.85,0.8; stroke-dashoffset: 0; stroke: #b0b0b0; stroke-opacity: 0.7; stroke-width: 0.5"/>
     </g>
     <g id="line2d_8">
      <g>
       <use xlink:href="#m8d5cd64d1c" x="283.34161" y="379.96" style="stroke: #000000; stroke-width: 0.8"/>
      </g>
     </g>
     <g id="text_4">
      <!-- 150 -->
      <g transform="translate(273.79786 394.558437) scale(0.1 -0.1)">
       <use xlink:href="#DejaVuSans-31"/>
       <use xlink:href="#DejaVuSans-35" x="63.623047"/>
       <use xlink:href="#DejaVuSans-30" x="127.246094"/>
      </g>
     </g>
    </g>
    <g id="xtick_5">
     <g id="line2d_9">
      <path d="M 349.890045 379.96 
L 349.890045 55.968 
" clip-path="url(#p78bcd8a298)" style="fill: none; stroke-dasharray: 1.85,0.8; stroke-dashoffset: 0; stroke: #b0b0b0; stroke-opacity: 0.7; stroke-width: 0.5"/>
     </g>
     <g id="line2d_10">
      <g>
       <use xlink:href="#m8d5cd64d1c" x="349.890045" y="379.96" style="stroke: #000000; stroke-width: 0.8"/>
      </g>
     </g>
     <g id="text_5">
      <!-- 200 -->
      <g transform="translate(340.346295 394.558437) scale(0.1 -0.1)">
       <defs>
        <path id="DejaVuSans-32" d="M 1228 531 
L 3431 531 
L 3431 0 
L 469 0 
L 469 531 
Q 828 903 1448 1529 
Q 2069 2156 2228 2338 
Q 2531 2678 2651 2914 
Q 2772 3150 2772 3378 
Q 2772 3750 2511 3984 
Q 2250 4219 1831 4219 
Q 1534 4219 1204 4116 
Q 875 4013 500 3803 
L 500 4441 
Q 881 4594 1212 4672 
Q 1544 4750 1819 4750 
Q 2544 4750 2975 4387 
Q 3406 4025 3406 3419 
Q 3406 3131 3298 2873 
Q 3191 2616 2906 2266 
Q 2828 2175 2409 1742 
Q 1991 1309 1228 531 
z
" transform="scale(0.015625)"/>
       </defs>
       <use xlink:href="#DejaVuSans-32"/>
       <use xlink:href="#DejaVuSans-30" x="63.623047"/>
       <use xlink:href="#DejaVuSans-30" x="127.246094"/>
      </g>
     </g>
    </g>
    <g id="xtick_6">
     <g id="line2d_11">
      <path d="M 416.43848 379.96 
L 416.43848 55.968 
" clip-path="url(#p78bcd8a298)" style="fill: none; stroke-dasharray: 1.85,0.8; stroke-dashoffset: 0; stroke: #b0b0b0; stroke-opacity: 0.7; stroke-width: 0.5"/>
     </g>
     <g id="line2d_12">
      <g>
       <use xlink:href="#m8d5cd64d1c" x="416.43848" y="379.96" style="stroke: #000000; stroke-width: 0.8"/>
      </g>
     </g>
     <g id="text_6">
      <!-- 250 -->
      <g transform="translate(406.89473 394.558437) scale(0.1 -0.1)">
       <use xlink:href="#DejaVuSans-32"/>
       <use xlink:href="#DejaVuSans-35" x="63.623047"/>
       <use xlink:href="#DejaVuSans-30" x="127.246094"/>
      </g>
     </g>
    </g>
    <g id="xtick_7">
     <g id="line2d_13">
      <path d="M 482.986915 379.96 
L 482.986915 55.968 
" clip-path="url(#p78bcd8a298)" style="fill: none; stroke-dasharray: 1.85,0.8; stroke-dashoffset: 0; stroke: #b0b0b0; stroke-opacity: 0.7; stroke-width: 0.5"/>
     </g>
     <g id="line2d_14">
      <g>
       <use xlink:href="#m8d5cd64d1c" x="482.986915" y="379.96" style="stroke: #000000; stroke-width: 0.8"/>
      </g>
     </g>
     <g id="text_7">
      <!-- 300 -->
      <g transform="translate(473.443165 394.558437) scale(0.1 -0.1)">
       <defs>
        <path id="DejaVuSans-33" d="M 2597 2516 
Q 3050 2419 3304 2112 
Q 3559 1806 3559 1356 
Q 3559 666 3084 287 
Q 2609 -91 1734 -91 
Q 1441 -91 1130 -33 
Q 819 25 488 141 
L 488 750 
Q 750 597 1062 519 
Q 1375 441 1716 441 
Q 2309 441 2620 675 
Q 2931 909 2931 1356 
Q 2931 1769 2642 2001 
Q 2353 2234 1838 2234 
L 1294 2234 
L 1294 2753 
L 1863 2753 
Q 2328 2753 2575 2939 
Q 2822 3125 2822 3475 
Q 2822 3834 2567 4026 
Q 2313 4219 1838 4219 
Q 1578 4219 1281 4162 
Q 984 4106 628 3988 
L 628 4550 
Q 988 4650 1302 4700 
Q 1616 4750 1894 4750 
Q 2613 4750 3031 4423 
Q 3450 4097 3450 3541 
Q 3450 3153 3228 2886 
Q 3006 2619 2597 2516 
z
" transform="scale(0.015625)"/>
       </defs>
       <use xlink:href="#DejaVuSans-33"/>
       <use xlink:href="#DejaVuSans-30" x="63.623047"/>
       <use xlink:href="#DejaVuSans-30" x="127.246094"/>
      </g>
     </g>
    </g>
    <g id="text_8">
     <!-- Number of Accelerated Layers -->
     <g transform="translate(136.154687 415.835) scale(0.2 -0.2)">
      <defs>
       <path id="DejaVuSans-4e" d="M 628 4666 
L 1478 4666 
L 3547 763 
L 3547 4666 
L 4159 4666 
L 4159 0 
L 3309 0 
L 1241 3903 
L 1241 0 
L 628 0 
L 628 4666 
z
" transform="scale(0.015625)"/>
       <path id="DejaVuSans-75" d="M 544 1381 
L 544 3500 
L 1119 3500 
L 1119 1403 
Q 1119 906 1312 657 
Q 1506 409 1894 409 
Q 2359 409 2629 706 
Q 2900 1003 2900 1516 
L 2900 3500 
L 3475 3500 
L 3475 0 
L 2900 0 
L 2900 538 
Q 2691 219 2414 64 
Q 2138 -91 1772 -91 
Q 1169 -91 856 284 
Q 544 659 544 1381 
z
M 1991 3584 
L 1991 3584 
z
" transform="scale(0.015625)"/>
       <path id="DejaVuSans-6d" d="M 3328 2828 
Q 3544 3216 3844 3400 
Q 4144 3584 4550 3584 
Q 5097 3584 5394 3201 
Q 5691 2819 5691 2113 
L 5691 0 
L 5113 0 
L 5113 2094 
Q 5113 2597 4934 2840 
Q 4756 3084 4391 3084 
Q 3944 3084 3684 2787 
Q 3425 2491 3425 1978 
L 3425 0 
L 2847 0 
L 2847 2094 
Q 2847 2600 2669 2842 
Q 2491 3084 2119 3084 
Q 1678 3084 1418 2786 
Q 1159 2488 1159 1978 
L 1159 0 
L 581 0 
L 581 3500 
L 1159 3500 
L 1159 2956 
Q 1356 3278 1631 3431 
Q 1906 3584 2284 3584 
Q 2666 3584 2933 3390 
Q 3200 3197 3328 2828 
z
" transform="scale(0.015625)"/>
       <path id="DejaVuSans-62" d="M 3116 1747 
Q 3116 2381 2855 2742 
Q 2594 3103 2138 3103 
Q 1681 3103 1420 2742 
Q 1159 2381 1159 1747 
Q 1159 1113 1420 752 
Q 1681 391 2138 391 
Q 2594 391 2855 752 
Q 3116 1113 3116 1747 
z
M 1159 2969 
Q 1341 3281 1617 3432 
Q 1894 3584 2278 3584 
Q 2916 3584 3314 3078 
Q 3713 2572 3713 1747 
Q 3713 922 3314 415 
Q 2916 -91 2278 -91 
Q 1894 -91 1617 61 
Q 1341 213 1159 525 
L 1159 0 
L 581 0 
L 581 4863 
L 1159 4863 
L 1159 2969 
z
" transform="scale(0.015625)"/>
       <path id="DejaVuSans-65" d="M 3597 1894 
L 3597 1613 
L 953 1613 
Q 991 1019 1311 708 
Q 1631 397 2203 397 
Q 2534 397 2845 478 
Q 3156 559 3463 722 
L 3463 178 
Q 3153 47 2828 -22 
Q 2503 -91 2169 -91 
Q 1331 -91 842 396 
Q 353 884 353 1716 
Q 353 2575 817 3079 
Q 1281 3584 2069 3584 
Q 2775 3584 3186 3129 
Q 3597 2675 3597 1894 
z
M 3022 2063 
Q 3016 2534 2758 2815 
Q 2500 3097 2075 3097 
Q 1594 3097 1305 2825 
Q 1016 2553 972 2059 
L 3022 2063 
z
" transform="scale(0.015625)"/>
       <path id="DejaVuSans-72" d="M 2631 2963 
Q 2534 3019 2420 3045 
Q 2306 3072 2169 3072 
Q 1681 3072 1420 2755 
Q 1159 2438 1159 1844 
L 1159 0 
L 581 0 
L 581 3500 
L 1159 3500 
L 1159 2956 
Q 1341 3275 1631 3429 
Q 1922 3584 2338 3584 
Q 2397 3584 2469 3576 
Q 2541 3569 2628 3553 
L 2631 2963 
z
" transform="scale(0.015625)"/>
       <path id="DejaVuSans-20" transform="scale(0.015625)"/>
       <path id="DejaVuSans-6f" d="M 1959 3097 
Q 1497 3097 1228 2736 
Q 959 2375 959 1747 
Q 959 1119 1226 758 
Q 1494 397 1959 397 
Q 2419 397 2687 759 
Q 2956 1122 2956 1747 
Q 2956 2369 2687 2733 
Q 2419 3097 1959 3097 
z
M 1959 3584 
Q 2709 3584 3137 3096 
Q 3566 2609 3566 1747 
Q 3566 888 3137 398 
Q 2709 -91 1959 -91 
Q 1206 -91 779 398 
Q 353 888 353 1747 
Q 353 2609 779 3096 
Q 1206 3584 1959 3584 
z
" transform="scale(0.015625)"/>
       <path id="DejaVuSans-66" d="M 2375 4863 
L 2375 4384 
L 1825 4384 
Q 1516 4384 1395 4259 
Q 1275 4134 1275 3809 
L 1275 3500 
L 2222 3500 
L 2222 3053 
L 1275 3053 
L 1275 0 
L 697 0 
L 697 3053 
L 147 3053 
L 147 3500 
L 697 3500 
L 697 3744 
Q 697 4328 969 4595 
Q 1241 4863 1831 4863 
L 2375 4863 
z
" transform="scale(0.015625)"/>
       <path id="DejaVuSans-41" d="M 2188 4044 
L 1331 1722 
L 3047 1722 
L 2188 4044 
z
M 1831 4666 
L 2547 4666 
L 4325 0 
L 3669 0 
L 3244 1197 
L 1141 1197 
L 716 0 
L 50 0 
L 1831 4666 
z
" transform="scale(0.015625)"/>
       <path id="DejaVuSans-63" d="M 3122 3366 
L 3122 2828 
Q 2878 2963 2633 3030 
Q 2388 3097 2138 3097 
Q 1578 3097 1268 2742 
Q 959 2388 959 1747 
Q 959 1106 1268 751 
Q 1578 397 2138 397 
Q 2388 397 2633 464 
Q 2878 531 3122 666 
L 3122 134 
Q 2881 22 2623 -34 
Q 2366 -91 2075 -91 
Q 1284 -91 818 406 
Q 353 903 353 1747 
Q 353 2603 823 3093 
Q 1294 3584 2113 3584 
Q 2378 3584 2631 3529 
Q 2884 3475 3122 3366 
z
" transform="scale(0.015625)"/>
       <path id="DejaVuSans-6c" d="M 603 4863 
L 1178 4863 
L 1178 0 
L 603 0 
L 603 4863 
z
" transform="scale(0.015625)"/>
       <path id="DejaVuSans-61" d="M 2194 1759 
Q 1497 1759 1228 1600 
Q 959 1441 959 1056 
Q 959 750 1161 570 
Q 1363 391 1709 391 
Q 2188 391 2477 730 
Q 2766 1069 2766 1631 
L 2766 1759 
L 2194 1759 
z
M 3341 1997 
L 3341 0 
L 2766 0 
L 2766 531 
Q 2569 213 2275 61 
Q 1981 -91 1556 -91 
Q 1019 -91 701 211 
Q 384 513 384 1019 
Q 384 1609 779 1909 
Q 1175 2209 1959 2209 
L 2766 2209 
L 2766 2266 
Q 2766 2663 2505 2880 
Q 2244 3097 1772 3097 
Q 1472 3097 1187 3025 
Q 903 2953 641 2809 
L 641 3341 
Q 956 3463 1253 3523 
Q 1550 3584 1831 3584 
Q 2591 3584 2966 3190 
Q 3341 2797 3341 1997 
z
" transform="scale(0.015625)"/>
       <path id="DejaVuSans-74" d="M 1172 4494 
L 1172 3500 
L 2356 3500 
L 2356 3053 
L 1172 3053 
L 1172 1153 
Q 1172 725 1289 603 
Q 1406 481 1766 481 
L 2356 481 
L 2356 0 
L 1766 0 
Q 1100 0 847 248 
Q 594 497 594 1153 
L 594 3053 
L 172 3053 
L 172 3500 
L 594 3500 
L 594 4494 
L 1172 4494 
z
" transform="scale(0.015625)"/>
       <path id="DejaVuSans-64" d="M 2906 2969 
L 2906 4863 
L 3481 4863 
L 3481 0 
L 2906 0 
L 2906 525 
Q 2725 213 2448 61 
Q 2172 -91 1784 -91 
Q 1150 -91 751 415 
Q 353 922 353 1747 
Q 353 2572 751 3078 
Q 1150 3584 1784 3584 
Q 2172 3584 2448 3432 
Q 2725 3281 2906 2969 
z
M 947 1747 
Q 947 1113 1208 752 
Q 1469 391 1925 391 
Q 2381 391 2643 752 
Q 2906 1113 2906 1747 
Q 2906 2381 2643 2742 
Q 2381 3103 1925 3103 
Q 1469 3103 1208 2742 
Q 947 2381 947 1747 
z
" transform="scale(0.015625)"/>
       <path id="DejaVuSans-4c" d="M 628 4666 
L 1259 4666 
L 1259 531 
L 3531 531 
L 3531 0 
L 628 0 
L 628 4666 
z
" transform="scale(0.015625)"/>
       <path id="DejaVuSans-79" d="M 2059 -325 
Q 1816 -950 1584 -1140 
Q 1353 -1331 966 -1331 
L 506 -1331 
L 506 -850 
L 844 -850 
Q 1081 -850 1212 -737 
Q 1344 -625 1503 -206 
L 1606 56 
L 191 3500 
L 800 3500 
L 1894 763 
L 2988 3500 
L 3597 3500 
L 2059 -325 
z
" transform="scale(0.015625)"/>
       <path id="DejaVuSans-73" d="M 2834 3397 
L 2834 2853 
Q 2591 2978 2328 3040 
Q 2066 3103 1784 3103 
Q 1356 3103 1142 2972 
Q 928 2841 928 2578 
Q 928 2378 1081 2264 
Q 1234 2150 1697 2047 
L 1894 2003 
Q 2506 1872 2764 1633 
Q 3022 1394 3022 966 
Q 3022 478 2636 193 
Q 2250 -91 1575 -91 
Q 1294 -91 989 -36 
Q 684 19 347 128 
L 347 722 
Q 666 556 975 473 
Q 1284 391 1588 391 
Q 1994 391 2212 530 
Q 2431 669 2431 922 
Q 2431 1156 2273 1281 
Q 2116 1406 1581 1522 
L 1381 1569 
Q 847 1681 609 1914 
Q 372 2147 372 2553 
Q 372 3047 722 3315 
Q 1072 3584 1716 3584 
Q 2034 3584 2315 3537 
Q 2597 3491 2834 3397 
z
" transform="scale(0.015625)"/>
      </defs>
      <use xlink:href="#DejaVuSans-4e"/>
      <use xlink:href="#DejaVuSans-75" x="74.804688"/>
      <use xlink:href="#DejaVuSans-6d" x="138.183594"/>
      <use xlink:href="#DejaVuSans-62" x="235.595703"/>
      <use xlink:href="#DejaVuSans-65" x="299.072266"/>
      <use xlink:href="#DejaVuSans-72" x="360.595703"/>
      <use xlink:href="#DejaVuSans-20" x="401.708984"/>
      <use xlink:href="#DejaVuSans-6f" x="433.496094"/>
      <use xlink:href="#DejaVuSans-66" x="494.677734"/>
      <use xlink:href="#DejaVuSans-20" x="529.882812"/>
      <use xlink:href="#DejaVuSans-41" x="561.669922"/>
      <use xlink:href="#DejaVuSans-63" x="628.328125"/>
      <use xlink:href="#DejaVuSans-63" x="683.308594"/>
      <use xlink:href="#DejaVuSans-65" x="738.289062"/>
      <use xlink:href="#DejaVuSans-6c" x="799.8125"/>
      <use xlink:href="#DejaVuSans-65" x="827.595703"/>
      <use xlink:href="#DejaVuSans-72" x="889.119141"/>
      <use xlink:href="#DejaVuSans-61" x="930.232422"/>
      <use xlink:href="#DejaVuSans-74" x="991.511719"/>
      <use xlink:href="#DejaVuSans-65" x="1030.720703"/>
      <use xlink:href="#DejaVuSans-64" x="1092.244141"/>
      <use xlink:href="#DejaVuSans-20" x="1155.720703"/>
      <use xlink:href="#DejaVuSans-4c" x="1187.507812"/>
      <use xlink:href="#DejaVuSans-61" x="1243.220703"/>
      <use xlink:href="#DejaVuSans-79" x="1304.5"/>
      <use xlink:href="#DejaVuSans-65" x="1363.679688"/>
      <use xlink:href="#DejaVuSans-72" x="1425.203125"/>
      <use xlink:href="#DejaVuSans-73" x="1466.316406"/>
     </g>
    </g>
   </g>
   <g id="matplotlib.axis_2">
    <g id="ytick_1">
     <g id="line2d_15">
      <path d="M 64.73 375.40057 
L 511.27 375.40057 
" clip-path="url(#p78bcd8a298)" style="fill: none; stroke-dasharray: 1.85,0.8; stroke-dashoffset: 0; stroke: #b0b0b0; stroke-opacity: 0.7; stroke-width: 0.5"/>
     </g>
     <g id="line2d_16">
      <defs>
       <path id="mb6c0c575c9" d="M 0 0 
L -3.5 0 
" style="stroke: #000000; stroke-width: 0.8"/>
      </defs>
      <g>
       <use xlink:href="#mb6c0c575c9" x="64.73" y="375.40057" style="stroke: #000000; stroke-width: 0.8"/>
      </g>
     </g>
     <g id="text_9">
      <!-- 0 -->
      <g style="fill: #ff7f0e" transform="translate(50.095 379.959633) scale(0.12 -0.12)">
       <use xlink:href="#DejaVuSans-30"/>
      </g>
     </g>
    </g>
    <g id="ytick_2">
     <g id="line2d_17">
      <path d="M 64.73 314.260144 
L 511.27 314.260144 
" clip-path="url(#p78bcd8a298)" style="fill: none; stroke-dasharray: 1.85,0.8; stroke-dashoffset: 0; stroke: #b0b0b0; stroke-opacity: 0.7; stroke-width: 0.5"/>
     </g>
     <g id="line2d_18">
      <g>
       <use xlink:href="#mb6c0c575c9" x="64.73" y="314.260144" style="stroke: #000000; stroke-width: 0.8"/>
      </g>
     </g>
     <g id="text_10">
      <!-- 100 -->
      <g style="fill: #ff7f0e" transform="translate(34.825 318.819206) scale(0.12 -0.12)">
       <use xlink:href="#DejaVuSans-31"/>
       <use xlink:href="#DejaVuSans-30" x="63.623047"/>
       <use xlink:href="#DejaVuSans-30" x="127.246094"/>
      </g>
     </g>
    </g>
    <g id="ytick_3">
     <g id="line2d_19">
      <path d="M 64.73 253.119718 
L 511.27 253.119718 
" clip-path="url(#p78bcd8a298)" style="fill: none; stroke-dasharray: 1.85,0.8; stroke-dashoffset: 0; stroke: #b0b0b0; stroke-opacity: 0.7; stroke-width: 0.5"/>
     </g>
     <g id="line2d_20">
      <g>
       <use xlink:href="#mb6c0c575c9" x="64.73" y="253.119718" style="stroke: #000000; stroke-width: 0.8"/>
      </g>
     </g>
     <g id="text_11">
      <!-- 200 -->
      <g style="fill: #ff7f0e" transform="translate(34.825 257.67878) scale(0.12 -0.12)">
       <use xlink:href="#DejaVuSans-32"/>
       <use xlink:href="#DejaVuSans-30" x="63.623047"/>
       <use xlink:href="#DejaVuSans-30" x="127.246094"/>
      </g>
     </g>
    </g>
    <g id="ytick_4">
     <g id="line2d_21">
      <path d="M 64.73 191.979292 
L 511.27 191.979292 
" clip-path="url(#p78bcd8a298)" style="fill: none; stroke-dasharray: 1.85,0.8; stroke-dashoffset: 0; stroke: #b0b0b0; stroke-opacity: 0.7; stroke-width: 0.5"/>
     </g>
     <g id="line2d_22">
      <g>
       <use xlink:href="#mb6c0c575c9" x="64.73" y="191.979292" style="stroke: #000000; stroke-width: 0.8"/>
      </g>
     </g>
     <g id="text_12">
      <!-- 300 -->
      <g style="fill: #ff7f0e" transform="translate(34.825 196.538354) scale(0.12 -0.12)">
       <use xlink:href="#DejaVuSans-33"/>
       <use xlink:href="#DejaVuSans-30" x="63.623047"/>
       <use xlink:href="#DejaVuSans-30" x="127.246094"/>
      </g>
     </g>
    </g>
    <g id="ytick_5">
     <g id="line2d_23">
      <path d="M 64.73 130.838866 
L 511.27 130.838866 
" clip-path="url(#p78bcd8a298)" style="fill: none; stroke-dasharray: 1.85,0.8; stroke-dashoffset: 0; stroke: #b0b0b0; stroke-opacity: 0.7; stroke-width: 0.5"/>
     </g>
     <g id="line2d_24">
      <g>
       <use xlink:href="#mb6c0c575c9" x="64.73" y="130.838866" style="stroke: #000000; stroke-width: 0.8"/>
      </g>
     </g>
     <g id="text_13">
      <!-- 400 -->
      <g style="fill: #ff7f0e" transform="translate(34.825 135.397928) scale(0.12 -0.12)">
       <defs>
        <path id="DejaVuSans-34" d="M 2419 4116 
L 825 1625 
L 2419 1625 
L 2419 4116 
z
M 2253 4666 
L 3047 4666 
L 3047 1625 
L 3713 1625 
L 3713 1100 
L 3047 1100 
L 3047 0 
L 2419 0 
L 2419 1100 
L 313 1100 
L 313 1709 
L 2253 4666 
z
" transform="scale(0.015625)"/>
       </defs>
       <use xlink:href="#DejaVuSans-34"/>
       <use xlink:href="#DejaVuSans-30" x="63.623047"/>
       <use xlink:href="#DejaVuSans-30" x="127.246094"/>
      </g>
     </g>
    </g>
    <g id="ytick_6">
     <g id="line2d_25">
      <path d="M 64.73 69.69844 
L 511.27 69.69844 
" clip-path="url(#p78bcd8a298)" style="fill: none; stroke-dasharray: 1.85,0.8; stroke-dashoffset: 0; stroke: #b0b0b0; stroke-opacity: 0.7; stroke-width: 0.5"/>
     </g>
     <g id="line2d_26">
      <g>
       <use xlink:href="#mb6c0c575c9" x="64.73" y="69.69844" style="stroke: #000000; stroke-width: 0.8"/>
      </g>
     </g>
     <g id="text_14">
      <!-- 500 -->
      <g style="fill: #ff7f0e" transform="translate(34.825 74.257502) scale(0.12 -0.12)">
       <use xlink:href="#DejaVuSans-35"/>
       <use xlink:href="#DejaVuSans-30" x="63.623047"/>
       <use xlink:href="#DejaVuSans-30" x="127.246094"/>
      </g>
     </g>
    </g>
    <g id="text_15">
     <!-- Acceleration Gain -->
     <g style="fill: #ff7f0e" transform="translate(26.665625 306.274937) rotate(-90) scale(0.2 -0.2)">
      <defs>
       <path id="DejaVuSans-69" d="M 603 3500 
L 1178 3500 
L 1178 0 
L 603 0 
L 603 3500 
z
M 603 4863 
L 1178 4863 
L 1178 4134 
L 603 4134 
L 603 4863 
z
" transform="scale(0.015625)"/>
       <path id="DejaVuSans-6e" d="M 3513 2113 
L 3513 0 
L 2938 0 
L 2938 2094 
Q 2938 2591 2744 2837 
Q 2550 3084 2163 3084 
Q 1697 3084 1428 2787 
Q 1159 2491 1159 1978 
L 1159 0 
L 581 0 
L 581 3500 
L 1159 3500 
L 1159 2956 
Q 1366 3272 1645 3428 
Q 1925 3584 2291 3584 
Q 2894 3584 3203 3211 
Q 3513 2838 3513 2113 
z
" transform="scale(0.015625)"/>
       <path id="DejaVuSans-47" d="M 3809 666 
L 3809 1919 
L 2778 1919 
L 2778 2438 
L 4434 2438 
L 4434 434 
Q 4069 175 3628 42 
Q 3188 -91 2688 -91 
Q 1594 -91 976 548 
Q 359 1188 359 2328 
Q 359 3472 976 4111 
Q 1594 4750 2688 4750 
Q 3144 4750 3555 4637 
Q 3966 4525 4313 4306 
L 4313 3634 
Q 3963 3931 3569 4081 
Q 3175 4231 2741 4231 
Q 1884 4231 1454 3753 
Q 1025 3275 1025 2328 
Q 1025 1384 1454 906 
Q 1884 428 2741 428 
Q 3075 428 3337 486 
Q 3600 544 3809 666 
z
" transform="scale(0.015625)"/>
      </defs>
      <use xlink:href="#DejaVuSans-41"/>
      <use xlink:href="#DejaVuSans-63" x="66.658203"/>
      <use xlink:href="#DejaVuSans-63" x="121.638672"/>
      <use xlink:href="#DejaVuSans-65" x="176.619141"/>
      <use xlink:href="#DejaVuSans-6c" x="238.142578"/>
      <use xlink:href="#DejaVuSans-65" x="265.925781"/>
      <use xlink:href="#DejaVuSans-72" x="327.449219"/>
      <use xlink:href="#DejaVuSans-61" x="368.5625"/>
      <use xlink:href="#DejaVuSans-74" x="429.841797"/>
      <use xlink:href="#DejaVuSans-69" x="469.050781"/>
      <use xlink:href="#DejaVuSans-6f" x="496.833984"/>
      <use xlink:href="#DejaVuSans-6e" x="558.015625"/>
      <use xlink:href="#DejaVuSans-20" x="621.394531"/>
      <use xlink:href="#DejaVuSans-47" x="653.181641"/>
      <use xlink:href="#DejaVuSans-61" x="730.671875"/>
      <use xlink:href="#DejaVuSans-69" x="791.951172"/>
      <use xlink:href="#DejaVuSans-6e" x="819.734375"/>
     </g>
    </g>
   </g>
   <g id="line2d_27">
    <path d="M 85.027273 365.233091 
L 86.358241 364.014076 
L 87.68921 362.220183 
L 89.020179 349.458046 
L 90.351148 349.383208 
L 91.682116 346.91876 
L 93.013085 334.122977 
L 94.344054 334.009374 
L 95.675022 330.870838 
L 97.005991 318.09792 
L 98.33696 317.948103 
L 99.667928 314.09433 
L 100.998897 301.30704 
L 102.329866 301.118198 
L 103.660835 296.535851 
L 104.991803 283.752482 
L 106.322772 283.524689 
L 107.653741 278.174337 
L 108.984709 265.359697 
L 110.315678 265.09376 
L 111.646647 259.019456 
L 112.977615 258.420196 
L 114.308584 257.693453 
L 115.639553 254.741722 
L 116.970522 254.721619 
L 118.30149 253.843443 
L 119.632459 250.980969 
L 120.963428 250.952558 
L 122.294396 249.886947 
L 123.625365 247.028263 
L 124.956334 246.984533 
L 126.287303 245.754274 
L 127.618271 242.88153 
L 128.94924 242.828053 
L 130.280209 241.412821 
L 131.611177 238.523265 
L 132.942146 238.455278 
L 134.273115 236.861558 
L 135.604083 233.969537 
L 136.935052 233.892308 
L 138.266021 232.128942 
L 139.59699 229.230395 
L 140.927958 229.140384 
L 142.258927 227.198713 
L 143.589896 224.290414 
L 144.920864 224.190235 
L 146.251833 222.071184 
L 147.582802 219.154153 
L 148.91377 219.035682 
L 150.244739 216.748447 
L 151.575708 213.829759 
L 152.906677 213.701009 
L 154.237645 211.236159 
L 155.568614 208.297635 
L 156.899583 208.151978 
L 158.230551 205.507008 
L 159.56152 202.569741 
L 160.892489 202.412173 
L 162.223458 197.019287 
L 164.885395 196.393695 
L 166.216364 195.740342 
L 167.547332 195.743458 
L 168.878301 195.383161 
L 170.20927 194.757271 
L 171.540238 194.761698 
L 172.871207 194.361306 
L 174.202176 193.730259 
L 175.533145 193.735483 
L 176.864113 193.291326 
L 178.195082 192.665325 
L 179.526051 192.664895 
L 180.857019 192.18036 
L 182.187988 191.552219 
L 183.518957 191.554773 
L 186.180894 190.402863 
L 187.511863 190.404071 
L 190.1738 189.201538 
L 191.504769 189.200697 
L 194.166706 187.960017 
L 195.497675 187.958612 
L 198.159613 186.662872 
L 199.490581 186.659739 
L 202.152519 185.325072 
L 203.483487 185.31951 
L 206.145425 183.944115 
L 207.476393 183.936369 
L 208.807362 183.146506 
L 210.138331 182.515325 
L 211.4693 182.506892 
L 212.800268 181.674981 
L 214.131237 181.044459 
L 215.462206 181.033217 
L 216.793174 180.140094 
L 218.124143 179.511276 
L 219.455112 179.498306 
L 220.78608 178.563149 
L 222.117049 177.931501 
L 223.448018 177.914445 
L 224.778987 176.933621 
L 226.109955 176.302393 
L 227.440924 176.284419 
L 228.771893 175.25833 
L 230.102861 174.627524 
L 231.43383 174.608222 
L 232.764799 173.533298 
L 234.095768 172.902882 
L 235.426736 172.88028 
L 236.757705 171.761631 
L 238.088674 171.131482 
L 239.419642 171.106517 
L 240.750611 169.946314 
L 242.08158 169.314622 
L 243.412548 169.288236 
L 244.743517 168.087182 
L 246.074486 167.457551 
L 247.405455 167.43105 
L 248.736423 166.181954 
L 250.067392 165.552456 
L 251.398361 165.521012 
L 252.729329 164.225473 
L 254.060298 163.596514 
L 255.391267 163.562492 
L 256.722235 162.223449 
L 258.053204 161.592486 
L 259.384173 161.557328 
L 260.715142 160.178107 
L 262.04611 159.547103 
L 263.377079 159.508771 
L 264.708048 158.082047 
L 266.039016 157.450657 
L 267.369985 157.410906 
L 268.700954 155.946115 
L 270.031923 155.315082 
L 271.362891 155.272231 
L 272.69386 153.759066 
L 274.024829 153.125239 
L 275.355797 153.081116 
L 276.686766 151.523928 
L 278.017735 150.891497 
L 279.348703 150.844025 
L 280.679672 149.24217 
L 282.010641 148.608984 
L 283.34161 148.559041 
L 284.672578 146.915313 
L 286.003547 146.281703 
L 287.334516 146.229447 
L 288.665484 144.533649 
L 289.996453 143.899306 
L 291.327422 143.845653 
L 292.65839 142.105031 
L 293.989359 141.471009 
L 295.320328 141.415085 
L 296.651297 139.616689 
L 297.982265 138.98074 
L 299.313234 138.922595 
L 300.644203 137.084069 
L 301.975171 136.449628 
L 303.30614 136.389831 
L 304.637109 134.503559 
L 305.968077 133.866797 
L 307.299046 133.804148 
L 308.630015 131.87072 
L 309.960984 131.233915 
L 311.291952 131.169494 
L 312.622921 129.193434 
L 313.95389 128.555377 
L 315.284858 128.489199 
L 316.615827 126.464157 
L 317.946796 125.827068 
L 319.277765 125.755694 
L 320.608733 123.690821 
L 321.939702 123.054551 
L 323.270671 122.984349 
L 324.601639 120.874435 
L 325.932608 120.238298 
L 327.263577 120.164071 
L 328.594545 118.010812 
L 329.925514 117.37097 
L 331.256483 117.296428 
L 332.587452 115.089632 
L 333.91842 114.454134 
L 335.249389 114.375761 
L 336.580358 112.131481 
L 337.911326 111.496432 
L 339.242295 111.415898 
L 340.573264 109.122457 
L 341.904232 108.483531 
L 343.235201 108.397811 
L 344.56617 106.057039 
L 345.897139 105.416561 
L 347.228107 105.331051 
L 348.559076 102.946569 
L 349.890045 102.308261 
L 351.221013 102.216908 
L 352.551982 99.78838 
L 353.882951 99.142793 
L 355.21392 99.049353 
L 356.544888 90.011577 
L 360.537794 89.565344 
L 361.868763 89.576653 
L 364.5307 89.280034 
L 365.861669 89.291462 
L 368.523607 88.986979 
L 369.854575 88.99782 
L 372.516513 88.683577 
L 373.847481 88.69415 
L 376.509419 88.366957 
L 377.840387 88.376955 
L 380.502325 88.029848 
L 381.833294 88.039741 
L 384.495231 87.681307 
L 385.8262 87.691155 
L 388.488137 87.323461 
L 389.819106 87.332774 
L 391.150075 87.083409 
L 392.481043 86.953881 
L 393.812012 86.962554 
L 395.142981 86.698225 
L 396.473949 86.570498 
L 397.804918 86.579584 
L 399.135887 86.300299 
L 400.466855 86.168588 
L 401.797824 86.176504 
L 403.128793 85.88786 
L 404.459762 85.758539 
L 405.79073 85.768948 
L 407.121699 85.46696 
L 408.452668 85.33917 
L 409.783636 85.346714 
L 411.114605 85.037568 
L 412.445574 84.909183 
L 413.776542 84.917185 
L 415.107511 84.593612 
L 416.43848 84.463949 
L 417.769449 84.470991 
L 419.100417 84.134932 
L 420.431386 84.006218 
L 421.762355 84.013802 
L 423.093323 83.665254 
L 424.424292 83.535629 
L 425.755261 83.542505 
L 427.08623 83.18533 
L 428.417198 83.056903 
L 429.748167 83.06454 
L 431.079136 82.69433 
L 432.410104 82.564952 
L 433.741073 82.569851 
L 435.072042 82.184248 
L 436.40301 82.055152 
L 437.733979 82.060575 
L 439.064948 81.666988 
L 440.395917 81.538525 
L 441.726885 81.545238 
L 443.057854 81.140766 
L 444.388823 81.012594 
L 445.719791 81.020395 
L 447.05076 80.599948 
L 448.381729 80.469911 
L 449.712697 80.476268 
L 451.043666 80.047317 
L 452.374635 79.91858 
L 453.705604 79.924914 
L 455.036572 79.485567 
L 456.367541 79.357136 
L 457.69851 79.362708 
L 459.029478 78.903531 
L 460.360447 78.77384 
L 461.691416 78.780783 
L 463.022385 78.308287 
L 464.353353 78.177155 
L 465.684322 78.183434 
L 467.015291 77.701588 
L 468.346259 77.572803 
L 469.677228 77.58007 
L 471.008197 77.087549 
L 472.339165 76.956915 
L 473.670134 76.96321 
L 475.001103 76.446869 
L 476.332072 76.319607 
L 477.66304 76.32559 
L 478.994009 75.801701 
L 480.324978 75.672282 
L 481.655946 75.677283 
L 482.986915 75.141941 
L 484.317884 75.013518 
L 485.648852 75.019059 
L 486.979821 70.694909 
L 488.31079 70.704558 
L 489.641759 70.914201 
L 490.972727 70.914847 
L 490.972727 70.914847 
" clip-path="url(#p78bcd8a298)" style="fill: none; stroke: #ff7f0e; stroke-width: 1.5; stroke-linecap: square"/>
   </g>
   <g id="line2d_28">
    <path d="M 280.679672 379.96 
L 280.679672 55.968 
" clip-path="url(#p78bcd8a298)" style="fill: none; stroke-dasharray: 11.1,4.8; stroke-dashoffset: 0; stroke: #ffd700; stroke-width: 3"/>
   </g>
   <g id="patch_3">
    <path d="M 64.73 379.96 
L 64.73 55.968 
" style="fill: none; stroke: #000000; stroke-width: 0.8; stroke-linejoin: miter; stroke-linecap: square"/>
   </g>
   <g id="patch_4">
    <path d="M 511.27 379.96 
L 511.27 55.968 
" style="fill: none; stroke: #000000; stroke-width: 0.8; stroke-linejoin: miter; stroke-linecap: square"/>
   </g>
   <g id="patch_5">
    <path d="M 64.73 379.96 
L 511.27 379.96 
" style="fill: none; stroke: #000000; stroke-width: 0.8; stroke-linejoin: miter; stroke-linecap: square"/>
   </g>
   <g id="patch_6">
    <path d="M 64.73 55.968 
L 511.27 55.968 
" style="fill: none; stroke: #000000; stroke-width: 0.8; stroke-linejoin: miter; stroke-linecap: square"/>
   </g>
   <g id="text_16">
    <!-- Max Throughput -->
    <g transform="translate(277.76811 280.400708) rotate(-90) scale(0.14 -0.14)">
     <defs>
      <path id="DejaVuSans-4d" d="M 628 4666 
L 1569 4666 
L 2759 1491 
L 3956 4666 
L 4897 4666 
L 4897 0 
L 4281 0 
L 4281 4097 
L 3078 897 
L 2444 897 
L 1241 4097 
L 1241 0 
L 628 0 
L 628 4666 
z
" transform="scale(0.015625)"/>
      <path id="DejaVuSans-78" d="M 3513 3500 
L 2247 1797 
L 3578 0 
L 2900 0 
L 1881 1375 
L 863 0 
L 184 0 
L 1544 1831 
L 300 3500 
L 978 3500 
L 1906 2253 
L 2834 3500 
L 3513 3500 
z
" transform="scale(0.015625)"/>
      <path id="DejaVuSans-54" d="M -19 4666 
L 3928 4666 
L 3928 4134 
L 2272 4134 
L 2272 0 
L 1638 0 
L 1638 4134 
L -19 4134 
L -19 4666 
z
" transform="scale(0.015625)"/>
      <path id="DejaVuSans-68" d="M 3513 2113 
L 3513 0 
L 2938 0 
L 2938 2094 
Q 2938 2591 2744 2837 
Q 2550 3084 2163 3084 
Q 1697 3084 1428 2787 
Q 1159 2491 1159 1978 
L 1159 0 
L 581 0 
L 581 4863 
L 1159 4863 
L 1159 2956 
Q 1366 3272 1645 3428 
Q 1925 3584 2291 3584 
Q 2894 3584 3203 3211 
Q 3513 2838 3513 2113 
z
" transform="scale(0.015625)"/>
      <path id="DejaVuSans-67" d="M 2906 1791 
Q 2906 2416 2648 2759 
Q 2391 3103 1925 3103 
Q 1463 3103 1205 2759 
Q 947 2416 947 1791 
Q 947 1169 1205 825 
Q 1463 481 1925 481 
Q 2391 481 2648 825 
Q 2906 1169 2906 1791 
z
M 3481 434 
Q 3481 -459 3084 -895 
Q 2688 -1331 1869 -1331 
Q 1566 -1331 1297 -1286 
Q 1028 -1241 775 -1147 
L 775 -588 
Q 1028 -725 1275 -790 
Q 1522 -856 1778 -856 
Q 2344 -856 2625 -561 
Q 2906 -266 2906 331 
L 2906 616 
Q 2728 306 2450 153 
Q 2172 0 1784 0 
Q 1141 0 747 490 
Q 353 981 353 1791 
Q 353 2603 747 3093 
Q 1141 3584 1784 3584 
Q 2172 3584 2450 3431 
Q 2728 3278 2906 2969 
L 2906 3500 
L 3481 3500 
L 3481 434 
z
" transform="scale(0.015625)"/>
      <path id="DejaVuSans-70" d="M 1159 525 
L 1159 -1331 
L 581 -1331 
L 581 3500 
L 1159 3500 
L 1159 2969 
Q 1341 3281 1617 3432 
Q 1894 3584 2278 3584 
Q 2916 3584 3314 3078 
Q 3713 2572 3713 1747 
Q 3713 922 3314 415 
Q 2916 -91 2278 -91 
Q 1894 -91 1617 61 
Q 1341 213 1159 525 
z
M 3116 1747 
Q 3116 2381 2855 2742 
Q 2594 3103 2138 3103 
Q 1681 3103 1420 2742 
Q 1159 2381 1159 1747 
Q 1159 1113 1420 752 
Q 1681 391 2138 391 
Q 2594 391 2855 752 
Q 3116 1113 3116 1747 
z
" transform="scale(0.015625)"/>
     </defs>
     <use xlink:href="#DejaVuSans-4d"/>
     <use xlink:href="#DejaVuSans-61" x="86.279297"/>
     <use xlink:href="#DejaVuSans-78" x="147.558594"/>
     <use xlink:href="#DejaVuSans-20" x="206.738281"/>
     <use xlink:href="#DejaVuSans-54" x="238.525391"/>
     <use xlink:href="#DejaVuSans-68" x="299.609375"/>
     <use xlink:href="#DejaVuSans-72" x="362.988281"/>
     <use xlink:href="#DejaVuSans-6f" x="401.851562"/>
     <use xlink:href="#DejaVuSans-75" x="463.033203"/>
     <use xlink:href="#DejaVuSans-67" x="526.412109"/>
     <use xlink:href="#DejaVuSans-68" x="589.888672"/>
     <use xlink:href="#DejaVuSans-70" x="653.267578"/>
     <use xlink:href="#DejaVuSans-75" x="716.744141"/>
     <use xlink:href="#DejaVuSans-74" x="780.123047"/>
    </g>
   </g>
   <g id="legend_1">
    <g id="patch_7">
     <path d="M 71.73 78.646125 
L 161.809687 78.646125 
Q 163.809687 78.646125 163.809687 76.646125 
L 163.809687 62.968 
Q 163.809687 60.968 161.809687 60.968 
L 71.73 60.968 
Q 69.73 60.968 69.73 62.968 
L 69.73 76.646125 
Q 69.73 78.646125 71.73 78.646125 
z
" style="fill: #ffffff; opacity: 0.8; stroke: #cccccc; stroke-linejoin: miter"/>
    </g>
    <g id="line2d_29">
     <path d="M 73.73 69.066438 
L 83.73 69.066438 
L 93.73 69.066438 
" style="fill: none; stroke: #ff7f0e; stroke-width: 1.5; stroke-linecap: square"/>
    </g>
    <g id="text_17">
     <!-- Throughput -->
     <g transform="translate(101.73 72.566438) scale(0.1 -0.1)">
      <use xlink:href="#DejaVuSans-54"/>
      <use xlink:href="#DejaVuSans-68" x="61.083984"/>
      <use xlink:href="#DejaVuSans-72" x="124.462891"/>
      <use xlink:href="#DejaVuSans-6f" x="163.326172"/>
      <use xlink:href="#DejaVuSans-75" x="224.507812"/>
      <use xlink:href="#DejaVuSans-67" x="287.886719"/>
      <use xlink:href="#DejaVuSans-68" x="351.363281"/>
      <use xlink:href="#DejaVuSans-70" x="414.742188"/>
      <use xlink:href="#DejaVuSans-75" x="478.21875"/>
      <use xlink:href="#DejaVuSans-74" x="541.597656"/>
     </g>
    </g>
   </g>
  </g>
  <g id="axes_2">
   <g id="matplotlib.axis_3">
    <g id="ytick_7">
     <g id="line2d_30">
      <defs>
       <path id="mcca081c6a2" d="M 0 0 
L 3.5 0 
" style="stroke: #000000; stroke-width: 0.8"/>
      </defs>
      <g>
       <use xlink:href="#mcca081c6a2" x="511.27" y="365.233091" style="stroke: #000000; stroke-width: 0.8"/>
      </g>
     </g>
     <g id="text_18">
      <!-- 0 -->
      <g style="fill: #2ca02c" transform="translate(518.27 369.792153) scale(0.12 -0.12)">
       <use xlink:href="#DejaVuSans-30"/>
      </g>
     </g>
    </g>
    <g id="ytick_8">
     <g id="line2d_31">
      <g>
       <use xlink:href="#mcca081c6a2" x="511.27" y="309.531534" style="stroke: #000000; stroke-width: 0.8"/>
      </g>
     </g>
     <g id="text_19">
      <!-- 50 -->
      <g style="fill: #2ca02c" transform="translate(518.27 314.090597) scale(0.12 -0.12)">
       <use xlink:href="#DejaVuSans-35"/>
       <use xlink:href="#DejaVuSans-30" x="63.623047"/>
      </g>
     </g>
    </g>
    <g id="ytick_9">
     <g id="line2d_32">
      <g>
       <use xlink:href="#mcca081c6a2" x="511.27" y="253.829978" style="stroke: #000000; stroke-width: 0.8"/>
      </g>
     </g>
     <g id="text_20">
      <!-- 100 -->
      <g style="fill: #2ca02c" transform="translate(518.27 258.38904) scale(0.12 -0.12)">
       <use xlink:href="#DejaVuSans-31"/>
       <use xlink:href="#DejaVuSans-30" x="63.623047"/>
       <use xlink:href="#DejaVuSans-30" x="127.246094"/>
      </g>
     </g>
    </g>
    <g id="ytick_10">
     <g id="line2d_33">
      <g>
       <use xlink:href="#mcca081c6a2" x="511.27" y="198.128421" style="stroke: #000000; stroke-width: 0.8"/>
      </g>
     </g>
     <g id="text_21">
      <!-- 150 -->
      <g style="fill: #2ca02c" transform="translate(518.27 202.687484) scale(0.12 -0.12)">
       <use xlink:href="#DejaVuSans-31"/>
       <use xlink:href="#DejaVuSans-35" x="63.623047"/>
       <use xlink:href="#DejaVuSans-30" x="127.246094"/>
      </g>
     </g>
    </g>
    <g id="ytick_11">
     <g id="line2d_34">
      <g>
       <use xlink:href="#mcca081c6a2" x="511.27" y="142.426864" style="stroke: #000000; stroke-width: 0.8"/>
      </g>
     </g>
     <g id="text_22">
      <!-- 200 -->
      <g style="fill: #2ca02c" transform="translate(518.27 146.985927) scale(0.12 -0.12)">
       <use xlink:href="#DejaVuSans-32"/>
       <use xlink:href="#DejaVuSans-30" x="63.623047"/>
       <use xlink:href="#DejaVuSans-30" x="127.246094"/>
      </g>
     </g>
    </g>
    <g id="ytick_12">
     <g id="line2d_35">
      <g>
       <use xlink:href="#mcca081c6a2" x="511.27" y="86.725308" style="stroke: #000000; stroke-width: 0.8"/>
      </g>
     </g>
     <g id="text_23">
      <!-- 250 -->
      <g style="fill: #2ca02c" transform="translate(518.27 91.28437) scale(0.12 -0.12)">
       <use xlink:href="#DejaVuSans-32"/>
       <use xlink:href="#DejaVuSans-35" x="63.623047"/>
       <use xlink:href="#DejaVuSans-30" x="127.246094"/>
      </g>
     </g>
    </g>
    <g id="text_24">
     <!-- Block Loss -->
     <g style="fill: #2ca02c" transform="translate(560.371875 270.123375) rotate(-90) scale(0.2 -0.2)">
      <defs>
       <path id="DejaVuSans-42" d="M 1259 2228 
L 1259 519 
L 2272 519 
Q 2781 519 3026 730 
Q 3272 941 3272 1375 
Q 3272 1813 3026 2020 
Q 2781 2228 2272 2228 
L 1259 2228 
z
M 1259 4147 
L 1259 2741 
L 2194 2741 
Q 2656 2741 2882 2914 
Q 3109 3088 3109 3444 
Q 3109 3797 2882 3972 
Q 2656 4147 2194 4147 
L 1259 4147 
z
M 628 4666 
L 2241 4666 
Q 2963 4666 3353 4366 
Q 3744 4066 3744 3513 
Q 3744 3084 3544 2831 
Q 3344 2578 2956 2516 
Q 3422 2416 3680 2098 
Q 3938 1781 3938 1306 
Q 3938 681 3513 340 
Q 3088 0 2303 0 
L 628 0 
L 628 4666 
z
" transform="scale(0.015625)"/>
       <path id="DejaVuSans-6b" d="M 581 4863 
L 1159 4863 
L 1159 1991 
L 2875 3500 
L 3609 3500 
L 1753 1863 
L 3688 0 
L 2938 0 
L 1159 1709 
L 1159 0 
L 581 0 
L 581 4863 
z
" transform="scale(0.015625)"/>
      </defs>
      <use xlink:href="#DejaVuSans-42"/>
      <use xlink:href="#DejaVuSans-6c" x="68.603516"/>
      <use xlink:href="#DejaVuSans-6f" x="96.386719"/>
      <use xlink:href="#DejaVuSans-63" x="157.568359"/>
      <use xlink:href="#DejaVuSans-6b" x="212.548828"/>
      <use xlink:href="#DejaVuSans-20" x="270.458984"/>
      <use xlink:href="#DejaVuSans-4c" x="302.246094"/>
      <use xlink:href="#DejaVuSans-6f" x="356.208984"/>
      <use xlink:href="#DejaVuSans-73" x="417.390625"/>
      <use xlink:href="#DejaVuSans-73" x="469.490234"/>
     </g>
    </g>
   </g>
   <g id="line2d_36">
    <path d="M 85.027273 365.233091 
L 279.348703 365.233091 
L 280.679672 364.797489 
L 282.010641 362.554371 
L 283.34161 361.848426 
L 284.672578 357.369893 
L 286.003547 355.12625 
L 287.334516 354.416215 
L 288.665484 349.812974 
L 289.996453 347.568615 
L 291.327422 346.847121 
L 292.65839 342.179044 
L 293.989359 339.934526 
L 295.320328 339.20221 
L 296.651297 334.401754 
L 297.982265 332.153974 
L 299.313234 331.409069 
L 300.644203 326.527448 
L 301.975171 324.27833 
L 303.30614 323.520885 
L 304.637109 318.530232 
L 305.968077 316.281465 
L 307.299046 315.528603 
L 308.630015 310.451533 
L 309.960984 308.195509 
L 311.291952 307.428275 
L 312.622921 302.251866 
L 313.95389 299.997274 
L 315.284858 299.225107 
L 316.615827 293.94608 
L 317.946796 291.694241 
L 319.277765 290.898743 
L 320.608733 285.524116 
L 321.939702 283.279216 
L 323.270671 282.491548 
L 324.601639 277.077309 
L 325.932608 274.831661 
L 327.263577 274.023415 
L 328.594545 268.455806 
L 329.925514 266.206625 
L 331.256483 265.391616 
L 332.587452 259.732894 
L 333.91842 257.482345 
L 335.249389 256.666667 
L 336.580358 250.918728 
L 337.911326 248.683727 
L 339.242295 247.861142 
L 340.573264 242.010505 
L 341.904232 239.766831 
L 343.235201 238.918209 
L 344.56617 232.963013 
L 345.897139 230.708341 
L 347.228107 229.836707 
L 348.559076 223.794441 
L 349.890045 221.539515 
L 351.221013 220.675058 
L 352.551982 214.528646 
L 353.882951 212.257487 
L 355.21392 211.378707 
L 356.544888 190.891802 
L 357.875857 190.240715 
L 360.537794 187.624763 
L 361.868763 187.324404 
L 364.5307 184.775342 
L 365.861669 184.470495 
L 368.523607 181.889651 
L 369.854575 181.58361 
L 372.516513 178.964682 
L 373.847481 178.662239 
L 376.509419 176.05165 
L 377.840387 175.744942 
L 380.502325 173.041252 
L 381.833294 172.735466 
L 384.495231 170.006185 
L 385.8262 169.689052 
L 387.157168 168.226138 
L 388.488137 166.934483 
L 389.819106 166.621822 
L 391.150075 165.144283 
L 392.481043 163.864547 
L 393.812012 163.556168 
L 395.142981 162.041213 
L 396.473949 160.750401 
L 397.804918 160.43287 
L 399.135887 158.887693 
L 400.466855 157.62688 
L 401.797824 157.317864 
L 403.128793 155.754767 
L 404.459762 154.467981 
L 405.79073 154.115852 
L 407.121699 152.533021 
L 408.452668 151.243084 
L 409.783636 150.92584 
L 411.114605 149.303476 
L 412.445574 148.027433 
L 413.776542 147.703473 
L 415.107511 146.05606 
L 416.43848 144.77868 
L 417.769449 144.455197 
L 419.100417 142.783673 
L 420.431386 141.499975 
L 421.762355 141.174136 
L 423.093323 139.492729 
L 424.424292 138.215047 
L 425.755261 137.88792 
L 427.08623 136.168142 
L 428.417198 134.89821 
L 429.748167 134.5492 
L 431.079136 132.831046 
L 432.410104 131.546138 
L 433.741073 131.235833 
L 435.072042 129.487775 
L 436.40301 128.20796 
L 437.733979 127.881899 
L 439.064948 126.11199 
L 440.395917 124.839766 
L 441.726885 124.494146 
L 443.057854 122.724953 
L 444.388823 121.437786 
L 445.719791 121.06667 
L 447.05076 119.266635 
L 448.381729 117.978051 
L 449.712697 117.611853 
L 451.043666 115.770948 
L 452.374635 114.48795 
L 453.705604 114.127529 
L 455.036572 112.260254 
L 456.367541 110.975092 
L 457.69851 110.605854 
L 459.029478 108.723492 
L 460.360447 107.428606 
L 461.691416 107.031788 
L 463.022385 105.127383 
L 464.353353 103.847202 
L 465.684322 103.470342 
L 467.015291 101.508549 
L 468.346259 100.217418 
L 469.677228 99.808442 
L 471.008197 97.833758 
L 472.339165 96.550028 
L 473.670134 96.156361 
L 475.001103 94.161052 
L 476.332072 92.864526 
L 477.66304 92.468807 
L 478.994009 90.47076 
L 480.324978 89.198775 
L 481.655946 88.815501 
L 482.986915 86.749673 
L 484.317884 85.469476 
L 485.648852 85.067009 
L 486.979821 74.987701 
L 488.31079 74.269278 
L 489.641759 70.716633 
L 490.972727 70.694909 
L 490.972727 70.694909 
" clip-path="url(#p78bcd8a298)" style="fill: none; stroke: #2ca02c; stroke-width: 1.5; stroke-linecap: square"/>
   </g>
   <g id="patch_8">
    <path d="M 64.73 379.96 
L 64.73 55.968 
" style="fill: none; stroke: #000000; stroke-width: 0.8; stroke-linejoin: miter; stroke-linecap: square"/>
   </g>
   <g id="patch_9">
    <path d="M 511.27 379.96 
L 511.27 55.968 
" style="fill: none; stroke: #000000; stroke-width: 0.8; stroke-linejoin: miter; stroke-linecap: square"/>
   </g>
   <g id="patch_10">
    <path d="M 64.73 379.96 
L 511.27 379.96 
" style="fill: none; stroke: #000000; stroke-width: 0.8; stroke-linejoin: miter; stroke-linecap: square"/>
   </g>
   <g id="patch_11">
    <path d="M 64.73 55.968 
L 511.27 55.968 
" style="fill: none; stroke: #000000; stroke-width: 0.8; stroke-linejoin: miter; stroke-linecap: square"/>
   </g>
   <g id="text_25">
    <!-- [orin] -->
    <g transform="translate(260.851562 27.572375) scale(0.2 -0.2)">
     <defs>
      <path id="DejaVuSans-5b" d="M 550 4863 
L 1875 4863 
L 1875 4416 
L 1125 4416 
L 1125 -397 
L 1875 -397 
L 1875 -844 
L 550 -844 
L 550 4863 
z
" transform="scale(0.015625)"/>
      <path id="DejaVuSans-5d" d="M 1947 4863 
L 1947 -844 
L 622 -844 
L 622 -397 
L 1369 -397 
L 1369 4416 
L 622 4416 
L 622 4863 
L 1947 4863 
z
" transform="scale(0.015625)"/>
     </defs>
     <use xlink:href="#DejaVuSans-5b"/>
     <use xlink:href="#DejaVuSans-6f" x="39.013672"/>
     <use xlink:href="#DejaVuSans-72" x="100.195312"/>
     <use xlink:href="#DejaVuSans-69" x="141.308594"/>
     <use xlink:href="#DejaVuSans-6e" x="169.091797"/>
     <use xlink:href="#DejaVuSans-5d" x="232.470703"/>
    </g>
    <!-- GPU-accel [0,M] with densenet201 -->
    <g transform="translate(114.81875 49.968) scale(0.2 -0.2)">
     <defs>
      <path id="DejaVuSans-50" d="M 1259 4147 
L 1259 2394 
L 2053 2394 
Q 2494 2394 2734 2622 
Q 2975 2850 2975 3272 
Q 2975 3691 2734 3919 
Q 2494 4147 2053 4147 
L 1259 4147 
z
M 628 4666 
L 2053 4666 
Q 2838 4666 3239 4311 
Q 3641 3956 3641 3272 
Q 3641 2581 3239 2228 
Q 2838 1875 2053 1875 
L 1259 1875 
L 1259 0 
L 628 0 
L 628 4666 
z
" transform="scale(0.015625)"/>
      <path id="DejaVuSans-55" d="M 556 4666 
L 1191 4666 
L 1191 1831 
Q 1191 1081 1462 751 
Q 1734 422 2344 422 
Q 2950 422 3222 751 
Q 3494 1081 3494 1831 
L 3494 4666 
L 4128 4666 
L 4128 1753 
Q 4128 841 3676 375 
Q 3225 -91 2344 -91 
Q 1459 -91 1007 375 
Q 556 841 556 1753 
L 556 4666 
z
" transform="scale(0.015625)"/>
      <path id="DejaVuSans-2d" d="M 313 2009 
L 1997 2009 
L 1997 1497 
L 313 1497 
L 313 2009 
z
" transform="scale(0.015625)"/>
      <path id="DejaVuSans-2c" d="M 750 794 
L 1409 794 
L 1409 256 
L 897 -744 
L 494 -744 
L 750 256 
L 750 794 
z
" transform="scale(0.015625)"/>
      <path id="DejaVuSans-77" d="M 269 3500 
L 844 3500 
L 1563 769 
L 2278 3500 
L 2956 3500 
L 3675 769 
L 4391 3500 
L 4966 3500 
L 4050 0 
L 3372 0 
L 2619 2869 
L 1863 0 
L 1184 0 
L 269 3500 
z
" transform="scale(0.015625)"/>
     </defs>
     <use xlink:href="#DejaVuSans-47"/>
     <use xlink:href="#DejaVuSans-50" x="77.490234"/>
     <use xlink:href="#DejaVuSans-55" x="137.792969"/>
     <use xlink:href="#DejaVuSans-2d" x="210.986328"/>
     <use xlink:href="#DejaVuSans-61" x="247.070312"/>
     <use xlink:href="#DejaVuSans-63" x="308.349609"/>
     <use xlink:href="#DejaVuSans-63" x="363.330078"/>
     <use xlink:href="#DejaVuSans-65" x="418.310547"/>
     <use xlink:href="#DejaVuSans-6c" x="479.833984"/>
     <use xlink:href="#DejaVuSans-20" x="507.617188"/>
     <use xlink:href="#DejaVuSans-5b" x="539.404297"/>
     <use xlink:href="#DejaVuSans-30" x="578.417969"/>
     <use xlink:href="#DejaVuSans-2c" x="642.041016"/>
     <use xlink:href="#DejaVuSans-4d" x="673.828125"/>
     <use xlink:href="#DejaVuSans-5d" x="760.107422"/>
     <use xlink:href="#DejaVuSans-20" x="799.121094"/>
     <use xlink:href="#DejaVuSans-77" x="830.908203"/>
     <use xlink:href="#DejaVuSans-69" x="912.695312"/>
     <use xlink:href="#DejaVuSans-74" x="940.478516"/>
     <use xlink:href="#DejaVuSans-68" x="979.6875"/>
     <use xlink:href="#DejaVuSans-20" x="1043.066406"/>
     <use xlink:href="#DejaVuSans-64" x="1074.853516"/>
     <use xlink:href="#DejaVuSans-65" x="1138.330078"/>
     <use xlink:href="#DejaVuSans-6e" x="1199.853516"/>
     <use xlink:href="#DejaVuSans-73" x="1263.232422"/>
     <use xlink:href="#DejaVuSans-65" x="1315.332031"/>
     <use xlink:href="#DejaVuSans-6e" x="1376.855469"/>
     <use xlink:href="#DejaVuSans-65" x="1440.234375"/>
     <use xlink:href="#DejaVuSans-74" x="1501.757812"/>
     <use xlink:href="#DejaVuSans-32" x="1540.966797"/>
     <use xlink:href="#DejaVuSans-30" x="1604.589844"/>
     <use xlink:href="#DejaVuSans-31" x="1668.212891"/>
    </g>
   </g>
   <g id="legend_2">
    <g id="patch_12">
     <path d="M 443.591875 78.646125 
L 504.27 78.646125 
Q 506.27 78.646125 506.27 76.646125 
L 506.27 62.968 
Q 506.27 60.968 504.27 60.968 
L 443.591875 60.968 
Q 441.591875 60.968 441.591875 62.968 
L 441.591875 76.646125 
Q 441.591875 78.646125 443.591875 78.646125 
z
" style="fill: #ffffff; opacity: 0.8; stroke: #cccccc; stroke-linejoin: miter"/>
    </g>
    <g id="line2d_37">
     <path d="M 445.591875 69.066438 
L 455.591875 69.066438 
L 465.591875 69.066438 
" style="fill: none; stroke: #2ca02c; stroke-width: 1.5; stroke-linecap: square"/>
    </g>
    <g id="text_26">
     <!-- Delay -->
     <g transform="translate(473.591875 72.566438) scale(0.1 -0.1)">
      <defs>
       <path id="DejaVuSans-44" d="M 1259 4147 
L 1259 519 
L 2022 519 
Q 2988 519 3436 956 
Q 3884 1394 3884 2338 
Q 3884 3275 3436 3711 
Q 2988 4147 2022 4147 
L 1259 4147 
z
M 628 4666 
L 1925 4666 
Q 3281 4666 3915 4102 
Q 4550 3538 4550 2338 
Q 4550 1131 3912 565 
Q 3275 0 1925 0 
L 628 0 
L 628 4666 
z
" transform="scale(0.015625)"/>
      </defs>
      <use xlink:href="#DejaVuSans-44"/>
      <use xlink:href="#DejaVuSans-65" x="77.001953"/>
      <use xlink:href="#DejaVuSans-6c" x="138.525391"/>
      <use xlink:href="#DejaVuSans-61" x="166.308594"/>
      <use xlink:href="#DejaVuSans-79" x="227.587891"/>
     </g>
    </g>
   </g>
  </g>
 </g>
 <defs>
  <clipPath id="p78bcd8a298">
   <rect x="64.73" y="55.968" width="446.54" height="323.992"/>
  </clipPath>
 </defs>
</svg>
