<?xml version="1.0" encoding="utf-8" standalone="no"?>
<!DOCTYPE svg PUBLIC "-//W3C//DTD SVG 1.1//EN"
  "http://www.w3.org/Graphics/SVG/1.1/DTD/svg11.dtd">
<svg xmlns:xlink="http://www.w3.org/1999/xlink" width="864pt" height="432pt" viewBox="0 0 864 432" xmlns="http://www.w3.org/2000/svg" version="1.1">
 <metadata>
  <rdf:RDF xmlns:dc="http://purl.org/dc/elements/1.1/" xmlns:cc="http://creativecommons.org/ns#" xmlns:rdf="http://www.w3.org/1999/02/22-rdf-syntax-ns#">
   <cc:Work>
    <dc:type rdf:resource="http://purl.org/dc/dcmitype/StillImage"/>
    <dc:date>2025-01-08T16:01:30.588129</dc:date>
    <dc:format>image/svg+xml</dc:format>
    <dc:creator>
     <cc:Agent>
      <dc:title>Matplotlib v3.9.2, https://matplotlib.org/</dc:title>
     </cc:Agent>
    </dc:creator>
   </cc:Work>
  </rdf:RDF>
 </metadata>
 <defs>
  <style type="text/css">*{stroke-linejoin: round; stroke-linecap: butt}</style>
 </defs>
 <g id="figure_1">
  <g id="patch_1">
   <path d="M 0 432 
L 864 432 
L 864 0 
L 0 0 
z
" style="fill: #ffffff"/>
  </g>
  <g id="axes_1">
   <g id="patch_2">
    <path d="M 61.04 375.64 
L 853.2 375.64 
L 853.2 36.24 
L 61.04 36.24 
z
" style="fill: #ffffff"/>
   </g>
   <g id="matplotlib.axis_1">
    <g id="xtick_1">
     <g id="line2d_1">
      <defs>
       <path id="ma58494b906" d="M 0 0 
L 0 3.5 
" style="stroke: #000000; stroke-width: 0.8"/>
      </defs>
      <g>
       <use xlink:href="#ma58494b906" x="63.611948" y="375.64" style="stroke: #000000; stroke-width: 0.8"/>
      </g>
     </g>
     <g id="text_1">
      <!-- 0 -->
      <g transform="translate(58.840073 394.037656) scale(0.15 -0.15)">
       <defs>
        <path id="DejaVuSans-30" d="M 2034 4250 
Q 1547 4250 1301 3770 
Q 1056 3291 1056 2328 
Q 1056 1369 1301 889 
Q 1547 409 2034 409 
Q 2525 409 2770 889 
Q 3016 1369 3016 2328 
Q 3016 3291 2770 3770 
Q 2525 4250 2034 4250 
z
M 2034 4750 
Q 2819 4750 3233 4129 
Q 3647 3509 3647 2328 
Q 3647 1150 3233 529 
Q 2819 -91 2034 -91 
Q 1250 -91 836 529 
Q 422 1150 422 2328 
Q 422 3509 836 4129 
Q 1250 4750 2034 4750 
z
" transform="scale(0.015625)"/>
       </defs>
       <use xlink:href="#DejaVuSans-30"/>
      </g>
     </g>
    </g>
    <g id="xtick_2">
     <g id="line2d_2">
      <g>
       <use xlink:href="#ma58494b906" x="192.209351" y="375.64" style="stroke: #000000; stroke-width: 0.8"/>
      </g>
     </g>
     <g id="text_2">
      <!-- 50 -->
      <g transform="translate(182.665601 394.037656) scale(0.15 -0.15)">
       <defs>
        <path id="DejaVuSans-35" d="M 691 4666 
L 3169 4666 
L 3169 4134 
L 1269 4134 
L 1269 2991 
Q 1406 3038 1543 3061 
Q 1681 3084 1819 3084 
Q 2600 3084 3056 2656 
Q 3513 2228 3513 1497 
Q 3513 744 3044 326 
Q 2575 -91 1722 -91 
Q 1428 -91 1123 -41 
Q 819 9 494 109 
L 494 744 
Q 775 591 1075 516 
Q 1375 441 1709 441 
Q 2250 441 2565 725 
Q 2881 1009 2881 1497 
Q 2881 1984 2565 2268 
Q 2250 2553 1709 2553 
Q 1456 2553 1204 2497 
Q 953 2441 691 2322 
L 691 4666 
z
" transform="scale(0.015625)"/>
       </defs>
       <use xlink:href="#DejaVuSans-35"/>
       <use xlink:href="#DejaVuSans-30" x="63.623047"/>
      </g>
     </g>
    </g>
    <g id="xtick_3">
     <g id="line2d_3">
      <g>
       <use xlink:href="#ma58494b906" x="320.806753" y="375.64" style="stroke: #000000; stroke-width: 0.8"/>
      </g>
     </g>
     <g id="text_3">
      <!-- 100 -->
      <g transform="translate(306.491128 394.037656) scale(0.15 -0.15)">
       <defs>
        <path id="DejaVuSans-31" d="M 794 531 
L 1825 531 
L 1825 4091 
L 703 3866 
L 703 4441 
L 1819 4666 
L 2450 4666 
L 2450 531 
L 3481 531 
L 3481 0 
L 794 0 
L 794 531 
z
" transform="scale(0.015625)"/>
       </defs>
       <use xlink:href="#DejaVuSans-31"/>
       <use xlink:href="#DejaVuSans-30" x="63.623047"/>
       <use xlink:href="#DejaVuSans-30" x="127.246094"/>
      </g>
     </g>
    </g>
    <g id="xtick_4">
     <g id="line2d_4">
      <g>
       <use xlink:href="#ma58494b906" x="449.404156" y="375.64" style="stroke: #000000; stroke-width: 0.8"/>
      </g>
     </g>
     <g id="text_4">
      <!-- 150 -->
      <g transform="translate(435.088531 394.037656) scale(0.15 -0.15)">
       <use xlink:href="#DejaVuSans-31"/>
       <use xlink:href="#DejaVuSans-35" x="63.623047"/>
       <use xlink:href="#DejaVuSans-30" x="127.246094"/>
      </g>
     </g>
    </g>
    <g id="xtick_5">
     <g id="line2d_5">
      <g>
       <use xlink:href="#ma58494b906" x="578.001558" y="375.64" style="stroke: #000000; stroke-width: 0.8"/>
      </g>
     </g>
     <g id="text_5">
      <!-- 200 -->
      <g transform="translate(563.685933 394.037656) scale(0.15 -0.15)">
       <defs>
        <path id="DejaVuSans-32" d="M 1228 531 
L 3431 531 
L 3431 0 
L 469 0 
L 469 531 
Q 828 903 1448 1529 
Q 2069 2156 2228 2338 
Q 2531 2678 2651 2914 
Q 2772 3150 2772 3378 
Q 2772 3750 2511 3984 
Q 2250 4219 1831 4219 
Q 1534 4219 1204 4116 
Q 875 4013 500 3803 
L 500 4441 
Q 881 4594 1212 4672 
Q 1544 4750 1819 4750 
Q 2544 4750 2975 4387 
Q 3406 4025 3406 3419 
Q 3406 3131 3298 2873 
Q 3191 2616 2906 2266 
Q 2828 2175 2409 1742 
Q 1991 1309 1228 531 
z
" transform="scale(0.015625)"/>
       </defs>
       <use xlink:href="#DejaVuSans-32"/>
       <use xlink:href="#DejaVuSans-30" x="63.623047"/>
       <use xlink:href="#DejaVuSans-30" x="127.246094"/>
      </g>
     </g>
    </g>
    <g id="xtick_6">
     <g id="line2d_6">
      <g>
       <use xlink:href="#ma58494b906" x="706.598961" y="375.64" style="stroke: #000000; stroke-width: 0.8"/>
      </g>
     </g>
     <g id="text_6">
      <!-- 250 -->
      <g transform="translate(692.283336 394.037656) scale(0.15 -0.15)">
       <use xlink:href="#DejaVuSans-32"/>
       <use xlink:href="#DejaVuSans-35" x="63.623047"/>
       <use xlink:href="#DejaVuSans-30" x="127.246094"/>
      </g>
     </g>
    </g>
    <g id="xtick_7">
     <g id="line2d_7">
      <g>
       <use xlink:href="#ma58494b906" x="835.196364" y="375.64" style="stroke: #000000; stroke-width: 0.8"/>
      </g>
     </g>
     <g id="text_7">
      <!-- 300 -->
      <g transform="translate(820.880739 394.037656) scale(0.15 -0.15)">
       <defs>
        <path id="DejaVuSans-33" d="M 2597 2516 
Q 3050 2419 3304 2112 
Q 3559 1806 3559 1356 
Q 3559 666 3084 287 
Q 2609 -91 1734 -91 
Q 1441 -91 1130 -33 
Q 819 25 488 141 
L 488 750 
Q 750 597 1062 519 
Q 1375 441 1716 441 
Q 2309 441 2620 675 
Q 2931 909 2931 1356 
Q 2931 1769 2642 2001 
Q 2353 2234 1838 2234 
L 1294 2234 
L 1294 2753 
L 1863 2753 
Q 2328 2753 2575 2939 
Q 2822 3125 2822 3475 
Q 2822 3834 2567 4026 
Q 2313 4219 1838 4219 
Q 1578 4219 1281 4162 
Q 984 4106 628 3988 
L 628 4550 
Q 988 4650 1302 4700 
Q 1616 4750 1894 4750 
Q 2613 4750 3031 4423 
Q 3450 4097 3450 3541 
Q 3450 3153 3228 2886 
Q 3006 2619 2597 2516 
z
" transform="scale(0.015625)"/>
       </defs>
       <use xlink:href="#DejaVuSans-33"/>
       <use xlink:href="#DejaVuSans-30" x="63.623047"/>
       <use xlink:href="#DejaVuSans-30" x="127.246094"/>
      </g>
     </g>
    </g>
    <g id="text_8">
     <!-- Layer Index -->
     <g transform="translate(398.52625 416.354062) scale(0.2 -0.2)">
      <defs>
       <path id="DejaVuSans-4c" d="M 628 4666 
L 1259 4666 
L 1259 531 
L 3531 531 
L 3531 0 
L 628 0 
L 628 4666 
z
" transform="scale(0.015625)"/>
       <path id="DejaVuSans-61" d="M 2194 1759 
Q 1497 1759 1228 1600 
Q 959 1441 959 1056 
Q 959 750 1161 570 
Q 1363 391 1709 391 
Q 2188 391 2477 730 
Q 2766 1069 2766 1631 
L 2766 1759 
L 2194 1759 
z
M 3341 1997 
L 3341 0 
L 2766 0 
L 2766 531 
Q 2569 213 2275 61 
Q 1981 -91 1556 -91 
Q 1019 -91 701 211 
Q 384 513 384 1019 
Q 384 1609 779 1909 
Q 1175 2209 1959 2209 
L 2766 2209 
L 2766 2266 
Q 2766 2663 2505 2880 
Q 2244 3097 1772 3097 
Q 1472 3097 1187 3025 
Q 903 2953 641 2809 
L 641 3341 
Q 956 3463 1253 3523 
Q 1550 3584 1831 3584 
Q 2591 3584 2966 3190 
Q 3341 2797 3341 1997 
z
" transform="scale(0.015625)"/>
       <path id="DejaVuSans-79" d="M 2059 -325 
Q 1816 -950 1584 -1140 
Q 1353 -1331 966 -1331 
L 506 -1331 
L 506 -850 
L 844 -850 
Q 1081 -850 1212 -737 
Q 1344 -625 1503 -206 
L 1606 56 
L 191 3500 
L 800 3500 
L 1894 763 
L 2988 3500 
L 3597 3500 
L 2059 -325 
z
" transform="scale(0.015625)"/>
       <path id="DejaVuSans-65" d="M 3597 1894 
L 3597 1613 
L 953 1613 
Q 991 1019 1311 708 
Q 1631 397 2203 397 
Q 2534 397 2845 478 
Q 3156 559 3463 722 
L 3463 178 
Q 3153 47 2828 -22 
Q 2503 -91 2169 -91 
Q 1331 -91 842 396 
Q 353 884 353 1716 
Q 353 2575 817 3079 
Q 1281 3584 2069 3584 
Q 2775 3584 3186 3129 
Q 3597 2675 3597 1894 
z
M 3022 2063 
Q 3016 2534 2758 2815 
Q 2500 3097 2075 3097 
Q 1594 3097 1305 2825 
Q 1016 2553 972 2059 
L 3022 2063 
z
" transform="scale(0.015625)"/>
       <path id="DejaVuSans-72" d="M 2631 2963 
Q 2534 3019 2420 3045 
Q 2306 3072 2169 3072 
Q 1681 3072 1420 2755 
Q 1159 2438 1159 1844 
L 1159 0 
L 581 0 
L 581 3500 
L 1159 3500 
L 1159 2956 
Q 1341 3275 1631 3429 
Q 1922 3584 2338 3584 
Q 2397 3584 2469 3576 
Q 2541 3569 2628 3553 
L 2631 2963 
z
" transform="scale(0.015625)"/>
       <path id="DejaVuSans-20" transform="scale(0.015625)"/>
       <path id="DejaVuSans-49" d="M 628 4666 
L 1259 4666 
L 1259 0 
L 628 0 
L 628 4666 
z
" transform="scale(0.015625)"/>
       <path id="DejaVuSans-6e" d="M 3513 2113 
L 3513 0 
L 2938 0 
L 2938 2094 
Q 2938 2591 2744 2837 
Q 2550 3084 2163 3084 
Q 1697 3084 1428 2787 
Q 1159 2491 1159 1978 
L 1159 0 
L 581 0 
L 581 3500 
L 1159 3500 
L 1159 2956 
Q 1366 3272 1645 3428 
Q 1925 3584 2291 3584 
Q 2894 3584 3203 3211 
Q 3513 2838 3513 2113 
z
" transform="scale(0.015625)"/>
       <path id="DejaVuSans-64" d="M 2906 2969 
L 2906 4863 
L 3481 4863 
L 3481 0 
L 2906 0 
L 2906 525 
Q 2725 213 2448 61 
Q 2172 -91 1784 -91 
Q 1150 -91 751 415 
Q 353 922 353 1747 
Q 353 2572 751 3078 
Q 1150 3584 1784 3584 
Q 2172 3584 2448 3432 
Q 2725 3281 2906 2969 
z
M 947 1747 
Q 947 1113 1208 752 
Q 1469 391 1925 391 
Q 2381 391 2643 752 
Q 2906 1113 2906 1747 
Q 2906 2381 2643 2742 
Q 2381 3103 1925 3103 
Q 1469 3103 1208 2742 
Q 947 2381 947 1747 
z
" transform="scale(0.015625)"/>
       <path id="DejaVuSans-78" d="M 3513 3500 
L 2247 1797 
L 3578 0 
L 2900 0 
L 1881 1375 
L 863 0 
L 184 0 
L 1544 1831 
L 300 3500 
L 978 3500 
L 1906 2253 
L 2834 3500 
L 3513 3500 
z
" transform="scale(0.015625)"/>
      </defs>
      <use xlink:href="#DejaVuSans-4c"/>
      <use xlink:href="#DejaVuSans-61" x="55.712891"/>
      <use xlink:href="#DejaVuSans-79" x="116.992188"/>
      <use xlink:href="#DejaVuSans-65" x="176.171875"/>
      <use xlink:href="#DejaVuSans-72" x="237.695312"/>
      <use xlink:href="#DejaVuSans-20" x="278.808594"/>
      <use xlink:href="#DejaVuSans-49" x="310.595703"/>
      <use xlink:href="#DejaVuSans-6e" x="340.087891"/>
      <use xlink:href="#DejaVuSans-64" x="403.466797"/>
      <use xlink:href="#DejaVuSans-65" x="466.943359"/>
      <use xlink:href="#DejaVuSans-78" x="526.716797"/>
     </g>
    </g>
   </g>
   <g id="matplotlib.axis_2">
    <g id="ytick_1">
     <g id="line2d_8">
      <path d="M 61.04 360.223194 
L 853.2 360.223194 
" clip-path="url(#p15476949a0)" style="fill: none; stroke: #b0b0b0; stroke-opacity: 0.5; stroke-width: 0.8; stroke-linecap: square"/>
     </g>
     <g id="line2d_9">
      <defs>
       <path id="m40e7d124e6" d="M 0 0 
L -3.5 0 
" style="stroke: #000000; stroke-width: 0.8"/>
      </defs>
      <g>
       <use xlink:href="#m40e7d124e6" x="61.04" y="360.223194" style="stroke: #000000; stroke-width: 0.8"/>
      </g>
     </g>
     <g id="text_9">
      <!-- 0 -->
      <g transform="translate(44.49625 365.922022) scale(0.15 -0.15)">
       <use xlink:href="#DejaVuSans-30"/>
      </g>
     </g>
    </g>
    <g id="ytick_2">
     <g id="line2d_10">
      <path d="M 61.04 307.891368 
L 853.2 307.891368 
" clip-path="url(#p15476949a0)" style="fill: none; stroke: #b0b0b0; stroke-opacity: 0.5; stroke-width: 0.8; stroke-linecap: square"/>
     </g>
     <g id="line2d_11">
      <g>
       <use xlink:href="#m40e7d124e6" x="61.04" y="307.891368" style="stroke: #000000; stroke-width: 0.8"/>
      </g>
     </g>
     <g id="text_10">
      <!-- 5 -->
      <g transform="translate(44.49625 313.590196) scale(0.15 -0.15)">
       <use xlink:href="#DejaVuSans-35"/>
      </g>
     </g>
    </g>
    <g id="ytick_3">
     <g id="line2d_12">
      <path d="M 61.04 255.559542 
L 853.2 255.559542 
" clip-path="url(#p15476949a0)" style="fill: none; stroke: #b0b0b0; stroke-opacity: 0.5; stroke-width: 0.8; stroke-linecap: square"/>
     </g>
     <g id="line2d_13">
      <g>
       <use xlink:href="#m40e7d124e6" x="61.04" y="255.559542" style="stroke: #000000; stroke-width: 0.8"/>
      </g>
     </g>
     <g id="text_11">
      <!-- 10 -->
      <g transform="translate(34.9525 261.25837) scale(0.15 -0.15)">
       <use xlink:href="#DejaVuSans-31"/>
       <use xlink:href="#DejaVuSans-30" x="63.623047"/>
      </g>
     </g>
    </g>
    <g id="ytick_4">
     <g id="line2d_14">
      <path d="M 61.04 203.227716 
L 853.2 203.227716 
" clip-path="url(#p15476949a0)" style="fill: none; stroke: #b0b0b0; stroke-opacity: 0.5; stroke-width: 0.8; stroke-linecap: square"/>
     </g>
     <g id="line2d_15">
      <g>
       <use xlink:href="#m40e7d124e6" x="61.04" y="203.227716" style="stroke: #000000; stroke-width: 0.8"/>
      </g>
     </g>
     <g id="text_12">
      <!-- 15 -->
      <g transform="translate(34.9525 208.926544) scale(0.15 -0.15)">
       <use xlink:href="#DejaVuSans-31"/>
       <use xlink:href="#DejaVuSans-35" x="63.623047"/>
      </g>
     </g>
    </g>
    <g id="ytick_5">
     <g id="line2d_16">
      <path d="M 61.04 150.89589 
L 853.2 150.89589 
" clip-path="url(#p15476949a0)" style="fill: none; stroke: #b0b0b0; stroke-opacity: 0.5; stroke-width: 0.8; stroke-linecap: square"/>
     </g>
     <g id="line2d_17">
      <g>
       <use xlink:href="#m40e7d124e6" x="61.04" y="150.89589" style="stroke: #000000; stroke-width: 0.8"/>
      </g>
     </g>
     <g id="text_13">
      <!-- 20 -->
      <g transform="translate(34.9525 156.594719) scale(0.15 -0.15)">
       <use xlink:href="#DejaVuSans-32"/>
       <use xlink:href="#DejaVuSans-30" x="63.623047"/>
      </g>
     </g>
    </g>
    <g id="ytick_6">
     <g id="line2d_18">
      <path d="M 61.04 98.564065 
L 853.2 98.564065 
" clip-path="url(#p15476949a0)" style="fill: none; stroke: #b0b0b0; stroke-opacity: 0.5; stroke-width: 0.8; stroke-linecap: square"/>
     </g>
     <g id="line2d_19">
      <g>
       <use xlink:href="#m40e7d124e6" x="61.04" y="98.564065" style="stroke: #000000; stroke-width: 0.8"/>
      </g>
     </g>
     <g id="text_14">
      <!-- 25 -->
      <g transform="translate(34.9525 104.262893) scale(0.15 -0.15)">
       <use xlink:href="#DejaVuSans-32"/>
       <use xlink:href="#DejaVuSans-35" x="63.623047"/>
      </g>
     </g>
    </g>
    <g id="ytick_7">
     <g id="line2d_20">
      <path d="M 61.04 46.232239 
L 853.2 46.232239 
" clip-path="url(#p15476949a0)" style="fill: none; stroke: #b0b0b0; stroke-opacity: 0.5; stroke-width: 0.8; stroke-linecap: square"/>
     </g>
     <g id="line2d_21">
      <g>
       <use xlink:href="#m40e7d124e6" x="61.04" y="46.232239" style="stroke: #000000; stroke-width: 0.8"/>
      </g>
     </g>
     <g id="text_15">
      <!-- 30 -->
      <g transform="translate(34.9525 51.931067) scale(0.15 -0.15)">
       <use xlink:href="#DejaVuSans-33"/>
       <use xlink:href="#DejaVuSans-30" x="63.623047"/>
      </g>
     </g>
    </g>
    <g id="text_16">
     <!-- Execution Time (ms)    -->
     <g transform="translate(26.793125 318.119687) rotate(-90) scale(0.2 -0.2)">
      <defs>
       <path id="DejaVuSans-45" d="M 628 4666 
L 3578 4666 
L 3578 4134 
L 1259 4134 
L 1259 2753 
L 3481 2753 
L 3481 2222 
L 1259 2222 
L 1259 531 
L 3634 531 
L 3634 0 
L 628 0 
L 628 4666 
z
" transform="scale(0.015625)"/>
       <path id="DejaVuSans-63" d="M 3122 3366 
L 3122 2828 
Q 2878 2963 2633 3030 
Q 2388 3097 2138 3097 
Q 1578 3097 1268 2742 
Q 959 2388 959 1747 
Q 959 1106 1268 751 
Q 1578 397 2138 397 
Q 2388 397 2633 464 
Q 2878 531 3122 666 
L 3122 134 
Q 2881 22 2623 -34 
Q 2366 -91 2075 -91 
Q 1284 -91 818 406 
Q 353 903 353 1747 
Q 353 2603 823 3093 
Q 1294 3584 2113 3584 
Q 2378 3584 2631 3529 
Q 2884 3475 3122 3366 
z
" transform="scale(0.015625)"/>
       <path id="DejaVuSans-75" d="M 544 1381 
L 544 3500 
L 1119 3500 
L 1119 1403 
Q 1119 906 1312 657 
Q 1506 409 1894 409 
Q 2359 409 2629 706 
Q 2900 1003 2900 1516 
L 2900 3500 
L 3475 3500 
L 3475 0 
L 2900 0 
L 2900 538 
Q 2691 219 2414 64 
Q 2138 -91 1772 -91 
Q 1169 -91 856 284 
Q 544 659 544 1381 
z
M 1991 3584 
L 1991 3584 
z
" transform="scale(0.015625)"/>
       <path id="DejaVuSans-74" d="M 1172 4494 
L 1172 3500 
L 2356 3500 
L 2356 3053 
L 1172 3053 
L 1172 1153 
Q 1172 725 1289 603 
Q 1406 481 1766 481 
L 2356 481 
L 2356 0 
L 1766 0 
Q 1100 0 847 248 
Q 594 497 594 1153 
L 594 3053 
L 172 3053 
L 172 3500 
L 594 3500 
L 594 4494 
L 1172 4494 
z
" transform="scale(0.015625)"/>
       <path id="DejaVuSans-69" d="M 603 3500 
L 1178 3500 
L 1178 0 
L 603 0 
L 603 3500 
z
M 603 4863 
L 1178 4863 
L 1178 4134 
L 603 4134 
L 603 4863 
z
" transform="scale(0.015625)"/>
       <path id="DejaVuSans-6f" d="M 1959 3097 
Q 1497 3097 1228 2736 
Q 959 2375 959 1747 
Q 959 1119 1226 758 
Q 1494 397 1959 397 
Q 2419 397 2687 759 
Q 2956 1122 2956 1747 
Q 2956 2369 2687 2733 
Q 2419 3097 1959 3097 
z
M 1959 3584 
Q 2709 3584 3137 3096 
Q 3566 2609 3566 1747 
Q 3566 888 3137 398 
Q 2709 -91 1959 -91 
Q 1206 -91 779 398 
Q 353 888 353 1747 
Q 353 2609 779 3096 
Q 1206 3584 1959 3584 
z
" transform="scale(0.015625)"/>
       <path id="DejaVuSans-54" d="M -19 4666 
L 3928 4666 
L 3928 4134 
L 2272 4134 
L 2272 0 
L 1638 0 
L 1638 4134 
L -19 4134 
L -19 4666 
z
" transform="scale(0.015625)"/>
       <path id="DejaVuSans-6d" d="M 3328 2828 
Q 3544 3216 3844 3400 
Q 4144 3584 4550 3584 
Q 5097 3584 5394 3201 
Q 5691 2819 5691 2113 
L 5691 0 
L 5113 0 
L 5113 2094 
Q 5113 2597 4934 2840 
Q 4756 3084 4391 3084 
Q 3944 3084 3684 2787 
Q 3425 2491 3425 1978 
L 3425 0 
L 2847 0 
L 2847 2094 
Q 2847 2600 2669 2842 
Q 2491 3084 2119 3084 
Q 1678 3084 1418 2786 
Q 1159 2488 1159 1978 
L 1159 0 
L 581 0 
L 581 3500 
L 1159 3500 
L 1159 2956 
Q 1356 3278 1631 3431 
Q 1906 3584 2284 3584 
Q 2666 3584 2933 3390 
Q 3200 3197 3328 2828 
z
" transform="scale(0.015625)"/>
       <path id="DejaVuSans-28" d="M 1984 4856 
Q 1566 4138 1362 3434 
Q 1159 2731 1159 2009 
Q 1159 1288 1364 580 
Q 1569 -128 1984 -844 
L 1484 -844 
Q 1016 -109 783 600 
Q 550 1309 550 2009 
Q 550 2706 781 3412 
Q 1013 4119 1484 4856 
L 1984 4856 
z
" transform="scale(0.015625)"/>
       <path id="DejaVuSans-73" d="M 2834 3397 
L 2834 2853 
Q 2591 2978 2328 3040 
Q 2066 3103 1784 3103 
Q 1356 3103 1142 2972 
Q 928 2841 928 2578 
Q 928 2378 1081 2264 
Q 1234 2150 1697 2047 
L 1894 2003 
Q 2506 1872 2764 1633 
Q 3022 1394 3022 966 
Q 3022 478 2636 193 
Q 2250 -91 1575 -91 
Q 1294 -91 989 -36 
Q 684 19 347 128 
L 347 722 
Q 666 556 975 473 
Q 1284 391 1588 391 
Q 1994 391 2212 530 
Q 2431 669 2431 922 
Q 2431 1156 2273 1281 
Q 2116 1406 1581 1522 
L 1381 1569 
Q 847 1681 609 1914 
Q 372 2147 372 2553 
Q 372 3047 722 3315 
Q 1072 3584 1716 3584 
Q 2034 3584 2315 3537 
Q 2597 3491 2834 3397 
z
" transform="scale(0.015625)"/>
       <path id="DejaVuSans-29" d="M 513 4856 
L 1013 4856 
Q 1481 4119 1714 3412 
Q 1947 2706 1947 2009 
Q 1947 1309 1714 600 
Q 1481 -109 1013 -844 
L 513 -844 
Q 928 -128 1133 580 
Q 1338 1288 1338 2009 
Q 1338 2731 1133 3434 
Q 928 4138 513 4856 
z
" transform="scale(0.015625)"/>
      </defs>
      <use xlink:href="#DejaVuSans-45"/>
      <use xlink:href="#DejaVuSans-78" x="63.183594"/>
      <use xlink:href="#DejaVuSans-65" x="119.238281"/>
      <use xlink:href="#DejaVuSans-63" x="180.761719"/>
      <use xlink:href="#DejaVuSans-75" x="235.742188"/>
      <use xlink:href="#DejaVuSans-74" x="299.121094"/>
      <use xlink:href="#DejaVuSans-69" x="338.330078"/>
      <use xlink:href="#DejaVuSans-6f" x="366.113281"/>
      <use xlink:href="#DejaVuSans-6e" x="427.294922"/>
      <use xlink:href="#DejaVuSans-20" x="490.673828"/>
      <use xlink:href="#DejaVuSans-54" x="522.460938"/>
      <use xlink:href="#DejaVuSans-69" x="580.419922"/>
      <use xlink:href="#DejaVuSans-6d" x="608.203125"/>
      <use xlink:href="#DejaVuSans-65" x="705.615234"/>
      <use xlink:href="#DejaVuSans-20" x="767.138672"/>
      <use xlink:href="#DejaVuSans-28" x="798.925781"/>
      <use xlink:href="#DejaVuSans-6d" x="837.939453"/>
      <use xlink:href="#DejaVuSans-73" x="935.351562"/>
      <use xlink:href="#DejaVuSans-29" x="987.451172"/>
      <use xlink:href="#DejaVuSans-20" x="1026.464844"/>
      <use xlink:href="#DejaVuSans-20" x="1058.251953"/>
      <use xlink:href="#DejaVuSans-20" x="1090.039062"/>
     </g>
    </g>
   </g>
   <g id="line2d_22">
    <path d="M 66.183896 113.263626 
L 68.755844 328.895868 
L 71.327792 313.979951 
L 73.89974 52.41188 
L 76.471688 358.022267 
L 79.043636 297.568541 
L 81.615584 51.7054 
L 84.187532 357.195872 
L 86.759481 280.662072 
L 89.331429 51.81141 
L 91.903377 356.396391 
L 94.475325 263.7411 
L 97.047273 51.667273 
L 99.619221 355.599004 
L 102.191169 245.77678 
L 104.763117 51.778515 
L 107.335065 354.798028 
L 109.907013 228.941781 
L 112.478961 52.27492 
L 115.050909 353.988529 
L 117.622857 210.059412 
L 120.194805 344.507348 
L 122.766753 340.709852 
L 125.338701 287.748998 
L 127.910649 359.224403 
L 130.482597 336.818009 
L 133.054545 289.415093 
L 135.626494 359.050811 
L 138.198442 332.546087 
L 140.77039 289.414047 
L 143.342338 358.813075 
L 145.914286 328.348327 
L 148.486234 289.22326 
L 151.058182 358.582965 
L 156.202078 289.133847 
L 158.774026 358.318016 
L 161.345974 319.577513 
L 163.917922 289.012886 
L 166.48987 358.078336 
L 169.061818 315.114057 
L 171.633766 288.991505 
L 174.205714 357.866766 
L 176.777662 310.764385 
L 179.34961 288.70368 
L 181.921558 357.565634 
L 184.493506 306.48095 
L 187.065455 288.669739 
L 189.637403 357.356755 
L 192.209351 302.143689 
L 194.781299 288.459664 
L 197.353247 357.223085 
L 199.925195 297.93307 
L 202.497143 288.447553 
L 205.069091 356.970397 
L 207.641039 293.706004 
L 210.212987 288.384306 
L 212.784935 356.687955 
L 215.356883 224.777962 
L 217.928831 352.066606 
L 220.500779 350.852657 
L 223.072727 342.843944 
L 225.644675 359.874963 
L 228.216623 349.928028 
L 230.788571 343.180662 
L 233.360519 359.85418 
L 235.932468 348.846554 
L 238.504416 343.249441 
L 241.076364 359.819641 
L 243.648312 347.813972 
L 246.22026 343.272915 
L 248.792208 359.758487 
L 251.364156 346.838058 
L 253.936104 343.267981 
L 256.508052 359.731873 
L 259.08 345.681226 
L 261.651948 343.254375 
L 264.223896 359.703613 
L 266.795844 344.639524 
L 269.367792 343.254076 
L 271.93974 359.652328 
L 274.511688 343.594831 
L 277.083636 343.248095 
L 279.655584 359.612855 
L 282.227532 342.437101 
L 284.799481 343.206529 
L 287.371429 359.559327 
L 289.943377 341.420817 
L 292.515325 343.207276 
L 295.087273 359.503706 
L 297.659221 340.426961 
L 300.231169 343.216397 
L 302.803117 359.465429 
L 305.375065 339.357448 
L 307.947013 343.221182 
L 310.518961 359.412947 
L 313.090909 338.329501 
L 315.662857 343.19053 
L 318.234805 359.378857 
L 320.806753 336.854791 
L 323.378701 343.16242 
L 325.950649 359.34372 
L 328.522597 335.799033 
L 331.094545 343.184848 
L 333.666494 359.299911 
L 336.238442 334.668068 
L 338.81039 343.168999 
L 341.382338 359.258494 
L 343.954286 333.546971 
L 346.526234 343.182306 
L 349.098182 359.221712 
L 351.67013 332.469832 
L 354.242078 343.156739 
L 356.814026 359.173118 
L 359.385974 331.425289 
L 361.957922 343.175877 
L 364.52987 359.142168 
L 367.101818 330.316004 
L 369.673766 343.187988 
L 372.245714 359.090733 
L 374.817662 329.230193 
L 377.38961 343.170046 
L 379.961558 359.032869 
L 382.533506 328.029552 
L 385.105455 343.158832 
L 387.677403 358.976949 
L 390.249351 327.086383 
L 395.393247 358.96708 
L 397.965195 326.012234 
L 400.537143 343.133862 
L 403.109091 358.902787 
L 405.681039 324.863177 
L 408.252987 343.136853 
L 410.824935 358.855539 
L 413.396883 323.844202 
L 415.968831 343.139693 
L 418.540779 358.800964 
L 421.112727 322.62188 
L 423.684675 343.120555 
L 426.256623 358.733531 
L 428.828571 321.691719 
L 431.400519 343.114873 
L 433.972468 358.717682 
L 436.544416 320.529205 
L 439.116364 343.104855 
L 441.688312 358.65907 
L 444.26026 319.400332 
L 446.832208 343.105752 
L 449.404156 358.588048 
L 451.976104 318.356088 
L 454.548052 343.111135 
L 457.12 358.56876 
L 459.691948 317.272371 
L 462.263896 343.103958 
L 464.835844 358.510298 
L 467.407792 316.215866 
L 469.97974 343.084222 
L 472.551688 358.474414 
L 475.123636 314.766125 
L 477.695584 343.067924 
L 480.267532 358.429259 
L 482.839481 313.607648 
L 485.411429 343.066279 
L 487.983377 358.377226 
L 490.555325 312.458441 
L 493.127273 343.089006 
L 495.699221 358.330127 
L 498.271169 311.415692 
L 500.843117 343.083923 
L 503.415065 358.297831 
L 505.987013 310.129376 
L 508.558961 343.091997 
L 511.130909 358.256414 
L 513.702857 309.213868 
L 516.274805 343.114425 
L 518.846753 358.207372 
L 521.418701 308.091126 
L 523.990649 343.068971 
L 526.562597 358.157432 
L 529.134545 306.987522 
L 531.706494 343.07839 
L 534.278442 358.108838 
L 536.85039 305.851922 
L 539.422338 343.070017 
L 541.994286 358.061889 
L 544.566234 304.842217 
L 547.138182 343.048486 
L 549.71013 357.997895 
L 552.282078 303.709905 
L 554.854026 343.051178 
L 557.425974 357.961562 
L 559.997922 302.628879 
L 562.56987 343.038917 
L 565.141818 357.902501 
L 567.713766 301.590167 
L 570.285714 343.051776 
L 572.857662 357.829835 
L 575.42961 300.520206 
L 578.001558 343.026358 
L 580.573506 357.800679 
L 583.145455 299.291006 
L 585.717403 342.982847 
L 588.289351 357.749543 
L 590.861299 133.878926 
L 593.433247 356.096306 
L 596.005195 354.996889 
L 598.577143 355.612311 
L 601.149091 360.064553 
L 603.721039 354.966088 
L 606.292987 355.659111 
L 608.864935 360.066348 
L 611.436883 354.689626 
L 614.008831 355.67182 
L 616.580779 360.055134 
L 619.152727 354.39283 
L 621.724675 355.67167 
L 624.296623 360.050499 
L 626.868571 354.163617 
L 629.440519 355.671521 
L 632.012468 360.03764 
L 634.584416 353.725375 
L 637.156364 355.648644 
L 639.728312 360.034351 
L 642.30026 353.406899 
L 644.872208 355.668531 
L 647.444156 360.01895 
L 650.016104 353.083338 
L 652.588052 355.689015 
L 655.16 360.01282 
L 657.731948 352.802391 
L 660.303896 355.692454 
L 662.875844 360.003849 
L 665.447792 352.54776 
L 668.01974 355.689912 
L 670.591688 359.99727 
L 673.163636 352.259187 
L 675.735584 355.70292 
L 678.307532 359.992485 
L 680.879481 351.968521 
L 683.451429 355.705163 
L 686.023377 359.982019 
L 688.595325 351.705068 
L 691.167273 355.713237 
L 693.739221 359.971552 
L 696.311169 351.396011 
L 701.455065 359.968113 
L 704.027013 351.117905 
L 706.598961 355.714433 
L 709.170909 359.95346 
L 711.742857 350.82993 
L 714.314805 355.710994 
L 716.886753 359.949722 
L 719.458701 350.511154 
L 722.030649 355.714134 
L 724.602597 359.938209 
L 727.174545 350.25114 
L 729.746494 355.70292 
L 732.318442 359.930135 
L 734.89039 349.997256 
L 737.462338 355.69679 
L 740.034286 359.928491 
L 742.606234 349.68775 
L 745.178182 355.704116 
L 747.75013 359.917725 
L 750.322078 349.366882 
L 752.894026 355.704415 
L 755.465974 359.909352 
L 758.037922 349.111203 
L 760.60987 355.70905 
L 763.181818 359.899932 
L 765.753766 348.840872 
L 768.325714 355.705611 
L 770.897662 359.893055 
L 773.46961 348.570242 
L 776.041558 355.692753 
L 778.613506 359.887522 
L 781.185455 348.274642 
L 783.757403 355.689762 
L 786.329351 359.874365 
L 788.901299 347.862566 
L 791.473247 355.692454 
L 794.045195 359.859712 
L 796.617143 347.501476 
L 799.189091 355.679146 
L 801.761039 359.855077 
L 804.332987 347.194662 
L 806.904935 355.670474 
L 809.476883 359.846853 
L 812.048831 346.898913 
L 814.620779 355.705013 
L 817.192727 359.842517 
L 819.764675 346.608247 
L 822.336623 355.707854 
L 824.908571 359.835938 
L 827.480519 346.305171 
L 830.052468 355.701724 
L 832.624416 359.826369 
L 835.196364 345.987292 
L 837.768312 355.694397 
L 840.34026 359.811566 
L 842.912208 254.880125 
L 845.484156 359.460644 
L 848.056104 360.090869 
L 850.628052 360.212727 
L 850.628052 360.212727 
" clip-path="url(#p15476949a0)" style="fill: none; stroke: #6495ed; stroke-width: 3; stroke-linecap: square"/>
   </g>
   <g id="line2d_23">
    <path d="M 66.183896 342.87531 
L 68.755844 358.308314 
L 71.327792 355.596711 
L 73.89974 349.198622 
L 76.471688 358.935831 
L 79.043636 355.413317 
L 81.615584 349.563666 
L 84.187532 358.711269 
L 86.759481 354.948146 
L 89.331429 349.546106 
L 91.903377 358.473915 
L 94.475325 354.567286 
L 97.047273 349.608439 
L 99.619221 358.233072 
L 102.191169 352.997331 
L 104.763117 349.591809 
L 107.335065 357.986648 
L 109.907013 352.548092 
L 112.478961 349.534476 
L 115.050909 357.738479 
L 117.622857 352.900343 
L 120.194805 359.013514 
L 122.766753 357.670215 
L 125.338701 356.686958 
L 127.910649 359.388792 
L 130.482597 357.614278 
L 133.054545 356.694052 
L 135.626494 359.329948 
L 138.198442 357.505544 
L 140.77039 356.733707 
L 143.342338 359.27843 
L 145.914286 357.184575 
L 148.486234 356.705332 
L 151.058182 359.212957 
L 153.63013 357.079912 
L 156.202078 356.701611 
L 158.774026 359.156555 
L 161.345974 357.018742 
L 163.917922 356.511704 
L 166.48987 358.809769 
L 169.061818 356.730102 
L 171.633766 356.709635 
L 174.205714 359.041657 
L 176.777662 356.720683 
L 179.34961 356.500191 
L 181.921558 358.877452 
L 184.493506 356.647534 
L 187.065455 356.719869 
L 189.637403 358.764764 
L 192.209351 356.786737 
L 194.781299 356.711961 
L 197.353247 358.862682 
L 199.925195 356.695447 
L 202.497143 356.672654 
L 205.069091 358.777556 
L 207.641039 356.503215 
L 210.212987 356.71731 
L 212.784935 358.735691 
L 215.356883 353.869063 
L 217.928831 359.426587 
L 220.500779 358.517176 
L 223.072727 358.484498 
L 225.644675 359.541717 
L 228.216623 358.475543 
L 230.788571 358.492871 
L 233.360519 359.547532 
L 235.932468 358.445889 
L 238.504416 358.519735 
L 241.076364 359.461591 
L 243.648312 358.409256 
L 246.22026 358.514269 
L 248.792208 359.521831 
L 251.364156 358.376578 
L 253.936104 358.497871 
L 256.508052 359.398909 
L 259.08 358.166088 
L 261.651948 358.490545 
L 264.223896 359.487757 
L 266.795844 358.173065 
L 269.367792 358.502058 
L 271.93974 359.477174 
L 274.511688 358.109104 
L 277.083636 358.500197 
L 279.655584 359.471243 
L 282.227532 358.165623 
L 284.799481 358.501593 
L 287.371429 359.446938 
L 289.943377 358.152133 
L 292.515325 358.515315 
L 295.087273 359.415074 
L 297.659221 358.141201 
L 300.231169 358.505896 
L 302.803117 359.419493 
L 305.375065 358.121199 
L 307.947013 358.505896 
L 310.518961 359.400654 
L 313.090909 358.08038 
L 315.662857 358.523921 
L 318.234805 359.397281 
L 320.806753 357.984438 
L 323.378701 358.520549 
L 325.950649 359.383326 
L 328.522597 358.001417 
L 331.094545 358.514501 
L 333.666494 359.358556 
L 336.238442 357.964436 
L 338.81039 358.521828 
L 341.382338 359.346461 
L 343.954286 357.934316 
L 346.526234 358.431701 
L 349.098182 359.328901 
L 351.67013 357.914895 
L 354.242078 358.514153 
L 356.814026 359.324598 
L 359.385974 357.883961 
L 361.957922 358.521944 
L 364.52987 359.296455 
L 367.101818 357.849189 
L 369.673766 358.496941 
L 372.245714 359.27308 
L 374.817662 357.796044 
L 377.38961 358.438911 
L 379.961558 359.268429 
L 382.533506 357.764063 
L 387.677403 359.25145 
L 390.249351 357.733013 
L 395.393247 359.236913 
L 397.965195 357.695334 
L 400.537143 358.519967 
L 403.109091 359.226796 
L 405.681039 357.655911 
L 408.252987 358.51392 
L 410.824935 359.188303 
L 413.396883 357.380064 
L 415.968831 358.517409 
L 418.540779 359.197955 
L 421.112727 357.421231 
L 423.684675 358.515664 
L 426.256623 359.169812 
L 428.828571 357.33029 
L 431.400519 358.505082 
L 433.972468 359.164928 
L 436.544416 357.360294 
L 439.116364 358.516246 
L 441.688312 359.155392 
L 444.26026 357.245513 
L 446.832208 358.510431 
L 449.404156 358.938505 
L 451.976104 357.063165 
L 454.548052 358.325409 
L 457.12 359.10713 
L 459.691948 356.954083 
L 462.263896 358.409605 
L 464.835844 359.100036 
L 467.407792 357.006763 
L 469.97974 358.505198 
L 472.551688 358.91106 
L 475.123636 356.929196 
L 477.695584 358.509268 
L 480.267532 359.075382 
L 482.839481 357.113637 
L 485.411429 358.507175 
L 487.983377 359.037587 
L 490.555325 356.99525 
L 493.127273 358.360995 
L 495.699221 359.056427 
L 498.271169 357.045256 
L 500.843117 358.528457 
L 503.415065 359.030261 
L 505.987013 356.944663 
L 508.558961 358.5202 
L 511.130909 359.029795 
L 513.702857 356.952222 
L 516.274805 358.517409 
L 518.846753 359.012119 
L 521.418701 356.840232 
L 523.990649 358.511827 
L 526.562597 358.963276 
L 529.134545 356.890587 
L 531.706494 358.526363 
L 534.278442 358.975487 
L 536.85039 356.777317 
L 539.422338 358.517292 
L 541.994286 358.944553 
L 544.566234 356.819183 
L 547.138182 358.504849 
L 549.71013 358.922341 
L 552.282078 356.667421 
L 554.854026 358.484498 
L 557.425974 358.849541 
L 559.997922 356.74964 
L 562.56987 358.42984 
L 565.141818 358.907223 
L 567.713766 356.607413 
L 570.285714 358.50985 
L 572.857662 358.873963 
L 575.42961 356.631835 
L 578.001558 358.50357 
L 580.573506 358.885592 
L 583.145455 356.502285 
L 585.717403 358.50985 
L 588.289351 358.837563 
L 590.861299 351.726366 
L 593.433247 359.579163 
L 596.005195 358.61463 
L 598.577143 358.564158 
L 601.149091 359.576489 
L 603.721039 358.634167 
L 606.292987 358.596255 
L 608.864935 359.650567 
L 611.436883 358.614746 
L 614.008831 358.606954 
L 616.580779 359.640333 
L 619.152727 358.553576 
L 621.724675 358.61149 
L 624.296623 359.631611 
L 626.868571 358.639981 
L 629.440519 358.617421 
L 632.012468 359.627309 
L 634.584416 358.577765 
L 637.156364 358.612769 
L 639.728312 359.624634 
L 642.30026 358.554157 
L 644.872208 358.594278 
L 647.444156 359.619982 
L 650.016104 358.579044 
L 652.588052 358.610327 
L 655.16 359.630448 
L 657.731948 358.575323 
L 660.303896 358.611839 
L 662.875844 359.626378 
L 665.447792 358.559623 
L 668.01974 358.611141 
L 670.591688 359.599863 
L 673.163636 358.517409 
L 675.735584 358.611955 
L 678.307532 359.59684 
L 680.879481 358.525898 
L 683.451429 358.584626 
L 686.023377 359.545089 
L 688.595325 358.517525 
L 691.167273 358.615327 
L 693.739221 359.610795 
L 696.311169 358.507524 
L 698.883117 358.623235 
L 701.455065 359.61033 
L 704.027013 358.511245 
L 706.598961 358.613932 
L 709.170909 359.593351 
L 711.742857 358.450773 
L 714.314805 358.429724 
L 716.886753 359.486827 
L 719.458701 358.450308 
L 722.030649 358.413559 
L 724.602597 359.571721 
L 727.174545 358.457285 
L 729.746494 358.609513 
L 732.318442 359.573 
L 734.89039 358.372857 
L 737.462338 358.596139 
L 740.034286 359.569278 
L 742.606234 358.47252 
L 745.178182 358.617886 
L 747.75013 359.57614 
L 750.322078 358.473101 
L 752.894026 358.620328 
L 755.465974 359.567418 
L 758.037922 358.47031 
L 760.60987 358.413675 
L 763.181818 359.444147 
L 765.753766 358.482172 
L 768.325714 358.609513 
L 770.897662 359.548462 
L 773.46961 358.441004 
L 776.041558 358.599279 
L 778.613506 359.545787 
L 781.185455 358.289823 
L 783.757403 358.625445 
L 786.329351 359.547648 
L 788.901299 358.445307 
L 791.473247 358.461588 
L 794.045195 359.395537 
L 796.617143 358.459727 
L 799.189091 358.623468 
L 801.761039 359.543927 
L 804.332987 358.379485 
L 806.904935 358.619165 
L 809.476883 359.54067 
L 812.048831 358.376462 
L 814.620779 358.620328 
L 817.192727 359.534623 
L 819.764675 358.374485 
L 822.336623 358.608931 
L 824.908571 359.531599 
L 827.480519 358.37995 
L 830.052468 358.62591 
L 832.624416 359.533111 
L 835.196364 358.355064 
L 837.768312 358.621491 
L 840.34026 359.533693 
L 842.912208 354.917909 
L 845.484156 359.111549 
L 848.056104 353.372027 
L 850.628052 360.191097 
L 850.628052 360.191097 
" clip-path="url(#p15476949a0)" style="fill: none; stroke: #00ff00; stroke-width: 3; stroke-linecap: square"/>
   </g>
   <g id="patch_3">
    <path d="M 61.04 375.64 
L 61.04 36.24 
" style="fill: none; stroke: #000000; stroke-width: 0.8; stroke-linejoin: miter; stroke-linecap: square"/>
   </g>
   <g id="patch_4">
    <path d="M 853.2 375.64 
L 853.2 36.24 
" style="fill: none; stroke: #000000; stroke-width: 0.8; stroke-linejoin: miter; stroke-linecap: square"/>
   </g>
   <g id="patch_5">
    <path d="M 61.04 375.64 
L 853.2 375.64 
" style="fill: none; stroke: #000000; stroke-width: 0.8; stroke-linejoin: miter; stroke-linecap: square"/>
   </g>
   <g id="patch_6">
    <path d="M 61.04 36.24 
L 853.2 36.24 
" style="fill: none; stroke: #000000; stroke-width: 0.8; stroke-linejoin: miter; stroke-linecap: square"/>
   </g>
   <g id="text_17">
    <!-- CPU vs GPU Inference Times with densenet201 -->
    <g transform="translate(163.114141 30.24) scale(0.25 -0.25)">
     <defs>
      <path id="DejaVuSans-43" d="M 4122 4306 
L 4122 3641 
Q 3803 3938 3442 4084 
Q 3081 4231 2675 4231 
Q 1875 4231 1450 3742 
Q 1025 3253 1025 2328 
Q 1025 1406 1450 917 
Q 1875 428 2675 428 
Q 3081 428 3442 575 
Q 3803 722 4122 1019 
L 4122 359 
Q 3791 134 3420 21 
Q 3050 -91 2638 -91 
Q 1578 -91 968 557 
Q 359 1206 359 2328 
Q 359 3453 968 4101 
Q 1578 4750 2638 4750 
Q 3056 4750 3426 4639 
Q 3797 4528 4122 4306 
z
" transform="scale(0.015625)"/>
      <path id="DejaVuSans-50" d="M 1259 4147 
L 1259 2394 
L 2053 2394 
Q 2494 2394 2734 2622 
Q 2975 2850 2975 3272 
Q 2975 3691 2734 3919 
Q 2494 4147 2053 4147 
L 1259 4147 
z
M 628 4666 
L 2053 4666 
Q 2838 4666 3239 4311 
Q 3641 3956 3641 3272 
Q 3641 2581 3239 2228 
Q 2838 1875 2053 1875 
L 1259 1875 
L 1259 0 
L 628 0 
L 628 4666 
z
" transform="scale(0.015625)"/>
      <path id="DejaVuSans-55" d="M 556 4666 
L 1191 4666 
L 1191 1831 
Q 1191 1081 1462 751 
Q 1734 422 2344 422 
Q 2950 422 3222 751 
Q 3494 1081 3494 1831 
L 3494 4666 
L 4128 4666 
L 4128 1753 
Q 4128 841 3676 375 
Q 3225 -91 2344 -91 
Q 1459 -91 1007 375 
Q 556 841 556 1753 
L 556 4666 
z
" transform="scale(0.015625)"/>
      <path id="DejaVuSans-76" d="M 191 3500 
L 800 3500 
L 1894 563 
L 2988 3500 
L 3597 3500 
L 2284 0 
L 1503 0 
L 191 3500 
z
" transform="scale(0.015625)"/>
      <path id="DejaVuSans-47" d="M 3809 666 
L 3809 1919 
L 2778 1919 
L 2778 2438 
L 4434 2438 
L 4434 434 
Q 4069 175 3628 42 
Q 3188 -91 2688 -91 
Q 1594 -91 976 548 
Q 359 1188 359 2328 
Q 359 3472 976 4111 
Q 1594 4750 2688 4750 
Q 3144 4750 3555 4637 
Q 3966 4525 4313 4306 
L 4313 3634 
Q 3963 3931 3569 4081 
Q 3175 4231 2741 4231 
Q 1884 4231 1454 3753 
Q 1025 3275 1025 2328 
Q 1025 1384 1454 906 
Q 1884 428 2741 428 
Q 3075 428 3337 486 
Q 3600 544 3809 666 
z
" transform="scale(0.015625)"/>
      <path id="DejaVuSans-66" d="M 2375 4863 
L 2375 4384 
L 1825 4384 
Q 1516 4384 1395 4259 
Q 1275 4134 1275 3809 
L 1275 3500 
L 2222 3500 
L 2222 3053 
L 1275 3053 
L 1275 0 
L 697 0 
L 697 3053 
L 147 3053 
L 147 3500 
L 697 3500 
L 697 3744 
Q 697 4328 969 4595 
Q 1241 4863 1831 4863 
L 2375 4863 
z
" transform="scale(0.015625)"/>
      <path id="DejaVuSans-77" d="M 269 3500 
L 844 3500 
L 1563 769 
L 2278 3500 
L 2956 3500 
L 3675 769 
L 4391 3500 
L 4966 3500 
L 4050 0 
L 3372 0 
L 2619 2869 
L 1863 0 
L 1184 0 
L 269 3500 
z
" transform="scale(0.015625)"/>
      <path id="DejaVuSans-68" d="M 3513 2113 
L 3513 0 
L 2938 0 
L 2938 2094 
Q 2938 2591 2744 2837 
Q 2550 3084 2163 3084 
Q 1697 3084 1428 2787 
Q 1159 2491 1159 1978 
L 1159 0 
L 581 0 
L 581 4863 
L 1159 4863 
L 1159 2956 
Q 1366 3272 1645 3428 
Q 1925 3584 2291 3584 
Q 2894 3584 3203 3211 
Q 3513 2838 3513 2113 
z
" transform="scale(0.015625)"/>
     </defs>
     <use xlink:href="#DejaVuSans-43"/>
     <use xlink:href="#DejaVuSans-50" x="69.824219"/>
     <use xlink:href="#DejaVuSans-55" x="130.126953"/>
     <use xlink:href="#DejaVuSans-20" x="203.320312"/>
     <use xlink:href="#DejaVuSans-76" x="235.107422"/>
     <use xlink:href="#DejaVuSans-73" x="294.287109"/>
     <use xlink:href="#DejaVuSans-20" x="346.386719"/>
     <use xlink:href="#DejaVuSans-47" x="378.173828"/>
     <use xlink:href="#DejaVuSans-50" x="455.664062"/>
     <use xlink:href="#DejaVuSans-55" x="515.966797"/>
     <use xlink:href="#DejaVuSans-20" x="589.160156"/>
     <use xlink:href="#DejaVuSans-49" x="620.947266"/>
     <use xlink:href="#DejaVuSans-6e" x="650.439453"/>
     <use xlink:href="#DejaVuSans-66" x="713.818359"/>
     <use xlink:href="#DejaVuSans-65" x="749.023438"/>
     <use xlink:href="#DejaVuSans-72" x="810.546875"/>
     <use xlink:href="#DejaVuSans-65" x="849.410156"/>
     <use xlink:href="#DejaVuSans-6e" x="910.933594"/>
     <use xlink:href="#DejaVuSans-63" x="974.3125"/>
     <use xlink:href="#DejaVuSans-65" x="1029.292969"/>
     <use xlink:href="#DejaVuSans-20" x="1090.816406"/>
     <use xlink:href="#DejaVuSans-54" x="1122.603516"/>
     <use xlink:href="#DejaVuSans-69" x="1180.5625"/>
     <use xlink:href="#DejaVuSans-6d" x="1208.345703"/>
     <use xlink:href="#DejaVuSans-65" x="1305.757812"/>
     <use xlink:href="#DejaVuSans-73" x="1367.28125"/>
     <use xlink:href="#DejaVuSans-20" x="1419.380859"/>
     <use xlink:href="#DejaVuSans-77" x="1451.167969"/>
     <use xlink:href="#DejaVuSans-69" x="1532.955078"/>
     <use xlink:href="#DejaVuSans-74" x="1560.738281"/>
     <use xlink:href="#DejaVuSans-68" x="1599.947266"/>
     <use xlink:href="#DejaVuSans-20" x="1663.326172"/>
     <use xlink:href="#DejaVuSans-64" x="1695.113281"/>
     <use xlink:href="#DejaVuSans-65" x="1758.589844"/>
     <use xlink:href="#DejaVuSans-6e" x="1820.113281"/>
     <use xlink:href="#DejaVuSans-73" x="1883.492188"/>
     <use xlink:href="#DejaVuSans-65" x="1935.591797"/>
     <use xlink:href="#DejaVuSans-6e" x="1997.115234"/>
     <use xlink:href="#DejaVuSans-65" x="2060.494141"/>
     <use xlink:href="#DejaVuSans-74" x="2122.017578"/>
     <use xlink:href="#DejaVuSans-32" x="2161.226562"/>
     <use xlink:href="#DejaVuSans-30" x="2224.849609"/>
     <use xlink:href="#DejaVuSans-31" x="2288.472656"/>
    </g>
   </g>
   <g id="legend_1">
    <g id="patch_7">
     <path d="M 632.671875 110.9525 
L 839.2 110.9525 
Q 843.2 110.9525 843.2 106.9525 
L 843.2 50.24 
Q 843.2 46.24 839.2 46.24 
L 632.671875 46.24 
Q 628.671875 46.24 628.671875 50.24 
L 628.671875 106.9525 
Q 628.671875 110.9525 632.671875 110.9525 
z
" style="fill: #ffffff; opacity: 0.8; stroke: #cccccc; stroke-linejoin: miter"/>
    </g>
    <g id="line2d_24">
     <path d="M 636.671875 62.436875 
L 656.671875 62.436875 
L 676.671875 62.436875 
" style="fill: none; stroke: #6495ed; stroke-width: 3; stroke-linecap: square"/>
    </g>
    <g id="text_18">
     <!-- CPU Inference -->
     <g transform="translate(692.671875 69.436875) scale(0.2 -0.2)">
      <use xlink:href="#DejaVuSans-43"/>
      <use xlink:href="#DejaVuSans-50" x="69.824219"/>
      <use xlink:href="#DejaVuSans-55" x="130.126953"/>
      <use xlink:href="#DejaVuSans-20" x="203.320312"/>
      <use xlink:href="#DejaVuSans-49" x="235.107422"/>
      <use xlink:href="#DejaVuSans-6e" x="264.599609"/>
      <use xlink:href="#DejaVuSans-66" x="327.978516"/>
      <use xlink:href="#DejaVuSans-65" x="363.183594"/>
      <use xlink:href="#DejaVuSans-72" x="424.707031"/>
      <use xlink:href="#DejaVuSans-65" x="463.570312"/>
      <use xlink:href="#DejaVuSans-6e" x="525.09375"/>
      <use xlink:href="#DejaVuSans-63" x="588.472656"/>
      <use xlink:href="#DejaVuSans-65" x="643.453125"/>
     </g>
    </g>
    <g id="line2d_25">
     <path d="M 636.671875 91.793125 
L 656.671875 91.793125 
L 676.671875 91.793125 
" style="fill: none; stroke: #00ff00; stroke-width: 3; stroke-linecap: square"/>
    </g>
    <g id="text_19">
     <!-- GPU Inference -->
     <g transform="translate(692.671875 98.793125) scale(0.2 -0.2)">
      <use xlink:href="#DejaVuSans-47"/>
      <use xlink:href="#DejaVuSans-50" x="77.490234"/>
      <use xlink:href="#DejaVuSans-55" x="137.792969"/>
      <use xlink:href="#DejaVuSans-20" x="210.986328"/>
      <use xlink:href="#DejaVuSans-49" x="242.773438"/>
      <use xlink:href="#DejaVuSans-6e" x="272.265625"/>
      <use xlink:href="#DejaVuSans-66" x="335.644531"/>
      <use xlink:href="#DejaVuSans-65" x="370.849609"/>
      <use xlink:href="#DejaVuSans-72" x="432.373047"/>
      <use xlink:href="#DejaVuSans-65" x="471.236328"/>
      <use xlink:href="#DejaVuSans-6e" x="532.759766"/>
      <use xlink:href="#DejaVuSans-63" x="596.138672"/>
      <use xlink:href="#DejaVuSans-65" x="651.119141"/>
     </g>
    </g>
   </g>
  </g>
 </g>
 <defs>
  <clipPath id="p15476949a0">
   <rect x="61.04" y="36.24" width="792.16" height="339.4"/>
  </clipPath>
 </defs>
</svg>
