<?xml version="1.0" encoding="utf-8" standalone="no"?>
<!DOCTYPE svg PUBLIC "-//W3C//DTD SVG 1.1//EN"
  "http://www.w3.org/Graphics/SVG/1.1/DTD/svg11.dtd">
<svg xmlns:xlink="http://www.w3.org/1999/xlink" width="576pt" height="432pt" viewBox="0 0 576 432" xmlns="http://www.w3.org/2000/svg" version="1.1">
 <metadata>
  <rdf:RDF xmlns:dc="http://purl.org/dc/elements/1.1/" xmlns:cc="http://creativecommons.org/ns#" xmlns:rdf="http://www.w3.org/1999/02/22-rdf-syntax-ns#">
   <cc:Work>
    <dc:type rdf:resource="http://purl.org/dc/dcmitype/StillImage"/>
    <dc:date>2025-01-16T17:24:53.092452</dc:date>
    <dc:format>image/svg+xml</dc:format>
    <dc:creator>
     <cc:Agent>
      <dc:title>Matplotlib v3.7.5, https://matplotlib.org/</dc:title>
     </cc:Agent>
    </dc:creator>
   </cc:Work>
  </rdf:RDF>
 </metadata>
 <defs>
  <style type="text/css">*{stroke-linejoin: round; stroke-linecap: butt}</style>
 </defs>
 <g id="figure_1">
  <g id="patch_1">
   <path d="M 0 432 
L 576 432 
L 576 0 
L 0 0 
z
" style="fill: #ffffff"/>
  </g>
  <g id="axes_1">
   <g id="patch_2">
    <path d="M 64.73 379.96 
L 518.83 379.96 
L 518.83 55.968 
L 64.73 55.968 
z
" style="fill: #ffffff"/>
   </g>
   <g id="matplotlib.axis_1">
    <g id="xtick_1">
     <g id="line2d_1">
      <path d="M 85.370909 379.96 
L 85.370909 55.968 
" clip-path="url(#p03a0440eef)" style="fill: none; stroke-dasharray: 1.85,0.8; stroke-dashoffset: 0; stroke: #b0b0b0; stroke-opacity: 0.7; stroke-width: 0.5"/>
     </g>
     <g id="line2d_2">
      <defs>
       <path id="ma7f0d8c83a" d="M 0 0 
L 0 3.5 
" style="stroke: #000000; stroke-width: 0.8"/>
      </defs>
      <g>
       <use xlink:href="#ma7f0d8c83a" x="85.370909" y="379.96" style="stroke: #000000; stroke-width: 0.8"/>
      </g>
     </g>
     <g id="text_1">
      <!-- 0 -->
      <g transform="translate(82.189659 394.558437) scale(0.1 -0.1)">
       <defs>
        <path id="DejaVuSans-30" d="M 2034 4250 
Q 1547 4250 1301 3770 
Q 1056 3291 1056 2328 
Q 1056 1369 1301 889 
Q 1547 409 2034 409 
Q 2525 409 2770 889 
Q 3016 1369 3016 2328 
Q 3016 3291 2770 3770 
Q 2525 4250 2034 4250 
z
M 2034 4750 
Q 2819 4750 3233 4129 
Q 3647 3509 3647 2328 
Q 3647 1150 3233 529 
Q 2819 -91 2034 -91 
Q 1250 -91 836 529 
Q 422 1150 422 2328 
Q 422 3509 836 4129 
Q 1250 4750 2034 4750 
z
" transform="scale(0.015625)"/>
       </defs>
       <use xlink:href="#DejaVuSans-30"/>
      </g>
     </g>
    </g>
    <g id="xtick_2">
     <g id="line2d_3">
      <path d="M 152.82486 379.96 
L 152.82486 55.968 
" clip-path="url(#p03a0440eef)" style="fill: none; stroke-dasharray: 1.85,0.8; stroke-dashoffset: 0; stroke: #b0b0b0; stroke-opacity: 0.7; stroke-width: 0.5"/>
     </g>
     <g id="line2d_4">
      <g>
       <use xlink:href="#ma7f0d8c83a" x="152.82486" y="379.96" style="stroke: #000000; stroke-width: 0.8"/>
      </g>
     </g>
     <g id="text_2">
      <!-- 50 -->
      <g transform="translate(146.46236 394.558437) scale(0.1 -0.1)">
       <defs>
        <path id="DejaVuSans-35" d="M 691 4666 
L 3169 4666 
L 3169 4134 
L 1269 4134 
L 1269 2991 
Q 1406 3038 1543 3061 
Q 1681 3084 1819 3084 
Q 2600 3084 3056 2656 
Q 3513 2228 3513 1497 
Q 3513 744 3044 326 
Q 2575 -91 1722 -91 
Q 1428 -91 1123 -41 
Q 819 9 494 109 
L 494 744 
Q 775 591 1075 516 
Q 1375 441 1709 441 
Q 2250 441 2565 725 
Q 2881 1009 2881 1497 
Q 2881 1984 2565 2268 
Q 2250 2553 1709 2553 
Q 1456 2553 1204 2497 
Q 953 2441 691 2322 
L 691 4666 
z
" transform="scale(0.015625)"/>
       </defs>
       <use xlink:href="#DejaVuSans-35"/>
       <use xlink:href="#DejaVuSans-30" x="63.623047"/>
      </g>
     </g>
    </g>
    <g id="xtick_3">
     <g id="line2d_5">
      <path d="M 220.278812 379.96 
L 220.278812 55.968 
" clip-path="url(#p03a0440eef)" style="fill: none; stroke-dasharray: 1.85,0.8; stroke-dashoffset: 0; stroke: #b0b0b0; stroke-opacity: 0.7; stroke-width: 0.5"/>
     </g>
     <g id="line2d_6">
      <g>
       <use xlink:href="#ma7f0d8c83a" x="220.278812" y="379.96" style="stroke: #000000; stroke-width: 0.8"/>
      </g>
     </g>
     <g id="text_3">
      <!-- 100 -->
      <g transform="translate(210.735062 394.558437) scale(0.1 -0.1)">
       <defs>
        <path id="DejaVuSans-31" d="M 794 531 
L 1825 531 
L 1825 4091 
L 703 3866 
L 703 4441 
L 1819 4666 
L 2450 4666 
L 2450 531 
L 3481 531 
L 3481 0 
L 794 0 
L 794 531 
z
" transform="scale(0.015625)"/>
       </defs>
       <use xlink:href="#DejaVuSans-31"/>
       <use xlink:href="#DejaVuSans-30" x="63.623047"/>
       <use xlink:href="#DejaVuSans-30" x="127.246094"/>
      </g>
     </g>
    </g>
    <g id="xtick_4">
     <g id="line2d_7">
      <path d="M 287.732763 379.96 
L 287.732763 55.968 
" clip-path="url(#p03a0440eef)" style="fill: none; stroke-dasharray: 1.85,0.8; stroke-dashoffset: 0; stroke: #b0b0b0; stroke-opacity: 0.7; stroke-width: 0.5"/>
     </g>
     <g id="line2d_8">
      <g>
       <use xlink:href="#ma7f0d8c83a" x="287.732763" y="379.96" style="stroke: #000000; stroke-width: 0.8"/>
      </g>
     </g>
     <g id="text_4">
      <!-- 150 -->
      <g transform="translate(278.189013 394.558437) scale(0.1 -0.1)">
       <use xlink:href="#DejaVuSans-31"/>
       <use xlink:href="#DejaVuSans-35" x="63.623047"/>
       <use xlink:href="#DejaVuSans-30" x="127.246094"/>
      </g>
     </g>
    </g>
    <g id="xtick_5">
     <g id="line2d_9">
      <path d="M 355.186714 379.96 
L 355.186714 55.968 
" clip-path="url(#p03a0440eef)" style="fill: none; stroke-dasharray: 1.85,0.8; stroke-dashoffset: 0; stroke: #b0b0b0; stroke-opacity: 0.7; stroke-width: 0.5"/>
     </g>
     <g id="line2d_10">
      <g>
       <use xlink:href="#ma7f0d8c83a" x="355.186714" y="379.96" style="stroke: #000000; stroke-width: 0.8"/>
      </g>
     </g>
     <g id="text_5">
      <!-- 200 -->
      <g transform="translate(345.642964 394.558437) scale(0.1 -0.1)">
       <defs>
        <path id="DejaVuSans-32" d="M 1228 531 
L 3431 531 
L 3431 0 
L 469 0 
L 469 531 
Q 828 903 1448 1529 
Q 2069 2156 2228 2338 
Q 2531 2678 2651 2914 
Q 2772 3150 2772 3378 
Q 2772 3750 2511 3984 
Q 2250 4219 1831 4219 
Q 1534 4219 1204 4116 
Q 875 4013 500 3803 
L 500 4441 
Q 881 4594 1212 4672 
Q 1544 4750 1819 4750 
Q 2544 4750 2975 4387 
Q 3406 4025 3406 3419 
Q 3406 3131 3298 2873 
Q 3191 2616 2906 2266 
Q 2828 2175 2409 1742 
Q 1991 1309 1228 531 
z
" transform="scale(0.015625)"/>
       </defs>
       <use xlink:href="#DejaVuSans-32"/>
       <use xlink:href="#DejaVuSans-30" x="63.623047"/>
       <use xlink:href="#DejaVuSans-30" x="127.246094"/>
      </g>
     </g>
    </g>
    <g id="xtick_6">
     <g id="line2d_11">
      <path d="M 422.640665 379.96 
L 422.640665 55.968 
" clip-path="url(#p03a0440eef)" style="fill: none; stroke-dasharray: 1.85,0.8; stroke-dashoffset: 0; stroke: #b0b0b0; stroke-opacity: 0.7; stroke-width: 0.5"/>
     </g>
     <g id="line2d_12">
      <g>
       <use xlink:href="#ma7f0d8c83a" x="422.640665" y="379.96" style="stroke: #000000; stroke-width: 0.8"/>
      </g>
     </g>
     <g id="text_6">
      <!-- 250 -->
      <g transform="translate(413.096915 394.558437) scale(0.1 -0.1)">
       <use xlink:href="#DejaVuSans-32"/>
       <use xlink:href="#DejaVuSans-35" x="63.623047"/>
       <use xlink:href="#DejaVuSans-30" x="127.246094"/>
      </g>
     </g>
    </g>
    <g id="xtick_7">
     <g id="line2d_13">
      <path d="M 490.094617 379.96 
L 490.094617 55.968 
" clip-path="url(#p03a0440eef)" style="fill: none; stroke-dasharray: 1.85,0.8; stroke-dashoffset: 0; stroke: #b0b0b0; stroke-opacity: 0.7; stroke-width: 0.5"/>
     </g>
     <g id="line2d_14">
      <g>
       <use xlink:href="#ma7f0d8c83a" x="490.094617" y="379.96" style="stroke: #000000; stroke-width: 0.8"/>
      </g>
     </g>
     <g id="text_7">
      <!-- 300 -->
      <g transform="translate(480.550867 394.558437) scale(0.1 -0.1)">
       <defs>
        <path id="DejaVuSans-33" d="M 2597 2516 
Q 3050 2419 3304 2112 
Q 3559 1806 3559 1356 
Q 3559 666 3084 287 
Q 2609 -91 1734 -91 
Q 1441 -91 1130 -33 
Q 819 25 488 141 
L 488 750 
Q 750 597 1062 519 
Q 1375 441 1716 441 
Q 2309 441 2620 675 
Q 2931 909 2931 1356 
Q 2931 1769 2642 2001 
Q 2353 2234 1838 2234 
L 1294 2234 
L 1294 2753 
L 1863 2753 
Q 2328 2753 2575 2939 
Q 2822 3125 2822 3475 
Q 2822 3834 2567 4026 
Q 2313 4219 1838 4219 
Q 1578 4219 1281 4162 
Q 984 4106 628 3988 
L 628 4550 
Q 988 4650 1302 4700 
Q 1616 4750 1894 4750 
Q 2613 4750 3031 4423 
Q 3450 4097 3450 3541 
Q 3450 3153 3228 2886 
Q 3006 2619 2597 2516 
z
" transform="scale(0.015625)"/>
       </defs>
       <use xlink:href="#DejaVuSans-33"/>
       <use xlink:href="#DejaVuSans-30" x="63.623047"/>
       <use xlink:href="#DejaVuSans-30" x="127.246094"/>
      </g>
     </g>
    </g>
    <g id="text_8">
     <!-- Number of Accelerated Layers -->
     <g transform="translate(139.934688 415.835) scale(0.2 -0.2)">
      <defs>
       <path id="DejaVuSans-4e" d="M 628 4666 
L 1478 4666 
L 3547 763 
L 3547 4666 
L 4159 4666 
L 4159 0 
L 3309 0 
L 1241 3903 
L 1241 0 
L 628 0 
L 628 4666 
z
" transform="scale(0.015625)"/>
       <path id="DejaVuSans-75" d="M 544 1381 
L 544 3500 
L 1119 3500 
L 1119 1403 
Q 1119 906 1312 657 
Q 1506 409 1894 409 
Q 2359 409 2629 706 
Q 2900 1003 2900 1516 
L 2900 3500 
L 3475 3500 
L 3475 0 
L 2900 0 
L 2900 538 
Q 2691 219 2414 64 
Q 2138 -91 1772 -91 
Q 1169 -91 856 284 
Q 544 659 544 1381 
z
M 1991 3584 
L 1991 3584 
z
" transform="scale(0.015625)"/>
       <path id="DejaVuSans-6d" d="M 3328 2828 
Q 3544 3216 3844 3400 
Q 4144 3584 4550 3584 
Q 5097 3584 5394 3201 
Q 5691 2819 5691 2113 
L 5691 0 
L 5113 0 
L 5113 2094 
Q 5113 2597 4934 2840 
Q 4756 3084 4391 3084 
Q 3944 3084 3684 2787 
Q 3425 2491 3425 1978 
L 3425 0 
L 2847 0 
L 2847 2094 
Q 2847 2600 2669 2842 
Q 2491 3084 2119 3084 
Q 1678 3084 1418 2786 
Q 1159 2488 1159 1978 
L 1159 0 
L 581 0 
L 581 3500 
L 1159 3500 
L 1159 2956 
Q 1356 3278 1631 3431 
Q 1906 3584 2284 3584 
Q 2666 3584 2933 3390 
Q 3200 3197 3328 2828 
z
" transform="scale(0.015625)"/>
       <path id="DejaVuSans-62" d="M 3116 1747 
Q 3116 2381 2855 2742 
Q 2594 3103 2138 3103 
Q 1681 3103 1420 2742 
Q 1159 2381 1159 1747 
Q 1159 1113 1420 752 
Q 1681 391 2138 391 
Q 2594 391 2855 752 
Q 3116 1113 3116 1747 
z
M 1159 2969 
Q 1341 3281 1617 3432 
Q 1894 3584 2278 3584 
Q 2916 3584 3314 3078 
Q 3713 2572 3713 1747 
Q 3713 922 3314 415 
Q 2916 -91 2278 -91 
Q 1894 -91 1617 61 
Q 1341 213 1159 525 
L 1159 0 
L 581 0 
L 581 4863 
L 1159 4863 
L 1159 2969 
z
" transform="scale(0.015625)"/>
       <path id="DejaVuSans-65" d="M 3597 1894 
L 3597 1613 
L 953 1613 
Q 991 1019 1311 708 
Q 1631 397 2203 397 
Q 2534 397 2845 478 
Q 3156 559 3463 722 
L 3463 178 
Q 3153 47 2828 -22 
Q 2503 -91 2169 -91 
Q 1331 -91 842 396 
Q 353 884 353 1716 
Q 353 2575 817 3079 
Q 1281 3584 2069 3584 
Q 2775 3584 3186 3129 
Q 3597 2675 3597 1894 
z
M 3022 2063 
Q 3016 2534 2758 2815 
Q 2500 3097 2075 3097 
Q 1594 3097 1305 2825 
Q 1016 2553 972 2059 
L 3022 2063 
z
" transform="scale(0.015625)"/>
       <path id="DejaVuSans-72" d="M 2631 2963 
Q 2534 3019 2420 3045 
Q 2306 3072 2169 3072 
Q 1681 3072 1420 2755 
Q 1159 2438 1159 1844 
L 1159 0 
L 581 0 
L 581 3500 
L 1159 3500 
L 1159 2956 
Q 1341 3275 1631 3429 
Q 1922 3584 2338 3584 
Q 2397 3584 2469 3576 
Q 2541 3569 2628 3553 
L 2631 2963 
z
" transform="scale(0.015625)"/>
       <path id="DejaVuSans-20" transform="scale(0.015625)"/>
       <path id="DejaVuSans-6f" d="M 1959 3097 
Q 1497 3097 1228 2736 
Q 959 2375 959 1747 
Q 959 1119 1226 758 
Q 1494 397 1959 397 
Q 2419 397 2687 759 
Q 2956 1122 2956 1747 
Q 2956 2369 2687 2733 
Q 2419 3097 1959 3097 
z
M 1959 3584 
Q 2709 3584 3137 3096 
Q 3566 2609 3566 1747 
Q 3566 888 3137 398 
Q 2709 -91 1959 -91 
Q 1206 -91 779 398 
Q 353 888 353 1747 
Q 353 2609 779 3096 
Q 1206 3584 1959 3584 
z
" transform="scale(0.015625)"/>
       <path id="DejaVuSans-66" d="M 2375 4863 
L 2375 4384 
L 1825 4384 
Q 1516 4384 1395 4259 
Q 1275 4134 1275 3809 
L 1275 3500 
L 2222 3500 
L 2222 3053 
L 1275 3053 
L 1275 0 
L 697 0 
L 697 3053 
L 147 3053 
L 147 3500 
L 697 3500 
L 697 3744 
Q 697 4328 969 4595 
Q 1241 4863 1831 4863 
L 2375 4863 
z
" transform="scale(0.015625)"/>
       <path id="DejaVuSans-41" d="M 2188 4044 
L 1331 1722 
L 3047 1722 
L 2188 4044 
z
M 1831 4666 
L 2547 4666 
L 4325 0 
L 3669 0 
L 3244 1197 
L 1141 1197 
L 716 0 
L 50 0 
L 1831 4666 
z
" transform="scale(0.015625)"/>
       <path id="DejaVuSans-63" d="M 3122 3366 
L 3122 2828 
Q 2878 2963 2633 3030 
Q 2388 3097 2138 3097 
Q 1578 3097 1268 2742 
Q 959 2388 959 1747 
Q 959 1106 1268 751 
Q 1578 397 2138 397 
Q 2388 397 2633 464 
Q 2878 531 3122 666 
L 3122 134 
Q 2881 22 2623 -34 
Q 2366 -91 2075 -91 
Q 1284 -91 818 406 
Q 353 903 353 1747 
Q 353 2603 823 3093 
Q 1294 3584 2113 3584 
Q 2378 3584 2631 3529 
Q 2884 3475 3122 3366 
z
" transform="scale(0.015625)"/>
       <path id="DejaVuSans-6c" d="M 603 4863 
L 1178 4863 
L 1178 0 
L 603 0 
L 603 4863 
z
" transform="scale(0.015625)"/>
       <path id="DejaVuSans-61" d="M 2194 1759 
Q 1497 1759 1228 1600 
Q 959 1441 959 1056 
Q 959 750 1161 570 
Q 1363 391 1709 391 
Q 2188 391 2477 730 
Q 2766 1069 2766 1631 
L 2766 1759 
L 2194 1759 
z
M 3341 1997 
L 3341 0 
L 2766 0 
L 2766 531 
Q 2569 213 2275 61 
Q 1981 -91 1556 -91 
Q 1019 -91 701 211 
Q 384 513 384 1019 
Q 384 1609 779 1909 
Q 1175 2209 1959 2209 
L 2766 2209 
L 2766 2266 
Q 2766 2663 2505 2880 
Q 2244 3097 1772 3097 
Q 1472 3097 1187 3025 
Q 903 2953 641 2809 
L 641 3341 
Q 956 3463 1253 3523 
Q 1550 3584 1831 3584 
Q 2591 3584 2966 3190 
Q 3341 2797 3341 1997 
z
" transform="scale(0.015625)"/>
       <path id="DejaVuSans-74" d="M 1172 4494 
L 1172 3500 
L 2356 3500 
L 2356 3053 
L 1172 3053 
L 1172 1153 
Q 1172 725 1289 603 
Q 1406 481 1766 481 
L 2356 481 
L 2356 0 
L 1766 0 
Q 1100 0 847 248 
Q 594 497 594 1153 
L 594 3053 
L 172 3053 
L 172 3500 
L 594 3500 
L 594 4494 
L 1172 4494 
z
" transform="scale(0.015625)"/>
       <path id="DejaVuSans-64" d="M 2906 2969 
L 2906 4863 
L 3481 4863 
L 3481 0 
L 2906 0 
L 2906 525 
Q 2725 213 2448 61 
Q 2172 -91 1784 -91 
Q 1150 -91 751 415 
Q 353 922 353 1747 
Q 353 2572 751 3078 
Q 1150 3584 1784 3584 
Q 2172 3584 2448 3432 
Q 2725 3281 2906 2969 
z
M 947 1747 
Q 947 1113 1208 752 
Q 1469 391 1925 391 
Q 2381 391 2643 752 
Q 2906 1113 2906 1747 
Q 2906 2381 2643 2742 
Q 2381 3103 1925 3103 
Q 1469 3103 1208 2742 
Q 947 2381 947 1747 
z
" transform="scale(0.015625)"/>
       <path id="DejaVuSans-4c" d="M 628 4666 
L 1259 4666 
L 1259 531 
L 3531 531 
L 3531 0 
L 628 0 
L 628 4666 
z
" transform="scale(0.015625)"/>
       <path id="DejaVuSans-79" d="M 2059 -325 
Q 1816 -950 1584 -1140 
Q 1353 -1331 966 -1331 
L 506 -1331 
L 506 -850 
L 844 -850 
Q 1081 -850 1212 -737 
Q 1344 -625 1503 -206 
L 1606 56 
L 191 3500 
L 800 3500 
L 1894 763 
L 2988 3500 
L 3597 3500 
L 2059 -325 
z
" transform="scale(0.015625)"/>
       <path id="DejaVuSans-73" d="M 2834 3397 
L 2834 2853 
Q 2591 2978 2328 3040 
Q 2066 3103 1784 3103 
Q 1356 3103 1142 2972 
Q 928 2841 928 2578 
Q 928 2378 1081 2264 
Q 1234 2150 1697 2047 
L 1894 2003 
Q 2506 1872 2764 1633 
Q 3022 1394 3022 966 
Q 3022 478 2636 193 
Q 2250 -91 1575 -91 
Q 1294 -91 989 -36 
Q 684 19 347 128 
L 347 722 
Q 666 556 975 473 
Q 1284 391 1588 391 
Q 1994 391 2212 530 
Q 2431 669 2431 922 
Q 2431 1156 2273 1281 
Q 2116 1406 1581 1522 
L 1381 1569 
Q 847 1681 609 1914 
Q 372 2147 372 2553 
Q 372 3047 722 3315 
Q 1072 3584 1716 3584 
Q 2034 3584 2315 3537 
Q 2597 3491 2834 3397 
z
" transform="scale(0.015625)"/>
      </defs>
      <use xlink:href="#DejaVuSans-4e"/>
      <use xlink:href="#DejaVuSans-75" x="74.804688"/>
      <use xlink:href="#DejaVuSans-6d" x="138.183594"/>
      <use xlink:href="#DejaVuSans-62" x="235.595703"/>
      <use xlink:href="#DejaVuSans-65" x="299.072266"/>
      <use xlink:href="#DejaVuSans-72" x="360.595703"/>
      <use xlink:href="#DejaVuSans-20" x="401.708984"/>
      <use xlink:href="#DejaVuSans-6f" x="433.496094"/>
      <use xlink:href="#DejaVuSans-66" x="494.677734"/>
      <use xlink:href="#DejaVuSans-20" x="529.882812"/>
      <use xlink:href="#DejaVuSans-41" x="561.669922"/>
      <use xlink:href="#DejaVuSans-63" x="628.328125"/>
      <use xlink:href="#DejaVuSans-63" x="683.308594"/>
      <use xlink:href="#DejaVuSans-65" x="738.289062"/>
      <use xlink:href="#DejaVuSans-6c" x="799.8125"/>
      <use xlink:href="#DejaVuSans-65" x="827.595703"/>
      <use xlink:href="#DejaVuSans-72" x="889.119141"/>
      <use xlink:href="#DejaVuSans-61" x="930.232422"/>
      <use xlink:href="#DejaVuSans-74" x="991.511719"/>
      <use xlink:href="#DejaVuSans-65" x="1030.720703"/>
      <use xlink:href="#DejaVuSans-64" x="1092.244141"/>
      <use xlink:href="#DejaVuSans-20" x="1155.720703"/>
      <use xlink:href="#DejaVuSans-4c" x="1187.507812"/>
      <use xlink:href="#DejaVuSans-61" x="1243.220703"/>
      <use xlink:href="#DejaVuSans-79" x="1304.5"/>
      <use xlink:href="#DejaVuSans-65" x="1363.679688"/>
      <use xlink:href="#DejaVuSans-72" x="1425.203125"/>
      <use xlink:href="#DejaVuSans-73" x="1466.316406"/>
     </g>
    </g>
   </g>
   <g id="matplotlib.axis_2">
    <g id="ytick_1">
     <g id="line2d_15">
      <path d="M 64.73 365.233091 
L 518.83 365.233091 
" clip-path="url(#p03a0440eef)" style="fill: none; stroke-dasharray: 1.85,0.8; stroke-dashoffset: 0; stroke: #b0b0b0; stroke-opacity: 0.7; stroke-width: 0.5"/>
     </g>
     <g id="line2d_16">
      <defs>
       <path id="m683e934fa0" d="M 0 0 
L -3.5 0 
" style="stroke: #000000; stroke-width: 0.8"/>
      </defs>
      <g>
       <use xlink:href="#m683e934fa0" x="64.73" y="365.233091" style="stroke: #000000; stroke-width: 0.8"/>
      </g>
     </g>
     <g id="text_9">
      <!-- 0 -->
      <g style="fill: #ff7f0e" transform="translate(50.095 369.792153) scale(0.12 -0.12)">
       <use xlink:href="#DejaVuSans-30"/>
      </g>
     </g>
    </g>
    <g id="ytick_2">
     <g id="line2d_17">
      <path d="M 64.73 323.948728 
L 518.83 323.948728 
" clip-path="url(#p03a0440eef)" style="fill: none; stroke-dasharray: 1.85,0.8; stroke-dashoffset: 0; stroke: #b0b0b0; stroke-opacity: 0.7; stroke-width: 0.5"/>
     </g>
     <g id="line2d_18">
      <g>
       <use xlink:href="#m683e934fa0" x="64.73" y="323.948728" style="stroke: #000000; stroke-width: 0.8"/>
      </g>
     </g>
     <g id="text_10">
      <!-- 100 -->
      <g style="fill: #ff7f0e" transform="translate(34.825 328.50779) scale(0.12 -0.12)">
       <use xlink:href="#DejaVuSans-31"/>
       <use xlink:href="#DejaVuSans-30" x="63.623047"/>
       <use xlink:href="#DejaVuSans-30" x="127.246094"/>
      </g>
     </g>
    </g>
    <g id="ytick_3">
     <g id="line2d_19">
      <path d="M 64.73 282.664365 
L 518.83 282.664365 
" clip-path="url(#p03a0440eef)" style="fill: none; stroke-dasharray: 1.85,0.8; stroke-dashoffset: 0; stroke: #b0b0b0; stroke-opacity: 0.7; stroke-width: 0.5"/>
     </g>
     <g id="line2d_20">
      <g>
       <use xlink:href="#m683e934fa0" x="64.73" y="282.664365" style="stroke: #000000; stroke-width: 0.8"/>
      </g>
     </g>
     <g id="text_11">
      <!-- 200 -->
      <g style="fill: #ff7f0e" transform="translate(34.825 287.223427) scale(0.12 -0.12)">
       <use xlink:href="#DejaVuSans-32"/>
       <use xlink:href="#DejaVuSans-30" x="63.623047"/>
       <use xlink:href="#DejaVuSans-30" x="127.246094"/>
      </g>
     </g>
    </g>
    <g id="ytick_4">
     <g id="line2d_21">
      <path d="M 64.73 241.380002 
L 518.83 241.380002 
" clip-path="url(#p03a0440eef)" style="fill: none; stroke-dasharray: 1.85,0.8; stroke-dashoffset: 0; stroke: #b0b0b0; stroke-opacity: 0.7; stroke-width: 0.5"/>
     </g>
     <g id="line2d_22">
      <g>
       <use xlink:href="#m683e934fa0" x="64.73" y="241.380002" style="stroke: #000000; stroke-width: 0.8"/>
      </g>
     </g>
     <g id="text_12">
      <!-- 300 -->
      <g style="fill: #ff7f0e" transform="translate(34.825 245.939064) scale(0.12 -0.12)">
       <use xlink:href="#DejaVuSans-33"/>
       <use xlink:href="#DejaVuSans-30" x="63.623047"/>
       <use xlink:href="#DejaVuSans-30" x="127.246094"/>
      </g>
     </g>
    </g>
    <g id="ytick_5">
     <g id="line2d_23">
      <path d="M 64.73 200.095639 
L 518.83 200.095639 
" clip-path="url(#p03a0440eef)" style="fill: none; stroke-dasharray: 1.85,0.8; stroke-dashoffset: 0; stroke: #b0b0b0; stroke-opacity: 0.7; stroke-width: 0.5"/>
     </g>
     <g id="line2d_24">
      <g>
       <use xlink:href="#m683e934fa0" x="64.73" y="200.095639" style="stroke: #000000; stroke-width: 0.8"/>
      </g>
     </g>
     <g id="text_13">
      <!-- 400 -->
      <g style="fill: #ff7f0e" transform="translate(34.825 204.654701) scale(0.12 -0.12)">
       <defs>
        <path id="DejaVuSans-34" d="M 2419 4116 
L 825 1625 
L 2419 1625 
L 2419 4116 
z
M 2253 4666 
L 3047 4666 
L 3047 1625 
L 3713 1625 
L 3713 1100 
L 3047 1100 
L 3047 0 
L 2419 0 
L 2419 1100 
L 313 1100 
L 313 1709 
L 2253 4666 
z
" transform="scale(0.015625)"/>
       </defs>
       <use xlink:href="#DejaVuSans-34"/>
       <use xlink:href="#DejaVuSans-30" x="63.623047"/>
       <use xlink:href="#DejaVuSans-30" x="127.246094"/>
      </g>
     </g>
    </g>
    <g id="ytick_6">
     <g id="line2d_25">
      <path d="M 64.73 158.811276 
L 518.83 158.811276 
" clip-path="url(#p03a0440eef)" style="fill: none; stroke-dasharray: 1.85,0.8; stroke-dashoffset: 0; stroke: #b0b0b0; stroke-opacity: 0.7; stroke-width: 0.5"/>
     </g>
     <g id="line2d_26">
      <g>
       <use xlink:href="#m683e934fa0" x="64.73" y="158.811276" style="stroke: #000000; stroke-width: 0.8"/>
      </g>
     </g>
     <g id="text_14">
      <!-- 500 -->
      <g style="fill: #ff7f0e" transform="translate(34.825 163.370338) scale(0.12 -0.12)">
       <use xlink:href="#DejaVuSans-35"/>
       <use xlink:href="#DejaVuSans-30" x="63.623047"/>
       <use xlink:href="#DejaVuSans-30" x="127.246094"/>
      </g>
     </g>
    </g>
    <g id="ytick_7">
     <g id="line2d_27">
      <path d="M 64.73 117.526913 
L 518.83 117.526913 
" clip-path="url(#p03a0440eef)" style="fill: none; stroke-dasharray: 1.85,0.8; stroke-dashoffset: 0; stroke: #b0b0b0; stroke-opacity: 0.7; stroke-width: 0.5"/>
     </g>
     <g id="line2d_28">
      <g>
       <use xlink:href="#m683e934fa0" x="64.73" y="117.526913" style="stroke: #000000; stroke-width: 0.8"/>
      </g>
     </g>
     <g id="text_15">
      <!-- 600 -->
      <g style="fill: #ff7f0e" transform="translate(34.825 122.085975) scale(0.12 -0.12)">
       <defs>
        <path id="DejaVuSans-36" d="M 2113 2584 
Q 1688 2584 1439 2293 
Q 1191 2003 1191 1497 
Q 1191 994 1439 701 
Q 1688 409 2113 409 
Q 2538 409 2786 701 
Q 3034 994 3034 1497 
Q 3034 2003 2786 2293 
Q 2538 2584 2113 2584 
z
M 3366 4563 
L 3366 3988 
Q 3128 4100 2886 4159 
Q 2644 4219 2406 4219 
Q 1781 4219 1451 3797 
Q 1122 3375 1075 2522 
Q 1259 2794 1537 2939 
Q 1816 3084 2150 3084 
Q 2853 3084 3261 2657 
Q 3669 2231 3669 1497 
Q 3669 778 3244 343 
Q 2819 -91 2113 -91 
Q 1303 -91 875 529 
Q 447 1150 447 2328 
Q 447 3434 972 4092 
Q 1497 4750 2381 4750 
Q 2619 4750 2861 4703 
Q 3103 4656 3366 4563 
z
" transform="scale(0.015625)"/>
       </defs>
       <use xlink:href="#DejaVuSans-36"/>
       <use xlink:href="#DejaVuSans-30" x="63.623047"/>
       <use xlink:href="#DejaVuSans-30" x="127.246094"/>
      </g>
     </g>
    </g>
    <g id="ytick_8">
     <g id="line2d_29">
      <path d="M 64.73 76.24255 
L 518.83 76.24255 
" clip-path="url(#p03a0440eef)" style="fill: none; stroke-dasharray: 1.85,0.8; stroke-dashoffset: 0; stroke: #b0b0b0; stroke-opacity: 0.7; stroke-width: 0.5"/>
     </g>
     <g id="line2d_30">
      <g>
       <use xlink:href="#m683e934fa0" x="64.73" y="76.24255" style="stroke: #000000; stroke-width: 0.8"/>
      </g>
     </g>
     <g id="text_16">
      <!-- 700 -->
      <g style="fill: #ff7f0e" transform="translate(34.825 80.801612) scale(0.12 -0.12)">
       <defs>
        <path id="DejaVuSans-37" d="M 525 4666 
L 3525 4666 
L 3525 4397 
L 1831 0 
L 1172 0 
L 2766 4134 
L 525 4134 
L 525 4666 
z
" transform="scale(0.015625)"/>
       </defs>
       <use xlink:href="#DejaVuSans-37"/>
       <use xlink:href="#DejaVuSans-30" x="63.623047"/>
       <use xlink:href="#DejaVuSans-30" x="127.246094"/>
      </g>
     </g>
    </g>
    <g id="text_17">
     <!-- Acceleration Gain -->
     <g style="fill: #ff7f0e" transform="translate(26.665625 306.274937) rotate(-90) scale(0.2 -0.2)">
      <defs>
       <path id="DejaVuSans-69" d="M 603 3500 
L 1178 3500 
L 1178 0 
L 603 0 
L 603 3500 
z
M 603 4863 
L 1178 4863 
L 1178 4134 
L 603 4134 
L 603 4863 
z
" transform="scale(0.015625)"/>
       <path id="DejaVuSans-6e" d="M 3513 2113 
L 3513 0 
L 2938 0 
L 2938 2094 
Q 2938 2591 2744 2837 
Q 2550 3084 2163 3084 
Q 1697 3084 1428 2787 
Q 1159 2491 1159 1978 
L 1159 0 
L 581 0 
L 581 3500 
L 1159 3500 
L 1159 2956 
Q 1366 3272 1645 3428 
Q 1925 3584 2291 3584 
Q 2894 3584 3203 3211 
Q 3513 2838 3513 2113 
z
" transform="scale(0.015625)"/>
       <path id="DejaVuSans-47" d="M 3809 666 
L 3809 1919 
L 2778 1919 
L 2778 2438 
L 4434 2438 
L 4434 434 
Q 4069 175 3628 42 
Q 3188 -91 2688 -91 
Q 1594 -91 976 548 
Q 359 1188 359 2328 
Q 359 3472 976 4111 
Q 1594 4750 2688 4750 
Q 3144 4750 3555 4637 
Q 3966 4525 4313 4306 
L 4313 3634 
Q 3963 3931 3569 4081 
Q 3175 4231 2741 4231 
Q 1884 4231 1454 3753 
Q 1025 3275 1025 2328 
Q 1025 1384 1454 906 
Q 1884 428 2741 428 
Q 3075 428 3337 486 
Q 3600 544 3809 666 
z
" transform="scale(0.015625)"/>
      </defs>
      <use xlink:href="#DejaVuSans-41"/>
      <use xlink:href="#DejaVuSans-63" x="66.658203"/>
      <use xlink:href="#DejaVuSans-63" x="121.638672"/>
      <use xlink:href="#DejaVuSans-65" x="176.619141"/>
      <use xlink:href="#DejaVuSans-6c" x="238.142578"/>
      <use xlink:href="#DejaVuSans-65" x="265.925781"/>
      <use xlink:href="#DejaVuSans-72" x="327.449219"/>
      <use xlink:href="#DejaVuSans-61" x="368.5625"/>
      <use xlink:href="#DejaVuSans-74" x="429.841797"/>
      <use xlink:href="#DejaVuSans-69" x="469.050781"/>
      <use xlink:href="#DejaVuSans-6f" x="496.833984"/>
      <use xlink:href="#DejaVuSans-6e" x="558.015625"/>
      <use xlink:href="#DejaVuSans-20" x="621.394531"/>
      <use xlink:href="#DejaVuSans-47" x="653.181641"/>
      <use xlink:href="#DejaVuSans-61" x="730.671875"/>
      <use xlink:href="#DejaVuSans-69" x="791.951172"/>
      <use xlink:href="#DejaVuSans-6e" x="819.734375"/>
     </g>
    </g>
   </g>
   <g id="line2d_31">
    <path d="M 85.370909 365.233091 
L 86.719988 353.969576 
L 88.069067 352.980164 
L 89.418146 351.07451 
L 90.767225 339.862057 
L 92.116304 339.743093 
L 93.465383 337.282871 
L 94.814462 326.195086 
L 96.163541 326.085846 
L 97.51262 322.959641 
L 98.861699 311.552283 
L 100.210778 311.467379 
L 101.559857 307.697627 
L 102.908936 296.588277 
L 104.258015 296.494898 
L 105.607094 292.08801 
L 106.956173 281.067801 
L 108.305253 280.812381 
L 109.654332 275.724518 
L 111.003411 264.517171 
L 112.35249 264.351871 
L 113.701569 258.705474 
L 115.050648 258.098213 
L 116.399727 257.216249 
L 117.748806 254.491209 
L 119.097885 254.617724 
L 120.446964 253.666609 
L 121.796043 250.807884 
L 123.145122 250.674361 
L 124.494201 249.74492 
L 125.84328 246.994621 
L 127.192359 246.869573 
L 128.541438 245.930897 
L 129.890517 242.793068 
L 131.239596 242.873355 
L 132.588675 241.59191 
L 133.937754 238.593905 
L 135.286833 238.741768 
L 136.635912 237.246296 
L 137.984991 234.502624 
L 139.33407 234.402293 
L 140.683149 232.669056 
L 142.032228 230.010994 
L 143.381307 229.801911 
L 144.730386 227.928959 
L 146.079465 225.190828 
L 147.428544 225.202453 
L 148.777623 223.023725 
L 150.126702 220.367836 
L 151.475781 220.265821 
L 152.82486 217.972148 
L 154.173939 215.295944 
L 155.523018 215.064697 
L 156.872097 212.769938 
L 158.221176 210.056686 
L 159.570255 210.0116 
L 162.268414 204.361291 
L 163.617493 204.247596 
L 164.966572 199.033218 
L 167.66473 198.413138 
L 169.013809 197.688217 
L 170.362888 197.754978 
L 171.711967 197.45181 
L 173.061046 196.81652 
L 174.410125 196.757363 
L 175.759204 196.368204 
L 177.108283 195.808747 
L 178.457362 195.67919 
L 181.15552 194.54865 
L 182.504599 194.536047 
L 185.202757 193.543539 
L 186.551836 193.365473 
L 187.900915 192.925468 
L 189.249994 192.18675 
L 190.599073 192.334396 
L 191.948152 191.719639 
L 193.297231 190.970708 
L 194.64631 190.881729 
L 195.995389 190.366164 
L 197.344468 189.656181 
L 198.693547 189.752005 
L 200.042626 189.106448 
L 201.391705 188.283802 
L 202.740784 188.382993 
L 204.089863 187.545736 
L 205.438942 186.986821 
L 206.788021 186.946406 
L 208.1371 186.121642 
L 209.486179 185.627534 
L 210.835258 185.536219 
L 213.533417 184.139667 
L 214.882496 184.118916 
L 216.231575 183.087242 
L 217.580654 182.537399 
L 218.929733 182.584605 
L 220.278812 181.649568 
L 221.627891 181.047142 
L 222.97697 181.070392 
L 224.326049 179.970653 
L 225.675128 179.477467 
L 227.024207 179.360079 
L 228.373286 178.324004 
L 229.722365 177.695721 
L 231.071444 177.635805 
L 232.420523 176.712882 
L 233.769602 176.253865 
L 235.118681 176.084273 
L 236.46776 174.919022 
L 237.816839 174.332621 
L 239.165918 174.328058 
L 240.514997 173.102238 
L 241.864076 172.444568 
L 243.213155 172.405456 
L 244.562234 171.333366 
L 245.911313 170.656031 
L 247.260392 170.634194 
L 248.609471 169.438251 
L 249.95855 168.736526 
L 251.307629 168.751355 
L 252.656708 167.523037 
L 254.005787 166.757646 
L 255.354866 166.839726 
L 256.703945 165.563007 
L 258.053024 164.900285 
L 259.402103 164.926794 
L 260.751182 163.560173 
L 262.100261 162.919016 
L 263.44934 162.828842 
L 264.798419 161.492478 
L 266.147499 160.870877 
L 267.496578 160.855558 
L 268.845657 159.416689 
L 270.194736 158.889662 
L 271.543815 158.696331 
L 272.892894 157.390279 
L 274.241973 156.673995 
L 275.591052 156.766939 
L 276.940131 155.176731 
L 278.28921 154.400205 
L 279.638289 154.468704 
L 280.987368 152.847967 
L 282.336447 152.201975 
L 283.685526 152.185353 
L 285.034605 150.541094 
L 286.383684 149.995923 
L 287.732763 149.903305 
L 289.081842 148.252094 
L 290.430921 147.647604 
L 291.78 147.638586 
L 293.129079 145.943863 
L 294.478158 145.315635 
L 295.827237 145.169021 
L 297.176316 143.532476 
L 298.525395 142.750138 
L 299.874474 142.962372 
L 301.223553 141.079642 
L 302.572632 140.324192 
L 303.921711 140.300617 
L 305.27079 138.467917 
L 306.619869 137.862232 
L 307.968948 137.841372 
L 309.318027 136.0461 
L 310.667106 135.190264 
L 312.016185 135.334488 
L 313.365264 133.384834 
L 314.714343 132.775238 
L 316.063422 132.681696 
L 317.412501 130.632308 
L 318.761581 130.047917 
L 320.11066 130.048732 
L 321.459739 128.1113 
L 322.808818 127.30946 
L 324.157897 127.124549 
L 325.506976 125.259094 
L 326.856055 124.678342 
L 328.205134 124.69013 
L 329.554213 122.48473 
L 330.903292 121.714125 
L 332.252371 121.879208 
L 333.60145 119.585318 
L 334.950529 119.060735 
L 336.299608 119.084148 
L 337.648687 116.659344 
L 338.997766 116.208909 
L 340.346845 116.113955 
L 341.695924 113.80616 
L 343.045003 113.168696 
L 344.394082 113.143545 
L 345.743161 110.890832 
L 347.09224 110.037875 
L 348.441319 110.105994 
L 349.790398 107.853226 
L 351.139477 107.255689 
L 352.488556 107.262099 
L 353.837635 104.872712 
L 355.186714 104.106398 
L 356.535793 103.98939 
L 357.884872 101.569257 
L 359.233951 100.949122 
L 360.58303 100.651332 
L 361.932109 91.858632 
L 365.979346 91.217149 
L 368.677504 91.170324 
L 371.375663 90.896108 
L 374.073821 90.628792 
L 375.4229 90.603967 
L 378.121058 90.208615 
L 379.470137 90.380163 
L 382.168295 89.875896 
L 383.517374 89.920385 
L 384.866453 89.682891 
L 387.564611 89.600757 
L 390.262769 89.173029 
L 391.611848 89.166565 
L 392.960927 88.854814 
L 395.659085 88.774635 
L 397.008164 88.359347 
L 398.357243 88.268793 
L 399.706322 88.394493 
L 401.055401 87.997946 
L 402.40448 87.819717 
L 403.753559 87.903101 
L 405.102638 87.556258 
L 406.451717 87.375367 
L 407.800796 87.411763 
L 409.149875 87.08893 
L 410.498954 86.948346 
L 411.848033 86.939763 
L 413.197112 86.631325 
L 415.89527 86.414039 
L 417.244349 86.034114 
L 419.942507 85.85431 
L 422.640665 85.39073 
L 423.989745 85.415283 
L 425.338824 84.97881 
L 428.036982 84.853381 
L 430.73514 84.324616 
L 432.084219 84.314892 
L 433.433298 83.832245 
L 434.782377 83.622673 
L 436.131456 83.722787 
L 437.480535 83.279904 
L 438.829614 83.038282 
L 440.178693 83.06126 
L 441.527772 82.62169 
L 442.876851 82.476869 
L 444.22593 82.499901 
L 445.575009 82.077823 
L 446.924088 81.882048 
L 448.273167 81.891772 
L 449.622246 81.51717 
L 450.971325 81.387831 
L 452.320404 81.388265 
L 453.669483 80.966078 
L 456.367641 80.763894 
L 457.71672 80.484572 
L 459.065799 80.587294 
L 460.414878 80.52917 
L 461.763957 79.871228 
L 463.113036 79.622544 
L 464.462115 79.695715 
L 465.811194 79.216219 
L 467.160273 78.936517 
L 468.509352 79.003333 
L 469.858431 78.484399 
L 471.20751 78.242668 
L 472.556589 78.289657 
L 473.905668 77.701083 
L 475.254747 77.550178 
L 476.603827 77.612213 
L 477.952906 76.992132 
L 480.651064 76.894245 
L 482.000143 76.383297 
L 483.349222 76.215606 
L 484.698301 76.230925 
L 486.04738 75.736871 
L 487.396459 75.54278 
L 488.745538 75.537456 
L 490.094617 74.945677 
L 492.792775 74.822802 
L 494.141854 70.864175 
L 495.490933 70.694909 
L 498.189091 70.831473 
L 498.189091 70.831473 
" clip-path="url(#p03a0440eef)" style="fill: none; stroke: #ff7f0e; stroke-width: 1.5; stroke-linecap: square"/>
   </g>
   <g id="line2d_32">
    <path d="M 399.706322 379.96 
L 399.706322 55.968 
" clip-path="url(#p03a0440eef)" style="fill: none; stroke-dasharray: 11.1,4.8; stroke-dashoffset: 0; stroke: #ffd700; stroke-width: 3"/>
   </g>
   <g id="patch_3">
    <path d="M 64.73 379.96 
L 64.73 55.968 
" style="fill: none; stroke: #000000; stroke-width: 0.8; stroke-linejoin: miter; stroke-linecap: square"/>
   </g>
   <g id="patch_4">
    <path d="M 518.83 379.96 
L 518.83 55.968 
" style="fill: none; stroke: #000000; stroke-width: 0.8; stroke-linejoin: miter; stroke-linecap: square"/>
   </g>
   <g id="patch_5">
    <path d="M 64.73 379.96 
L 518.83 379.96 
" style="fill: none; stroke: #000000; stroke-width: 0.8; stroke-linejoin: miter; stroke-linecap: square"/>
   </g>
   <g id="patch_6">
    <path d="M 64.73 55.968 
L 518.83 55.968 
" style="fill: none; stroke: #000000; stroke-width: 0.8; stroke-linejoin: miter; stroke-linecap: square"/>
   </g>
   <g id="text_18">
    <!-- Max Throughput -->
    <g transform="translate(396.79476 275.316969) rotate(-90) scale(0.14 -0.14)">
     <defs>
      <path id="DejaVuSans-4d" d="M 628 4666 
L 1569 4666 
L 2759 1491 
L 3956 4666 
L 4897 4666 
L 4897 0 
L 4281 0 
L 4281 4097 
L 3078 897 
L 2444 897 
L 1241 4097 
L 1241 0 
L 628 0 
L 628 4666 
z
" transform="scale(0.015625)"/>
      <path id="DejaVuSans-78" d="M 3513 3500 
L 2247 1797 
L 3578 0 
L 2900 0 
L 1881 1375 
L 863 0 
L 184 0 
L 1544 1831 
L 300 3500 
L 978 3500 
L 1906 2253 
L 2834 3500 
L 3513 3500 
z
" transform="scale(0.015625)"/>
      <path id="DejaVuSans-54" d="M -19 4666 
L 3928 4666 
L 3928 4134 
L 2272 4134 
L 2272 0 
L 1638 0 
L 1638 4134 
L -19 4134 
L -19 4666 
z
" transform="scale(0.015625)"/>
      <path id="DejaVuSans-68" d="M 3513 2113 
L 3513 0 
L 2938 0 
L 2938 2094 
Q 2938 2591 2744 2837 
Q 2550 3084 2163 3084 
Q 1697 3084 1428 2787 
Q 1159 2491 1159 1978 
L 1159 0 
L 581 0 
L 581 4863 
L 1159 4863 
L 1159 2956 
Q 1366 3272 1645 3428 
Q 1925 3584 2291 3584 
Q 2894 3584 3203 3211 
Q 3513 2838 3513 2113 
z
" transform="scale(0.015625)"/>
      <path id="DejaVuSans-67" d="M 2906 1791 
Q 2906 2416 2648 2759 
Q 2391 3103 1925 3103 
Q 1463 3103 1205 2759 
Q 947 2416 947 1791 
Q 947 1169 1205 825 
Q 1463 481 1925 481 
Q 2391 481 2648 825 
Q 2906 1169 2906 1791 
z
M 3481 434 
Q 3481 -459 3084 -895 
Q 2688 -1331 1869 -1331 
Q 1566 -1331 1297 -1286 
Q 1028 -1241 775 -1147 
L 775 -588 
Q 1028 -725 1275 -790 
Q 1522 -856 1778 -856 
Q 2344 -856 2625 -561 
Q 2906 -266 2906 331 
L 2906 616 
Q 2728 306 2450 153 
Q 2172 0 1784 0 
Q 1141 0 747 490 
Q 353 981 353 1791 
Q 353 2603 747 3093 
Q 1141 3584 1784 3584 
Q 2172 3584 2450 3431 
Q 2728 3278 2906 2969 
L 2906 3500 
L 3481 3500 
L 3481 434 
z
" transform="scale(0.015625)"/>
      <path id="DejaVuSans-70" d="M 1159 525 
L 1159 -1331 
L 581 -1331 
L 581 3500 
L 1159 3500 
L 1159 2969 
Q 1341 3281 1617 3432 
Q 1894 3584 2278 3584 
Q 2916 3584 3314 3078 
Q 3713 2572 3713 1747 
Q 3713 922 3314 415 
Q 2916 -91 2278 -91 
Q 1894 -91 1617 61 
Q 1341 213 1159 525 
z
M 3116 1747 
Q 3116 2381 2855 2742 
Q 2594 3103 2138 3103 
Q 1681 3103 1420 2742 
Q 1159 2381 1159 1747 
Q 1159 1113 1420 752 
Q 1681 391 2138 391 
Q 2594 391 2855 752 
Q 3116 1113 3116 1747 
z
" transform="scale(0.015625)"/>
     </defs>
     <use xlink:href="#DejaVuSans-4d"/>
     <use xlink:href="#DejaVuSans-61" x="86.279297"/>
     <use xlink:href="#DejaVuSans-78" x="147.558594"/>
     <use xlink:href="#DejaVuSans-20" x="206.738281"/>
     <use xlink:href="#DejaVuSans-54" x="238.525391"/>
     <use xlink:href="#DejaVuSans-68" x="299.609375"/>
     <use xlink:href="#DejaVuSans-72" x="362.988281"/>
     <use xlink:href="#DejaVuSans-6f" x="401.851562"/>
     <use xlink:href="#DejaVuSans-75" x="463.033203"/>
     <use xlink:href="#DejaVuSans-67" x="526.412109"/>
     <use xlink:href="#DejaVuSans-68" x="589.888672"/>
     <use xlink:href="#DejaVuSans-70" x="653.267578"/>
     <use xlink:href="#DejaVuSans-75" x="716.744141"/>
     <use xlink:href="#DejaVuSans-74" x="780.123047"/>
    </g>
   </g>
   <g id="legend_1">
    <g id="patch_7">
     <path d="M 71.73 78.646125 
L 161.809687 78.646125 
Q 163.809687 78.646125 163.809687 76.646125 
L 163.809687 62.968 
Q 163.809687 60.968 161.809687 60.968 
L 71.73 60.968 
Q 69.73 60.968 69.73 62.968 
L 69.73 76.646125 
Q 69.73 78.646125 71.73 78.646125 
z
" style="fill: #ffffff; opacity: 0.8; stroke: #cccccc; stroke-linejoin: miter"/>
    </g>
    <g id="line2d_33">
     <path d="M 73.73 69.066438 
L 83.73 69.066438 
L 93.73 69.066438 
" style="fill: none; stroke: #ff7f0e; stroke-width: 1.5; stroke-linecap: square"/>
    </g>
    <g id="text_19">
     <!-- Throughput -->
     <g transform="translate(101.73 72.566438) scale(0.1 -0.1)">
      <use xlink:href="#DejaVuSans-54"/>
      <use xlink:href="#DejaVuSans-68" x="61.083984"/>
      <use xlink:href="#DejaVuSans-72" x="124.462891"/>
      <use xlink:href="#DejaVuSans-6f" x="163.326172"/>
      <use xlink:href="#DejaVuSans-75" x="224.507812"/>
      <use xlink:href="#DejaVuSans-67" x="287.886719"/>
      <use xlink:href="#DejaVuSans-68" x="351.363281"/>
      <use xlink:href="#DejaVuSans-70" x="414.742188"/>
      <use xlink:href="#DejaVuSans-75" x="478.21875"/>
      <use xlink:href="#DejaVuSans-74" x="541.597656"/>
     </g>
    </g>
   </g>
  </g>
  <g id="axes_2">
   <g id="matplotlib.axis_3">
    <g id="ytick_9">
     <g id="line2d_34">
      <defs>
       <path id="m7591c74ac7" d="M 0 0 
L 3.5 0 
" style="stroke: #000000; stroke-width: 0.8"/>
      </defs>
      <g>
       <use xlink:href="#m7591c74ac7" x="518.83" y="365.233091" style="stroke: #000000; stroke-width: 0.8"/>
      </g>
     </g>
     <g id="text_20">
      <!-- 0 -->
      <g style="fill: #2ca02c" transform="translate(525.83 369.792153) scale(0.12 -0.12)">
       <use xlink:href="#DejaVuSans-30"/>
      </g>
     </g>
    </g>
    <g id="ytick_10">
     <g id="line2d_35">
      <g>
       <use xlink:href="#m7591c74ac7" x="518.83" y="324.193988" style="stroke: #000000; stroke-width: 0.8"/>
      </g>
     </g>
     <g id="text_21">
      <!-- 10 -->
      <g style="fill: #2ca02c" transform="translate(525.83 328.75305) scale(0.12 -0.12)">
       <use xlink:href="#DejaVuSans-31"/>
       <use xlink:href="#DejaVuSans-30" x="63.623047"/>
      </g>
     </g>
    </g>
    <g id="ytick_11">
     <g id="line2d_36">
      <g>
       <use xlink:href="#m7591c74ac7" x="518.83" y="283.154885" style="stroke: #000000; stroke-width: 0.8"/>
      </g>
     </g>
     <g id="text_22">
      <!-- 20 -->
      <g style="fill: #2ca02c" transform="translate(525.83 287.713948) scale(0.12 -0.12)">
       <use xlink:href="#DejaVuSans-32"/>
       <use xlink:href="#DejaVuSans-30" x="63.623047"/>
      </g>
     </g>
    </g>
    <g id="ytick_12">
     <g id="line2d_37">
      <g>
       <use xlink:href="#m7591c74ac7" x="518.83" y="242.115782" style="stroke: #000000; stroke-width: 0.8"/>
      </g>
     </g>
     <g id="text_23">
      <!-- 30 -->
      <g style="fill: #2ca02c" transform="translate(525.83 246.674845) scale(0.12 -0.12)">
       <use xlink:href="#DejaVuSans-33"/>
       <use xlink:href="#DejaVuSans-30" x="63.623047"/>
      </g>
     </g>
    </g>
    <g id="ytick_13">
     <g id="line2d_38">
      <g>
       <use xlink:href="#m7591c74ac7" x="518.83" y="201.076679" style="stroke: #000000; stroke-width: 0.8"/>
      </g>
     </g>
     <g id="text_24">
      <!-- 40 -->
      <g style="fill: #2ca02c" transform="translate(525.83 205.635742) scale(0.12 -0.12)">
       <use xlink:href="#DejaVuSans-34"/>
       <use xlink:href="#DejaVuSans-30" x="63.623047"/>
      </g>
     </g>
    </g>
    <g id="ytick_14">
     <g id="line2d_39">
      <g>
       <use xlink:href="#m7591c74ac7" x="518.83" y="160.037576" style="stroke: #000000; stroke-width: 0.8"/>
      </g>
     </g>
     <g id="text_25">
      <!-- 50 -->
      <g style="fill: #2ca02c" transform="translate(525.83 164.596639) scale(0.12 -0.12)">
       <use xlink:href="#DejaVuSans-35"/>
       <use xlink:href="#DejaVuSans-30" x="63.623047"/>
      </g>
     </g>
    </g>
    <g id="ytick_15">
     <g id="line2d_40">
      <g>
       <use xlink:href="#m7591c74ac7" x="518.83" y="118.998473" style="stroke: #000000; stroke-width: 0.8"/>
      </g>
     </g>
     <g id="text_26">
      <!-- 60 -->
      <g style="fill: #2ca02c" transform="translate(525.83 123.557536) scale(0.12 -0.12)">
       <use xlink:href="#DejaVuSans-36"/>
       <use xlink:href="#DejaVuSans-30" x="63.623047"/>
      </g>
     </g>
    </g>
    <g id="ytick_16">
     <g id="line2d_41">
      <g>
       <use xlink:href="#m7591c74ac7" x="518.83" y="77.95937" style="stroke: #000000; stroke-width: 0.8"/>
      </g>
     </g>
     <g id="text_27">
      <!-- 70 -->
      <g style="fill: #2ca02c" transform="translate(525.83 82.518433) scale(0.12 -0.12)">
       <use xlink:href="#DejaVuSans-37"/>
       <use xlink:href="#DejaVuSans-30" x="63.623047"/>
      </g>
     </g>
    </g>
    <g id="text_28">
     <!-- Block Loss -->
     <g style="fill: #2ca02c" transform="translate(560.296875 270.123375) rotate(-90) scale(0.2 -0.2)">
      <defs>
       <path id="DejaVuSans-42" d="M 1259 2228 
L 1259 519 
L 2272 519 
Q 2781 519 3026 730 
Q 3272 941 3272 1375 
Q 3272 1813 3026 2020 
Q 2781 2228 2272 2228 
L 1259 2228 
z
M 1259 4147 
L 1259 2741 
L 2194 2741 
Q 2656 2741 2882 2914 
Q 3109 3088 3109 3444 
Q 3109 3797 2882 3972 
Q 2656 4147 2194 4147 
L 1259 4147 
z
M 628 4666 
L 2241 4666 
Q 2963 4666 3353 4366 
Q 3744 4066 3744 3513 
Q 3744 3084 3544 2831 
Q 3344 2578 2956 2516 
Q 3422 2416 3680 2098 
Q 3938 1781 3938 1306 
Q 3938 681 3513 340 
Q 3088 0 2303 0 
L 628 0 
L 628 4666 
z
" transform="scale(0.015625)"/>
       <path id="DejaVuSans-6b" d="M 581 4863 
L 1159 4863 
L 1159 1991 
L 2875 3500 
L 3609 3500 
L 1753 1863 
L 3688 0 
L 2938 0 
L 1159 1709 
L 1159 0 
L 581 0 
L 581 4863 
z
" transform="scale(0.015625)"/>
      </defs>
      <use xlink:href="#DejaVuSans-42"/>
      <use xlink:href="#DejaVuSans-6c" x="68.603516"/>
      <use xlink:href="#DejaVuSans-6f" x="96.386719"/>
      <use xlink:href="#DejaVuSans-63" x="157.568359"/>
      <use xlink:href="#DejaVuSans-6b" x="212.548828"/>
      <use xlink:href="#DejaVuSans-20" x="270.458984"/>
      <use xlink:href="#DejaVuSans-4c" x="302.246094"/>
      <use xlink:href="#DejaVuSans-6f" x="356.208984"/>
      <use xlink:href="#DejaVuSans-73" x="417.390625"/>
      <use xlink:href="#DejaVuSans-73" x="469.490234"/>
     </g>
    </g>
   </g>
   <g id="line2d_42">
    <path d="M 85.370909 365.233091 
L 89.418146 364.938797 
L 90.767225 364.582405 
L 93.465383 365.222291 
L 94.814462 365.213111 
L 96.163541 363.818862 
L 97.51262 364.075896 
L 98.861699 365.233091 
L 100.210778 365.233091 
L 101.559857 364.37775 
L 102.908936 364.80434 
L 104.258015 364.016498 
L 105.607094 364.925838 
L 106.956173 364.202253 
L 108.305253 365.233091 
L 109.654332 364.82918 
L 111.003411 363.080158 
L 112.35249 364.094796 
L 113.701569 363.702224 
L 115.050648 364.336171 
L 116.399727 364.439848 
L 117.748806 363.851801 
L 119.097885 365.108354 
L 120.446964 362.954341 
L 121.796043 361.962922 
L 123.145122 362.488331 
L 124.494201 364.904238 
L 128.541438 363.45761 
L 129.890517 363.319373 
L 131.239596 362.9727 
L 132.588675 363.581807 
L 133.937754 362.647627 
L 135.286833 364.604545 
L 136.635912 362.387893 
L 137.984991 364.780041 
L 139.33407 363.378771 
L 140.683149 362.960821 
L 142.032228 363.647686 
L 143.381307 363.819942 
L 144.730386 362.694066 
L 146.079465 364.986316 
L 147.428544 363.683325 
L 148.777623 362.99862 
L 150.126702 364.099116 
L 151.475781 363.409551 
L 152.82486 363.707084 
L 154.173939 363.562907 
L 155.523018 363.178436 
L 156.872097 361.757187 
L 158.221176 363.293993 
L 159.570255 363.823722 
L 162.268414 361.580071 
L 163.617493 363.161696 
L 164.966572 363.058018 
L 166.315651 363.946839 
L 167.66473 364.173094 
L 169.013809 361.900824 
L 170.362888 361.586551 
L 171.711967 362.486171 
L 173.061046 362.05742 
L 174.410125 363.142257 
L 175.759204 362.657887 
L 177.108283 361.801466 
L 178.457362 362.601188 
L 179.806441 362.745365 
L 181.15552 362.177838 
L 182.504599 362.488871 
L 183.853678 363.142797 
L 185.202757 362.99322 
L 186.551836 359.696052 
L 187.900915 362.451612 
L 189.249994 362.289075 
L 191.948152 362.894402 
L 193.297231 362.248576 
L 194.64631 363.213535 
L 195.995389 361.799306 
L 197.344468 361.230158 
L 198.693547 362.014761 
L 200.042626 361.765827 
L 201.391705 361.289557 
L 202.740784 360.449335 
L 204.089863 359.77651 
L 205.438942 362.08874 
L 208.1371 361.310077 
L 209.486179 360.744709 
L 210.835258 361.779326 
L 212.184337 360.891586 
L 213.533417 360.520074 
L 214.882496 362.317155 
L 216.231575 359.828349 
L 217.580654 360.415316 
L 218.929733 361.787966 
L 220.278812 361.530932 
L 221.627891 360.932625 
L 222.97697 362.259916 
L 224.326049 360.606472 
L 227.024207 359.860748 
L 228.373286 361.798766 
L 229.722365 360.040564 
L 231.071444 359.649073 
L 232.420523 361.534172 
L 233.769602 361.773927 
L 235.118681 362.930581 
L 236.46776 359.982786 
L 237.816839 359.670672 
L 239.165918 361.61895 
L 240.514997 359.145264 
L 241.864076 359.815929 
L 243.213155 359.837529 
L 244.562234 359.294301 
L 245.911313 361.937543 
L 247.260392 360.406136 
L 248.609471 361.026583 
L 249.95855 361.449394 
L 251.307629 361.119461 
L 252.656708 359.618834 
L 254.005787 359.949306 
L 255.354866 358.243484 
L 256.703945 361.553071 
L 258.053024 359.892068 
L 259.402103 358.022629 
L 260.751182 359.743031 
L 262.100261 357.375723 
L 263.44934 358.184625 
L 264.798419 360.355918 
L 267.496578 360.996884 
L 268.845657 358.651175 
L 270.194736 360.772248 
L 271.543815 360.653991 
L 272.892894 360.182581 
L 274.241973 359.506516 
L 275.591052 359.286741 
L 276.940131 357.51558 
L 279.638289 356.790375 
L 280.987368 359.703612 
L 283.685526 354.28969 
L 285.034605 358.679794 
L 286.383684 359.094505 
L 287.732763 358.947628 
L 289.081842 359.689572 
L 290.430921 355.879415 
L 291.78 359.164704 
L 293.129079 358.764572 
L 294.478158 357.917871 
L 295.827237 354.822118 
L 297.176316 355.092113 
L 298.525395 352.231255 
L 299.874474 355.18931 
L 301.223553 357.269345 
L 302.572632 350.745208 
L 303.921711 354.108794 
L 305.27079 356.236888 
L 306.619869 355.091573 
L 307.968948 353.664924 
L 309.318027 357.208326 
L 310.667106 354.618003 
L 312.016185 356.821155 
L 313.365264 354.910677 
L 314.714343 353.980277 
L 316.063422 353.892799 
L 317.412501 347.503118 
L 318.761581 350.586991 
L 320.11066 352.888961 
L 321.459739 351.979621 
L 322.808818 351.859203 
L 324.157897 346.186627 
L 325.506976 346.5225 
L 328.205134 355.466324 
L 329.554213 349.759189 
L 330.903292 348.078206 
L 332.252371 350.690129 
L 333.60145 347.554417 
L 334.950529 345.538101 
L 336.299608 347.174806 
L 337.648687 341.0319 
L 338.997766 348.385999 
L 340.346845 348.169464 
L 341.695924 335.949531 
L 343.045003 351.859743 
L 344.394082 343.214532 
L 345.743161 347.399441 
L 347.09224 338.343299 
L 348.441319 345.296727 
L 349.790398 342.128076 
L 351.139477 338.415657 
L 352.488556 338.30496 
L 353.837635 332.467687 
L 355.186714 330.591768 
L 356.535793 331.276473 
L 357.884872 325.4581 
L 359.233951 322.108014 
L 360.58303 294.158225 
L 361.932109 302.842315 
L 363.281188 301.896255 
L 364.630267 302.263987 
L 365.979346 291.761757 
L 367.328425 291.888654 
L 368.677504 302.292607 
L 370.026583 299.705523 
L 371.375663 288.807481 
L 372.724742 297.979181 
L 374.073821 298.258895 
L 375.4229 299.771942 
L 376.771979 296.749088 
L 378.121058 295.935866 
L 379.470137 296.162121 
L 380.819216 295.437997 
L 382.168295 293.731634 
L 383.517374 291.16345 
L 384.866453 293.330963 
L 386.215532 292.212647 
L 387.564611 294.498417 
L 388.91369 291.244988 
L 390.262769 289.853439 
L 391.611848 292.749395 
L 392.960927 288.523448 
L 394.310006 288.39439 
L 395.659085 287.802023 
L 397.008164 289.166034 
L 398.357243 286.326236 
L 399.706322 291.705058 
L 401.055401 285.244099 
L 403.753559 284.355279 
L 405.102638 283.159205 
L 406.451717 282.563598 
L 407.800796 282.657016 
L 409.149875 281.494961 
L 410.498954 276.925581 
L 411.848033 280.789737 
L 413.197112 279.24699 
L 414.546191 270.910113 
L 415.89527 274.167861 
L 417.244349 269.775057 
L 418.593428 268.681581 
L 419.942507 267.312711 
L 421.291586 261.229204 
L 422.640665 260.002351 
L 423.989745 254.821164 
L 425.338824 257.827279 
L 426.687903 251.314481 
L 428.036982 254.369734 
L 429.386061 243.102881 
L 430.73514 245.480989 
L 432.084219 246.191073 
L 433.433298 241.140563 
L 434.782377 237.6463 
L 436.131456 239.425021 
L 437.480535 234.343732 
L 438.829614 231.309538 
L 440.178693 229.780832 
L 441.527772 225.646682 
L 442.876851 222.305235 
L 444.22593 222.455892 
L 445.575009 219.299661 
L 446.924088 214.538585 
L 448.273167 214.985155 
L 449.622246 209.106304 
L 450.971325 206.648817 
L 452.320404 207.200685 
L 453.669483 201.133918 
L 455.018562 193.112933 
L 456.367641 198.714771 
L 457.71672 194.435364 
L 459.065799 192.602644 
L 460.414878 192.838619 
L 461.763957 183.600501 
L 463.113036 180.754223 
L 464.462115 179.771985 
L 465.811194 180.046839 
L 467.160273 166.27444 
L 468.509352 173.201408 
L 469.858431 161.67158 
L 471.20751 164.842931 
L 472.556589 166.539034 
L 473.905668 158.49645 
L 476.603827 152.932951 
L 477.952906 153.00045 
L 480.651064 147.267935 
L 482.000143 140.64984 
L 483.349222 138.83062 
L 484.698301 139.901956 
L 486.04738 126.279674 
L 487.396459 129.806337 
L 488.745538 130.13627 
L 490.094617 123.698531 
L 491.443696 120.921371 
L 492.792775 122.570495 
L 494.141854 70.694909 
L 495.490933 75.384707 
L 496.840012 72.144237 
L 498.189091 71.848864 
L 498.189091 71.848864 
" clip-path="url(#p03a0440eef)" style="fill: none; stroke: #2ca02c; stroke-width: 1.5; stroke-linecap: square"/>
   </g>
   <g id="patch_8">
    <path d="M 64.73 379.96 
L 64.73 55.968 
" style="fill: none; stroke: #000000; stroke-width: 0.8; stroke-linejoin: miter; stroke-linecap: square"/>
   </g>
   <g id="patch_9">
    <path d="M 518.83 379.96 
L 518.83 55.968 
" style="fill: none; stroke: #000000; stroke-width: 0.8; stroke-linejoin: miter; stroke-linecap: square"/>
   </g>
   <g id="patch_10">
    <path d="M 64.73 379.96 
L 518.83 379.96 
" style="fill: none; stroke: #000000; stroke-width: 0.8; stroke-linejoin: miter; stroke-linecap: square"/>
   </g>
   <g id="patch_11">
    <path d="M 64.73 55.968 
L 518.83 55.968 
" style="fill: none; stroke: #000000; stroke-width: 0.8; stroke-linejoin: miter; stroke-linecap: square"/>
   </g>
   <g id="text_29">
    <!-- [super] -->
    <g transform="translate(255.8175 27.572375) scale(0.2 -0.2)">
     <defs>
      <path id="DejaVuSans-5b" d="M 550 4863 
L 1875 4863 
L 1875 4416 
L 1125 4416 
L 1125 -397 
L 1875 -397 
L 1875 -844 
L 550 -844 
L 550 4863 
z
" transform="scale(0.015625)"/>
      <path id="DejaVuSans-5d" d="M 1947 4863 
L 1947 -844 
L 622 -844 
L 622 -397 
L 1369 -397 
L 1369 4416 
L 622 4416 
L 622 4863 
L 1947 4863 
z
" transform="scale(0.015625)"/>
     </defs>
     <use xlink:href="#DejaVuSans-5b"/>
     <use xlink:href="#DejaVuSans-73" x="39.013672"/>
     <use xlink:href="#DejaVuSans-75" x="91.113281"/>
     <use xlink:href="#DejaVuSans-70" x="154.492188"/>
     <use xlink:href="#DejaVuSans-65" x="217.96875"/>
     <use xlink:href="#DejaVuSans-72" x="279.492188"/>
     <use xlink:href="#DejaVuSans-5d" x="320.605469"/>
    </g>
    <!-- GPU-accel [0,M] with densenet201 -->
    <g transform="translate(118.59875 49.968) scale(0.2 -0.2)">
     <defs>
      <path id="DejaVuSans-50" d="M 1259 4147 
L 1259 2394 
L 2053 2394 
Q 2494 2394 2734 2622 
Q 2975 2850 2975 3272 
Q 2975 3691 2734 3919 
Q 2494 4147 2053 4147 
L 1259 4147 
z
M 628 4666 
L 2053 4666 
Q 2838 4666 3239 4311 
Q 3641 3956 3641 3272 
Q 3641 2581 3239 2228 
Q 2838 1875 2053 1875 
L 1259 1875 
L 1259 0 
L 628 0 
L 628 4666 
z
" transform="scale(0.015625)"/>
      <path id="DejaVuSans-55" d="M 556 4666 
L 1191 4666 
L 1191 1831 
Q 1191 1081 1462 751 
Q 1734 422 2344 422 
Q 2950 422 3222 751 
Q 3494 1081 3494 1831 
L 3494 4666 
L 4128 4666 
L 4128 1753 
Q 4128 841 3676 375 
Q 3225 -91 2344 -91 
Q 1459 -91 1007 375 
Q 556 841 556 1753 
L 556 4666 
z
" transform="scale(0.015625)"/>
      <path id="DejaVuSans-2d" d="M 313 2009 
L 1997 2009 
L 1997 1497 
L 313 1497 
L 313 2009 
z
" transform="scale(0.015625)"/>
      <path id="DejaVuSans-2c" d="M 750 794 
L 1409 794 
L 1409 256 
L 897 -744 
L 494 -744 
L 750 256 
L 750 794 
z
" transform="scale(0.015625)"/>
      <path id="DejaVuSans-77" d="M 269 3500 
L 844 3500 
L 1563 769 
L 2278 3500 
L 2956 3500 
L 3675 769 
L 4391 3500 
L 4966 3500 
L 4050 0 
L 3372 0 
L 2619 2869 
L 1863 0 
L 1184 0 
L 269 3500 
z
" transform="scale(0.015625)"/>
     </defs>
     <use xlink:href="#DejaVuSans-47"/>
     <use xlink:href="#DejaVuSans-50" x="77.490234"/>
     <use xlink:href="#DejaVuSans-55" x="137.792969"/>
     <use xlink:href="#DejaVuSans-2d" x="210.986328"/>
     <use xlink:href="#DejaVuSans-61" x="247.070312"/>
     <use xlink:href="#DejaVuSans-63" x="308.349609"/>
     <use xlink:href="#DejaVuSans-63" x="363.330078"/>
     <use xlink:href="#DejaVuSans-65" x="418.310547"/>
     <use xlink:href="#DejaVuSans-6c" x="479.833984"/>
     <use xlink:href="#DejaVuSans-20" x="507.617188"/>
     <use xlink:href="#DejaVuSans-5b" x="539.404297"/>
     <use xlink:href="#DejaVuSans-30" x="578.417969"/>
     <use xlink:href="#DejaVuSans-2c" x="642.041016"/>
     <use xlink:href="#DejaVuSans-4d" x="673.828125"/>
     <use xlink:href="#DejaVuSans-5d" x="760.107422"/>
     <use xlink:href="#DejaVuSans-20" x="799.121094"/>
     <use xlink:href="#DejaVuSans-77" x="830.908203"/>
     <use xlink:href="#DejaVuSans-69" x="912.695312"/>
     <use xlink:href="#DejaVuSans-74" x="940.478516"/>
     <use xlink:href="#DejaVuSans-68" x="979.6875"/>
     <use xlink:href="#DejaVuSans-20" x="1043.066406"/>
     <use xlink:href="#DejaVuSans-64" x="1074.853516"/>
     <use xlink:href="#DejaVuSans-65" x="1138.330078"/>
     <use xlink:href="#DejaVuSans-6e" x="1199.853516"/>
     <use xlink:href="#DejaVuSans-73" x="1263.232422"/>
     <use xlink:href="#DejaVuSans-65" x="1315.332031"/>
     <use xlink:href="#DejaVuSans-6e" x="1376.855469"/>
     <use xlink:href="#DejaVuSans-65" x="1440.234375"/>
     <use xlink:href="#DejaVuSans-74" x="1501.757812"/>
     <use xlink:href="#DejaVuSans-32" x="1540.966797"/>
     <use xlink:href="#DejaVuSans-30" x="1604.589844"/>
     <use xlink:href="#DejaVuSans-31" x="1668.212891"/>
    </g>
   </g>
   <g id="legend_2">
    <g id="patch_12">
     <path d="M 451.151875 78.646125 
L 511.83 78.646125 
Q 513.83 78.646125 513.83 76.646125 
L 513.83 62.968 
Q 513.83 60.968 511.83 60.968 
L 451.151875 60.968 
Q 449.151875 60.968 449.151875 62.968 
L 449.151875 76.646125 
Q 449.151875 78.646125 451.151875 78.646125 
z
" style="fill: #ffffff; opacity: 0.8; stroke: #cccccc; stroke-linejoin: miter"/>
    </g>
    <g id="line2d_43">
     <path d="M 453.151875 69.066438 
L 463.151875 69.066438 
L 473.151875 69.066438 
" style="fill: none; stroke: #2ca02c; stroke-width: 1.5; stroke-linecap: square"/>
    </g>
    <g id="text_30">
     <!-- Delay -->
     <g transform="translate(481.151875 72.566438) scale(0.1 -0.1)">
      <defs>
       <path id="DejaVuSans-44" d="M 1259 4147 
L 1259 519 
L 2022 519 
Q 2988 519 3436 956 
Q 3884 1394 3884 2338 
Q 3884 3275 3436 3711 
Q 2988 4147 2022 4147 
L 1259 4147 
z
M 628 4666 
L 1925 4666 
Q 3281 4666 3915 4102 
Q 4550 3538 4550 2338 
Q 4550 1131 3912 565 
Q 3275 0 1925 0 
L 628 0 
L 628 4666 
z
" transform="scale(0.015625)"/>
      </defs>
      <use xlink:href="#DejaVuSans-44"/>
      <use xlink:href="#DejaVuSans-65" x="77.001953"/>
      <use xlink:href="#DejaVuSans-6c" x="138.525391"/>
      <use xlink:href="#DejaVuSans-61" x="166.308594"/>
      <use xlink:href="#DejaVuSans-79" x="227.587891"/>
     </g>
    </g>
   </g>
  </g>
 </g>
 <defs>
  <clipPath id="p03a0440eef">
   <rect x="64.73" y="55.968" width="454.1" height="323.992"/>
  </clipPath>
 </defs>
</svg>
