<?xml version="1.0" encoding="utf-8" standalone="no"?>
<!DOCTYPE svg PUBLIC "-//W3C//DTD SVG 1.1//EN"
  "http://www.w3.org/Graphics/SVG/1.1/DTD/svg11.dtd">
<svg xmlns:xlink="http://www.w3.org/1999/xlink" width="576pt" height="432pt" viewBox="0 0 576 432" xmlns="http://www.w3.org/2000/svg" version="1.1">
 <metadata>
  <rdf:RDF xmlns:dc="http://purl.org/dc/elements/1.1/" xmlns:cc="http://creativecommons.org/ns#" xmlns:rdf="http://www.w3.org/1999/02/22-rdf-syntax-ns#">
   <cc:Work>
    <dc:type rdf:resource="http://purl.org/dc/dcmitype/StillImage"/>
    <dc:date>2025-01-16T17:24:52.386361</dc:date>
    <dc:format>image/svg+xml</dc:format>
    <dc:creator>
     <cc:Agent>
      <dc:title>Matplotlib v3.7.5, https://matplotlib.org/</dc:title>
     </cc:Agent>
    </dc:creator>
   </cc:Work>
  </rdf:RDF>
 </metadata>
 <defs>
  <style type="text/css">*{stroke-linejoin: round; stroke-linecap: butt}</style>
 </defs>
 <g id="figure_1">
  <g id="patch_1">
   <path d="M 0 432 
L 576 432 
L 576 0 
L 0 0 
z
" style="fill: #ffffff"/>
  </g>
  <g id="axes_1">
   <g id="patch_2">
    <path d="M 57.17 379.96 
L 511.27 379.96 
L 511.27 55.968 
L 57.17 55.968 
z
" style="fill: #ffffff"/>
   </g>
   <g id="matplotlib.axis_1">
    <g id="xtick_1">
     <g id="line2d_1">
      <path d="M 77.810909 379.96 
L 77.810909 55.968 
" clip-path="url(#p898ffe12af)" style="fill: none; stroke-dasharray: 1.85,0.8; stroke-dashoffset: 0; stroke: #b0b0b0; stroke-opacity: 0.7; stroke-width: 0.5"/>
     </g>
     <g id="line2d_2">
      <defs>
       <path id="mca56f90f30" d="M 0 0 
L 0 3.5 
" style="stroke: #000000; stroke-width: 0.8"/>
      </defs>
      <g>
       <use xlink:href="#mca56f90f30" x="77.810909" y="379.96" style="stroke: #000000; stroke-width: 0.8"/>
      </g>
     </g>
     <g id="text_1">
      <!-- 0 -->
      <g transform="translate(74.629659 394.558437) scale(0.1 -0.1)">
       <defs>
        <path id="DejaVuSans-30" d="M 2034 4250 
Q 1547 4250 1301 3770 
Q 1056 3291 1056 2328 
Q 1056 1369 1301 889 
Q 1547 409 2034 409 
Q 2525 409 2770 889 
Q 3016 1369 3016 2328 
Q 3016 3291 2770 3770 
Q 2525 4250 2034 4250 
z
M 2034 4750 
Q 2819 4750 3233 4129 
Q 3647 3509 3647 2328 
Q 3647 1150 3233 529 
Q 2819 -91 2034 -91 
Q 1250 -91 836 529 
Q 422 1150 422 2328 
Q 422 3509 836 4129 
Q 1250 4750 2034 4750 
z
" transform="scale(0.015625)"/>
       </defs>
       <use xlink:href="#DejaVuSans-30"/>
      </g>
     </g>
    </g>
    <g id="xtick_2">
     <g id="line2d_3">
      <path d="M 145.26486 379.96 
L 145.26486 55.968 
" clip-path="url(#p898ffe12af)" style="fill: none; stroke-dasharray: 1.85,0.8; stroke-dashoffset: 0; stroke: #b0b0b0; stroke-opacity: 0.7; stroke-width: 0.5"/>
     </g>
     <g id="line2d_4">
      <g>
       <use xlink:href="#mca56f90f30" x="145.26486" y="379.96" style="stroke: #000000; stroke-width: 0.8"/>
      </g>
     </g>
     <g id="text_2">
      <!-- 50 -->
      <g transform="translate(138.90236 394.558437) scale(0.1 -0.1)">
       <defs>
        <path id="DejaVuSans-35" d="M 691 4666 
L 3169 4666 
L 3169 4134 
L 1269 4134 
L 1269 2991 
Q 1406 3038 1543 3061 
Q 1681 3084 1819 3084 
Q 2600 3084 3056 2656 
Q 3513 2228 3513 1497 
Q 3513 744 3044 326 
Q 2575 -91 1722 -91 
Q 1428 -91 1123 -41 
Q 819 9 494 109 
L 494 744 
Q 775 591 1075 516 
Q 1375 441 1709 441 
Q 2250 441 2565 725 
Q 2881 1009 2881 1497 
Q 2881 1984 2565 2268 
Q 2250 2553 1709 2553 
Q 1456 2553 1204 2497 
Q 953 2441 691 2322 
L 691 4666 
z
" transform="scale(0.015625)"/>
       </defs>
       <use xlink:href="#DejaVuSans-35"/>
       <use xlink:href="#DejaVuSans-30" x="63.623047"/>
      </g>
     </g>
    </g>
    <g id="xtick_3">
     <g id="line2d_5">
      <path d="M 212.718812 379.96 
L 212.718812 55.968 
" clip-path="url(#p898ffe12af)" style="fill: none; stroke-dasharray: 1.85,0.8; stroke-dashoffset: 0; stroke: #b0b0b0; stroke-opacity: 0.7; stroke-width: 0.5"/>
     </g>
     <g id="line2d_6">
      <g>
       <use xlink:href="#mca56f90f30" x="212.718812" y="379.96" style="stroke: #000000; stroke-width: 0.8"/>
      </g>
     </g>
     <g id="text_3">
      <!-- 100 -->
      <g transform="translate(203.175062 394.558437) scale(0.1 -0.1)">
       <defs>
        <path id="DejaVuSans-31" d="M 794 531 
L 1825 531 
L 1825 4091 
L 703 3866 
L 703 4441 
L 1819 4666 
L 2450 4666 
L 2450 531 
L 3481 531 
L 3481 0 
L 794 0 
L 794 531 
z
" transform="scale(0.015625)"/>
       </defs>
       <use xlink:href="#DejaVuSans-31"/>
       <use xlink:href="#DejaVuSans-30" x="63.623047"/>
       <use xlink:href="#DejaVuSans-30" x="127.246094"/>
      </g>
     </g>
    </g>
    <g id="xtick_4">
     <g id="line2d_7">
      <path d="M 280.172763 379.96 
L 280.172763 55.968 
" clip-path="url(#p898ffe12af)" style="fill: none; stroke-dasharray: 1.85,0.8; stroke-dashoffset: 0; stroke: #b0b0b0; stroke-opacity: 0.7; stroke-width: 0.5"/>
     </g>
     <g id="line2d_8">
      <g>
       <use xlink:href="#mca56f90f30" x="280.172763" y="379.96" style="stroke: #000000; stroke-width: 0.8"/>
      </g>
     </g>
     <g id="text_4">
      <!-- 150 -->
      <g transform="translate(270.629013 394.558437) scale(0.1 -0.1)">
       <use xlink:href="#DejaVuSans-31"/>
       <use xlink:href="#DejaVuSans-35" x="63.623047"/>
       <use xlink:href="#DejaVuSans-30" x="127.246094"/>
      </g>
     </g>
    </g>
    <g id="xtick_5">
     <g id="line2d_9">
      <path d="M 347.626714 379.96 
L 347.626714 55.968 
" clip-path="url(#p898ffe12af)" style="fill: none; stroke-dasharray: 1.85,0.8; stroke-dashoffset: 0; stroke: #b0b0b0; stroke-opacity: 0.7; stroke-width: 0.5"/>
     </g>
     <g id="line2d_10">
      <g>
       <use xlink:href="#mca56f90f30" x="347.626714" y="379.96" style="stroke: #000000; stroke-width: 0.8"/>
      </g>
     </g>
     <g id="text_5">
      <!-- 200 -->
      <g transform="translate(338.082964 394.558437) scale(0.1 -0.1)">
       <defs>
        <path id="DejaVuSans-32" d="M 1228 531 
L 3431 531 
L 3431 0 
L 469 0 
L 469 531 
Q 828 903 1448 1529 
Q 2069 2156 2228 2338 
Q 2531 2678 2651 2914 
Q 2772 3150 2772 3378 
Q 2772 3750 2511 3984 
Q 2250 4219 1831 4219 
Q 1534 4219 1204 4116 
Q 875 4013 500 3803 
L 500 4441 
Q 881 4594 1212 4672 
Q 1544 4750 1819 4750 
Q 2544 4750 2975 4387 
Q 3406 4025 3406 3419 
Q 3406 3131 3298 2873 
Q 3191 2616 2906 2266 
Q 2828 2175 2409 1742 
Q 1991 1309 1228 531 
z
" transform="scale(0.015625)"/>
       </defs>
       <use xlink:href="#DejaVuSans-32"/>
       <use xlink:href="#DejaVuSans-30" x="63.623047"/>
       <use xlink:href="#DejaVuSans-30" x="127.246094"/>
      </g>
     </g>
    </g>
    <g id="xtick_6">
     <g id="line2d_11">
      <path d="M 415.080665 379.96 
L 415.080665 55.968 
" clip-path="url(#p898ffe12af)" style="fill: none; stroke-dasharray: 1.85,0.8; stroke-dashoffset: 0; stroke: #b0b0b0; stroke-opacity: 0.7; stroke-width: 0.5"/>
     </g>
     <g id="line2d_12">
      <g>
       <use xlink:href="#mca56f90f30" x="415.080665" y="379.96" style="stroke: #000000; stroke-width: 0.8"/>
      </g>
     </g>
     <g id="text_6">
      <!-- 250 -->
      <g transform="translate(405.536915 394.558437) scale(0.1 -0.1)">
       <use xlink:href="#DejaVuSans-32"/>
       <use xlink:href="#DejaVuSans-35" x="63.623047"/>
       <use xlink:href="#DejaVuSans-30" x="127.246094"/>
      </g>
     </g>
    </g>
    <g id="xtick_7">
     <g id="line2d_13">
      <path d="M 482.534617 379.96 
L 482.534617 55.968 
" clip-path="url(#p898ffe12af)" style="fill: none; stroke-dasharray: 1.85,0.8; stroke-dashoffset: 0; stroke: #b0b0b0; stroke-opacity: 0.7; stroke-width: 0.5"/>
     </g>
     <g id="line2d_14">
      <g>
       <use xlink:href="#mca56f90f30" x="482.534617" y="379.96" style="stroke: #000000; stroke-width: 0.8"/>
      </g>
     </g>
     <g id="text_7">
      <!-- 300 -->
      <g transform="translate(472.990867 394.558437) scale(0.1 -0.1)">
       <defs>
        <path id="DejaVuSans-33" d="M 2597 2516 
Q 3050 2419 3304 2112 
Q 3559 1806 3559 1356 
Q 3559 666 3084 287 
Q 2609 -91 1734 -91 
Q 1441 -91 1130 -33 
Q 819 25 488 141 
L 488 750 
Q 750 597 1062 519 
Q 1375 441 1716 441 
Q 2309 441 2620 675 
Q 2931 909 2931 1356 
Q 2931 1769 2642 2001 
Q 2353 2234 1838 2234 
L 1294 2234 
L 1294 2753 
L 1863 2753 
Q 2328 2753 2575 2939 
Q 2822 3125 2822 3475 
Q 2822 3834 2567 4026 
Q 2313 4219 1838 4219 
Q 1578 4219 1281 4162 
Q 984 4106 628 3988 
L 628 4550 
Q 988 4650 1302 4700 
Q 1616 4750 1894 4750 
Q 2613 4750 3031 4423 
Q 3450 4097 3450 3541 
Q 3450 3153 3228 2886 
Q 3006 2619 2597 2516 
z
" transform="scale(0.015625)"/>
       </defs>
       <use xlink:href="#DejaVuSans-33"/>
       <use xlink:href="#DejaVuSans-30" x="63.623047"/>
       <use xlink:href="#DejaVuSans-30" x="127.246094"/>
      </g>
     </g>
    </g>
    <g id="text_8">
     <!-- Number of Accelerated Layers -->
     <g transform="translate(132.374688 415.835) scale(0.2 -0.2)">
      <defs>
       <path id="DejaVuSans-4e" d="M 628 4666 
L 1478 4666 
L 3547 763 
L 3547 4666 
L 4159 4666 
L 4159 0 
L 3309 0 
L 1241 3903 
L 1241 0 
L 628 0 
L 628 4666 
z
" transform="scale(0.015625)"/>
       <path id="DejaVuSans-75" d="M 544 1381 
L 544 3500 
L 1119 3500 
L 1119 1403 
Q 1119 906 1312 657 
Q 1506 409 1894 409 
Q 2359 409 2629 706 
Q 2900 1003 2900 1516 
L 2900 3500 
L 3475 3500 
L 3475 0 
L 2900 0 
L 2900 538 
Q 2691 219 2414 64 
Q 2138 -91 1772 -91 
Q 1169 -91 856 284 
Q 544 659 544 1381 
z
M 1991 3584 
L 1991 3584 
z
" transform="scale(0.015625)"/>
       <path id="DejaVuSans-6d" d="M 3328 2828 
Q 3544 3216 3844 3400 
Q 4144 3584 4550 3584 
Q 5097 3584 5394 3201 
Q 5691 2819 5691 2113 
L 5691 0 
L 5113 0 
L 5113 2094 
Q 5113 2597 4934 2840 
Q 4756 3084 4391 3084 
Q 3944 3084 3684 2787 
Q 3425 2491 3425 1978 
L 3425 0 
L 2847 0 
L 2847 2094 
Q 2847 2600 2669 2842 
Q 2491 3084 2119 3084 
Q 1678 3084 1418 2786 
Q 1159 2488 1159 1978 
L 1159 0 
L 581 0 
L 581 3500 
L 1159 3500 
L 1159 2956 
Q 1356 3278 1631 3431 
Q 1906 3584 2284 3584 
Q 2666 3584 2933 3390 
Q 3200 3197 3328 2828 
z
" transform="scale(0.015625)"/>
       <path id="DejaVuSans-62" d="M 3116 1747 
Q 3116 2381 2855 2742 
Q 2594 3103 2138 3103 
Q 1681 3103 1420 2742 
Q 1159 2381 1159 1747 
Q 1159 1113 1420 752 
Q 1681 391 2138 391 
Q 2594 391 2855 752 
Q 3116 1113 3116 1747 
z
M 1159 2969 
Q 1341 3281 1617 3432 
Q 1894 3584 2278 3584 
Q 2916 3584 3314 3078 
Q 3713 2572 3713 1747 
Q 3713 922 3314 415 
Q 2916 -91 2278 -91 
Q 1894 -91 1617 61 
Q 1341 213 1159 525 
L 1159 0 
L 581 0 
L 581 4863 
L 1159 4863 
L 1159 2969 
z
" transform="scale(0.015625)"/>
       <path id="DejaVuSans-65" d="M 3597 1894 
L 3597 1613 
L 953 1613 
Q 991 1019 1311 708 
Q 1631 397 2203 397 
Q 2534 397 2845 478 
Q 3156 559 3463 722 
L 3463 178 
Q 3153 47 2828 -22 
Q 2503 -91 2169 -91 
Q 1331 -91 842 396 
Q 353 884 353 1716 
Q 353 2575 817 3079 
Q 1281 3584 2069 3584 
Q 2775 3584 3186 3129 
Q 3597 2675 3597 1894 
z
M 3022 2063 
Q 3016 2534 2758 2815 
Q 2500 3097 2075 3097 
Q 1594 3097 1305 2825 
Q 1016 2553 972 2059 
L 3022 2063 
z
" transform="scale(0.015625)"/>
       <path id="DejaVuSans-72" d="M 2631 2963 
Q 2534 3019 2420 3045 
Q 2306 3072 2169 3072 
Q 1681 3072 1420 2755 
Q 1159 2438 1159 1844 
L 1159 0 
L 581 0 
L 581 3500 
L 1159 3500 
L 1159 2956 
Q 1341 3275 1631 3429 
Q 1922 3584 2338 3584 
Q 2397 3584 2469 3576 
Q 2541 3569 2628 3553 
L 2631 2963 
z
" transform="scale(0.015625)"/>
       <path id="DejaVuSans-20" transform="scale(0.015625)"/>
       <path id="DejaVuSans-6f" d="M 1959 3097 
Q 1497 3097 1228 2736 
Q 959 2375 959 1747 
Q 959 1119 1226 758 
Q 1494 397 1959 397 
Q 2419 397 2687 759 
Q 2956 1122 2956 1747 
Q 2956 2369 2687 2733 
Q 2419 3097 1959 3097 
z
M 1959 3584 
Q 2709 3584 3137 3096 
Q 3566 2609 3566 1747 
Q 3566 888 3137 398 
Q 2709 -91 1959 -91 
Q 1206 -91 779 398 
Q 353 888 353 1747 
Q 353 2609 779 3096 
Q 1206 3584 1959 3584 
z
" transform="scale(0.015625)"/>
       <path id="DejaVuSans-66" d="M 2375 4863 
L 2375 4384 
L 1825 4384 
Q 1516 4384 1395 4259 
Q 1275 4134 1275 3809 
L 1275 3500 
L 2222 3500 
L 2222 3053 
L 1275 3053 
L 1275 0 
L 697 0 
L 697 3053 
L 147 3053 
L 147 3500 
L 697 3500 
L 697 3744 
Q 697 4328 969 4595 
Q 1241 4863 1831 4863 
L 2375 4863 
z
" transform="scale(0.015625)"/>
       <path id="DejaVuSans-41" d="M 2188 4044 
L 1331 1722 
L 3047 1722 
L 2188 4044 
z
M 1831 4666 
L 2547 4666 
L 4325 0 
L 3669 0 
L 3244 1197 
L 1141 1197 
L 716 0 
L 50 0 
L 1831 4666 
z
" transform="scale(0.015625)"/>
       <path id="DejaVuSans-63" d="M 3122 3366 
L 3122 2828 
Q 2878 2963 2633 3030 
Q 2388 3097 2138 3097 
Q 1578 3097 1268 2742 
Q 959 2388 959 1747 
Q 959 1106 1268 751 
Q 1578 397 2138 397 
Q 2388 397 2633 464 
Q 2878 531 3122 666 
L 3122 134 
Q 2881 22 2623 -34 
Q 2366 -91 2075 -91 
Q 1284 -91 818 406 
Q 353 903 353 1747 
Q 353 2603 823 3093 
Q 1294 3584 2113 3584 
Q 2378 3584 2631 3529 
Q 2884 3475 3122 3366 
z
" transform="scale(0.015625)"/>
       <path id="DejaVuSans-6c" d="M 603 4863 
L 1178 4863 
L 1178 0 
L 603 0 
L 603 4863 
z
" transform="scale(0.015625)"/>
       <path id="DejaVuSans-61" d="M 2194 1759 
Q 1497 1759 1228 1600 
Q 959 1441 959 1056 
Q 959 750 1161 570 
Q 1363 391 1709 391 
Q 2188 391 2477 730 
Q 2766 1069 2766 1631 
L 2766 1759 
L 2194 1759 
z
M 3341 1997 
L 3341 0 
L 2766 0 
L 2766 531 
Q 2569 213 2275 61 
Q 1981 -91 1556 -91 
Q 1019 -91 701 211 
Q 384 513 384 1019 
Q 384 1609 779 1909 
Q 1175 2209 1959 2209 
L 2766 2209 
L 2766 2266 
Q 2766 2663 2505 2880 
Q 2244 3097 1772 3097 
Q 1472 3097 1187 3025 
Q 903 2953 641 2809 
L 641 3341 
Q 956 3463 1253 3523 
Q 1550 3584 1831 3584 
Q 2591 3584 2966 3190 
Q 3341 2797 3341 1997 
z
" transform="scale(0.015625)"/>
       <path id="DejaVuSans-74" d="M 1172 4494 
L 1172 3500 
L 2356 3500 
L 2356 3053 
L 1172 3053 
L 1172 1153 
Q 1172 725 1289 603 
Q 1406 481 1766 481 
L 2356 481 
L 2356 0 
L 1766 0 
Q 1100 0 847 248 
Q 594 497 594 1153 
L 594 3053 
L 172 3053 
L 172 3500 
L 594 3500 
L 594 4494 
L 1172 4494 
z
" transform="scale(0.015625)"/>
       <path id="DejaVuSans-64" d="M 2906 2969 
L 2906 4863 
L 3481 4863 
L 3481 0 
L 2906 0 
L 2906 525 
Q 2725 213 2448 61 
Q 2172 -91 1784 -91 
Q 1150 -91 751 415 
Q 353 922 353 1747 
Q 353 2572 751 3078 
Q 1150 3584 1784 3584 
Q 2172 3584 2448 3432 
Q 2725 3281 2906 2969 
z
M 947 1747 
Q 947 1113 1208 752 
Q 1469 391 1925 391 
Q 2381 391 2643 752 
Q 2906 1113 2906 1747 
Q 2906 2381 2643 2742 
Q 2381 3103 1925 3103 
Q 1469 3103 1208 2742 
Q 947 2381 947 1747 
z
" transform="scale(0.015625)"/>
       <path id="DejaVuSans-4c" d="M 628 4666 
L 1259 4666 
L 1259 531 
L 3531 531 
L 3531 0 
L 628 0 
L 628 4666 
z
" transform="scale(0.015625)"/>
       <path id="DejaVuSans-79" d="M 2059 -325 
Q 1816 -950 1584 -1140 
Q 1353 -1331 966 -1331 
L 506 -1331 
L 506 -850 
L 844 -850 
Q 1081 -850 1212 -737 
Q 1344 -625 1503 -206 
L 1606 56 
L 191 3500 
L 800 3500 
L 1894 763 
L 2988 3500 
L 3597 3500 
L 2059 -325 
z
" transform="scale(0.015625)"/>
       <path id="DejaVuSans-73" d="M 2834 3397 
L 2834 2853 
Q 2591 2978 2328 3040 
Q 2066 3103 1784 3103 
Q 1356 3103 1142 2972 
Q 928 2841 928 2578 
Q 928 2378 1081 2264 
Q 1234 2150 1697 2047 
L 1894 2003 
Q 2506 1872 2764 1633 
Q 3022 1394 3022 966 
Q 3022 478 2636 193 
Q 2250 -91 1575 -91 
Q 1294 -91 989 -36 
Q 684 19 347 128 
L 347 722 
Q 666 556 975 473 
Q 1284 391 1588 391 
Q 1994 391 2212 530 
Q 2431 669 2431 922 
Q 2431 1156 2273 1281 
Q 2116 1406 1581 1522 
L 1381 1569 
Q 847 1681 609 1914 
Q 372 2147 372 2553 
Q 372 3047 722 3315 
Q 1072 3584 1716 3584 
Q 2034 3584 2315 3537 
Q 2597 3491 2834 3397 
z
" transform="scale(0.015625)"/>
      </defs>
      <use xlink:href="#DejaVuSans-4e"/>
      <use xlink:href="#DejaVuSans-75" x="74.804688"/>
      <use xlink:href="#DejaVuSans-6d" x="138.183594"/>
      <use xlink:href="#DejaVuSans-62" x="235.595703"/>
      <use xlink:href="#DejaVuSans-65" x="299.072266"/>
      <use xlink:href="#DejaVuSans-72" x="360.595703"/>
      <use xlink:href="#DejaVuSans-20" x="401.708984"/>
      <use xlink:href="#DejaVuSans-6f" x="433.496094"/>
      <use xlink:href="#DejaVuSans-66" x="494.677734"/>
      <use xlink:href="#DejaVuSans-20" x="529.882812"/>
      <use xlink:href="#DejaVuSans-41" x="561.669922"/>
      <use xlink:href="#DejaVuSans-63" x="628.328125"/>
      <use xlink:href="#DejaVuSans-63" x="683.308594"/>
      <use xlink:href="#DejaVuSans-65" x="738.289062"/>
      <use xlink:href="#DejaVuSans-6c" x="799.8125"/>
      <use xlink:href="#DejaVuSans-65" x="827.595703"/>
      <use xlink:href="#DejaVuSans-72" x="889.119141"/>
      <use xlink:href="#DejaVuSans-61" x="930.232422"/>
      <use xlink:href="#DejaVuSans-74" x="991.511719"/>
      <use xlink:href="#DejaVuSans-65" x="1030.720703"/>
      <use xlink:href="#DejaVuSans-64" x="1092.244141"/>
      <use xlink:href="#DejaVuSans-20" x="1155.720703"/>
      <use xlink:href="#DejaVuSans-4c" x="1187.507812"/>
      <use xlink:href="#DejaVuSans-61" x="1243.220703"/>
      <use xlink:href="#DejaVuSans-79" x="1304.5"/>
      <use xlink:href="#DejaVuSans-65" x="1363.679688"/>
      <use xlink:href="#DejaVuSans-72" x="1425.203125"/>
      <use xlink:href="#DejaVuSans-73" x="1466.316406"/>
     </g>
    </g>
   </g>
   <g id="matplotlib.axis_2">
    <g id="ytick_1">
     <g id="line2d_15">
      <path d="M 57.17 366.041201 
L 511.27 366.041201 
" clip-path="url(#p898ffe12af)" style="fill: none; stroke-dasharray: 1.85,0.8; stroke-dashoffset: 0; stroke: #b0b0b0; stroke-opacity: 0.7; stroke-width: 0.5"/>
     </g>
     <g id="line2d_16">
      <defs>
       <path id="mdc69efd3cf" d="M 0 0 
L -3.5 0 
" style="stroke: #000000; stroke-width: 0.8"/>
      </defs>
      <g>
       <use xlink:href="#mdc69efd3cf" x="57.17" y="366.041201" style="stroke: #000000; stroke-width: 0.8"/>
      </g>
     </g>
     <g id="text_9">
      <!-- 5 -->
      <g style="fill: #d62728" transform="translate(42.535 370.600264) scale(0.12 -0.12)">
       <use xlink:href="#DejaVuSans-35"/>
      </g>
     </g>
    </g>
    <g id="ytick_2">
     <g id="line2d_17">
      <path d="M 57.17 316.421205 
L 511.27 316.421205 
" clip-path="url(#p898ffe12af)" style="fill: none; stroke-dasharray: 1.85,0.8; stroke-dashoffset: 0; stroke: #b0b0b0; stroke-opacity: 0.7; stroke-width: 0.5"/>
     </g>
     <g id="line2d_18">
      <g>
       <use xlink:href="#mdc69efd3cf" x="57.17" y="316.421205" style="stroke: #000000; stroke-width: 0.8"/>
      </g>
     </g>
     <g id="text_10">
      <!-- 10 -->
      <g style="fill: #d62728" transform="translate(34.9 320.980267) scale(0.12 -0.12)">
       <use xlink:href="#DejaVuSans-31"/>
       <use xlink:href="#DejaVuSans-30" x="63.623047"/>
      </g>
     </g>
    </g>
    <g id="ytick_3">
     <g id="line2d_19">
      <path d="M 57.17 266.801209 
L 511.27 266.801209 
" clip-path="url(#p898ffe12af)" style="fill: none; stroke-dasharray: 1.85,0.8; stroke-dashoffset: 0; stroke: #b0b0b0; stroke-opacity: 0.7; stroke-width: 0.5"/>
     </g>
     <g id="line2d_20">
      <g>
       <use xlink:href="#mdc69efd3cf" x="57.17" y="266.801209" style="stroke: #000000; stroke-width: 0.8"/>
      </g>
     </g>
     <g id="text_11">
      <!-- 15 -->
      <g style="fill: #d62728" transform="translate(34.9 271.360271) scale(0.12 -0.12)">
       <use xlink:href="#DejaVuSans-31"/>
       <use xlink:href="#DejaVuSans-35" x="63.623047"/>
      </g>
     </g>
    </g>
    <g id="ytick_4">
     <g id="line2d_21">
      <path d="M 57.17 217.181212 
L 511.27 217.181212 
" clip-path="url(#p898ffe12af)" style="fill: none; stroke-dasharray: 1.85,0.8; stroke-dashoffset: 0; stroke: #b0b0b0; stroke-opacity: 0.7; stroke-width: 0.5"/>
     </g>
     <g id="line2d_22">
      <g>
       <use xlink:href="#mdc69efd3cf" x="57.17" y="217.181212" style="stroke: #000000; stroke-width: 0.8"/>
      </g>
     </g>
     <g id="text_12">
      <!-- 20 -->
      <g style="fill: #d62728" transform="translate(34.9 221.740275) scale(0.12 -0.12)">
       <use xlink:href="#DejaVuSans-32"/>
       <use xlink:href="#DejaVuSans-30" x="63.623047"/>
      </g>
     </g>
    </g>
    <g id="ytick_5">
     <g id="line2d_23">
      <path d="M 57.17 167.561216 
L 511.27 167.561216 
" clip-path="url(#p898ffe12af)" style="fill: none; stroke-dasharray: 1.85,0.8; stroke-dashoffset: 0; stroke: #b0b0b0; stroke-opacity: 0.7; stroke-width: 0.5"/>
     </g>
     <g id="line2d_24">
      <g>
       <use xlink:href="#mdc69efd3cf" x="57.17" y="167.561216" style="stroke: #000000; stroke-width: 0.8"/>
      </g>
     </g>
     <g id="text_13">
      <!-- 25 -->
      <g style="fill: #d62728" transform="translate(34.9 172.120278) scale(0.12 -0.12)">
       <use xlink:href="#DejaVuSans-32"/>
       <use xlink:href="#DejaVuSans-35" x="63.623047"/>
      </g>
     </g>
    </g>
    <g id="ytick_6">
     <g id="line2d_25">
      <path d="M 57.17 117.94122 
L 511.27 117.94122 
" clip-path="url(#p898ffe12af)" style="fill: none; stroke-dasharray: 1.85,0.8; stroke-dashoffset: 0; stroke: #b0b0b0; stroke-opacity: 0.7; stroke-width: 0.5"/>
     </g>
     <g id="line2d_26">
      <g>
       <use xlink:href="#mdc69efd3cf" x="57.17" y="117.94122" style="stroke: #000000; stroke-width: 0.8"/>
      </g>
     </g>
     <g id="text_14">
      <!-- 30 -->
      <g style="fill: #d62728" transform="translate(34.9 122.500282) scale(0.12 -0.12)">
       <use xlink:href="#DejaVuSans-33"/>
       <use xlink:href="#DejaVuSans-30" x="63.623047"/>
      </g>
     </g>
    </g>
    <g id="ytick_7">
     <g id="line2d_27">
      <path d="M 57.17 68.321223 
L 511.27 68.321223 
" clip-path="url(#p898ffe12af)" style="fill: none; stroke-dasharray: 1.85,0.8; stroke-dashoffset: 0; stroke: #b0b0b0; stroke-opacity: 0.7; stroke-width: 0.5"/>
     </g>
     <g id="line2d_28">
      <g>
       <use xlink:href="#mdc69efd3cf" x="57.17" y="68.321223" style="stroke: #000000; stroke-width: 0.8"/>
      </g>
     </g>
     <g id="text_15">
      <!-- 35 -->
      <g style="fill: #d62728" transform="translate(34.9 72.880286) scale(0.12 -0.12)">
       <use xlink:href="#DejaVuSans-33"/>
       <use xlink:href="#DejaVuSans-35" x="63.623047"/>
      </g>
     </g>
    </g>
    <g id="text_16">
     <!-- Throughput (task/ms) -->
     <g style="fill: #d62728" transform="translate(26.740625 326.392125) rotate(-90) scale(0.2 -0.2)">
      <defs>
       <path id="DejaVuSans-54" d="M -19 4666 
L 3928 4666 
L 3928 4134 
L 2272 4134 
L 2272 0 
L 1638 0 
L 1638 4134 
L -19 4134 
L -19 4666 
z
" transform="scale(0.015625)"/>
       <path id="DejaVuSans-68" d="M 3513 2113 
L 3513 0 
L 2938 0 
L 2938 2094 
Q 2938 2591 2744 2837 
Q 2550 3084 2163 3084 
Q 1697 3084 1428 2787 
Q 1159 2491 1159 1978 
L 1159 0 
L 581 0 
L 581 4863 
L 1159 4863 
L 1159 2956 
Q 1366 3272 1645 3428 
Q 1925 3584 2291 3584 
Q 2894 3584 3203 3211 
Q 3513 2838 3513 2113 
z
" transform="scale(0.015625)"/>
       <path id="DejaVuSans-67" d="M 2906 1791 
Q 2906 2416 2648 2759 
Q 2391 3103 1925 3103 
Q 1463 3103 1205 2759 
Q 947 2416 947 1791 
Q 947 1169 1205 825 
Q 1463 481 1925 481 
Q 2391 481 2648 825 
Q 2906 1169 2906 1791 
z
M 3481 434 
Q 3481 -459 3084 -895 
Q 2688 -1331 1869 -1331 
Q 1566 -1331 1297 -1286 
Q 1028 -1241 775 -1147 
L 775 -588 
Q 1028 -725 1275 -790 
Q 1522 -856 1778 -856 
Q 2344 -856 2625 -561 
Q 2906 -266 2906 331 
L 2906 616 
Q 2728 306 2450 153 
Q 2172 0 1784 0 
Q 1141 0 747 490 
Q 353 981 353 1791 
Q 353 2603 747 3093 
Q 1141 3584 1784 3584 
Q 2172 3584 2450 3431 
Q 2728 3278 2906 2969 
L 2906 3500 
L 3481 3500 
L 3481 434 
z
" transform="scale(0.015625)"/>
       <path id="DejaVuSans-70" d="M 1159 525 
L 1159 -1331 
L 581 -1331 
L 581 3500 
L 1159 3500 
L 1159 2969 
Q 1341 3281 1617 3432 
Q 1894 3584 2278 3584 
Q 2916 3584 3314 3078 
Q 3713 2572 3713 1747 
Q 3713 922 3314 415 
Q 2916 -91 2278 -91 
Q 1894 -91 1617 61 
Q 1341 213 1159 525 
z
M 3116 1747 
Q 3116 2381 2855 2742 
Q 2594 3103 2138 3103 
Q 1681 3103 1420 2742 
Q 1159 2381 1159 1747 
Q 1159 1113 1420 752 
Q 1681 391 2138 391 
Q 2594 391 2855 752 
Q 3116 1113 3116 1747 
z
" transform="scale(0.015625)"/>
       <path id="DejaVuSans-28" d="M 1984 4856 
Q 1566 4138 1362 3434 
Q 1159 2731 1159 2009 
Q 1159 1288 1364 580 
Q 1569 -128 1984 -844 
L 1484 -844 
Q 1016 -109 783 600 
Q 550 1309 550 2009 
Q 550 2706 781 3412 
Q 1013 4119 1484 4856 
L 1984 4856 
z
" transform="scale(0.015625)"/>
       <path id="DejaVuSans-6b" d="M 581 4863 
L 1159 4863 
L 1159 1991 
L 2875 3500 
L 3609 3500 
L 1753 1863 
L 3688 0 
L 2938 0 
L 1159 1709 
L 1159 0 
L 581 0 
L 581 4863 
z
" transform="scale(0.015625)"/>
       <path id="DejaVuSans-2f" d="M 1625 4666 
L 2156 4666 
L 531 -594 
L 0 -594 
L 1625 4666 
z
" transform="scale(0.015625)"/>
       <path id="DejaVuSans-29" d="M 513 4856 
L 1013 4856 
Q 1481 4119 1714 3412 
Q 1947 2706 1947 2009 
Q 1947 1309 1714 600 
Q 1481 -109 1013 -844 
L 513 -844 
Q 928 -128 1133 580 
Q 1338 1288 1338 2009 
Q 1338 2731 1133 3434 
Q 928 4138 513 4856 
z
" transform="scale(0.015625)"/>
      </defs>
      <use xlink:href="#DejaVuSans-54"/>
      <use xlink:href="#DejaVuSans-68" x="61.083984"/>
      <use xlink:href="#DejaVuSans-72" x="124.462891"/>
      <use xlink:href="#DejaVuSans-6f" x="163.326172"/>
      <use xlink:href="#DejaVuSans-75" x="224.507812"/>
      <use xlink:href="#DejaVuSans-67" x="287.886719"/>
      <use xlink:href="#DejaVuSans-68" x="351.363281"/>
      <use xlink:href="#DejaVuSans-70" x="414.742188"/>
      <use xlink:href="#DejaVuSans-75" x="478.21875"/>
      <use xlink:href="#DejaVuSans-74" x="541.597656"/>
      <use xlink:href="#DejaVuSans-20" x="580.806641"/>
      <use xlink:href="#DejaVuSans-28" x="612.59375"/>
      <use xlink:href="#DejaVuSans-74" x="651.607422"/>
      <use xlink:href="#DejaVuSans-61" x="690.816406"/>
      <use xlink:href="#DejaVuSans-73" x="752.095703"/>
      <use xlink:href="#DejaVuSans-6b" x="804.195312"/>
      <use xlink:href="#DejaVuSans-2f" x="862.105469"/>
      <use xlink:href="#DejaVuSans-6d" x="895.796875"/>
      <use xlink:href="#DejaVuSans-73" x="993.208984"/>
      <use xlink:href="#DejaVuSans-29" x="1045.308594"/>
     </g>
    </g>
   </g>
   <g id="line2d_29">
    <path d="M 77.810909 365.233091 
L 79.159988 363.78785 
L 80.509067 363.565274 
L 81.858146 363.222081 
L 83.207225 361.309453 
L 84.556304 361.299032 
L 85.905383 360.99382 
L 87.254462 358.720372 
L 88.603541 358.602772 
L 89.95262 358.032081 
L 91.301699 354.759675 
L 92.650778 355.447467 
L 93.999857 354.585339 
L 95.348936 351.820091 
L 96.698015 351.833111 
L 98.047094 350.592305 
L 99.396173 347.333537 
L 100.745253 347.356062 
L 102.094332 345.735262 
L 103.443411 342.263479 
L 104.79249 342.015434 
L 106.141569 340.018911 
L 108.839727 339.376712 
L 110.188806 338.490264 
L 111.537885 338.449025 
L 112.886964 338.20615 
L 114.236043 337.190368 
L 115.585122 337.081715 
L 116.934201 336.786291 
L 118.28328 335.382248 
L 119.632359 335.670791 
L 120.981438 334.9901 
L 122.330517 333.854174 
L 123.679596 334.18522 
L 125.028675 333.213699 
L 126.377754 331.986559 
L 127.726833 331.976811 
L 129.075912 331.344204 
L 130.424991 329.964741 
L 131.77407 329.978468 
L 133.123149 329.186666 
L 134.472228 327.849238 
L 135.821307 327.899612 
L 137.170386 326.940033 
L 138.519465 325.353255 
L 139.868544 325.366012 
L 141.217623 324.219719 
L 142.566702 322.778878 
L 143.915781 322.701604 
L 145.26486 321.421961 
L 146.613939 319.968993 
L 147.963018 319.855097 
L 149.312097 318.614836 
L 150.661176 316.632033 
L 152.010255 316.582469 
L 154.708414 313.127025 
L 156.057493 313.262196 
L 157.406572 309.202312 
L 158.755651 308.861622 
L 160.10473 308.789588 
L 161.453809 308.380213 
L 162.802888 308.63566 
L 164.151967 308.123083 
L 165.501046 307.739316 
L 166.850125 307.658955 
L 169.548283 307.016584 
L 170.897362 306.871157 
L 172.246441 306.201405 
L 174.944599 305.933233 
L 176.293678 305.527376 
L 177.642757 305.003679 
L 178.991836 305.318396 
L 181.689994 304.162182 
L 183.039073 304.193326 
L 185.737231 303.145542 
L 187.08631 303.150074 
L 188.435389 302.751562 
L 189.784468 302.091897 
L 191.133547 302.452435 
L 193.831705 301.033491 
L 195.180784 302.003416 
L 196.529863 300.486831 
L 197.878942 300.795547 
L 199.228021 299.68616 
L 200.5771 299.213445 
L 201.926179 299.746761 
L 203.275258 298.376307 
L 204.624337 297.985439 
L 205.973417 298.512207 
L 207.322496 297.232666 
L 210.020654 296.432328 
L 211.369733 296.346131 
L 212.718812 295.5232 
L 214.067891 295.060621 
L 215.41697 295.533916 
L 216.766049 294.020415 
L 218.115128 293.610391 
L 219.464207 292.917179 
L 220.813286 291.745313 
L 222.162365 291.291692 
L 223.511444 291.912437 
L 224.860523 290.115395 
L 226.209602 290.341937 
L 227.558681 290.197887 
L 228.90776 289.064489 
L 230.256839 288.13464 
L 231.605918 287.547821 
L 232.954997 287.265826 
L 234.304076 286.535152 
L 235.653155 286.411234 
L 238.351313 284.462838 
L 239.700392 284.343827 
L 241.049471 282.264202 
L 243.747629 282.451507 
L 245.096708 281.190622 
L 246.445787 279.323059 
L 247.794866 280.588086 
L 249.143945 278.941223 
L 250.493024 277.950687 
L 251.842103 278.126219 
L 253.191182 275.905208 
L 254.540261 275.128161 
L 255.88934 274.4924 
L 258.587499 272.685234 
L 259.936578 272.820623 
L 261.285657 270.120494 
L 262.634736 270.142678 
L 263.983815 269.766048 
L 265.332894 268.152178 
L 266.681973 267.239249 
L 268.031052 267.367068 
L 269.380131 265.421873 
L 270.72921 264.42228 
L 272.078289 264.510783 
L 273.427368 261.990716 
L 274.776447 260.887319 
L 276.125526 261.476774 
L 277.474605 257.729376 
L 278.823684 256.776861 
L 280.172763 256.769498 
L 281.521842 254.279473 
L 282.870921 253.740725 
L 284.22 253.009875 
L 285.569079 250.3156 
L 286.918158 249.41723 
L 288.267237 249.325205 
L 289.616316 246.878524 
L 290.965395 245.467034 
L 292.314474 247.767099 
L 293.663553 242.770017 
L 295.012632 241.302782 
L 296.361711 242.825484 
L 297.71079 238.550129 
L 299.059869 235.038175 
L 300.408948 237.909829 
L 301.758027 232.657542 
L 303.107106 229.4942 
L 304.456185 231.271497 
L 305.805264 227.478284 
L 307.154343 226.362688 
L 308.503422 226.192922 
L 309.852501 220.469171 
L 311.201581 221.594194 
L 312.55066 219.782787 
L 313.899739 214.937865 
L 315.248818 212.97276 
L 316.597897 211.572534 
L 317.946976 209.690941 
L 319.296055 206.351646 
L 320.645134 205.015892 
L 321.994213 201.493423 
L 323.343292 198.77437 
L 324.692371 198.061029 
L 326.04145 190.243838 
L 327.390529 191.245889 
L 328.739608 191.527321 
L 330.088687 185.125884 
L 331.437766 186.733184 
L 332.786845 186.448633 
L 334.135924 174.216821 
L 335.485003 178.572579 
L 336.834082 172.352948 
L 338.183161 171.014437 
L 339.53224 164.841806 
L 340.881319 168.854515 
L 342.230398 162.200182 
L 343.579477 160.230178 
L 344.928556 160.342586 
L 346.277635 152.447191 
L 347.626714 149.990227 
L 348.975793 150.073488 
L 350.324872 141.690844 
L 351.673951 139.368449 
L 353.02303 142.627095 
L 354.372109 103.169404 
L 355.721188 100.003119 
L 357.070267 101.279398 
L 358.419346 92.083532 
L 359.768425 90.444115 
L 361.117504 100.688595 
L 362.466583 100.965892 
L 363.815663 89.847036 
L 365.164742 96.577743 
L 366.513821 99.469819 
L 367.8629 100.066518 
L 369.211979 98.012973 
L 370.561058 97.967481 
L 371.910137 99.132767 
L 373.259216 98.058452 
L 374.608295 95.875592 
L 375.957374 82.577848 
L 377.306453 95.256118 
L 378.655532 95.581098 
L 380.004611 96.568293 
L 381.35369 94.078515 
L 382.702769 93.570388 
L 384.051848 77.521515 
L 385.400927 93.182033 
L 386.750006 92.988885 
L 388.099085 92.173741 
L 389.448164 94.889557 
L 390.797243 89.541328 
L 392.146322 70.694909 
L 393.495401 88.443396 
L 394.84448 87.483763 
L 396.193559 88.359617 
L 398.891717 86.491191 
L 400.240796 86.739538 
L 401.589875 85.091751 
L 402.938954 70.76905 
L 404.288033 81.599727 
L 405.637112 84.416657 
L 406.986191 72.085636 
L 408.33527 84.649258 
L 409.684349 85.033786 
L 411.033428 86.794038 
L 412.382507 85.404408 
L 413.731586 74.639547 
L 415.080665 87.100622 
L 416.429745 75.965057 
L 417.778824 83.380533 
L 419.127903 77.01442 
L 420.476982 88.763917 
L 421.826061 79.20492 
L 423.17514 89.716089 
L 424.524219 89.099364 
L 425.873298 89.175699 
L 427.222377 90.288384 
L 428.571456 91.213565 
L 429.920535 91.745844 
L 431.269614 90.45954 
L 432.618693 91.791744 
L 433.967772 91.537042 
L 435.316851 92.885317 
L 436.66593 92.959893 
L 438.015009 90.077698 
L 439.364088 93.891931 
L 440.713167 93.681764 
L 442.062246 95.021834 
L 443.411325 95.847116 
L 444.760404 95.465595 
L 446.109483 96.59799 
L 447.458562 88.149269 
L 448.807641 96.770665 
L 450.15672 97.931346 
L 451.505799 99.569204 
L 452.854878 99.018484 
L 454.203957 100.614918 
L 455.553036 100.834533 
L 456.902115 101.775268 
L 458.251194 96.161425 
L 459.600273 93.026153 
L 460.949352 101.37503 
L 462.298431 93.035813 
L 463.64751 101.430025 
L 464.996589 102.299524 
L 466.345668 101.807922 
L 467.694747 102.58569 
L 469.043827 94.366199 
L 470.392906 98.289657 
L 471.741985 99.443305 
L 473.091064 103.547006 
L 474.440143 104.399707 
L 475.789222 104.45108 
L 477.138301 96.962007 
L 478.48738 98.038389 
L 479.836459 105.773224 
L 481.185538 105.532395 
L 482.534617 105.794867 
L 483.883696 106.715094 
L 485.232775 107.000834 
L 486.581854 102.154942 
L 487.930933 108.462941 
L 489.280012 111.046096 
L 490.629091 111.407369 
L 490.629091 111.407369 
" clip-path="url(#p898ffe12af)" style="fill: none; stroke: #d62728; stroke-width: 1.5; stroke-linecap: square"/>
   </g>
   <g id="line2d_30">
    <path d="M 392.146322 379.96 
L 392.146322 55.968 
" clip-path="url(#p898ffe12af)" style="fill: none; stroke-dasharray: 11.1,4.8; stroke-dashoffset: 0; stroke: #ffd700; stroke-width: 3"/>
   </g>
   <g id="patch_3">
    <path d="M 57.17 379.96 
L 57.17 55.968 
" style="fill: none; stroke: #000000; stroke-width: 0.8; stroke-linejoin: miter; stroke-linecap: square"/>
   </g>
   <g id="patch_4">
    <path d="M 511.27 379.96 
L 511.27 55.968 
" style="fill: none; stroke: #000000; stroke-width: 0.8; stroke-linejoin: miter; stroke-linecap: square"/>
   </g>
   <g id="patch_5">
    <path d="M 57.17 379.96 
L 511.27 379.96 
" style="fill: none; stroke: #000000; stroke-width: 0.8; stroke-linejoin: miter; stroke-linecap: square"/>
   </g>
   <g id="patch_6">
    <path d="M 57.17 55.968 
L 511.27 55.968 
" style="fill: none; stroke: #000000; stroke-width: 0.8; stroke-linejoin: miter; stroke-linecap: square"/>
   </g>
   <g id="text_17">
    <!-- Max Throughput -->
    <g transform="translate(389.23476 300.531022) rotate(-90) scale(0.14 -0.14)">
     <defs>
      <path id="DejaVuSans-4d" d="M 628 4666 
L 1569 4666 
L 2759 1491 
L 3956 4666 
L 4897 4666 
L 4897 0 
L 4281 0 
L 4281 4097 
L 3078 897 
L 2444 897 
L 1241 4097 
L 1241 0 
L 628 0 
L 628 4666 
z
" transform="scale(0.015625)"/>
      <path id="DejaVuSans-78" d="M 3513 3500 
L 2247 1797 
L 3578 0 
L 2900 0 
L 1881 1375 
L 863 0 
L 184 0 
L 1544 1831 
L 300 3500 
L 978 3500 
L 1906 2253 
L 2834 3500 
L 3513 3500 
z
" transform="scale(0.015625)"/>
     </defs>
     <use xlink:href="#DejaVuSans-4d"/>
     <use xlink:href="#DejaVuSans-61" x="86.279297"/>
     <use xlink:href="#DejaVuSans-78" x="147.558594"/>
     <use xlink:href="#DejaVuSans-20" x="206.738281"/>
     <use xlink:href="#DejaVuSans-54" x="238.525391"/>
     <use xlink:href="#DejaVuSans-68" x="299.609375"/>
     <use xlink:href="#DejaVuSans-72" x="362.988281"/>
     <use xlink:href="#DejaVuSans-6f" x="401.851562"/>
     <use xlink:href="#DejaVuSans-75" x="463.033203"/>
     <use xlink:href="#DejaVuSans-67" x="526.412109"/>
     <use xlink:href="#DejaVuSans-68" x="589.888672"/>
     <use xlink:href="#DejaVuSans-70" x="653.267578"/>
     <use xlink:href="#DejaVuSans-75" x="716.744141"/>
     <use xlink:href="#DejaVuSans-74" x="780.123047"/>
    </g>
   </g>
   <g id="legend_1">
    <g id="patch_7">
     <path d="M 64.17 78.646125 
L 154.249688 78.646125 
Q 156.249688 78.646125 156.249688 76.646125 
L 156.249688 62.968 
Q 156.249688 60.968 154.249688 60.968 
L 64.17 60.968 
Q 62.17 60.968 62.17 62.968 
L 62.17 76.646125 
Q 62.17 78.646125 64.17 78.646125 
z
" style="fill: #ffffff; opacity: 0.8; stroke: #cccccc; stroke-linejoin: miter"/>
    </g>
    <g id="line2d_31">
     <path d="M 66.17 69.066438 
L 76.17 69.066438 
L 86.17 69.066438 
" style="fill: none; stroke: #d62728; stroke-width: 1.5; stroke-linecap: square"/>
    </g>
    <g id="text_18">
     <!-- Throughput -->
     <g transform="translate(94.17 72.566438) scale(0.1 -0.1)">
      <use xlink:href="#DejaVuSans-54"/>
      <use xlink:href="#DejaVuSans-68" x="61.083984"/>
      <use xlink:href="#DejaVuSans-72" x="124.462891"/>
      <use xlink:href="#DejaVuSans-6f" x="163.326172"/>
      <use xlink:href="#DejaVuSans-75" x="224.507812"/>
      <use xlink:href="#DejaVuSans-67" x="287.886719"/>
      <use xlink:href="#DejaVuSans-68" x="351.363281"/>
      <use xlink:href="#DejaVuSans-70" x="414.742188"/>
      <use xlink:href="#DejaVuSans-75" x="478.21875"/>
      <use xlink:href="#DejaVuSans-74" x="541.597656"/>
     </g>
    </g>
   </g>
  </g>
  <g id="axes_2">
   <g id="matplotlib.axis_3">
    <g id="ytick_8">
     <g id="line2d_32">
      <defs>
       <path id="mfc5acf48b8" d="M 0 0 
L 3.5 0 
" style="stroke: #000000; stroke-width: 0.8"/>
      </defs>
      <g>
       <use xlink:href="#mfc5acf48b8" x="511.27" y="369.880195" style="stroke: #000000; stroke-width: 0.8"/>
      </g>
     </g>
     <g id="text_19">
      <!-- 100 -->
      <g style="fill: #1f77b4" transform="translate(518.27 374.439258) scale(0.12 -0.12)">
       <use xlink:href="#DejaVuSans-31"/>
       <use xlink:href="#DejaVuSans-30" x="63.623047"/>
       <use xlink:href="#DejaVuSans-30" x="127.246094"/>
      </g>
     </g>
    </g>
    <g id="ytick_9">
     <g id="line2d_33">
      <g>
       <use xlink:href="#mfc5acf48b8" x="511.27" y="324.93321" style="stroke: #000000; stroke-width: 0.8"/>
      </g>
     </g>
     <g id="text_20">
      <!-- 200 -->
      <g style="fill: #1f77b4" transform="translate(518.27 329.492273) scale(0.12 -0.12)">
       <use xlink:href="#DejaVuSans-32"/>
       <use xlink:href="#DejaVuSans-30" x="63.623047"/>
       <use xlink:href="#DejaVuSans-30" x="127.246094"/>
      </g>
     </g>
    </g>
    <g id="ytick_10">
     <g id="line2d_34">
      <g>
       <use xlink:href="#mfc5acf48b8" x="511.27" y="279.986226" style="stroke: #000000; stroke-width: 0.8"/>
      </g>
     </g>
     <g id="text_21">
      <!-- 300 -->
      <g style="fill: #1f77b4" transform="translate(518.27 284.545288) scale(0.12 -0.12)">
       <use xlink:href="#DejaVuSans-33"/>
       <use xlink:href="#DejaVuSans-30" x="63.623047"/>
       <use xlink:href="#DejaVuSans-30" x="127.246094"/>
      </g>
     </g>
    </g>
    <g id="ytick_11">
     <g id="line2d_35">
      <g>
       <use xlink:href="#mfc5acf48b8" x="511.27" y="235.039241" style="stroke: #000000; stroke-width: 0.8"/>
      </g>
     </g>
     <g id="text_22">
      <!-- 400 -->
      <g style="fill: #1f77b4" transform="translate(518.27 239.598304) scale(0.12 -0.12)">
       <defs>
        <path id="DejaVuSans-34" d="M 2419 4116 
L 825 1625 
L 2419 1625 
L 2419 4116 
z
M 2253 4666 
L 3047 4666 
L 3047 1625 
L 3713 1625 
L 3713 1100 
L 3047 1100 
L 3047 0 
L 2419 0 
L 2419 1100 
L 313 1100 
L 313 1709 
L 2253 4666 
z
" transform="scale(0.015625)"/>
       </defs>
       <use xlink:href="#DejaVuSans-34"/>
       <use xlink:href="#DejaVuSans-30" x="63.623047"/>
       <use xlink:href="#DejaVuSans-30" x="127.246094"/>
      </g>
     </g>
    </g>
    <g id="ytick_12">
     <g id="line2d_36">
      <g>
       <use xlink:href="#mfc5acf48b8" x="511.27" y="190.092257" style="stroke: #000000; stroke-width: 0.8"/>
      </g>
     </g>
     <g id="text_23">
      <!-- 500 -->
      <g style="fill: #1f77b4" transform="translate(518.27 194.651319) scale(0.12 -0.12)">
       <use xlink:href="#DejaVuSans-35"/>
       <use xlink:href="#DejaVuSans-30" x="63.623047"/>
       <use xlink:href="#DejaVuSans-30" x="127.246094"/>
      </g>
     </g>
    </g>
    <g id="ytick_13">
     <g id="line2d_37">
      <g>
       <use xlink:href="#mfc5acf48b8" x="511.27" y="145.145272" style="stroke: #000000; stroke-width: 0.8"/>
      </g>
     </g>
     <g id="text_24">
      <!-- 600 -->
      <g style="fill: #1f77b4" transform="translate(518.27 149.704334) scale(0.12 -0.12)">
       <defs>
        <path id="DejaVuSans-36" d="M 2113 2584 
Q 1688 2584 1439 2293 
Q 1191 2003 1191 1497 
Q 1191 994 1439 701 
Q 1688 409 2113 409 
Q 2538 409 2786 701 
Q 3034 994 3034 1497 
Q 3034 2003 2786 2293 
Q 2538 2584 2113 2584 
z
M 3366 4563 
L 3366 3988 
Q 3128 4100 2886 4159 
Q 2644 4219 2406 4219 
Q 1781 4219 1451 3797 
Q 1122 3375 1075 2522 
Q 1259 2794 1537 2939 
Q 1816 3084 2150 3084 
Q 2853 3084 3261 2657 
Q 3669 2231 3669 1497 
Q 3669 778 3244 343 
Q 2819 -91 2113 -91 
Q 1303 -91 875 529 
Q 447 1150 447 2328 
Q 447 3434 972 4092 
Q 1497 4750 2381 4750 
Q 2619 4750 2861 4703 
Q 3103 4656 3366 4563 
z
" transform="scale(0.015625)"/>
       </defs>
       <use xlink:href="#DejaVuSans-36"/>
       <use xlink:href="#DejaVuSans-30" x="63.623047"/>
       <use xlink:href="#DejaVuSans-30" x="127.246094"/>
      </g>
     </g>
    </g>
    <g id="ytick_14">
     <g id="line2d_38">
      <g>
       <use xlink:href="#mfc5acf48b8" x="511.27" y="100.198287" style="stroke: #000000; stroke-width: 0.8"/>
      </g>
     </g>
     <g id="text_25">
      <!-- 700 -->
      <g style="fill: #1f77b4" transform="translate(518.27 104.75735) scale(0.12 -0.12)">
       <defs>
        <path id="DejaVuSans-37" d="M 525 4666 
L 3525 4666 
L 3525 4397 
L 1831 0 
L 1172 0 
L 2766 4134 
L 525 4134 
L 525 4666 
z
" transform="scale(0.015625)"/>
       </defs>
       <use xlink:href="#DejaVuSans-37"/>
       <use xlink:href="#DejaVuSans-30" x="63.623047"/>
       <use xlink:href="#DejaVuSans-30" x="127.246094"/>
      </g>
     </g>
    </g>
    <g id="text_26">
     <!-- Delay (ms) -->
     <g style="fill: #1f77b4" transform="translate(560.371875 272.573375) rotate(-90) scale(0.2 -0.2)">
      <defs>
       <path id="DejaVuSans-44" d="M 1259 4147 
L 1259 519 
L 2022 519 
Q 2988 519 3436 956 
Q 3884 1394 3884 2338 
Q 3884 3275 3436 3711 
Q 2988 4147 2022 4147 
L 1259 4147 
z
M 628 4666 
L 1925 4666 
Q 3281 4666 3915 4102 
Q 4550 3538 4550 2338 
Q 4550 1131 3912 565 
Q 3275 0 1925 0 
L 628 0 
L 628 4666 
z
" transform="scale(0.015625)"/>
      </defs>
      <use xlink:href="#DejaVuSans-44"/>
      <use xlink:href="#DejaVuSans-65" x="77.001953"/>
      <use xlink:href="#DejaVuSans-6c" x="138.525391"/>
      <use xlink:href="#DejaVuSans-61" x="166.308594"/>
      <use xlink:href="#DejaVuSans-79" x="227.587891"/>
      <use xlink:href="#DejaVuSans-20" x="286.767578"/>
      <use xlink:href="#DejaVuSans-28" x="318.554688"/>
      <use xlink:href="#DejaVuSans-6d" x="357.568359"/>
      <use xlink:href="#DejaVuSans-73" x="454.980469"/>
      <use xlink:href="#DejaVuSans-29" x="507.080078"/>
     </g>
    </g>
   </g>
   <g id="line2d_39">
    <path d="M 77.810909 70.694909 
L 79.159988 82.970936 
L 80.509067 84.030265 
L 81.858146 86.104332 
L 83.207225 98.2234 
L 84.556304 98.436543 
L 85.905383 101.092082 
L 87.254462 113.208251 
L 88.603541 113.324226 
L 89.95262 116.814005 
L 91.301699 130.103527 
L 92.650778 129.442156 
L 93.999857 133.441136 
L 95.348936 145.56937 
L 96.698015 145.604382 
L 98.047094 150.285492 
L 99.396173 162.22347 
L 100.745253 162.611493 
L 102.094332 168.102417 
L 103.443411 180.060149 
L 104.79249 180.594486 
L 106.141569 186.705146 
L 107.490648 187.23901 
L 110.188806 191.266556 
L 111.537885 191.271228 
L 112.886964 192.100973 
L 114.236043 195.075458 
L 115.585122 195.283929 
L 116.934201 196.371528 
L 118.28328 199.505811 
L 119.632359 200.414923 
L 120.981438 200.585012 
L 122.330517 204.932095 
L 123.679596 204.478249 
L 125.028675 205.289778 
L 126.377754 209.440218 
L 127.726833 209.509058 
L 129.075912 209.89507 
L 130.424991 213.161296 
L 131.77407 213.109548 
L 133.123149 214.721903 
L 134.472228 217.926623 
L 135.821307 217.99428 
L 137.170386 221.052508 
L 138.519465 223.130005 
L 139.868544 223.166377 
L 141.217623 225.256471 
L 142.566702 228.465626 
L 143.915781 228.490584 
L 145.26486 232.044885 
L 146.613939 233.916986 
L 147.963018 234.131844 
L 149.312097 236.446141 
L 150.661176 239.597516 
L 152.010255 239.700243 
L 153.359335 243.683493 
L 154.708414 246.575713 
L 156.057493 245.73136 
L 157.406572 251.584463 
L 158.755651 252.038486 
L 160.10473 252.152746 
L 161.453809 253.893851 
L 162.802888 252.801048 
L 164.151967 253.245904 
L 165.501046 253.865936 
L 166.850125 255.062058 
L 168.199204 254.449123 
L 169.548283 254.957793 
L 170.897362 255.962477 
L 172.246441 255.759387 
L 173.59552 256.383677 
L 174.944599 256.389414 
L 177.642757 257.567261 
L 178.991836 258.334376 
L 180.340915 258.160561 
L 181.689994 258.9343 
L 183.039073 258.832578 
L 185.737231 260.281349 
L 187.08631 260.304651 
L 188.435389 260.866843 
L 189.784468 261.573812 
L 191.133547 261.577656 
L 192.482626 263.216151 
L 193.831705 263.866759 
L 195.180784 262.894958 
L 196.529863 264.686568 
L 197.878942 264.575797 
L 200.5771 266.240906 
L 201.926179 265.924384 
L 203.275258 267.129791 
L 204.624337 267.638106 
L 205.973417 267.51462 
L 207.322496 268.715533 
L 208.671575 268.786857 
L 210.020654 269.46118 
L 211.369733 269.372764 
L 212.718812 270.349178 
L 214.067891 270.940349 
L 215.41697 270.865359 
L 216.766049 272.258065 
L 218.115128 272.767977 
L 219.464207 273.637228 
L 220.813286 274.99439 
L 222.162365 275.46178 
L 223.511444 274.716547 
L 224.860523 276.71787 
L 226.209602 276.257105 
L 227.558681 276.573744 
L 230.256839 278.937128 
L 231.605918 279.32722 
L 232.954997 279.584542 
L 234.304076 280.187955 
L 235.653155 280.251413 
L 238.351313 282.369599 
L 239.700392 282.431046 
L 241.049471 284.574308 
L 243.747629 284.560528 
L 245.096708 285.727612 
L 246.445787 287.414898 
L 247.794866 286.316713 
L 249.143945 287.874658 
L 250.493024 288.426678 
L 251.842103 288.37493 
L 253.191182 290.631209 
L 254.540261 291.31807 
L 255.88934 291.468051 
L 257.238419 292.3664 
L 258.587499 293.085019 
L 259.936578 292.95071 
L 261.285657 295.223135 
L 262.634736 295.244012 
L 263.983815 295.454435 
L 265.332894 296.823839 
L 266.681973 297.532937 
L 268.031052 297.395376 
L 269.380131 298.941907 
L 270.72921 299.746044 
L 272.078289 299.633499 
L 273.427368 301.523342 
L 274.776447 302.113863 
L 276.125526 301.835665 
L 277.474605 304.118735 
L 278.823684 304.756686 
L 280.172763 304.850602 
L 281.521842 306.529076 
L 282.870921 307.710295 
L 284.22 307.339719 
L 285.569079 309.128904 
L 286.918158 309.723565 
L 288.267237 310.462943 
L 289.616316 311.346979 
L 290.965395 312.782799 
L 292.314474 311.798637 
L 293.663553 314.285388 
L 295.012632 315.091477 
L 296.361711 314.770342 
L 297.71079 316.807742 
L 299.059869 318.456113 
L 300.408948 317.202093 
L 301.758027 319.935579 
L 303.107106 321.358388 
L 304.456185 320.661177 
L 305.805264 322.573553 
L 307.154343 323.133853 
L 308.503422 323.227532 
L 309.852501 325.49487 
L 311.201581 325.517048 
L 312.55066 325.802462 
L 313.899739 328.001138 
L 315.248818 328.861104 
L 316.597897 329.189099 
L 317.946976 331.219519 
L 319.296055 331.643322 
L 320.645134 331.928203 
L 323.343292 335.446961 
L 324.692371 334.628098 
L 326.04145 337.683251 
L 327.390529 337.130225 
L 328.739608 337.062332 
L 330.088687 339.266567 
L 331.437766 340.554239 
L 332.786845 340.644961 
L 334.135924 342.695727 
L 335.485003 344.070276 
L 336.834082 344.213338 
L 338.183161 346.23613 
L 339.53224 347.04553 
L 340.881319 346.842086 
L 342.230398 348.750145 
L 343.579477 349.186249 
L 344.928556 349.145382 
L 346.277635 351.150668 
L 347.626714 351.78726 
L 348.975793 351.81683 
L 350.324872 353.744642 
L 351.673951 354.255145 
L 353.02303 352.018086 
L 354.372109 361.999037 
L 355.721188 361.916891 
L 357.070267 362.325494 
L 358.419346 361.758393 
L 361.117504 362.484465 
L 362.466583 362.580095 
L 363.815663 362.007199 
L 365.164742 362.482809 
L 366.513821 362.820266 
L 369.211979 362.868229 
L 370.561058 363.042753 
L 371.910137 362.84339 
L 375.957374 363.317935 
L 380.004611 363.335441 
L 382.702769 363.536165 
L 384.051848 364.10569 
L 385.400927 363.750787 
L 388.099085 363.753093 
L 389.448164 364.16081 
L 390.797243 364.163767 
L 392.146322 365.060222 
L 393.495401 364.332968 
L 394.84448 364.482713 
L 396.193559 364.338882 
L 397.542638 364.605312 
L 398.891717 364.734416 
L 400.240796 364.685684 
L 402.938954 365.233091 
L 404.288033 364.799885 
L 405.637112 364.984049 
L 406.986191 364.854472 
L 409.684349 364.806863 
L 411.033428 364.589758 
L 412.382507 364.750147 
L 413.731586 364.54694 
L 416.429745 364.29222 
L 417.778824 364.455626 
L 419.127903 364.178256 
L 420.476982 364.250467 
L 421.826061 363.806793 
L 424.524219 364.099717 
L 425.873298 364.071034 
L 428.571456 363.803422 
L 429.920535 363.712877 
L 431.269614 363.844525 
L 432.618693 363.625586 
L 433.967772 363.643446 
L 435.316851 363.424684 
L 436.66593 363.411851 
L 439.364088 363.22881 
L 440.713167 363.270682 
L 443.411325 362.878519 
L 444.760404 362.943929 
L 446.109483 362.741017 
L 447.458562 362.40149 
L 448.807641 362.715054 
L 451.505799 362.206207 
L 452.854878 362.29758 
L 454.203957 361.994306 
L 455.553036 361.966746 
L 456.902115 361.784652 
L 458.251194 362.123588 
L 459.600273 361.633902 
L 460.949352 361.838766 
L 462.298431 361.626095 
L 463.64751 361.803577 
L 469.043827 361.446012 
L 470.392906 361.689967 
L 471.741985 361.481969 
L 475.789222 361.205841 
L 477.138301 361.323354 
L 478.48738 360.786119 
L 479.836459 360.944557 
L 482.534617 360.922734 
L 483.883696 360.744602 
L 485.232775 360.765065 
L 486.581854 360.078322 
L 487.930933 360.269229 
L 489.280012 359.798232 
L 490.629091 359.73501 
L 490.629091 359.73501 
" clip-path="url(#p898ffe12af)" style="fill: none; stroke: #1f77b4; stroke-width: 1.5; stroke-linecap: square"/>
   </g>
   <g id="patch_8">
    <path d="M 57.17 379.96 
L 57.17 55.968 
" style="fill: none; stroke: #000000; stroke-width: 0.8; stroke-linejoin: miter; stroke-linecap: square"/>
   </g>
   <g id="patch_9">
    <path d="M 511.27 379.96 
L 511.27 55.968 
" style="fill: none; stroke: #000000; stroke-width: 0.8; stroke-linejoin: miter; stroke-linecap: square"/>
   </g>
   <g id="patch_10">
    <path d="M 57.17 379.96 
L 511.27 379.96 
" style="fill: none; stroke: #000000; stroke-width: 0.8; stroke-linejoin: miter; stroke-linecap: square"/>
   </g>
   <g id="patch_11">
    <path d="M 57.17 55.968 
L 511.27 55.968 
" style="fill: none; stroke: #000000; stroke-width: 0.8; stroke-linejoin: miter; stroke-linecap: square"/>
   </g>
   <g id="text_27">
    <!-- [super] -->
    <g transform="translate(248.2575 27.572375) scale(0.2 -0.2)">
     <defs>
      <path id="DejaVuSans-5b" d="M 550 4863 
L 1875 4863 
L 1875 4416 
L 1125 4416 
L 1125 -397 
L 1875 -397 
L 1875 -844 
L 550 -844 
L 550 4863 
z
" transform="scale(0.015625)"/>
      <path id="DejaVuSans-5d" d="M 1947 4863 
L 1947 -844 
L 622 -844 
L 622 -397 
L 1369 -397 
L 1369 4416 
L 622 4416 
L 622 4863 
L 1947 4863 
z
" transform="scale(0.015625)"/>
     </defs>
     <use xlink:href="#DejaVuSans-5b"/>
     <use xlink:href="#DejaVuSans-73" x="39.013672"/>
     <use xlink:href="#DejaVuSans-75" x="91.113281"/>
     <use xlink:href="#DejaVuSans-70" x="154.492188"/>
     <use xlink:href="#DejaVuSans-65" x="217.96875"/>
     <use xlink:href="#DejaVuSans-72" x="279.492188"/>
     <use xlink:href="#DejaVuSans-5d" x="320.605469"/>
    </g>
    <!-- GPU-accel [0,M] with densenet201 -->
    <g transform="translate(111.03875 49.968) scale(0.2 -0.2)">
     <defs>
      <path id="DejaVuSans-47" d="M 3809 666 
L 3809 1919 
L 2778 1919 
L 2778 2438 
L 4434 2438 
L 4434 434 
Q 4069 175 3628 42 
Q 3188 -91 2688 -91 
Q 1594 -91 976 548 
Q 359 1188 359 2328 
Q 359 3472 976 4111 
Q 1594 4750 2688 4750 
Q 3144 4750 3555 4637 
Q 3966 4525 4313 4306 
L 4313 3634 
Q 3963 3931 3569 4081 
Q 3175 4231 2741 4231 
Q 1884 4231 1454 3753 
Q 1025 3275 1025 2328 
Q 1025 1384 1454 906 
Q 1884 428 2741 428 
Q 3075 428 3337 486 
Q 3600 544 3809 666 
z
" transform="scale(0.015625)"/>
      <path id="DejaVuSans-50" d="M 1259 4147 
L 1259 2394 
L 2053 2394 
Q 2494 2394 2734 2622 
Q 2975 2850 2975 3272 
Q 2975 3691 2734 3919 
Q 2494 4147 2053 4147 
L 1259 4147 
z
M 628 4666 
L 2053 4666 
Q 2838 4666 3239 4311 
Q 3641 3956 3641 3272 
Q 3641 2581 3239 2228 
Q 2838 1875 2053 1875 
L 1259 1875 
L 1259 0 
L 628 0 
L 628 4666 
z
" transform="scale(0.015625)"/>
      <path id="DejaVuSans-55" d="M 556 4666 
L 1191 4666 
L 1191 1831 
Q 1191 1081 1462 751 
Q 1734 422 2344 422 
Q 2950 422 3222 751 
Q 3494 1081 3494 1831 
L 3494 4666 
L 4128 4666 
L 4128 1753 
Q 4128 841 3676 375 
Q 3225 -91 2344 -91 
Q 1459 -91 1007 375 
Q 556 841 556 1753 
L 556 4666 
z
" transform="scale(0.015625)"/>
      <path id="DejaVuSans-2d" d="M 313 2009 
L 1997 2009 
L 1997 1497 
L 313 1497 
L 313 2009 
z
" transform="scale(0.015625)"/>
      <path id="DejaVuSans-2c" d="M 750 794 
L 1409 794 
L 1409 256 
L 897 -744 
L 494 -744 
L 750 256 
L 750 794 
z
" transform="scale(0.015625)"/>
      <path id="DejaVuSans-77" d="M 269 3500 
L 844 3500 
L 1563 769 
L 2278 3500 
L 2956 3500 
L 3675 769 
L 4391 3500 
L 4966 3500 
L 4050 0 
L 3372 0 
L 2619 2869 
L 1863 0 
L 1184 0 
L 269 3500 
z
" transform="scale(0.015625)"/>
      <path id="DejaVuSans-69" d="M 603 3500 
L 1178 3500 
L 1178 0 
L 603 0 
L 603 3500 
z
M 603 4863 
L 1178 4863 
L 1178 4134 
L 603 4134 
L 603 4863 
z
" transform="scale(0.015625)"/>
      <path id="DejaVuSans-6e" d="M 3513 2113 
L 3513 0 
L 2938 0 
L 2938 2094 
Q 2938 2591 2744 2837 
Q 2550 3084 2163 3084 
Q 1697 3084 1428 2787 
Q 1159 2491 1159 1978 
L 1159 0 
L 581 0 
L 581 3500 
L 1159 3500 
L 1159 2956 
Q 1366 3272 1645 3428 
Q 1925 3584 2291 3584 
Q 2894 3584 3203 3211 
Q 3513 2838 3513 2113 
z
" transform="scale(0.015625)"/>
     </defs>
     <use xlink:href="#DejaVuSans-47"/>
     <use xlink:href="#DejaVuSans-50" x="77.490234"/>
     <use xlink:href="#DejaVuSans-55" x="137.792969"/>
     <use xlink:href="#DejaVuSans-2d" x="210.986328"/>
     <use xlink:href="#DejaVuSans-61" x="247.070312"/>
     <use xlink:href="#DejaVuSans-63" x="308.349609"/>
     <use xlink:href="#DejaVuSans-63" x="363.330078"/>
     <use xlink:href="#DejaVuSans-65" x="418.310547"/>
     <use xlink:href="#DejaVuSans-6c" x="479.833984"/>
     <use xlink:href="#DejaVuSans-20" x="507.617188"/>
     <use xlink:href="#DejaVuSans-5b" x="539.404297"/>
     <use xlink:href="#DejaVuSans-30" x="578.417969"/>
     <use xlink:href="#DejaVuSans-2c" x="642.041016"/>
     <use xlink:href="#DejaVuSans-4d" x="673.828125"/>
     <use xlink:href="#DejaVuSans-5d" x="760.107422"/>
     <use xlink:href="#DejaVuSans-20" x="799.121094"/>
     <use xlink:href="#DejaVuSans-77" x="830.908203"/>
     <use xlink:href="#DejaVuSans-69" x="912.695312"/>
     <use xlink:href="#DejaVuSans-74" x="940.478516"/>
     <use xlink:href="#DejaVuSans-68" x="979.6875"/>
     <use xlink:href="#DejaVuSans-20" x="1043.066406"/>
     <use xlink:href="#DejaVuSans-64" x="1074.853516"/>
     <use xlink:href="#DejaVuSans-65" x="1138.330078"/>
     <use xlink:href="#DejaVuSans-6e" x="1199.853516"/>
     <use xlink:href="#DejaVuSans-73" x="1263.232422"/>
     <use xlink:href="#DejaVuSans-65" x="1315.332031"/>
     <use xlink:href="#DejaVuSans-6e" x="1376.855469"/>
     <use xlink:href="#DejaVuSans-65" x="1440.234375"/>
     <use xlink:href="#DejaVuSans-74" x="1501.757812"/>
     <use xlink:href="#DejaVuSans-32" x="1540.966797"/>
     <use xlink:href="#DejaVuSans-30" x="1604.589844"/>
     <use xlink:href="#DejaVuSans-31" x="1668.212891"/>
    </g>
   </g>
   <g id="legend_2">
    <g id="patch_12">
     <path d="M 443.591875 78.646125 
L 504.27 78.646125 
Q 506.27 78.646125 506.27 76.646125 
L 506.27 62.968 
Q 506.27 60.968 504.27 60.968 
L 443.591875 60.968 
Q 441.591875 60.968 441.591875 62.968 
L 441.591875 76.646125 
Q 441.591875 78.646125 443.591875 78.646125 
z
" style="fill: #ffffff; opacity: 0.8; stroke: #cccccc; stroke-linejoin: miter"/>
    </g>
    <g id="line2d_40">
     <path d="M 445.591875 69.066438 
L 455.591875 69.066438 
L 465.591875 69.066438 
" style="fill: none; stroke: #1f77b4; stroke-width: 1.5; stroke-linecap: square"/>
    </g>
    <g id="text_28">
     <!-- Delay -->
     <g transform="translate(473.591875 72.566438) scale(0.1 -0.1)">
      <use xlink:href="#DejaVuSans-44"/>
      <use xlink:href="#DejaVuSans-65" x="77.001953"/>
      <use xlink:href="#DejaVuSans-6c" x="138.525391"/>
      <use xlink:href="#DejaVuSans-61" x="166.308594"/>
      <use xlink:href="#DejaVuSans-79" x="227.587891"/>
     </g>
    </g>
   </g>
  </g>
 </g>
 <defs>
  <clipPath id="p898ffe12af">
   <rect x="57.17" y="55.968" width="454.1" height="323.992"/>
  </clipPath>
 </defs>
</svg>
