<?xml version="1.0" encoding="utf-8" standalone="no"?>
<!DOCTYPE svg PUBLIC "-//W3C//DTD SVG 1.1//EN"
  "http://www.w3.org/Graphics/SVG/1.1/DTD/svg11.dtd">
<svg xmlns:xlink="http://www.w3.org/1999/xlink" width="864pt" height="432pt" viewBox="0 0 864 432" xmlns="http://www.w3.org/2000/svg" version="1.1">
 <metadata>
  <rdf:RDF xmlns:dc="http://purl.org/dc/elements/1.1/" xmlns:cc="http://creativecommons.org/ns#" xmlns:rdf="http://www.w3.org/1999/02/22-rdf-syntax-ns#">
   <cc:Work>
    <dc:type rdf:resource="http://purl.org/dc/dcmitype/StillImage"/>
    <dc:date>2025-01-16T15:53:29.666464</dc:date>
    <dc:format>image/svg+xml</dc:format>
    <dc:creator>
     <cc:Agent>
      <dc:title>Matplotlib v3.7.5, https://matplotlib.org/</dc:title>
     </cc:Agent>
    </dc:creator>
   </cc:Work>
  </rdf:RDF>
 </metadata>
 <defs>
  <style type="text/css">*{stroke-linejoin: round; stroke-linecap: butt}</style>
 </defs>
 <g id="figure_1">
  <g id="patch_1">
   <path d="M 0 432 
L 864 432 
L 864 0 
L 0 0 
z
" style="fill: #ffffff"/>
  </g>
  <g id="axes_1">
   <g id="patch_2">
    <path d="M 61.04 375.64 
L 853.2 375.64 
L 853.2 64.608 
L 61.04 64.608 
z
" style="fill: #ffffff"/>
   </g>
   <g id="matplotlib.axis_1">
    <g id="xtick_1">
     <g id="line2d_1">
      <defs>
       <path id="ma6f49152ec" d="M 0 0 
L 0 3.5 
" style="stroke: #000000; stroke-width: 0.8"/>
      </defs>
      <g>
       <use xlink:href="#ma6f49152ec" x="97.047273" y="375.64" style="stroke: #000000; stroke-width: 0.8"/>
      </g>
     </g>
     <g id="text_1">
      <!-- 0 -->
      <g transform="translate(92.275398 394.037656) scale(0.15 -0.15)">
       <defs>
        <path id="DejaVuSans-30" d="M 2034 4250 
Q 1547 4250 1301 3770 
Q 1056 3291 1056 2328 
Q 1056 1369 1301 889 
Q 1547 409 2034 409 
Q 2525 409 2770 889 
Q 3016 1369 3016 2328 
Q 3016 3291 2770 3770 
Q 2525 4250 2034 4250 
z
M 2034 4750 
Q 2819 4750 3233 4129 
Q 3647 3509 3647 2328 
Q 3647 1150 3233 529 
Q 2819 -91 2034 -91 
Q 1250 -91 836 529 
Q 422 1150 422 2328 
Q 422 3509 836 4129 
Q 1250 4750 2034 4750 
z
" transform="scale(0.015625)"/>
       </defs>
       <use xlink:href="#DejaVuSans-30"/>
      </g>
     </g>
    </g>
    <g id="xtick_2">
     <g id="line2d_2">
      <g>
       <use xlink:href="#ma6f49152ec" x="215.103905" y="375.64" style="stroke: #000000; stroke-width: 0.8"/>
      </g>
     </g>
     <g id="text_2">
      <!-- 50 -->
      <g transform="translate(205.560155 394.037656) scale(0.15 -0.15)">
       <defs>
        <path id="DejaVuSans-35" d="M 691 4666 
L 3169 4666 
L 3169 4134 
L 1269 4134 
L 1269 2991 
Q 1406 3038 1543 3061 
Q 1681 3084 1819 3084 
Q 2600 3084 3056 2656 
Q 3513 2228 3513 1497 
Q 3513 744 3044 326 
Q 2575 -91 1722 -91 
Q 1428 -91 1123 -41 
Q 819 9 494 109 
L 494 744 
Q 775 591 1075 516 
Q 1375 441 1709 441 
Q 2250 441 2565 725 
Q 2881 1009 2881 1497 
Q 2881 1984 2565 2268 
Q 2250 2553 1709 2553 
Q 1456 2553 1204 2497 
Q 953 2441 691 2322 
L 691 4666 
z
" transform="scale(0.015625)"/>
       </defs>
       <use xlink:href="#DejaVuSans-35"/>
       <use xlink:href="#DejaVuSans-30" x="63.623047"/>
      </g>
     </g>
    </g>
    <g id="xtick_3">
     <g id="line2d_3">
      <g>
       <use xlink:href="#ma6f49152ec" x="333.160537" y="375.64" style="stroke: #000000; stroke-width: 0.8"/>
      </g>
     </g>
     <g id="text_3">
      <!-- 100 -->
      <g transform="translate(318.844912 394.037656) scale(0.15 -0.15)">
       <defs>
        <path id="DejaVuSans-31" d="M 794 531 
L 1825 531 
L 1825 4091 
L 703 3866 
L 703 4441 
L 1819 4666 
L 2450 4666 
L 2450 531 
L 3481 531 
L 3481 0 
L 794 0 
L 794 531 
z
" transform="scale(0.015625)"/>
       </defs>
       <use xlink:href="#DejaVuSans-31"/>
       <use xlink:href="#DejaVuSans-30" x="63.623047"/>
       <use xlink:href="#DejaVuSans-30" x="127.246094"/>
      </g>
     </g>
    </g>
    <g id="xtick_4">
     <g id="line2d_4">
      <g>
       <use xlink:href="#ma6f49152ec" x="451.217168" y="375.64" style="stroke: #000000; stroke-width: 0.8"/>
      </g>
     </g>
     <g id="text_4">
      <!-- 150 -->
      <g transform="translate(436.901543 394.037656) scale(0.15 -0.15)">
       <use xlink:href="#DejaVuSans-31"/>
       <use xlink:href="#DejaVuSans-35" x="63.623047"/>
       <use xlink:href="#DejaVuSans-30" x="127.246094"/>
      </g>
     </g>
    </g>
    <g id="xtick_5">
     <g id="line2d_5">
      <g>
       <use xlink:href="#ma6f49152ec" x="569.2738" y="375.64" style="stroke: #000000; stroke-width: 0.8"/>
      </g>
     </g>
     <g id="text_5">
      <!-- 200 -->
      <g transform="translate(554.958175 394.037656) scale(0.15 -0.15)">
       <defs>
        <path id="DejaVuSans-32" d="M 1228 531 
L 3431 531 
L 3431 0 
L 469 0 
L 469 531 
Q 828 903 1448 1529 
Q 2069 2156 2228 2338 
Q 2531 2678 2651 2914 
Q 2772 3150 2772 3378 
Q 2772 3750 2511 3984 
Q 2250 4219 1831 4219 
Q 1534 4219 1204 4116 
Q 875 4013 500 3803 
L 500 4441 
Q 881 4594 1212 4672 
Q 1544 4750 1819 4750 
Q 2544 4750 2975 4387 
Q 3406 4025 3406 3419 
Q 3406 3131 3298 2873 
Q 3191 2616 2906 2266 
Q 2828 2175 2409 1742 
Q 1991 1309 1228 531 
z
" transform="scale(0.015625)"/>
       </defs>
       <use xlink:href="#DejaVuSans-32"/>
       <use xlink:href="#DejaVuSans-30" x="63.623047"/>
       <use xlink:href="#DejaVuSans-30" x="127.246094"/>
      </g>
     </g>
    </g>
    <g id="xtick_6">
     <g id="line2d_6">
      <g>
       <use xlink:href="#ma6f49152ec" x="687.330432" y="375.64" style="stroke: #000000; stroke-width: 0.8"/>
      </g>
     </g>
     <g id="text_6">
      <!-- 250 -->
      <g transform="translate(673.014807 394.037656) scale(0.15 -0.15)">
       <use xlink:href="#DejaVuSans-32"/>
       <use xlink:href="#DejaVuSans-35" x="63.623047"/>
       <use xlink:href="#DejaVuSans-30" x="127.246094"/>
      </g>
     </g>
    </g>
    <g id="xtick_7">
     <g id="line2d_7">
      <g>
       <use xlink:href="#ma6f49152ec" x="805.387064" y="375.64" style="stroke: #000000; stroke-width: 0.8"/>
      </g>
     </g>
     <g id="text_7">
      <!-- 300 -->
      <g transform="translate(791.071439 394.037656) scale(0.15 -0.15)">
       <defs>
        <path id="DejaVuSans-33" d="M 2597 2516 
Q 3050 2419 3304 2112 
Q 3559 1806 3559 1356 
Q 3559 666 3084 287 
Q 2609 -91 1734 -91 
Q 1441 -91 1130 -33 
Q 819 25 488 141 
L 488 750 
Q 750 597 1062 519 
Q 1375 441 1716 441 
Q 2309 441 2620 675 
Q 2931 909 2931 1356 
Q 2931 1769 2642 2001 
Q 2353 2234 1838 2234 
L 1294 2234 
L 1294 2753 
L 1863 2753 
Q 2328 2753 2575 2939 
Q 2822 3125 2822 3475 
Q 2822 3834 2567 4026 
Q 2313 4219 1838 4219 
Q 1578 4219 1281 4162 
Q 984 4106 628 3988 
L 628 4550 
Q 988 4650 1302 4700 
Q 1616 4750 1894 4750 
Q 2613 4750 3031 4423 
Q 3450 4097 3450 3541 
Q 3450 3153 3228 2886 
Q 3006 2619 2597 2516 
z
" transform="scale(0.015625)"/>
       </defs>
       <use xlink:href="#DejaVuSans-33"/>
       <use xlink:href="#DejaVuSans-30" x="63.623047"/>
       <use xlink:href="#DejaVuSans-30" x="127.246094"/>
      </g>
     </g>
    </g>
    <g id="text_8">
     <!-- Layer Index -->
     <g transform="translate(398.52625 416.354062) scale(0.2 -0.2)">
      <defs>
       <path id="DejaVuSans-4c" d="M 628 4666 
L 1259 4666 
L 1259 531 
L 3531 531 
L 3531 0 
L 628 0 
L 628 4666 
z
" transform="scale(0.015625)"/>
       <path id="DejaVuSans-61" d="M 2194 1759 
Q 1497 1759 1228 1600 
Q 959 1441 959 1056 
Q 959 750 1161 570 
Q 1363 391 1709 391 
Q 2188 391 2477 730 
Q 2766 1069 2766 1631 
L 2766 1759 
L 2194 1759 
z
M 3341 1997 
L 3341 0 
L 2766 0 
L 2766 531 
Q 2569 213 2275 61 
Q 1981 -91 1556 -91 
Q 1019 -91 701 211 
Q 384 513 384 1019 
Q 384 1609 779 1909 
Q 1175 2209 1959 2209 
L 2766 2209 
L 2766 2266 
Q 2766 2663 2505 2880 
Q 2244 3097 1772 3097 
Q 1472 3097 1187 3025 
Q 903 2953 641 2809 
L 641 3341 
Q 956 3463 1253 3523 
Q 1550 3584 1831 3584 
Q 2591 3584 2966 3190 
Q 3341 2797 3341 1997 
z
" transform="scale(0.015625)"/>
       <path id="DejaVuSans-79" d="M 2059 -325 
Q 1816 -950 1584 -1140 
Q 1353 -1331 966 -1331 
L 506 -1331 
L 506 -850 
L 844 -850 
Q 1081 -850 1212 -737 
Q 1344 -625 1503 -206 
L 1606 56 
L 191 3500 
L 800 3500 
L 1894 763 
L 2988 3500 
L 3597 3500 
L 2059 -325 
z
" transform="scale(0.015625)"/>
       <path id="DejaVuSans-65" d="M 3597 1894 
L 3597 1613 
L 953 1613 
Q 991 1019 1311 708 
Q 1631 397 2203 397 
Q 2534 397 2845 478 
Q 3156 559 3463 722 
L 3463 178 
Q 3153 47 2828 -22 
Q 2503 -91 2169 -91 
Q 1331 -91 842 396 
Q 353 884 353 1716 
Q 353 2575 817 3079 
Q 1281 3584 2069 3584 
Q 2775 3584 3186 3129 
Q 3597 2675 3597 1894 
z
M 3022 2063 
Q 3016 2534 2758 2815 
Q 2500 3097 2075 3097 
Q 1594 3097 1305 2825 
Q 1016 2553 972 2059 
L 3022 2063 
z
" transform="scale(0.015625)"/>
       <path id="DejaVuSans-72" d="M 2631 2963 
Q 2534 3019 2420 3045 
Q 2306 3072 2169 3072 
Q 1681 3072 1420 2755 
Q 1159 2438 1159 1844 
L 1159 0 
L 581 0 
L 581 3500 
L 1159 3500 
L 1159 2956 
Q 1341 3275 1631 3429 
Q 1922 3584 2338 3584 
Q 2397 3584 2469 3576 
Q 2541 3569 2628 3553 
L 2631 2963 
z
" transform="scale(0.015625)"/>
       <path id="DejaVuSans-20" transform="scale(0.015625)"/>
       <path id="DejaVuSans-49" d="M 628 4666 
L 1259 4666 
L 1259 0 
L 628 0 
L 628 4666 
z
" transform="scale(0.015625)"/>
       <path id="DejaVuSans-6e" d="M 3513 2113 
L 3513 0 
L 2938 0 
L 2938 2094 
Q 2938 2591 2744 2837 
Q 2550 3084 2163 3084 
Q 1697 3084 1428 2787 
Q 1159 2491 1159 1978 
L 1159 0 
L 581 0 
L 581 3500 
L 1159 3500 
L 1159 2956 
Q 1366 3272 1645 3428 
Q 1925 3584 2291 3584 
Q 2894 3584 3203 3211 
Q 3513 2838 3513 2113 
z
" transform="scale(0.015625)"/>
       <path id="DejaVuSans-64" d="M 2906 2969 
L 2906 4863 
L 3481 4863 
L 3481 0 
L 2906 0 
L 2906 525 
Q 2725 213 2448 61 
Q 2172 -91 1784 -91 
Q 1150 -91 751 415 
Q 353 922 353 1747 
Q 353 2572 751 3078 
Q 1150 3584 1784 3584 
Q 2172 3584 2448 3432 
Q 2725 3281 2906 2969 
z
M 947 1747 
Q 947 1113 1208 752 
Q 1469 391 1925 391 
Q 2381 391 2643 752 
Q 2906 1113 2906 1747 
Q 2906 2381 2643 2742 
Q 2381 3103 1925 3103 
Q 1469 3103 1208 2742 
Q 947 2381 947 1747 
z
" transform="scale(0.015625)"/>
       <path id="DejaVuSans-78" d="M 3513 3500 
L 2247 1797 
L 3578 0 
L 2900 0 
L 1881 1375 
L 863 0 
L 184 0 
L 1544 1831 
L 300 3500 
L 978 3500 
L 1906 2253 
L 2834 3500 
L 3513 3500 
z
" transform="scale(0.015625)"/>
      </defs>
      <use xlink:href="#DejaVuSans-4c"/>
      <use xlink:href="#DejaVuSans-61" x="55.712891"/>
      <use xlink:href="#DejaVuSans-79" x="116.992188"/>
      <use xlink:href="#DejaVuSans-65" x="176.171875"/>
      <use xlink:href="#DejaVuSans-72" x="237.695312"/>
      <use xlink:href="#DejaVuSans-20" x="278.808594"/>
      <use xlink:href="#DejaVuSans-49" x="310.595703"/>
      <use xlink:href="#DejaVuSans-6e" x="340.087891"/>
      <use xlink:href="#DejaVuSans-64" x="403.466797"/>
      <use xlink:href="#DejaVuSans-65" x="466.943359"/>
      <use xlink:href="#DejaVuSans-78" x="526.716797"/>
     </g>
    </g>
   </g>
   <g id="matplotlib.axis_2">
    <g id="ytick_1">
     <g id="line2d_8">
      <path d="M 61.04 361.515462 
L 853.2 361.515462 
" clip-path="url(#pea0662ba5e)" style="fill: none; stroke: #b0b0b0; stroke-opacity: 0.5; stroke-width: 0.8; stroke-linecap: square"/>
     </g>
     <g id="line2d_9">
      <defs>
       <path id="mfc7f407a04" d="M 0 0 
L -3.5 0 
" style="stroke: #000000; stroke-width: 0.8"/>
      </defs>
      <g>
       <use xlink:href="#mfc7f407a04" x="61.04" y="361.515462" style="stroke: #000000; stroke-width: 0.8"/>
      </g>
     </g>
     <g id="text_9">
      <!-- 0 -->
      <g transform="translate(44.49625 367.21429) scale(0.15 -0.15)">
       <use xlink:href="#DejaVuSans-30"/>
      </g>
     </g>
    </g>
    <g id="ytick_2">
     <g id="line2d_10">
      <path d="M 61.04 295.112983 
L 853.2 295.112983 
" clip-path="url(#pea0662ba5e)" style="fill: none; stroke: #b0b0b0; stroke-opacity: 0.5; stroke-width: 0.8; stroke-linecap: square"/>
     </g>
     <g id="line2d_11">
      <g>
       <use xlink:href="#mfc7f407a04" x="61.04" y="295.112983" style="stroke: #000000; stroke-width: 0.8"/>
      </g>
     </g>
     <g id="text_10">
      <!-- 5 -->
      <g transform="translate(44.49625 300.811812) scale(0.15 -0.15)">
       <use xlink:href="#DejaVuSans-35"/>
      </g>
     </g>
    </g>
    <g id="ytick_3">
     <g id="line2d_12">
      <path d="M 61.04 228.710505 
L 853.2 228.710505 
" clip-path="url(#pea0662ba5e)" style="fill: none; stroke: #b0b0b0; stroke-opacity: 0.5; stroke-width: 0.8; stroke-linecap: square"/>
     </g>
     <g id="line2d_13">
      <g>
       <use xlink:href="#mfc7f407a04" x="61.04" y="228.710505" style="stroke: #000000; stroke-width: 0.8"/>
      </g>
     </g>
     <g id="text_11">
      <!-- 10 -->
      <g transform="translate(34.9525 234.409333) scale(0.15 -0.15)">
       <use xlink:href="#DejaVuSans-31"/>
       <use xlink:href="#DejaVuSans-30" x="63.623047"/>
      </g>
     </g>
    </g>
    <g id="ytick_4">
     <g id="line2d_14">
      <path d="M 61.04 162.308026 
L 853.2 162.308026 
" clip-path="url(#pea0662ba5e)" style="fill: none; stroke: #b0b0b0; stroke-opacity: 0.5; stroke-width: 0.8; stroke-linecap: square"/>
     </g>
     <g id="line2d_15">
      <g>
       <use xlink:href="#mfc7f407a04" x="61.04" y="162.308026" style="stroke: #000000; stroke-width: 0.8"/>
      </g>
     </g>
     <g id="text_12">
      <!-- 15 -->
      <g transform="translate(34.9525 168.006854) scale(0.15 -0.15)">
       <use xlink:href="#DejaVuSans-31"/>
       <use xlink:href="#DejaVuSans-35" x="63.623047"/>
      </g>
     </g>
    </g>
    <g id="ytick_5">
     <g id="line2d_16">
      <path d="M 61.04 95.905547 
L 853.2 95.905547 
" clip-path="url(#pea0662ba5e)" style="fill: none; stroke: #b0b0b0; stroke-opacity: 0.5; stroke-width: 0.8; stroke-linecap: square"/>
     </g>
     <g id="line2d_17">
      <g>
       <use xlink:href="#mfc7f407a04" x="61.04" y="95.905547" style="stroke: #000000; stroke-width: 0.8"/>
      </g>
     </g>
     <g id="text_13">
      <!-- 20 -->
      <g transform="translate(34.9525 101.604375) scale(0.15 -0.15)">
       <use xlink:href="#DejaVuSans-32"/>
       <use xlink:href="#DejaVuSans-30" x="63.623047"/>
      </g>
     </g>
    </g>
    <g id="text_14">
     <!-- Execution Time (ms)    -->
     <g transform="translate(26.793125 332.303687) rotate(-90) scale(0.2 -0.2)">
      <defs>
       <path id="DejaVuSans-45" d="M 628 4666 
L 3578 4666 
L 3578 4134 
L 1259 4134 
L 1259 2753 
L 3481 2753 
L 3481 2222 
L 1259 2222 
L 1259 531 
L 3634 531 
L 3634 0 
L 628 0 
L 628 4666 
z
" transform="scale(0.015625)"/>
       <path id="DejaVuSans-63" d="M 3122 3366 
L 3122 2828 
Q 2878 2963 2633 3030 
Q 2388 3097 2138 3097 
Q 1578 3097 1268 2742 
Q 959 2388 959 1747 
Q 959 1106 1268 751 
Q 1578 397 2138 397 
Q 2388 397 2633 464 
Q 2878 531 3122 666 
L 3122 134 
Q 2881 22 2623 -34 
Q 2366 -91 2075 -91 
Q 1284 -91 818 406 
Q 353 903 353 1747 
Q 353 2603 823 3093 
Q 1294 3584 2113 3584 
Q 2378 3584 2631 3529 
Q 2884 3475 3122 3366 
z
" transform="scale(0.015625)"/>
       <path id="DejaVuSans-75" d="M 544 1381 
L 544 3500 
L 1119 3500 
L 1119 1403 
Q 1119 906 1312 657 
Q 1506 409 1894 409 
Q 2359 409 2629 706 
Q 2900 1003 2900 1516 
L 2900 3500 
L 3475 3500 
L 3475 0 
L 2900 0 
L 2900 538 
Q 2691 219 2414 64 
Q 2138 -91 1772 -91 
Q 1169 -91 856 284 
Q 544 659 544 1381 
z
M 1991 3584 
L 1991 3584 
z
" transform="scale(0.015625)"/>
       <path id="DejaVuSans-74" d="M 1172 4494 
L 1172 3500 
L 2356 3500 
L 2356 3053 
L 1172 3053 
L 1172 1153 
Q 1172 725 1289 603 
Q 1406 481 1766 481 
L 2356 481 
L 2356 0 
L 1766 0 
Q 1100 0 847 248 
Q 594 497 594 1153 
L 594 3053 
L 172 3053 
L 172 3500 
L 594 3500 
L 594 4494 
L 1172 4494 
z
" transform="scale(0.015625)"/>
       <path id="DejaVuSans-69" d="M 603 3500 
L 1178 3500 
L 1178 0 
L 603 0 
L 603 3500 
z
M 603 4863 
L 1178 4863 
L 1178 4134 
L 603 4134 
L 603 4863 
z
" transform="scale(0.015625)"/>
       <path id="DejaVuSans-6f" d="M 1959 3097 
Q 1497 3097 1228 2736 
Q 959 2375 959 1747 
Q 959 1119 1226 758 
Q 1494 397 1959 397 
Q 2419 397 2687 759 
Q 2956 1122 2956 1747 
Q 2956 2369 2687 2733 
Q 2419 3097 1959 3097 
z
M 1959 3584 
Q 2709 3584 3137 3096 
Q 3566 2609 3566 1747 
Q 3566 888 3137 398 
Q 2709 -91 1959 -91 
Q 1206 -91 779 398 
Q 353 888 353 1747 
Q 353 2609 779 3096 
Q 1206 3584 1959 3584 
z
" transform="scale(0.015625)"/>
       <path id="DejaVuSans-54" d="M -19 4666 
L 3928 4666 
L 3928 4134 
L 2272 4134 
L 2272 0 
L 1638 0 
L 1638 4134 
L -19 4134 
L -19 4666 
z
" transform="scale(0.015625)"/>
       <path id="DejaVuSans-6d" d="M 3328 2828 
Q 3544 3216 3844 3400 
Q 4144 3584 4550 3584 
Q 5097 3584 5394 3201 
Q 5691 2819 5691 2113 
L 5691 0 
L 5113 0 
L 5113 2094 
Q 5113 2597 4934 2840 
Q 4756 3084 4391 3084 
Q 3944 3084 3684 2787 
Q 3425 2491 3425 1978 
L 3425 0 
L 2847 0 
L 2847 2094 
Q 2847 2600 2669 2842 
Q 2491 3084 2119 3084 
Q 1678 3084 1418 2786 
Q 1159 2488 1159 1978 
L 1159 0 
L 581 0 
L 581 3500 
L 1159 3500 
L 1159 2956 
Q 1356 3278 1631 3431 
Q 1906 3584 2284 3584 
Q 2666 3584 2933 3390 
Q 3200 3197 3328 2828 
z
" transform="scale(0.015625)"/>
       <path id="DejaVuSans-28" d="M 1984 4856 
Q 1566 4138 1362 3434 
Q 1159 2731 1159 2009 
Q 1159 1288 1364 580 
Q 1569 -128 1984 -844 
L 1484 -844 
Q 1016 -109 783 600 
Q 550 1309 550 2009 
Q 550 2706 781 3412 
Q 1013 4119 1484 4856 
L 1984 4856 
z
" transform="scale(0.015625)"/>
       <path id="DejaVuSans-73" d="M 2834 3397 
L 2834 2853 
Q 2591 2978 2328 3040 
Q 2066 3103 1784 3103 
Q 1356 3103 1142 2972 
Q 928 2841 928 2578 
Q 928 2378 1081 2264 
Q 1234 2150 1697 2047 
L 1894 2003 
Q 2506 1872 2764 1633 
Q 3022 1394 3022 966 
Q 3022 478 2636 193 
Q 2250 -91 1575 -91 
Q 1294 -91 989 -36 
Q 684 19 347 128 
L 347 722 
Q 666 556 975 473 
Q 1284 391 1588 391 
Q 1994 391 2212 530 
Q 2431 669 2431 922 
Q 2431 1156 2273 1281 
Q 2116 1406 1581 1522 
L 1381 1569 
Q 847 1681 609 1914 
Q 372 2147 372 2553 
Q 372 3047 722 3315 
Q 1072 3584 1716 3584 
Q 2034 3584 2315 3537 
Q 2597 3491 2834 3397 
z
" transform="scale(0.015625)"/>
       <path id="DejaVuSans-29" d="M 513 4856 
L 1013 4856 
Q 1481 4119 1714 3412 
Q 1947 2706 1947 2009 
Q 1947 1309 1714 600 
Q 1481 -109 1013 -844 
L 513 -844 
Q 928 -128 1133 580 
Q 1338 1288 1338 2009 
Q 1338 2731 1133 3434 
Q 928 4138 513 4856 
z
" transform="scale(0.015625)"/>
      </defs>
      <use xlink:href="#DejaVuSans-45"/>
      <use xlink:href="#DejaVuSans-78" x="63.183594"/>
      <use xlink:href="#DejaVuSans-65" x="119.238281"/>
      <use xlink:href="#DejaVuSans-63" x="180.761719"/>
      <use xlink:href="#DejaVuSans-75" x="235.742188"/>
      <use xlink:href="#DejaVuSans-74" x="299.121094"/>
      <use xlink:href="#DejaVuSans-69" x="338.330078"/>
      <use xlink:href="#DejaVuSans-6f" x="366.113281"/>
      <use xlink:href="#DejaVuSans-6e" x="427.294922"/>
      <use xlink:href="#DejaVuSans-20" x="490.673828"/>
      <use xlink:href="#DejaVuSans-54" x="522.460938"/>
      <use xlink:href="#DejaVuSans-69" x="580.419922"/>
      <use xlink:href="#DejaVuSans-6d" x="608.203125"/>
      <use xlink:href="#DejaVuSans-65" x="705.615234"/>
      <use xlink:href="#DejaVuSans-20" x="767.138672"/>
      <use xlink:href="#DejaVuSans-28" x="798.925781"/>
      <use xlink:href="#DejaVuSans-6d" x="837.939453"/>
      <use xlink:href="#DejaVuSans-73" x="935.351562"/>
      <use xlink:href="#DejaVuSans-29" x="987.451172"/>
      <use xlink:href="#DejaVuSans-20" x="1026.464844"/>
      <use xlink:href="#DejaVuSans-20" x="1058.251953"/>
      <use xlink:href="#DejaVuSans-20" x="1090.039062"/>
     </g>
    </g>
   </g>
   <g id="line2d_18">
    <path d="M 97.047273 130.84027 
L 99.408405 334.057658 
L 101.769538 320.107635 
L 104.130671 79.858344 
L 106.491803 359.07963 
L 108.852936 305.540829 
L 111.214069 79.097562 
L 113.575201 358.141837 
L 115.936334 290.823952 
L 118.297466 79.660465 
L 120.658599 357.253561 
L 123.019732 275.125458 
L 125.380864 79.36393 
L 127.741997 356.312164 
L 130.10313 258.815302 
L 132.464262 79.41857 
L 134.825395 355.385375 
L 137.186528 242.108438 
L 139.54766 78.745818 
L 141.908793 354.436579 
L 144.269925 226.26936 
L 146.631058 347.815682 
L 148.992191 344.264667 
L 151.353323 295.434371 
L 153.714456 360.45492 
L 156.075589 340.78366 
L 158.436721 297.380533 
L 160.797854 360.228393 
L 163.158987 336.705409 
L 165.520119 297.47141 
L 167.881252 359.895811 
L 170.242385 333.054222 
L 172.603517 297.166148 
L 174.96465 359.661505 
L 177.325782 329.035923 
L 179.686915 296.795812 
L 182.048048 359.322283 
L 184.40918 325.037925 
L 186.770313 296.752745 
L 189.131446 359.088926 
L 191.492578 321.284098 
L 193.853711 296.606849 
L 196.214844 358.789166 
L 198.575976 317.3876 
L 200.937109 296.400053 
L 203.298241 358.532284 
L 205.659374 313.513869 
L 208.020507 296.206537 
L 210.381639 358.134817 
L 212.742772 309.467302 
L 215.103905 296.160815 
L 217.465037 357.875089 
L 219.82617 305.660922 
L 222.187303 295.729198 
L 224.548435 357.490144 
L 226.909568 301.674118 
L 229.2707 295.761831 
L 231.631833 357.202337 
L 233.992966 241.124353 
L 236.354098 354.404516 
L 238.715231 353.142299 
L 241.076364 345.996634 
L 243.437496 361.148731 
L 245.798629 352.37943 
L 248.159762 346.617212 
L 250.520894 361.144747 
L 252.882027 351.469716 
L 255.243159 346.506225 
L 257.604292 361.126913 
L 259.965425 350.494169 
L 262.326557 346.628216 
L 264.68769 361.042487 
L 267.048823 349.631695 
L 269.409955 346.565798 
L 271.771088 361.054629 
L 274.132221 348.686124 
L 276.493353 346.657244 
L 278.854486 360.997333 
L 281.215618 347.651573 
L 283.576751 346.602224 
L 285.937884 360.940607 
L 288.299016 346.760262 
L 290.660149 346.627457 
L 293.021282 360.893366 
L 295.382414 345.725712 
L 297.743547 346.486684 
L 300.10468 360.833414 
L 302.465812 344.806322 
L 304.826945 346.542083 
L 307.188077 360.779913 
L 309.54921 343.867201 
L 311.910343 346.577371 
L 314.271475 360.730395 
L 316.632608 342.923148 
L 318.993741 346.52368 
L 321.354873 360.693779 
L 323.716006 342.005086 
L 326.077139 346.520265 
L 328.438271 360.639139 
L 330.799404 340.651993 
L 333.160537 346.549482 
L 335.521669 360.593037 
L 337.882802 339.713442 
L 340.243934 346.495222 
L 342.605067 360.501781 
L 344.9662 338.702606 
L 347.327332 346.499775 
L 349.688465 360.474461 
L 352.049598 337.710553 
L 354.41073 346.511158 
L 356.771863 360.424944 
L 359.132996 336.642991 
L 361.494128 346.514763 
L 363.855261 360.372012 
L 366.216393 335.699127 
L 368.577526 346.522921 
L 370.938659 360.30504 
L 373.299791 334.761714 
L 375.660924 346.490289 
L 378.022057 360.234464 
L 380.383189 333.800016 
L 382.744322 346.486494 
L 385.105455 360.220614 
L 387.466587 332.774762 
L 392.188852 360.135239 
L 394.549985 331.777017 
L 396.911118 346.556312 
L 399.27225 360.077754 
L 401.633383 330.751194 
L 403.994516 346.528423 
L 406.355648 360.035066 
L 408.716781 329.889859 
L 411.077914 346.52368 
L 413.439046 359.970561 
L 415.800179 328.824953 
L 418.161311 346.494652 
L 420.522444 359.935463 
L 422.883577 327.994542 
L 425.244709 346.521593 
L 427.605842 359.861471 
L 429.966975 326.923755 
L 432.328107 346.463538 
L 434.68924 359.831495 
L 437.050373 325.970595 
L 439.411505 346.47587 
L 441.772638 359.757125 
L 444.13377 324.955965 
L 446.494903 346.463159 
L 448.856036 359.697552 
L 451.217168 324.043026 
L 453.578301 346.454242 
L 455.939434 359.647466 
L 458.300566 322.876429 
L 460.661699 346.439064 
L 463.022832 359.606486 
L 465.383964 321.922889 
L 467.745097 346.445135 
L 470.10623 359.54919 
L 472.467362 320.63563 
L 474.828495 346.403586 
L 477.189627 359.490756 
L 479.55076 319.754374 
L 481.911893 346.431475 
L 484.273025 359.443515 
L 486.634158 318.690986 
L 488.995291 346.386511 
L 491.356423 359.393239 
L 493.717556 317.666111 
L 496.078689 346.377025 
L 498.439821 359.341445 
L 500.800954 316.714279 
L 503.162086 346.354259 
L 505.523219 359.301224 
L 507.884352 315.634385 
L 510.245484 346.376456 
L 512.606617 359.171834 
L 514.96775 314.741746 
L 517.328882 346.40074 
L 519.690015 359.204087 
L 522.051148 313.814008 
L 524.41228 346.402448 
L 526.773413 359.100878 
L 529.134545 312.783821 
L 531.495678 346.3258 
L 533.856811 359.086649 
L 536.217943 311.628608 
L 538.579076 346.409088 
L 540.940209 359.010951 
L 543.301341 310.78947 
L 545.662474 346.436408 
L 548.023607 358.960485 
L 550.384739 309.705972 
L 552.745872 346.350274 
L 555.107004 358.828059 
L 557.468137 308.656054 
L 559.82927 346.306828 
L 562.190402 358.804723 
L 564.551535 307.697771 
L 566.912668 346.348946 
L 569.2738 358.699049 
L 571.634933 306.712548 
L 573.996066 346.187304 
L 576.357198 358.641184 
L 578.718331 160.411761 
L 581.079463 357.868069 
L 583.440596 356.716081 
L 585.801729 357.344059 
L 588.162861 361.378483 
L 590.523994 356.754784 
L 592.885127 357.43873 
L 595.246259 361.375448 
L 597.607392 356.556335 
L 599.968525 357.44556 
L 602.329657 361.362547 
L 604.69079 356.31463 
L 607.051923 357.451061 
L 609.413055 361.361598 
L 611.774188 356.070459 
L 614.13532 357.45201 
L 616.496453 361.345282 
L 618.857586 355.642827 
L 621.218718 357.379347 
L 623.579851 361.344334 
L 625.940984 355.358814 
L 628.302116 357.41141 
L 630.663249 361.329915 
L 633.024382 355.105346 
L 635.385514 357.453718 
L 637.746647 361.324792 
L 640.107779 354.879199 
L 642.468912 357.457702 
L 644.830045 361.317393 
L 647.191177 354.542064 
L 649.55231 357.479709 
L 651.913443 361.314547 
L 654.274575 354.213656 
L 656.635708 357.437591 
L 658.996841 361.301836 
L 661.357973 354.009326 
L 663.719106 357.453338 
L 666.080238 361.29918 
L 668.441371 353.724934 
L 673.163636 361.284761 
L 675.524769 353.537869 
L 680.247034 361.28571 
L 682.608167 353.225967 
L 684.9693 357.457891 
L 687.330432 361.267496 
L 689.691565 352.953147 
L 692.052697 357.468895 
L 694.41383 361.275275 
L 696.774963 352.697213 
L 699.136095 357.458271 
L 701.497228 361.259908 
L 703.858361 352.482828 
L 706.219493 357.490903 
L 708.580626 361.248714 
L 710.941759 352.229929 
L 713.302891 357.454476 
L 715.664024 361.241315 
L 718.025156 351.893364 
L 720.386289 357.466049 
L 722.747422 361.232777 
L 725.108554 351.711231 
L 727.469687 357.487488 
L 729.83082 361.234675 
L 732.191952 351.499312 
L 734.553085 357.475346 
L 736.914218 361.225568 
L 739.27535 351.150225 
L 741.636483 357.437212 
L 743.997615 361.203181 
L 746.358748 350.935271 
L 748.719881 357.469275 
L 751.081013 361.209631 
L 753.442146 350.700585 
L 755.803279 357.47269 
L 758.164411 361.184209 
L 760.525544 350.294961 
L 762.886677 357.436453 
L 765.247809 361.178138 
L 767.608942 350.008292 
L 769.970075 357.425829 
L 772.331207 361.188952 
L 774.69234 349.757101 
L 777.053472 357.45865 
L 779.414605 361.16998 
L 781.775738 349.53304 
L 784.13687 357.43133 
L 786.498003 361.169221 
L 788.859136 349.0428 
L 791.220268 357.481986 
L 793.581401 361.160683 
L 795.942534 348.891972 
L 798.303666 357.469085 
L 800.664799 361.15632 
L 803.025931 348.587279 
L 805.387064 357.478761 
L 807.748197 361.143988 
L 810.109329 264.966258 
L 812.470462 360.847643 
L 814.831595 361.378673 
L 817.192727 361.502182 
L 817.192727 361.502182 
" clip-path="url(#pea0662ba5e)" style="fill: none; stroke: #6495ed; stroke-width: 3; stroke-linecap: square"/>
   </g>
   <g id="line2d_19">
    <path d="M 97.047273 351.691142 
L 99.408405 360.536247 
L 101.769538 359.073327 
L 104.130671 357.068562 
L 106.491803 360.705205 
L 108.852936 359.071851 
L 111.214069 357.038607 
L 113.575201 360.609437 
L 115.936334 358.997038 
L 118.297466 357.104862 
L 120.658599 360.507768 
L 125.380864 357.120504 
L 127.741997 360.414067 
L 130.10313 358.349835 
L 132.464262 357.089958 
L 134.825395 360.333351 
L 137.186528 358.325045 
L 139.54766 357.096451 
L 141.908793 360.213088 
L 144.269925 358.211127 
L 146.631058 360.832402 
L 148.992191 360.050476 
L 151.353323 359.549801 
L 153.714456 360.891574 
L 156.075589 359.858794 
L 158.436721 359.557179 
L 160.797854 360.845535 
L 163.158987 359.851859 
L 165.520119 359.565738 
L 167.881252 360.845683 
L 170.242385 359.777045 
L 172.603517 359.565886 
L 174.96465 360.823106 
L 177.325782 359.776603 
L 179.686915 359.560721 
L 182.048048 360.799053 
L 184.40918 359.655603 
L 186.770313 359.571198 
L 189.131446 360.766442 
L 191.492578 359.586692 
L 193.853711 359.567066 
L 196.214844 360.744308 
L 198.575976 359.563229 
L 200.937109 359.572083 
L 203.298241 360.708303 
L 205.659374 359.542423 
L 208.020507 359.568247 
L 210.381639 360.708156 
L 212.742772 359.149026 
L 215.103905 359.558507 
L 217.465037 360.671708 
L 219.82617 359.200672 
L 222.187303 359.55777 
L 224.548435 360.654001 
L 226.909568 359.126301 
L 229.2707 359.563082 
L 231.631833 360.624931 
L 233.992966 358.26484 
L 236.354098 360.946319 
L 238.715231 360.189183 
L 241.076364 360.188298 
L 243.437496 361.081043 
L 245.798629 360.205563 
L 248.159762 360.212351 
L 250.520894 361.048579 
L 252.882027 360.166754 
L 255.243159 360.213383 
L 257.604292 361.01346 
L 259.965425 360.141816 
L 262.326557 360.225779 
L 264.68769 361.051825 
L 267.048823 360.156425 
L 269.409955 360.209842 
L 271.771088 360.999146 
L 274.132221 360.147866 
L 276.493353 360.216482 
L 278.854486 360.97111 
L 281.215618 360.164393 
L 283.576751 360.20999 
L 285.937884 360.958862 
L 288.299016 360.134881 
L 290.660149 360.202021 
L 293.021282 360.92389 
L 295.382414 360.138275 
L 297.743547 360.219286 
L 300.10468 360.901461 
L 302.465812 360.118059 
L 304.826945 360.221057 
L 307.188077 360.900723 
L 309.54921 360.098286 
L 311.910343 360.221647 
L 314.271475 360.898657 
L 316.632608 360.079988 
L 318.993741 360.233747 
L 321.354873 360.876966 
L 323.716006 360.075266 
L 326.077139 360.21604 
L 328.438271 360.883311 
L 330.799404 360.051804 
L 333.160537 360.208219 
L 335.521669 360.874752 
L 337.882802 360.026276 
L 340.243934 360.215449 
L 342.605067 360.872244 
L 344.9662 360.007388 
L 347.327332 360.210875 
L 349.688465 360.864866 
L 352.049598 359.998535 
L 354.41073 360.213088 
L 356.771863 360.844207 
L 359.132996 359.991747 
L 361.494128 360.208219 
L 363.855261 360.862947 
L 366.216393 359.997649 
L 368.577526 360.21058 
L 370.938659 360.847306 
L 373.299791 359.962825 
L 375.660924 360.211465 
L 378.022057 360.807612 
L 380.383189 359.888454 
L 382.744322 360.162918 
L 385.105455 360.79625 
L 387.466587 359.906752 
L 389.82772 360.203644 
L 392.188852 360.818236 
L 394.549985 359.917819 
L 396.911118 360.218105 
L 399.27225 360.816761 
L 401.633383 359.836955 
L 403.994516 360.233747 
L 406.355648 360.798758 
L 408.716781 359.848317 
L 411.077914 360.22991 
L 413.439046 360.803185 
L 415.800179 359.815264 
L 418.161311 360.209252 
L 420.522444 360.798906 
L 422.883577 359.811722 
L 425.244709 360.228435 
L 427.605842 360.792266 
L 429.966975 359.791654 
L 432.328107 360.231091 
L 434.68924 360.789905 
L 437.050373 359.794753 
L 439.411505 360.213088 
L 441.772638 360.788281 
L 444.13377 359.750337 
L 448.856036 360.782379 
L 451.217168 359.746943 
L 455.939434 360.782527 
L 458.300566 359.711381 
L 463.022832 360.771902 
L 465.383964 359.731449 
L 470.10623 360.763934 
L 472.467362 359.699133 
L 477.189627 360.753752 
L 479.55076 359.689542 
L 484.273025 360.74239 
L 486.634158 359.663276 
L 491.356423 360.754047 
L 493.717556 359.662686 
L 498.439821 360.740767 
L 500.800954 359.636862 
L 505.523219 360.738701 
L 507.884352 359.620926 
L 512.606617 360.722174 
L 514.96775 359.593479 
L 517.328882 360.221352 
L 519.690015 360.728962 
L 522.051148 359.644093 
L 526.773413 360.713173 
L 529.134545 359.555409 
L 531.495678 360.224008 
L 533.856811 360.705795 
L 536.217943 359.563082 
L 538.579076 360.212941 
L 540.940209 360.71332 
L 543.301341 359.538144 
L 545.662474 360.230501 
L 548.023607 360.709779 
L 550.384739 359.522503 
L 552.745872 360.228582 
L 555.107004 360.690006 
L 557.468137 359.500664 
L 559.82927 360.218843 
L 562.190402 360.662117 
L 564.551535 359.49181 
L 566.912668 360.213826 
L 569.2738 360.683365 
L 571.634933 359.463331 
L 573.996066 360.210285 
L 576.357198 360.670823 
L 578.718331 356.724007 
L 581.079463 361.058318 
L 583.440596 360.325382 
L 585.801729 360.237288 
L 588.162861 361.132836 
L 590.523994 360.364338 
L 592.885127 360.272113 
L 595.246259 361.127229 
L 597.607392 360.360797 
L 599.968525 360.254848 
L 602.329657 361.127082 
L 604.69079 360.342204 
L 607.051923 360.249241 
L 609.413055 361.131951 
L 611.774188 360.354747 
L 614.13532 360.274769 
L 616.496453 361.128115 
L 618.857586 360.302805 
L 621.218718 360.25898 
L 623.579851 361.129443 
L 625.940984 360.301182 
L 628.302116 360.254701 
L 630.663249 361.116015 
L 633.024382 360.289968 
L 635.385514 360.255881 
L 637.746647 361.122507 
L 640.107779 360.295723 
L 642.468912 360.271227 
L 644.830045 361.129 
L 647.191177 360.283623 
L 649.55231 360.25411 
L 651.913443 361.117195 
L 654.274575 360.280081 
L 656.635708 360.298526 
L 658.996841 361.129885 
L 661.357973 360.279048 
L 663.719106 360.262374 
L 666.080238 361.073074 
L 668.441371 360.284508 
L 670.802504 360.255291 
L 673.163636 361.120884 
L 675.524769 360.25293 
L 677.885902 360.273146 
L 680.247034 361.111883 
L 682.608167 360.254405 
L 684.9693 360.274326 
L 687.330432 361.114539 
L 689.691565 360.252782 
L 692.052697 360.264735 
L 694.41383 361.110555 
L 696.774963 360.268129 
L 699.136095 360.273884 
L 701.497228 361.110555 
L 703.858361 360.241125 
L 706.219493 360.280524 
L 708.580626 361.082813 
L 710.941759 360.271375 
L 713.302891 360.264735 
L 715.664024 361.134902 
L 718.025156 360.269162 
L 720.386289 360.270194 
L 722.747422 361.114982 
L 725.108554 360.260455 
L 727.469687 360.277868 
L 729.83082 361.088863 
L 732.191952 360.284951 
L 734.553085 360.259423 
L 736.914218 361.056105 
L 739.27535 360.282885 
L 741.636483 360.261784 
L 743.997615 361.065106 
L 746.358748 360.252635 
L 748.719881 360.26562 
L 751.081013 361.072041 
L 753.442146 360.243781 
L 755.803279 360.262374 
L 758.164411 361.063188 
L 760.525544 360.268866 
L 762.886677 360.25352 
L 765.247809 361.02733 
L 767.608942 360.271523 
L 769.970075 360.274179 
L 772.331207 361.052563 
L 774.69234 360.223418 
L 777.053472 360.256029 
L 779.414605 361.012132 
L 781.775738 360.231238 
L 784.13687 360.268866 
L 786.498003 361.032495 
L 788.859136 360.25839 
L 791.220268 360.24629 
L 793.581401 361.030724 
L 795.942534 360.271523 
L 798.303666 360.280229 
L 800.664799 361.047694 
L 803.025931 360.215597 
L 805.387064 360.268276 
L 807.748197 361.023641 
L 810.109329 358.892417 
L 812.470462 360.638064 
L 814.831595 356.824939 
L 817.192727 361.488164 
L 817.192727 361.488164 
" clip-path="url(#pea0662ba5e)" style="fill: none; stroke: #00ff00; stroke-width: 3; stroke-linecap: square"/>
   </g>
   <g id="patch_3">
    <path d="M 61.04 375.64 
L 61.04 64.608 
" style="fill: none; stroke: #000000; stroke-width: 0.8; stroke-linejoin: miter; stroke-linecap: square"/>
   </g>
   <g id="patch_4">
    <path d="M 853.2 375.64 
L 853.2 64.608 
" style="fill: none; stroke: #000000; stroke-width: 0.8; stroke-linejoin: miter; stroke-linecap: square"/>
   </g>
   <g id="patch_5">
    <path d="M 61.04 375.64 
L 853.2 375.64 
" style="fill: none; stroke: #000000; stroke-width: 0.8; stroke-linejoin: miter; stroke-linecap: square"/>
   </g>
   <g id="patch_6">
    <path d="M 61.04 64.608 
L 853.2 64.608 
" style="fill: none; stroke: #000000; stroke-width: 0.8; stroke-linejoin: miter; stroke-linecap: square"/>
   </g>
   <g id="text_15">
    <!-- [orin] -->
    <g transform="translate(423.184453 30.613469) scale(0.25 -0.25)">
     <defs>
      <path id="DejaVuSans-5b" d="M 550 4863 
L 1875 4863 
L 1875 4416 
L 1125 4416 
L 1125 -397 
L 1875 -397 
L 1875 -844 
L 550 -844 
L 550 4863 
z
" transform="scale(0.015625)"/>
      <path id="DejaVuSans-5d" d="M 1947 4863 
L 1947 -844 
L 622 -844 
L 622 -397 
L 1369 -397 
L 1369 4416 
L 622 4416 
L 622 4863 
L 1947 4863 
z
" transform="scale(0.015625)"/>
     </defs>
     <use xlink:href="#DejaVuSans-5b"/>
     <use xlink:href="#DejaVuSans-6f" x="39.013672"/>
     <use xlink:href="#DejaVuSans-72" x="100.195312"/>
     <use xlink:href="#DejaVuSans-69" x="141.308594"/>
     <use xlink:href="#DejaVuSans-6e" x="169.091797"/>
     <use xlink:href="#DejaVuSans-5d" x="232.470703"/>
    </g>
    <!-- CPU vs GPU Inference Times with densenet201 -->
    <g transform="translate(163.114141 58.608) scale(0.25 -0.25)">
     <defs>
      <path id="DejaVuSans-43" d="M 4122 4306 
L 4122 3641 
Q 3803 3938 3442 4084 
Q 3081 4231 2675 4231 
Q 1875 4231 1450 3742 
Q 1025 3253 1025 2328 
Q 1025 1406 1450 917 
Q 1875 428 2675 428 
Q 3081 428 3442 575 
Q 3803 722 4122 1019 
L 4122 359 
Q 3791 134 3420 21 
Q 3050 -91 2638 -91 
Q 1578 -91 968 557 
Q 359 1206 359 2328 
Q 359 3453 968 4101 
Q 1578 4750 2638 4750 
Q 3056 4750 3426 4639 
Q 3797 4528 4122 4306 
z
" transform="scale(0.015625)"/>
      <path id="DejaVuSans-50" d="M 1259 4147 
L 1259 2394 
L 2053 2394 
Q 2494 2394 2734 2622 
Q 2975 2850 2975 3272 
Q 2975 3691 2734 3919 
Q 2494 4147 2053 4147 
L 1259 4147 
z
M 628 4666 
L 2053 4666 
Q 2838 4666 3239 4311 
Q 3641 3956 3641 3272 
Q 3641 2581 3239 2228 
Q 2838 1875 2053 1875 
L 1259 1875 
L 1259 0 
L 628 0 
L 628 4666 
z
" transform="scale(0.015625)"/>
      <path id="DejaVuSans-55" d="M 556 4666 
L 1191 4666 
L 1191 1831 
Q 1191 1081 1462 751 
Q 1734 422 2344 422 
Q 2950 422 3222 751 
Q 3494 1081 3494 1831 
L 3494 4666 
L 4128 4666 
L 4128 1753 
Q 4128 841 3676 375 
Q 3225 -91 2344 -91 
Q 1459 -91 1007 375 
Q 556 841 556 1753 
L 556 4666 
z
" transform="scale(0.015625)"/>
      <path id="DejaVuSans-76" d="M 191 3500 
L 800 3500 
L 1894 563 
L 2988 3500 
L 3597 3500 
L 2284 0 
L 1503 0 
L 191 3500 
z
" transform="scale(0.015625)"/>
      <path id="DejaVuSans-47" d="M 3809 666 
L 3809 1919 
L 2778 1919 
L 2778 2438 
L 4434 2438 
L 4434 434 
Q 4069 175 3628 42 
Q 3188 -91 2688 -91 
Q 1594 -91 976 548 
Q 359 1188 359 2328 
Q 359 3472 976 4111 
Q 1594 4750 2688 4750 
Q 3144 4750 3555 4637 
Q 3966 4525 4313 4306 
L 4313 3634 
Q 3963 3931 3569 4081 
Q 3175 4231 2741 4231 
Q 1884 4231 1454 3753 
Q 1025 3275 1025 2328 
Q 1025 1384 1454 906 
Q 1884 428 2741 428 
Q 3075 428 3337 486 
Q 3600 544 3809 666 
z
" transform="scale(0.015625)"/>
      <path id="DejaVuSans-66" d="M 2375 4863 
L 2375 4384 
L 1825 4384 
Q 1516 4384 1395 4259 
Q 1275 4134 1275 3809 
L 1275 3500 
L 2222 3500 
L 2222 3053 
L 1275 3053 
L 1275 0 
L 697 0 
L 697 3053 
L 147 3053 
L 147 3500 
L 697 3500 
L 697 3744 
Q 697 4328 969 4595 
Q 1241 4863 1831 4863 
L 2375 4863 
z
" transform="scale(0.015625)"/>
      <path id="DejaVuSans-77" d="M 269 3500 
L 844 3500 
L 1563 769 
L 2278 3500 
L 2956 3500 
L 3675 769 
L 4391 3500 
L 4966 3500 
L 4050 0 
L 3372 0 
L 2619 2869 
L 1863 0 
L 1184 0 
L 269 3500 
z
" transform="scale(0.015625)"/>
      <path id="DejaVuSans-68" d="M 3513 2113 
L 3513 0 
L 2938 0 
L 2938 2094 
Q 2938 2591 2744 2837 
Q 2550 3084 2163 3084 
Q 1697 3084 1428 2787 
Q 1159 2491 1159 1978 
L 1159 0 
L 581 0 
L 581 4863 
L 1159 4863 
L 1159 2956 
Q 1366 3272 1645 3428 
Q 1925 3584 2291 3584 
Q 2894 3584 3203 3211 
Q 3513 2838 3513 2113 
z
" transform="scale(0.015625)"/>
     </defs>
     <use xlink:href="#DejaVuSans-43"/>
     <use xlink:href="#DejaVuSans-50" x="69.824219"/>
     <use xlink:href="#DejaVuSans-55" x="130.126953"/>
     <use xlink:href="#DejaVuSans-20" x="203.320312"/>
     <use xlink:href="#DejaVuSans-76" x="235.107422"/>
     <use xlink:href="#DejaVuSans-73" x="294.287109"/>
     <use xlink:href="#DejaVuSans-20" x="346.386719"/>
     <use xlink:href="#DejaVuSans-47" x="378.173828"/>
     <use xlink:href="#DejaVuSans-50" x="455.664062"/>
     <use xlink:href="#DejaVuSans-55" x="515.966797"/>
     <use xlink:href="#DejaVuSans-20" x="589.160156"/>
     <use xlink:href="#DejaVuSans-49" x="620.947266"/>
     <use xlink:href="#DejaVuSans-6e" x="650.439453"/>
     <use xlink:href="#DejaVuSans-66" x="713.818359"/>
     <use xlink:href="#DejaVuSans-65" x="749.023438"/>
     <use xlink:href="#DejaVuSans-72" x="810.546875"/>
     <use xlink:href="#DejaVuSans-65" x="849.410156"/>
     <use xlink:href="#DejaVuSans-6e" x="910.933594"/>
     <use xlink:href="#DejaVuSans-63" x="974.3125"/>
     <use xlink:href="#DejaVuSans-65" x="1029.292969"/>
     <use xlink:href="#DejaVuSans-20" x="1090.816406"/>
     <use xlink:href="#DejaVuSans-54" x="1122.603516"/>
     <use xlink:href="#DejaVuSans-69" x="1180.5625"/>
     <use xlink:href="#DejaVuSans-6d" x="1208.345703"/>
     <use xlink:href="#DejaVuSans-65" x="1305.757812"/>
     <use xlink:href="#DejaVuSans-73" x="1367.28125"/>
     <use xlink:href="#DejaVuSans-20" x="1419.380859"/>
     <use xlink:href="#DejaVuSans-77" x="1451.167969"/>
     <use xlink:href="#DejaVuSans-69" x="1532.955078"/>
     <use xlink:href="#DejaVuSans-74" x="1560.738281"/>
     <use xlink:href="#DejaVuSans-68" x="1599.947266"/>
     <use xlink:href="#DejaVuSans-20" x="1663.326172"/>
     <use xlink:href="#DejaVuSans-64" x="1695.113281"/>
     <use xlink:href="#DejaVuSans-65" x="1758.589844"/>
     <use xlink:href="#DejaVuSans-6e" x="1820.113281"/>
     <use xlink:href="#DejaVuSans-73" x="1883.492188"/>
     <use xlink:href="#DejaVuSans-65" x="1935.591797"/>
     <use xlink:href="#DejaVuSans-6e" x="1997.115234"/>
     <use xlink:href="#DejaVuSans-65" x="2060.494141"/>
     <use xlink:href="#DejaVuSans-74" x="2122.017578"/>
     <use xlink:href="#DejaVuSans-32" x="2161.226562"/>
     <use xlink:href="#DejaVuSans-30" x="2224.849609"/>
     <use xlink:href="#DejaVuSans-31" x="2288.472656"/>
    </g>
   </g>
   <g id="legend_1">
    <g id="patch_7">
     <path d="M 632.671875 139.3205 
L 839.2 139.3205 
Q 843.2 139.3205 843.2 135.3205 
L 843.2 78.608 
Q 843.2 74.608 839.2 74.608 
L 632.671875 74.608 
Q 628.671875 74.608 628.671875 78.608 
L 628.671875 135.3205 
Q 628.671875 139.3205 632.671875 139.3205 
z
" style="fill: #ffffff; opacity: 0.8; stroke: #cccccc; stroke-linejoin: miter"/>
    </g>
    <g id="line2d_20">
     <path d="M 636.671875 90.804875 
L 656.671875 90.804875 
L 676.671875 90.804875 
" style="fill: none; stroke: #6495ed; stroke-width: 3; stroke-linecap: square"/>
    </g>
    <g id="text_16">
     <!-- CPU Inference -->
     <g transform="translate(692.671875 97.804875) scale(0.2 -0.2)">
      <use xlink:href="#DejaVuSans-43"/>
      <use xlink:href="#DejaVuSans-50" x="69.824219"/>
      <use xlink:href="#DejaVuSans-55" x="130.126953"/>
      <use xlink:href="#DejaVuSans-20" x="203.320312"/>
      <use xlink:href="#DejaVuSans-49" x="235.107422"/>
      <use xlink:href="#DejaVuSans-6e" x="264.599609"/>
      <use xlink:href="#DejaVuSans-66" x="327.978516"/>
      <use xlink:href="#DejaVuSans-65" x="363.183594"/>
      <use xlink:href="#DejaVuSans-72" x="424.707031"/>
      <use xlink:href="#DejaVuSans-65" x="463.570312"/>
      <use xlink:href="#DejaVuSans-6e" x="525.09375"/>
      <use xlink:href="#DejaVuSans-63" x="588.472656"/>
      <use xlink:href="#DejaVuSans-65" x="643.453125"/>
     </g>
    </g>
    <g id="line2d_21">
     <path d="M 636.671875 120.161125 
L 656.671875 120.161125 
L 676.671875 120.161125 
" style="fill: none; stroke: #00ff00; stroke-width: 3; stroke-linecap: square"/>
    </g>
    <g id="text_17">
     <!-- GPU Inference -->
     <g transform="translate(692.671875 127.161125) scale(0.2 -0.2)">
      <use xlink:href="#DejaVuSans-47"/>
      <use xlink:href="#DejaVuSans-50" x="77.490234"/>
      <use xlink:href="#DejaVuSans-55" x="137.792969"/>
      <use xlink:href="#DejaVuSans-20" x="210.986328"/>
      <use xlink:href="#DejaVuSans-49" x="242.773438"/>
      <use xlink:href="#DejaVuSans-6e" x="272.265625"/>
      <use xlink:href="#DejaVuSans-66" x="335.644531"/>
      <use xlink:href="#DejaVuSans-65" x="370.849609"/>
      <use xlink:href="#DejaVuSans-72" x="432.373047"/>
      <use xlink:href="#DejaVuSans-65" x="471.236328"/>
      <use xlink:href="#DejaVuSans-6e" x="532.759766"/>
      <use xlink:href="#DejaVuSans-63" x="596.138672"/>
      <use xlink:href="#DejaVuSans-65" x="651.119141"/>
     </g>
    </g>
   </g>
  </g>
 </g>
 <defs>
  <clipPath id="pea0662ba5e">
   <rect x="61.04" y="64.608" width="792.16" height="311.032"/>
  </clipPath>
 </defs>
</svg>
